<svg width="1920" height="1520" xmlns="http://www.w3.org/2000/svg" version="1.1"><g transform="translate(0, 10)"><g class="links" fill="none" stroke-opacity="0.4"><path d="M5,626.6481337639068C481.25,626.6481337639068,481.25,478.002549934768,957.5,478.002549934768" stroke-width="5.447644263232248" style="stroke: rgb(191, 105, 105);"></path><path d="M5,1496.8722946925989C481.25,1496.8722946925989,481.25,455.2025321663855,957.5,455.2025321663855" stroke-width="6.255410614803759" style="stroke: rgb(191, 115, 105);"></path><path d="M5,1457.5816495579747C481.25,1457.5816495579747,481.25,1298.837060172778,957.5,1298.837060172778" stroke-width="52.32587965444471" style="stroke: rgb(191, 125, 105);"></path><path d="M5,1063.2410158078992C481.25,1063.2410158078992,481.25,483.82455006056466,957.5,483.82455006056466" stroke-width="6.196355988361172" style="stroke: rgb(191, 135, 105);"></path><path d="M5,1049.8017520119292C481.25,1049.8017520119292,481.25,441.7337410571942,957.5,441.7337410571942" stroke-width="20.682171603578794" style="stroke: rgb(191, 135, 105);"></path><path d="M5,1031.1132831603925C481.25,1031.1132831603925,481.25,358.6314362648713,957.5,358.6314362648713" stroke-width="16.69476609949467" style="stroke: rgb(191, 135, 105);"></path><path d="M5,1020.2562815233703C481.25,1020.2562815233703,481.25,318.5059484064827,957.5,318.5059484064827" stroke-width="5.0192371745500255" style="stroke: rgb(191, 135, 105);"></path><path d="M5,993.4414203877376C481.25,993.4414203877376,481.25,272.5113414435866,957.5,272.5113414435866" stroke-width="48.610485096715486" style="stroke: rgb(191, 135, 105);"></path><path d="M5,1243.878951766416C481.25,1243.878951766416,481.25,1095.1343623812193,957.5,1095.1343623812193" stroke-width="355.0795159286727" style="stroke: rgb(191, 135, 105);"></path><path d="M5,939.6717468592057C481.25,939.6717468592057,481.25,898.1301734367089,957.5,898.1301734367089" stroke-width="38.928861960347824" style="stroke: rgb(191, 145, 105);"></path><path d="M5,885.4929982206381C481.25,885.4929982206381,481.25,853.9514247981414,957.5,853.9514247981414" stroke-width="49.428635316787215" style="stroke: rgb(191, 155, 105);"></path><path d="M5,849.3266937879802C481.25,849.3266937879802,481.25,378.4308060888832,957.5,378.4308060888832" stroke-width="2.9039735485291427" style="stroke: rgb(191, 166, 105);"></path><path d="M5,837.0079005383111C481.25,837.0079005383111,481.25,828.3703006643433,957.5,828.3703006643433" stroke-width="1.7336129508089206" style="stroke: rgb(191, 176, 105);"></path><path d="M5,795.4337905110938C481.25,795.4337905110938,481.25,796.7961906371262,957.5,796.7961906371262" stroke-width="61.41460710362528" style="stroke: rgb(191, 186, 105);"></path><path d="M5,420.98161128182596C481.25,420.98161128182596,481.25,672.7080338924915,957.5,672.7080338924915" stroke-width="53.792731603587384" style="stroke: rgb(186, 191, 105);"></path><path d="M5,749.4860704851545C481.25,749.4860704851545,481.25,242.96568242110223,957.5,242.96568242110223" stroke-width="10.480832948253239" style="stroke: rgb(176, 191, 105);"></path><path d="M5,732.2283845183252C481.25,732.2283845183252,481.25,313.97906032650525,957.5,313.97906032650525" stroke-width="4.03453898540495" style="stroke: rgb(166, 191, 105);"></path><path d="M5,716.4005833486739C481.25,716.4005833486739,481.25,233.91473427002649,957.5,233.91473427002649" stroke-width="7.621063353898212" style="stroke: rgb(155, 191, 105);"></path><path d="M5,664.5410630380644C481.25,664.5410630380644,481.25,227.78427813985664,957.5,227.78427813985664" stroke-width="4.639848906441463" style="stroke: rgb(145, 191, 105);"></path><path d="M5,684.7255195815048C481.25,684.7255195815048,481.25,748.2243549950938,957.5,748.2243549950938" stroke-width="35.729064180439536" style="stroke: rgb(145, 191, 105);"></path><path d="M5,650.8050892772595C481.25,650.8050892772595,481.25,728.9437735972904,957.5,728.9437735972904" stroke-width="2.832098615167291" style="stroke: rgb(135, 191, 105);"></path><path d="M5,607.8730397507396C481.25,607.8730397507396,481.25,425.34138337385394,957.5,425.34138337385394" stroke-width="12.102543763101698" style="stroke: rgb(125, 191, 105);"></path><path d="M5,590.2364295993103C481.25,590.2364295993103,481.25,223.87901541675748,957.5,223.87901541675748" stroke-width="3.1706765397568364" style="stroke: rgb(115, 191, 105);"></path><path d="M5,575.0520657114314C481.25,575.0520657114314,481.25,415.6910858743026,957.5,415.6910858743026" stroke-width="7.19805123600102" style="stroke: rgb(105, 191, 105);"></path><path d="M5,555.2602227418209C481.25,555.2602227418209,481.25,721.3178228639445,957.5,721.3178228639445" stroke-width="12.385634703219402" style="stroke: rgb(105, 191, 115);"></path><path d="M5,524.650461593893C481.25,524.650461593893,481.25,217.87673335056104,957.5,217.87673335056104" stroke-width="5.067675890738198" style="stroke: rgb(105, 191, 125);"></path><path d="M5,138.4382209509094C481.25,138.4382209509094,481.25,529.7522430568625,957.5,529.7522430568625" stroke-width="32.14561436518935" style="stroke: rgb(105, 191, 135);"></path><path d="M5,118.89116860363248C481.25,118.89116860363248,481.25,471.80448263846966,957.5,471.80448263846966" stroke-width="6.94849032936447" style="stroke: rgb(105, 191, 135);"></path><path d="M5,113.90206785190851C481.25,113.90206785190851,481.25,348.7691976280822,957.5,348.7691976280822" stroke-width="3.0297111740834715" style="stroke: rgb(105, 191, 135);"></path><path d="M5,509.64385619233684C481.25,509.64385619233684,481.25,712.6522380561478,957.5,712.6522380561478" stroke-width="4.94553491237389" style="stroke: rgb(105, 191, 145);"></path><path d="M5,491.8835532833121C481.25,491.8835532833121,481.25,704.891935147123,957.5,704.891935147123" stroke-width="10.575070905675618" style="stroke: rgb(105, 191, 155);"></path><path d="M5,462.1947513551738C481.25,462.1947513551738,481.25,211.02612113363787,957.5,211.02612113363787" stroke-width="8.633548543108121" style="stroke: rgb(105, 191, 166);"></path><path d="M5,380.7134612524368C481.25,380.7134612524368,481.25,203.33756263448822,957.5,203.33756263448822" stroke-width="6.743568455191153" style="stroke: rgb(105, 191, 176);"></path><path d="M5,360.6351337320539C481.25,360.6351337320539,481.25,193.2592351141052,957.5,193.2592351141052" stroke-width="13.413086585574877" style="stroke: rgb(105, 191, 186);"></path><path d="M5,337.91737476553345C481.25,337.91737476553345,481.25,406.0808445825691,957.5,406.0808445825691" stroke-width="12.022431347465929" style="stroke: rgb(105, 186, 191);"></path><path d="M5,310.2055250753067C481.25,310.2055250753067,481.25,184.9720233917425,957.5,184.9720233917425" stroke-width="3.1613368591504942" style="stroke: rgb(105, 176, 191);"></path><path d="M5,298.62455209092906C481.25,298.62455209092906,481.25,645.8113635358955,957.5,645.8113635358955" stroke-width="0.0006091096047614538" style="stroke: rgb(105, 166, 191);"></path><path d="M5,238.94873429548585C481.25,238.94873429548585,481.25,596.1355457404521,957.5,596.1355457404521" stroke-width="99.35102648128178" style="stroke: rgb(105, 155, 191);"></path><path d="M5,166.57463346399743C481.25,166.57463346399743,481.25,181.327749631674,957.5,181.327749631674" stroke-width="4.127210660986513" style="stroke: rgb(105, 145, 191);"></path><path d="M5,99.05206162921465C481.25,99.05206162921465,481.25,510.3442852386158,957.5,510.3442852386158" stroke-width="6.670301271304132" style="stroke: rgb(105, 135, 191);"></path><path d="M5,83.1443075726334C481.25,83.1443075726334,481.25,309.38918741287347,957.5,309.38918741287347" stroke-width="5.145206841858549" style="stroke: rgb(105, 125, 191);"></path><path d="M5,67.05954916543034C481.25,67.05954916543034,481.25,396.43750833564354,957.5,396.43750833564354" stroke-width="7.024309972547634" style="stroke: rgb(105, 115, 191);"></path><path d="M5,51.41532202856638C481.25,51.41532202856638,481.25,177.13207215059037,957.5,177.13207215059037" stroke-width="4.264144301180743" style="stroke: rgb(105, 105, 191);"></path><path d="M5,31.163862354334658C481.25,31.163862354334658,481.25,339.1349545173992,957.5,339.1349545173992" stroke-width="16.238775047282537" style="stroke: rgb(115, 105, 191);"></path><path d="M5,11.523194587582294C481.25,11.523194587582294,481.25,391.40407310625875,957.5,391.40407310625875" stroke-width="3.0425604862220106" style="stroke: rgb(125, 105, 191);"></path><path d="M5,0.0009571722353715922C481.25,0.0009571722353715922,481.25,507.0081774307277,957.5,507.0081774307277" stroke-width="0.0019143444721074264" style="stroke: rgb(135, 105, 191);"></path><path d="M5,639.3804979325992C481.25,639.3804979325992,481.25,727.5191822526303,957.5,727.5191822526303" stroke-width="0.017084074152595063" style="stroke: rgb(145, 105, 191);"></path><path d="M5,538.1258524647369C481.25,538.1258524647369,481.25,221.3521242214046,957.5,221.3521242214046" stroke-width="1.883105850948946" style="stroke: rgb(155, 105, 191);"></path><path d="M5,178.9557299246678C481.25,178.9557299246678,481.25,546.1425413696343,957.5,546.1425413696343" stroke-width="0.6349822603541785" style="stroke: rgb(166, 105, 191);"></path><path d="M5,321.8461762983412C481.25,321.8461762983412,481.25,400.00964611537677,957.5,400.00964611537677" stroke-width="0.11996558691873205" style="stroke: rgb(176, 105, 191);"></path><path d="M5,476.5537717286011C481.25,476.5537717286011,481.25,496.96497415661844,957.5,496.96497415661844" stroke-width="0.08449220374619595" style="stroke: rgb(186, 105, 191);"></path><path d="M962.5,477.62648276426637C1438.75,477.62648276426637,1438.75,644.9192612864816,1915,644.9192612864816" stroke-width="18.59249058095789" style="stroke: rgb(191, 105, 186);"></path><path d="M962.5,424.1065151684675C1438.75,424.1065151684675,1438.75,601.399293690683,1915,601.399293690683" stroke-width="68.44744461063958" style="stroke: rgb(191, 105, 176);"></path><path d="M962.5,595.6536095195993C1438.75,595.6536095195993,1438.75,293.64638926110786,1915,293.64638926110786" stroke-width="177.29277852221523" style="stroke: rgb(191, 105, 166);"></path><path d="M962.5,1004.6499993903536C1438.75,1004.6499993903536,1438.75,974.6499993903535,1915,974.6499993903535" stroke-width="640.7000012192934" style="stroke: rgb(191, 105, 166);"></path><path d="M962.5,348.99719315418827C1438.75,348.99719315418827,1438.75,546.2899716764036,1915,546.2899716764036" stroke-width="35.963252320860676" style="stroke: rgb(191, 105, 155);"></path><path d="M962.5,313.91607549285095C1438.75,313.91607549285095,1438.75,521.2088540150665,1915,521.2088540150665" stroke-width="14.198983001813524" style="stroke: rgb(191, 105, 145);"></path><path d="M962.5,235.90829199597215C1438.75,235.90829199597215,1438.75,453.20107051818763,1915,453.20107051818763" stroke-width="121.81658399194428" style="stroke: rgb(191, 105, 135);"></path><path d="M962.5,378.4308060888832C1438.75,378.4308060888832,1438.75,565.7235846110985,1915,565.7235846110985" stroke-width="2.9039735485291427" style="stroke: rgb(191, 105, 125);"></path><path d="M962.5,496.96497415661844C1438.75,496.96497415661844,1438.75,654.2577526788336,1915,654.2577526788336" stroke-width="0.08449220374619595" style="stroke: rgb(191, 105, 115);"></path></g><g class="nodes" font-family="Arial, Helvetica" font-size="10"><g><rect x="957.5" y="175" height="121.81658399194419" width="5" fill="#000"></rect><text x="951.5" y="235.9082919959721" dy="0.35em" text-anchor="end">Asia</text></g><g><rect x="957.5" y="306.8165839919442" height="14.198983001813758" width="5" fill="#000"></rect><text x="951.5" y="313.91607549285106" dy="0.35em" text-anchor="end">Australia / Oceania</text></g><g><rect x="957.5" y="331.01556699375794" height="35.96325232086065" width="5" fill="#000"></rect><text x="951.5" y="348.99719315418827" dy="0.35em" text-anchor="end">Canada</text></g><g><rect x="957.5" y="376.9788193146186" height="2.903973548529166" width="5" fill="#000"></rect><text x="951.5" y="378.4308060888832" dy="0.35em" text-anchor="end">Central America</text></g><g><rect x="957.5" y="389.88279286314776" height="68.44744461063965" width="5" fill="#000"></rect><text x="951.5" y="424.1065151684676" dy="0.35em" text-anchor="end">Europe</text></g><g><rect x="957.5" y="468.3302374737874" height="18.59249058095793" width="5" fill="#000"></rect><text x="951.5" y="477.62648276426637" dy="0.35em" text-anchor="end">Mexico</text></g><g><rect x="957.5" y="496.92272805474533" height="0.08449220374632205" width="5" fill="#000"></rect><text x="951.5" y="496.9649741566185" dy="0.35em" text-anchor="end">Middle East</text></g><g><rect x="957.5" y="507.00722025849166" height="817.9927797415082" width="5" fill="#000"></rect><text x="951.5" y="916.0036101292458" dy="0.35em" text-anchor="end">US</text></g><g><rect x="1915" y="205.00000000000023" height="177.29277852221526" width="5" fill="#000"></rect><text x="1909" y="293.64638926110786" dy="0.35em" text-anchor="end">Low Fare</text></g><g><rect x="1915" y="392.2927785222155" height="902.7072214777844" width="5" fill="#000"></rect><text x="1909" y="843.6463892611077" dy="0.35em" text-anchor="end">Other</text></g><g><rect x="0" y="10.001914344471288" height="3.0425604862221007" width="5" fill="#000"></rect><text x="11" y="11.523194587582338" dy="0.35em" text-anchor="start">Aer Lingus</text></g><g><rect x="0" y="23.04447483069339" height="16.238775047282616" width="5" fill="#000"></rect><text x="11" y="31.163862354334697" dy="0.35em" text-anchor="start">Air Canada</text></g><g><rect x="0" y="49.283249877976004" height="4.264144301180522" width="5" fill="#000"></rect><text x="11" y="51.415322028566266" dy="0.35em" text-anchor="start">Air China</text></g><g><rect x="0" y="63.54739417915653" height="7.024309972547599" width="5" fill="#000"></rect><text x="11" y="67.05954916543033" dy="0.35em" text-anchor="start">Air France</text></g><g><rect x="0" y="80.57170415170413" height="5.145206841858453" width="5" fill="#000"></rect><text x="11" y="83.14430757263335" dy="0.35em" text-anchor="start">Air New Zealand</text></g><g><rect x="0" y="95.71691099356258" height="6.670301271304197" width="5" fill="#000"></rect><text x="11" y="99.05206162921468" dy="0.35em" text-anchor="start">AirTran Airways</text></g><g><rect x="0" y="112.38721226486678" height="42.123815868637394" width="5" fill="#000"></rect><text x="11" y="133.44912019918547" dy="0.35em" text-anchor="start">Alaska Airlines</text></g><g><rect x="0" y="164.51102813350417" height="4.1272106609865205" width="5" fill="#000"></rect><text x="11" y="166.57463346399743" dy="0.35em" text-anchor="start">All Nippon Airways</text></g><g><rect x="0" y="178.6382387944907" height="0.6349822603542634" width="5" fill="#000"></rect><text x="11" y="178.95572992466782" dy="0.35em" text-anchor="start">Allegiant Air</text></g><g><rect x="0" y="189.27322105484495" height="99.35102648128174" width="5" fill="#000"></rect><text x="11" y="238.94873429548582" dy="0.35em" text-anchor="start">American Airlines</text></g><g><rect x="0" y="298.6242475361267" height="0.0006091096047384781" width="5" fill="#000"></rect><text x="11" y="298.62455209092906" dy="0.35em" text-anchor="start">Ameriflight</text></g><g><rect x="0" y="308.6248566457314" height="3.161336859150424" width="5" fill="#000"></rect><text x="11" y="310.20552507530664" dy="0.35em" text-anchor="start">Asiana Airlines</text></g><g><rect x="0" y="-6.821210263296962e-13" height="0.001914344471970253" width="5" fill="#000"></rect><text x="11" y="0.0009571722353030054" dy="0.35em" text-anchor="start">ATA Airlines</text></g><g><rect x="0" y="321.78619350488185" height="0.11996558691862447" width="5" fill="#000"></rect><text x="11" y="321.84617629834116" dy="0.35em" text-anchor="start">BelAir Airlines</text></g><g><rect x="0" y="331.9061590918005" height="12.022431347465954" width="5" fill="#000"></rect><text x="11" y="337.91737476553345" dy="0.35em" text-anchor="start">British Airways</text></g><g><rect x="0" y="353.92859043926643" height="13.413086585574774" width="5" fill="#000"></rect><text x="11" y="360.6351337320538" dy="0.35em" text-anchor="start">Cathay Pacific</text></g><g><rect x="0" y="377.3416770248412" height="6.743568455191053" width="5" fill="#000"></rect><text x="11" y="380.71346125243673" dy="0.35em" text-anchor="start">China Airlines</text></g><g><rect x="0" y="394.08524548003226" height="53.79273160358753" width="5" fill="#000"></rect><text x="11" y="420.981611281826" dy="0.35em" text-anchor="start">Delta Air Lines</text></g><g><rect x="0" y="476.511525626728" height="0.08449220374632205" width="5" fill="#000"></rect><text x="11" y="476.55377172860113" dy="0.35em" text-anchor="start">Emirates</text></g><g><rect x="0" y="457.8779770836198" height="8.63354854310819" width="5" fill="#000"></rect><text x="11" y="462.1947513551739" dy="0.35em" text-anchor="start">EVA Airways</text></g><g><rect x="0" y="486.5960178304743" height="10.575070905675602" width="5" fill="#000"></rect><text x="11" y="491.8835532833121" dy="0.35em" text-anchor="start">Frontier Airlines</text></g><g><rect x="0" y="507.1710887361499" height="4.945534912374114" width="5" fill="#000"></rect><text x="11" y="509.64385619233695" dy="0.35em" text-anchor="start">Hawaiian Airlines</text></g><g><rect x="0" y="522.116623648524" height="5.067675890738428" width="5" fill="#000"></rect><text x="11" y="524.6504615938932" dy="0.35em" text-anchor="start">Japan Airlines</text></g><g><rect x="0" y="537.1842995392624" height="1.883105850948823" width="5" fill="#000"></rect><text x="11" y="538.1258524647368" dy="0.35em" text-anchor="start">Jet Airways</text></g><g><rect x="0" y="549.0674053902112" height="12.385634703219694" width="5" fill="#000"></rect><text x="11" y="555.260222741821" dy="0.35em" text-anchor="start">JetBlue Airways</text></g><g><rect x="0" y="571.4530400934309" height="7.1980512360009925" width="5" fill="#000"></rect><text x="11" y="575.0520657114314" dy="0.35em" text-anchor="start">KLM Royal Dutch Airlines</text></g><g><rect x="0" y="588.6510913294319" height="3.170676539756869" width="5" fill="#000"></rect><text x="11" y="590.2364295993103" dy="0.35em" text-anchor="start">Korean Air Lines</text></g><g><rect x="0" y="601.8217678691888" height="12.102543763101949" width="5" fill="#000"></rect><text x="11" y="607.8730397507397" dy="0.35em" text-anchor="start">Lufthansa German Airlines</text></g><g><rect x="0" y="623.9243116322907" height="5.447644263232178" width="5" fill="#000"></rect><text x="11" y="626.6481337639068" dy="0.35em" text-anchor="start">Mexicana Airlines</text></g><g><rect x="0" y="639.3719558955229" height="0.01708407415299007" width="5" fill="#000"></rect><text x="11" y="639.3804979325994" dy="0.35em" text-anchor="start">Miami Air International</text></g><g><rect x="0" y="649.3890399696759" height="2.8320986151677516" width="5" fill="#000"></rect><text x="11" y="650.8050892772598" dy="0.35em" text-anchor="start">Midwest Airlines</text></g><g><rect x="0" y="662.2211385848436" height="40.36891308688109" width="5" fill="#000"></rect><text x="11" y="682.4055951282842" dy="0.35em" text-anchor="start">Northwest Airlines</text></g><g><rect x="0" y="712.5900516717247" height="7.62106335389808" width="5" fill="#000"></rect><text x="11" y="716.4005833486738" dy="0.35em" text-anchor="start">Philippine Airlines</text></g><g><rect x="0" y="730.2111150256228" height="4.034538985405106" width="5" fill="#000"></rect><text x="11" y="732.2283845183254" dy="0.35em" text-anchor="start">Qantas Airways</text></g><g><rect x="0" y="744.2456540110279" height="10.480832948253237" width="5" fill="#000"></rect><text x="11" y="749.4860704851545" dy="0.35em" text-anchor="start">Singapore Airlines</text></g><g><rect x="0" y="764.7264869592811" height="61.414607103625485" width="5" fill="#000"></rect><text x="11" y="795.4337905110939" dy="0.35em" text-anchor="start">Southwest Airlines</text></g><g><rect x="0" y="836.1410940629066" height="1.733612950808947" width="5" fill="#000"></rect><text x="11" y="837.0079005383111" dy="0.35em" text-anchor="start">Sun Country Airlines</text></g><g><rect x="0" y="847.8747070137156" height="2.9039735485289384" width="5" fill="#000"></rect><text x="11" y="849.32669378798" dy="0.35em" text-anchor="start">TACA</text></g><g><rect x="0" y="920.2073158790317" height="38.92886196034806" width="5" fill="#000"></rect><text x="11" y="939.6717468592058" dy="0.35em" text-anchor="start">United Airlines</text></g><g><rect x="0" y="969.1361778393798" height="452.28253189137257" width="5" fill="#000"></rect><text x="11" y="1195.277443785066" dy="0.35em" text-anchor="start">United Airlines - Pre 07/01/2013</text></g><g><rect x="0" y="860.7786805622445" height="49.42863531678722" width="5" fill="#000"></rect><text x="11" y="885.4929982206381" dy="0.35em" text-anchor="start">US Airways</text></g><g><rect x="0" y="1431.4187097307524" height="52.325879654444634" width="5" fill="#000"></rect><text x="11" y="1457.5816495579747" dy="0.35em" text-anchor="start">Virgin America</text></g><g><rect x="0" y="1493.744589385197" height="6.255410614803623" width="5" fill="#000"></rect><text x="11" y="1496.8722946925989" dy="0.35em" text-anchor="start">Virgin Atlantic</text></g></g></g></svg>