<svg width="1920" height="1520" xmlns="http://www.w3.org/2000/svg" version="1.1"><g transform="translate(0, 10)"><g class="links" fill="none" stroke-opacity="0.4"><path d="M5,836.2037683182139C481.25,836.2037683182139,481.25,800.0453593859035,957.5,800.0453593859035" stroke-width="18.087927424982553" style="stroke: rgb(191, 105, 105);"></path><path d="M5,1490.9560362875097C481.25,1490.9560362875097,481.25,747.8401953942772,957.5,747.8401953942772" stroke-width="18.087927424982553" style="stroke: rgb(191, 115, 105);"></path><path d="M5,1462.868108862527C481.25,1462.868108862527,481.25,1315.9560362875081,957.5,1315.9560362875081" stroke-width="18.087927424982553" style="stroke: rgb(191, 125, 105);"></path><path d="M5,1321.7306350314032C481.25,1321.7306350314032,481.25,822.6552686671316,957.5,822.6552686671316" stroke-width="27.131891137473833" style="stroke: rgb(191, 135, 105);"></path><path d="M5,1294.5987438939294C481.25,1294.5987438939294,481.25,725.2302861130489,957.5,725.2302861130489" stroke-width="27.131891137473833" style="stroke: rgb(191, 135, 105);"></path><path d="M5,1258.0460572226107C481.25,1258.0460572226107,481.25,555.6280530355888,957.5,555.6280530355888" stroke-width="45.97348220516399" style="stroke: rgb(191, 135, 105);"></path><path d="M5,1221.4933705512917C481.25,1221.4933705512917,481.25,472.89951151430506,957.5,472.89951151430506" stroke-width="27.131891137473833" style="stroke: rgb(191, 135, 105);"></path><path d="M5,1194.361479413818C481.25,1194.361479413818,481.25,399.5917655268666,957.5,399.5917655268666" stroke-width="27.131891137473833" style="stroke: rgb(191, 135, 105);"></path><path d="M5,1389.5603628750878C481.25,1389.5603628750878,481.25,1252.6482903000694,957.5,1252.6482903000694" stroke-width="108.52756454989533" style="stroke: rgb(191, 135, 105);"></path><path d="M5,1161.7515701325904C481.25,1161.7515701325904,481.25,1189.3405443126303,957.5,1189.3405443126303" stroke-width="18.087927424982553" style="stroke: rgb(191, 145, 105);"></path><path d="M5,1133.6636427076076C481.25,1133.6636427076076,481.25,1171.2526168876477,957.5,1171.2526168876477" stroke-width="18.087927424982553" style="stroke: rgb(191, 155, 105);"></path><path d="M5,1105.5757152826252C481.25,1105.5757152826252,481.25,597.658757850662,957.5,597.658757850662" stroke-width="18.087927424982553" style="stroke: rgb(191, 166, 105);"></path><path d="M5,1078.2414515003504C481.25,1078.2414515003504,481.25,1153.9183531053727,957.5,1153.9183531053727" stroke-width="16.58060013956734" style="stroke: rgb(191, 176, 105);"></path><path d="M5,1046.7620376831837C481.25,1046.7620376831837,481.25,1132.438939288206,957.5,1132.438939288206" stroke-width="26.378227494766225" style="stroke: rgb(191, 186, 105);"></path><path d="M5,534.7732030704816C481.25,534.7732030704816,481.25,994.8953244940677,957.5,994.8953244940677" stroke-width="49.74180041870203" style="stroke: rgb(186, 191, 105);"></path><path d="M5,1014.5289602233095C481.25,1014.5289602233095,481.25,376.98185624563837,957.5,376.98185624563837" stroke-width="18.087927424982553" style="stroke: rgb(176, 191, 105);"></path><path d="M5,986.4410327983267C481.25,986.4410327983267,481.25,450.28960223307683,957.5,450.28960223307683" stroke-width="18.087927424982553" style="stroke: rgb(166, 191, 105);"></path><path d="M5,958.3531053733443C481.25,958.3531053733443,481.25,358.8939288206558,957.5,358.8939288206558" stroke-width="18.087927424982553" style="stroke: rgb(155, 191, 105);"></path><path d="M5,907.2784368457799C481.25,907.2784368457799,481.25,340.4291695743194,957.5,340.4291695743194" stroke-width="18.84159106769016" style="stroke: rgb(145, 191, 105);"></path><path d="M5,928.0041870202391C481.25,928.0041870202391,481.25,1107.9448709002088,957.5,1107.9448709002088" stroke-width="22.609909281228195" style="stroke: rgb(145, 191, 105);"></path><path d="M5,878.8136775994424C481.25,878.8136775994424,481.25,1087.5959525471033,957.5,1087.5959525471033" stroke-width="18.087927424982553" style="stroke: rgb(135, 191, 105);"></path><path d="M5,808.115840893231C481.25,808.115840893231,481.25,702.6203768318207,957.5,702.6203768318207" stroke-width="18.087927424982553" style="stroke: rgb(125, 191, 105);"></path><path d="M5,780.0279134682485C481.25,780.0279134682485,481.25,321.9644103279831,957.5,321.9644103279831" stroke-width="18.087927424982553" style="stroke: rgb(115, 191, 105);"></path><path d="M5,751.9399860432659C481.25,751.9399860432659,481.25,684.5324494068382,957.5,684.5324494068382" stroke-width="18.087927424982553" style="stroke: rgb(105, 191, 105);"></path><path d="M5,723.8520586182831C481.25,723.8520586182831,481.25,1064.986043265875,957.5,1064.986043265875" stroke-width="18.087927424982553" style="stroke: rgb(105, 191, 115);"></path><path d="M5,674.8360083740401C481.25,674.8360083740401,481.25,292.9483600837402,957.5,292.9483600837402" stroke-width="18.84159106769016" style="stroke: rgb(105, 191, 125);"></path><path d="M5,242.588974180041C481.25,242.588974180041,481.25,897.6727145847866,957.5,897.6727145847866" stroke-width="42.20516399162596" style="stroke: rgb(105, 191, 135);"></path><path d="M5,209.4277739009063C481.25,209.4277739009063,481.25,778.9427773900904,957.5,778.9427773900904" stroke-width="24.117236566643406" style="stroke: rgb(105, 191, 135);"></path><path d="M5,188.32519190509333C481.25,188.32519190509333,481.25,523.5973482205155,957.5,523.5973482205155" stroke-width="18.087927424982553" style="stroke: rgb(105, 191, 135);"></path><path d="M5,646.3712491277045C481.25,646.3712491277045,481.25,1046.8981158408924,957.5,1046.8981158408924" stroke-width="18.087927424982553" style="stroke: rgb(105, 191, 145);"></path><path d="M5,618.2833217027217C481.25,618.2833217027217,481.25,1028.81018841591,957.5,1028.81018841591" stroke-width="18.087927424982553" style="stroke: rgb(105, 191, 155);"></path><path d="M5,578.6880669923239C481.25,578.6880669923239,481.25,274.48360083740386,957.5,274.48360083740386" stroke-width="18.087927424982553" style="stroke: rgb(105, 191, 166);"></path><path d="M5,490.8583391486393C481.25,490.8583391486393,481.25,256.3956734124213,957.5,256.3956734124213" stroke-width="18.087927424982553" style="stroke: rgb(105, 191, 176);"></path><path d="M5,462.7704117236567C481.25,462.7704117236567,481.25,238.3077459874387,957.5,238.3077459874387" stroke-width="18.087927424982553" style="stroke: rgb(105, 191, 186);"></path><path d="M5,434.6824842986741C481.25,434.6824842986741,481.25,666.4445219818556,957.5,666.4445219818556" stroke-width="18.087927424982553" style="stroke: rgb(105, 186, 191);"></path><path d="M5,392.0725750174456C481.25,392.0725750174456,481.25,220.21981856245617,957.5,220.21981856245617" stroke-width="18.087927424982553" style="stroke: rgb(105, 176, 191);"></path><path d="M5,370.7676203768312C481.25,370.7676203768312,481.25,967.763433356594,957.5,967.763433356594" stroke-width="4.521981856245638" style="stroke: rgb(105, 166, 191);"></path><path d="M5,340.4187020237258C481.25,340.4187020237258,481.25,947.4145150034885,957.5,947.4145150034885" stroke-width="36.175854849965106" style="stroke: rgb(105, 155, 191);"></path><path d="M5,282.7355198883454C481.25,282.7355198883454,481.25,202.1318911374736,957.5,202.1318911374736" stroke-width="18.087927424982553" style="stroke: rgb(105, 145, 191);"></path><path d="M5,160.23726448011098C481.25,160.23726448011098,481.25,867.5261688764823,957.5,867.5261688764823" stroke-width="18.087927424982553" style="stroke: rgb(105, 135, 191);"></path><path d="M5,132.14933705512817C481.25,132.14933705512817,481.25,432.20167480809425,957.5,432.20167480809425" stroke-width="18.087927424982553" style="stroke: rgb(105, 125, 191);"></path><path d="M5,104.06140963014558C481.25,104.06140963014558,481.25,643.8346127006274,957.5,643.8346127006274" stroke-width="18.087927424982553" style="stroke: rgb(105, 115, 191);"></path><path d="M5,75.973482205163C481.25,75.973482205163,481.25,184.04396371249106,957.5,184.04396371249106" stroke-width="18.087927424982553" style="stroke: rgb(105, 105, 191);"></path><path d="M5,47.885554780180414C481.25,47.885554780180414,481.25,505.50942079553295,957.5,505.50942079553295" stroke-width="18.087927424982553" style="stroke: rgb(115, 105, 191);"></path><path d="M5,19.797627355197832C481.25,19.797627355197832,481.25,625.7466852756448,957.5,625.7466852756448" stroke-width="18.087927424982553" style="stroke: rgb(125, 105, 191);"></path><path d="M5,0.37683182135278004C481.25,0.37683182135278004,481.25,858.1053733426372,957.5,858.1053733426372" stroke-width="0.7536636427076064" style="stroke: rgb(135, 105, 191);"></path><path d="M5,857.508722958828C481.25,857.508722958828,481.25,1076.290997906489,957.5,1076.290997906489" stroke-width="4.521981856245638" style="stroke: rgb(145, 105, 191);"></path><path d="M5,699.5324494068385C481.25,699.5324494068385,481.25,307.64480111653853,957.5,307.64480111653853" stroke-width="10.55129099790649" style="stroke: rgb(155, 105, 191);"></path><path d="M5,307.0551290997899C481.25,307.0551290997899,481.25,924.0509420795528,957.5,924.0509420795528" stroke-width="10.55129099790649" style="stroke: rgb(166, 105, 191);"></path><path d="M5,413.3775296580599C481.25,413.3775296580599,481.25,655.1395673412416,957.5,655.1395673412416" stroke-width="4.521981856245638" style="stroke: rgb(176, 105, 191);"></path><path d="M5,598.4856943475228C481.25,598.4856943475228,481.25,846.9748778785759,957.5,846.9748778785759" stroke-width="1.5073272854152129" style="stroke: rgb(186, 105, 191);"></path><path d="M962.5,801.5526866713186C1438.75,801.5526866713186,1438.75,936.2561060711791,1915,936.2561060711791" stroke-width="69.3370551290998" style="stroke: rgb(191, 105, 186);"></path><path d="M962.5,686.7934403349609C1438.75,686.7934403349609,1438.75,831.4968597348218,1915,831.4968597348218" stroke-width="140.1814375436148" style="stroke: rgb(191, 105, 176);"></path><path d="M962.5,930.0802512212136C1438.75,930.0802512212136,1438.75,277.3517096999302,1915,277.3517096999302" stroke-width="144.70341939986042" style="stroke: rgb(191, 105, 166);"></path><path d="M962.5,1163.7159804605717C1438.75,1163.7159804605717,1438.75,1133.715980460572,1915,1133.715980460572" stroke-width="322.5680390788556" style="stroke: rgb(191, 105, 166);"></path><path d="M962.5,537.5401256106062C1438.75,537.5401256106062,1438.75,702.2435450104673,1915,702.2435450104673" stroke-width="82.1493370551291" style="stroke: rgb(191, 105, 155);"></path><path d="M962.5,454.8115840893224C1438.75,454.8115840893224,1438.75,629.5150034891833,1915,629.5150034891833" stroke-width="63.30774598743894" style="stroke: rgb(191, 105, 145);"></path><path d="M962.5,294.0788555478016C1438.75,294.0788555478016,1438.75,478.782274947662,1915,478.782274947662" stroke-width="238.15771109560364" style="stroke: rgb(191, 105, 135);"></path><path d="M962.5,597.658757850662C1438.75,597.658757850662,1438.75,752.3621772505231,1915,752.3621772505231" stroke-width="18.087927424982553" style="stroke: rgb(191, 105, 125);"></path><path d="M962.5,846.9748778785759C1438.75,846.9748778785759,1438.75,971.6782972784366,1915,971.6782972784366" stroke-width="1.5073272854152129" style="stroke: rgb(191, 105, 115);"></path></g><g class="nodes" font-family="Arial, Helvetica" font-size="10"><g><rect x="957.5" y="174.99999999999977" height="238.1577110956032" width="5" fill="#000"></rect><text x="951.5" y="294.07885554780137" dy="0.35em" text-anchor="end">Asia</text></g><g><rect x="957.5" y="423.15771109560296" height="63.30774598743869" width="5" fill="#000"></rect><text x="951.5" y="454.8115840893223" dy="0.35em" text-anchor="end">Australia / Oceania</text></g><g><rect x="957.5" y="496.46545708304166" height="82.14933705512908" width="5" fill="#000"></rect><text x="951.5" y="537.5401256106062" dy="0.35em" text-anchor="end">Canada</text></g><g><rect x="957.5" y="588.6147941381707" height="18.08792742498281" width="5" fill="#000"></rect><text x="951.5" y="597.6587578506621" dy="0.35em" text-anchor="end">Central America</text></g><g><rect x="957.5" y="616.7027215631535" height="140.18143754361517" width="5" fill="#000"></rect><text x="951.5" y="686.7934403349611" dy="0.35em" text-anchor="end">Europe</text></g><g><rect x="957.5" y="766.8841591067687" height="69.33705512909955" width="5" fill="#000"></rect><text x="951.5" y="801.5526866713185" dy="0.35em" text-anchor="end">Mexico</text></g><g><rect x="957.5" y="846.2212142358683" height="1.5073272854151583" width="5" fill="#000"></rect><text x="951.5" y="846.9748778785759" dy="0.35em" text-anchor="end">Middle East</text></g><g><rect x="957.5" y="857.7285415212834" height="467.2714584787168" width="5" fill="#000"></rect><text x="951.5" y="1091.3642707606418" dy="0.35em" text-anchor="end">US</text></g><g><rect x="1915" y="205" height="144.7034193998602" width="5" fill="#000"></rect><text x="1909" y="277.3517096999301" dy="0.35em" text-anchor="end">Low Fare</text></g><g><rect x="1915" y="359.7034193998602" height="935.2965806001399" width="5" fill="#000"></rect><text x="1909" y="827.3517096999301" dy="0.35em" text-anchor="end">Other</text></g><g><rect x="0" y="10.753663642706556" height="18.08792742498258" width="5" fill="#000"></rect><text x="11" y="19.797627355197847" dy="0.35em" text-anchor="start">Aer Lingus</text></g><g><rect x="0" y="38.84159106768914" height="18.08792742498258" width="5" fill="#000"></rect><text x="11" y="47.88555478018043" dy="0.35em" text-anchor="start">Air Canada</text></g><g><rect x="0" y="66.92951849267172" height="18.08792742498258" width="5" fill="#000"></rect><text x="11" y="75.97348220516301" dy="0.35em" text-anchor="start">Air China</text></g><g><rect x="0" y="95.0174459176543" height="18.08792742498258" width="5" fill="#000"></rect><text x="11" y="104.06140963014559" dy="0.35em" text-anchor="start">Air France</text></g><g><rect x="0" y="123.10537334263688" height="18.08792742498281" width="5" fill="#000"></rect><text x="11" y="132.14933705512829" dy="0.35em" text-anchor="start">Air New Zealand</text></g><g><rect x="0" y="151.1933007676197" height="18.087927424982354" width="5" fill="#000"></rect><text x="11" y="160.23726448011087" dy="0.35em" text-anchor="start">AirTran Airways</text></g><g><rect x="0" y="179.28122819260204" height="84.41032798325205" width="5" fill="#000"></rect><text x="11" y="221.48639218422807" dy="0.35em" text-anchor="start">Alaska Airlines</text></g><g><rect x="0" y="273.6915561758541" height="18.08792742498258" width="5" fill="#000"></rect><text x="11" y="282.7355198883454" dy="0.35em" text-anchor="start">All Nippon Airways</text></g><g><rect x="0" y="301.77948360083667" height="10.551290997906563" width="5" fill="#000"></rect><text x="11" y="307.05512909978995" dy="0.35em" text-anchor="start">Allegiant Air</text></g><g><rect x="0" y="322.33077459874323" height="36.17585484996516" width="5" fill="#000"></rect><text x="11" y="340.4187020237258" dy="0.35em" text-anchor="start">American Airlines</text></g><g><rect x="0" y="368.5066294487084" height="4.5219818562459295" width="5" fill="#000"></rect><text x="11" y="370.76762037683136" dy="0.35em" text-anchor="start">Ameriflight</text></g><g><rect x="0" y="383.0286113049543" height="18.08792742498281" width="5" fill="#000"></rect><text x="11" y="392.07257501744573" dy="0.35em" text-anchor="start">Asiana Airlines</text></g><g><rect x="0" y="-1.0231815394945443e-12" height="0.7536636427075791" width="5" fill="#000"></rect><text x="11" y="0.3768318213527664" dy="0.35em" text-anchor="start">ATA Airlines</text></g><g><rect x="0" y="411.11653872993713" height="4.521981856245702" width="5" fill="#000"></rect><text x="11" y="413.37752965806" dy="0.35em" text-anchor="start">BelAir Airlines</text></g><g><rect x="0" y="425.63852058618284" height="18.08792742498258" width="5" fill="#000"></rect><text x="11" y="434.6824842986741" dy="0.35em" text-anchor="start">British Airways</text></g><g><rect x="0" y="453.7264480111654" height="18.08792742498258" width="5" fill="#000"></rect><text x="11" y="462.7704117236567" dy="0.35em" text-anchor="start">Cathay Pacific</text></g><g><rect x="0" y="481.814375436148" height="18.08792742498258" width="5" fill="#000"></rect><text x="11" y="490.8583391486393" dy="0.35em" text-anchor="start">China Airlines</text></g><g><rect x="0" y="509.9023028611306" height="49.74180041870204" width="5" fill="#000"></rect><text x="11" y="534.7732030704816" dy="0.35em" text-anchor="start">Delta Air Lines</text></g><g><rect x="0" y="597.7320307048152" height="1.5073272854151583" width="5" fill="#000"></rect><text x="11" y="598.4856943475228" dy="0.35em" text-anchor="start">Emirates</text></g><g><rect x="0" y="569.6441032798326" height="18.08792742498258" width="5" fill="#000"></rect><text x="11" y="578.6880669923239" dy="0.35em" text-anchor="start">EVA Airways</text></g><g><rect x="0" y="609.2393579902304" height="18.08792742498281" width="5" fill="#000"></rect><text x="11" y="618.2833217027218" dy="0.35em" text-anchor="start">Frontier Airlines</text></g><g><rect x="0" y="637.3272854152132" height="18.0879274249819" width="5" fill="#000"></rect><text x="11" y="646.3712491277041" dy="0.35em" text-anchor="start">Hawaiian Airlines</text></g><g><rect x="0" y="665.4152128401951" height="18.84159106769016" width="5" fill="#000"></rect><text x="11" y="674.8360083740401" dy="0.35em" text-anchor="start">Japan Airlines</text></g><g><rect x="0" y="694.2568039078852" height="10.551290997906563" width="5" fill="#000"></rect><text x="11" y="699.5324494068385" dy="0.35em" text-anchor="start">Jet Airways</text></g><g><rect x="0" y="714.8080949057918" height="18.08792742498281" width="5" fill="#000"></rect><text x="11" y="723.8520586182832" dy="0.35em" text-anchor="start">JetBlue Airways</text></g><g><rect x="0" y="742.8960223307746" height="18.08792742498258" width="5" fill="#000"></rect><text x="11" y="751.9399860432659" dy="0.35em" text-anchor="start">KLM Royal Dutch Airlines</text></g><g><rect x="0" y="770.9839497557572" height="18.08792742498258" width="5" fill="#000"></rect><text x="11" y="780.0279134682485" dy="0.35em" text-anchor="start">Korean Air Lines</text></g><g><rect x="0" y="799.0718771807398" height="18.08792742498281" width="5" fill="#000"></rect><text x="11" y="808.1158408932312" dy="0.35em" text-anchor="start">Lufthansa German Airlines</text></g><g><rect x="0" y="827.1598046057226" height="18.08792742498258" width="5" fill="#000"></rect><text x="11" y="836.2037683182139" dy="0.35em" text-anchor="start">Mexicana Airlines</text></g><g><rect x="0" y="855.2477320307052" height="4.5219818562459295" width="5" fill="#000"></rect><text x="11" y="857.5087229588281" dy="0.35em" text-anchor="start">Miami Air International</text></g><g><rect x="0" y="869.7697138869511" height="18.087927424983718" width="5" fill="#000"></rect><text x="11" y="878.8136775994429" dy="0.35em" text-anchor="start">Midwest Airlines</text></g><g><rect x="0" y="897.8576413119348" height="41.451500348918216" width="5" fill="#000"></rect><text x="11" y="918.5833914863939" dy="0.35em" text-anchor="start">Northwest Airlines</text></g><g><rect x="0" y="949.309141660853" height="18.087927424982354" width="5" fill="#000"></rect><text x="11" y="958.3531053733442" dy="0.35em" text-anchor="start">Philippine Airlines</text></g><g><rect x="0" y="977.3970690858354" height="18.08792742498281" width="5" fill="#000"></rect><text x="11" y="986.4410327983268" dy="0.35em" text-anchor="start">Qantas Airways</text></g><g><rect x="0" y="1005.4849965108182" height="18.08792742498258" width="5" fill="#000"></rect><text x="11" y="1014.5289602233095" dy="0.35em" text-anchor="start">Singapore Airlines</text></g><g><rect x="0" y="1033.5729239358006" height="26.37822749476618" width="5" fill="#000"></rect><text x="11" y="1046.7620376831837" dy="0.35em" text-anchor="start">Southwest Airlines</text></g><g><rect x="0" y="1069.9511514305668" height="16.580600139567196" width="5" fill="#000"></rect><text x="11" y="1078.2414515003504" dy="0.35em" text-anchor="start">Sun Country Airlines</text></g><g><rect x="0" y="1096.531751570134" height="18.08792742498224" width="5" fill="#000"></rect><text x="11" y="1105.5757152826252" dy="0.35em" text-anchor="start">TACA</text></g><g><rect x="0" y="1152.7076064200992" height="18.0879274249819" width="5" fill="#000"></rect><text x="11" y="1161.7515701325901" dy="0.35em" text-anchor="start">United Airlines</text></g><g><rect x="0" y="1180.795533845081" height="263.0286113049548" width="5" fill="#000"></rect><text x="11" y="1312.3098394975584" dy="0.35em" text-anchor="start">United Airlines - Pre 07/01/2013</text></g><g><rect x="0" y="1124.6196789951164" height="18.08792742498281" width="5" fill="#000"></rect><text x="11" y="1133.6636427076078" dy="0.35em" text-anchor="start">US Airways</text></g><g><rect x="0" y="1453.8241451500357" height="18.08792742498281" width="5" fill="#000"></rect><text x="11" y="1462.8681088625272" dy="0.35em" text-anchor="start">Virgin America</text></g><g><rect x="0" y="1481.9120725750186" height="18.08792742498258" width="5" fill="#000"></rect><text x="11" y="1490.95603628751" dy="0.35em" text-anchor="start">Virgin Atlantic</text></g></g></g></svg>