<svg width="1920" height="1520" xmlns="http://www.w3.org/2000/svg" version="1.1"><g transform="translate(0, 10)"><g class="links" fill="none" stroke-opacity="0.4"><path d="M5,490.35893754486756C481.25,490.35893754486756,481.25,1004.7989949748745,957.5,1004.7989949748745" stroke-width="48.0689160086145" style="stroke: rgb(191, 105, 105);"></path><path d="M5,1461.392677674085C481.25,1461.392677674085,481.25,741.4321608040202,957.5,741.4321608040202" stroke-width="18.60732232591529" style="stroke: rgb(191, 115, 105);"></path><path d="M5,1432.7853553481696C481.25,1432.7853553481696,481.25,1315.6963388370423,957.5,1315.6963388370423" stroke-width="18.60732232591529" style="stroke: rgb(191, 125, 105);"></path><path d="M5,1306.489590811199C481.25,1306.489590811199,481.25,835.1651112706389,957.5,835.1651112706389" stroke-width="27.910983488872937" style="stroke: rgb(191, 135, 105);"></path><path d="M5,1278.578607322326C481.25,1278.578607322326,481.25,718.1730078966261,957.5,718.1730078966261" stroke-width="27.910983488872937" style="stroke: rgb(191, 135, 105);"></path><path d="M5,1237.4874371859298C481.25,1237.4874371859298,481.25,540.7860732232595,957.5,540.7860732232595" stroke-width="54.27135678391959" style="stroke: rgb(191, 135, 105);"></path><path d="M5,1196.3962670495334C481.25,1196.3962670495334,481.25,471.0875807609477,957.5,471.0875807609477" stroke-width="27.910983488872937" style="stroke: rgb(191, 135, 105);"></path><path d="M5,1168.4852835606605C481.25,1168.4852835606605,481.25,395.96195262024406,957.5,395.96195262024406" stroke-width="27.910983488872937" style="stroke: rgb(191, 135, 105);"></path><path d="M5,1366.9633883704237C481.25,1366.9633883704237,481.25,1259.8743718592962,957.5,1259.8743718592962" stroke-width="93.03661162957646" style="stroke: rgb(191, 135, 105);"></path><path d="M5,1135.2261306532669C481.25,1135.2261306532669,481.25,1204.0524048815505,957.5,1204.0524048815505" stroke-width="18.60732232591529" style="stroke: rgb(191, 145, 105);"></path><path d="M5,1105.8435032304387C481.25,1105.8435032304387,481.25,1184.6697774587221,957.5,1184.6697774587221" stroke-width="20.157932519741564" style="stroke: rgb(191, 155, 105);"></path><path d="M5,1076.4608758076106C481.25,1076.4608758076106,481.25,594.9784637473082,957.5,594.9784637473082" stroke-width="18.60732232591529" style="stroke: rgb(191, 166, 105);"></path><path d="M5,1049.791816223979C481.25,1049.791816223979,481.25,1167.2254127781766,957.5,1167.2254127781766" stroke-width="14.730796841349605" style="stroke: rgb(191, 176, 105);"></path><path d="M5,1018.4709260588673C481.25,1018.4709260588673,481.25,1145.9045226130652,957.5,1145.9045226130652" stroke-width="27.910983488872937" style="stroke: rgb(191, 186, 105);"></path><path d="M5,985.211773151473C481.25,985.211773151473,481.25,372.70279971285,957.5,372.70279971285" stroke-width="18.60732232591529" style="stroke: rgb(186, 191, 105);"></path><path d="M5,956.6044508255576C481.25,956.6044508255576,481.25,447.8284278535536,957.5,447.8284278535536" stroke-width="18.60732232591529" style="stroke: rgb(176, 191, 105);"></path><path d="M5,927.9971284996424C481.25,927.9971284996424,481.25,354.0954773869347,957.5,354.0954773869347" stroke-width="18.60732232591529" style="stroke: rgb(166, 191, 105);"></path><path d="M5,871.8664752333106C481.25,871.8664752333106,481.25,335.10050251256285,957.5,335.10050251256285" stroke-width="19.382627422828428" style="stroke: rgb(155, 191, 105);"></path><path d="M5,895.1256281407047C481.25,895.1256281407047,481.25,1118.3811916726488,957.5,1118.3811916726488" stroke-width="27.135678391959797" style="stroke: rgb(155, 191, 105);"></path><path d="M5,842.8715003589385C481.25,842.8715003589385,481.25,1095.5096913137115,957.5,1095.5096913137115" stroke-width="18.60732232591529" style="stroke: rgb(145, 191, 105);"></path><path d="M5,802.713567839197C481.25,802.713567839197,481.25,811.9059583632447,957.5,811.9059583632447" stroke-width="18.60732232591529" style="stroke: rgb(135, 191, 105);"></path><path d="M5,774.1062455132818C481.25,774.1062455132818,481.25,694.9138549892319,957.5,694.9138549892319" stroke-width="18.60732232591529" style="stroke: rgb(125, 191, 105);"></path><path d="M5,745.4989231873664C481.25,745.4989231873664,481.25,316.105527638191,957.5,316.105527638191" stroke-width="18.60732232591529" style="stroke: rgb(115, 191, 105);"></path><path d="M5,716.8916008614509C481.25,716.8916008614509,481.25,676.3065326633166,957.5,676.3065326633166" stroke-width="18.60732232591529" style="stroke: rgb(105, 191, 105);"></path><path d="M5,688.2842785355355C481.25,688.2842785355355,481.25,1075.35175879397,957.5,1075.35175879397" stroke-width="18.60732232591529" style="stroke: rgb(105, 191, 115);"></path><path d="M5,668.2053122756647C481.25,668.2053122756647,481.25,306.0265613783202,957.5,306.0265613783202" stroke-width="1.5506101938262742" style="stroke: rgb(105, 191, 125);"></path><path d="M5,648.1263460157937C481.25,648.1263460157937,481.25,295.94759511844944,957.5,295.94759511844944" stroke-width="18.60732232591529" style="stroke: rgb(105, 191, 135);"></path><path d="M5,237.4659009332379C481.25,237.4659009332379,481.25,924.9425699928215,957.5,924.9425699928215" stroke-width="37.21464465183058" style="stroke: rgb(105, 191, 145);"></path><path d="M5,209.55491744436497C481.25,209.55491744436497,481.25,793.2986360373294,957.5,793.2986360373294" stroke-width="18.60732232591529" style="stroke: rgb(105, 191, 145);"></path><path d="M5,619.5190236898783C481.25,619.5190236898783,481.25,1056.7444364680548,957.5,1056.7444364680548" stroke-width="18.60732232591529" style="stroke: rgb(105, 191, 155);"></path><path d="M5,590.9117013639633C481.25,590.9117013639633,481.25,1038.1371141421396,957.5,1038.1371141421396" stroke-width="18.60732232591529" style="stroke: rgb(105, 191, 166);"></path><path d="M5,562.3043790380478C481.25,562.3043790380478,481.25,868.424264178033,957.5,868.424264178033" stroke-width="18.60732232591529" style="stroke: rgb(105, 191, 176);"></path><path d="M5,533.6970567121324C481.25,533.6970567121324,481.25,277.34027279253417,957.5,277.34027279253417" stroke-width="18.60732232591529" style="stroke: rgb(105, 191, 186);"></path><path d="M5,447.0208183776028C481.25,447.0208183776028,481.25,258.7329504666189,957.5,258.7329504666189" stroke-width="18.60732232591529" style="stroke: rgb(105, 186, 191);"></path><path d="M5,418.4134960516877C481.25,418.4134960516877,481.25,240.12562814070358,957.5,240.12562814070358" stroke-width="18.60732232591529" style="stroke: rgb(105, 176, 191);"></path><path d="M5,389.8061737257722C481.25,389.8061737257722,481.25,657.6992103374013,957.5,657.6992103374013" stroke-width="18.60732232591529" style="stroke: rgb(105, 166, 191);"></path><path d="M5,361.19885139985655C481.25,361.19885139985655,481.25,221.5183058147883,957.5,221.5183058147883" stroke-width="18.60732232591529" style="stroke: rgb(105, 155, 191);"></path><path d="M5,324.06317300789664C481.25,324.06317300789664,481.25,962.9325197415652,957.5,962.9325197415652" stroke-width="35.66403445800431" style="stroke: rgb(105, 145, 191);"></path><path d="M5,295.45585068198136C481.25,295.45585068198136,481.25,944.3251974156499,957.5,944.3251974156499" stroke-width="1.5506101938262742" style="stroke: rgb(105, 135, 191);"></path><path d="M5,275.37688442211044C481.25,275.37688442211044,481.25,202.91098348887303,957.5,202.91098348887303" stroke-width="18.60732232591529" style="stroke: rgb(105, 125, 191);"></path><path d="M5,180.94759511844975C481.25,180.94759511844975,481.25,897.0315865039485,957.5,897.0315865039485" stroke-width="18.60732232591529" style="stroke: rgb(105, 115, 191);"></path><path d="M5,152.34027279253408C481.25,152.34027279253408,481.25,429.2211055276383,957.5,429.2211055276383" stroke-width="18.60732232591529" style="stroke: rgb(105, 105, 191);"></path><path d="M5,123.73295046661886C481.25,123.73295046661886,481.25,639.0918880114859,957.5,639.0918880114859" stroke-width="18.60732232591529" style="stroke: rgb(115, 105, 191);"></path><path d="M5,95.12562814070341C481.25,95.12562814070341,481.25,184.30366116295775,957.5,184.30366116295775" stroke-width="18.60732232591529" style="stroke: rgb(125, 105, 191);"></path><path d="M5,66.51830581478819C481.25,66.51830581478819,481.25,504.34673366834204,957.5,504.34673366834204" stroke-width="18.60732232591529" style="stroke: rgb(135, 105, 191);"></path><path d="M5,7.753050969131257C481.25,7.753050969131257,481.25,622.0351758793969,957.5,622.0351758793969" stroke-width="15.506101938262741" style="stroke: rgb(145, 105, 191);"></path><path d="M5,36.36037329504668C481.25,36.36037329504668,481.25,773.1407035175879,957.5,773.1407035175879" stroke-width="21.708542713567837" style="stroke: rgb(155, 105, 191);"></path><path d="M5,822.7925340990678C481.25,822.7925340990678,481.25,1085.4307250538407,957.5,1085.4307250538407" stroke-width="1.5506101938262742" style="stroke: rgb(166, 105, 191);"></path><path d="M5,1484.5728643216082C481.25,1484.5728643216082,481.25,571.798277099785,957.5,571.798277099785" stroke-width="7.753050969131371" style="stroke: rgb(176, 105, 191);"></path><path d="M5,1499.224694903087C481.25,1499.224694903087,481.25,751.5111270638911,957.5,751.5111270638911" stroke-width="1.5506101938262742" style="stroke: rgb(186, 105, 191);"></path><path d="M962.5,1165.6748025843506C1438.75,1165.6748025843506,1438.75,1135.6748025843503,1915,1135.6748025843503" stroke-width="318.65039483129937" style="stroke: rgb(191, 105, 186);"></path><path d="M962.5,947.0387652548459C1438.75,947.0387652548459,1438.75,264.31083991385475,1915,264.31083991385475" stroke-width="118.62167982770997" style="stroke: rgb(191, 105, 186);"></path><path d="M962.5,683.2842785355348C1438.75,683.2842785355348,1438.75,801.9059583632446,1915,801.9059583632446" stroke-width="138.0043072505384" style="stroke: rgb(191, 105, 176);"></path><path d="M962.5,805.7035175879397C1438.75,805.7035175879397,1438.75,914.3251974156495,1915,914.3251974156495" stroke-width="86.83417085427135" style="stroke: rgb(191, 105, 166);"></path><path d="M962.5,535.3589375448676C1438.75,535.3589375448676,1438.75,673.980617372577,1915,673.980617372577" stroke-width="80.63173007896626" style="stroke: rgb(191, 105, 155);"></path><path d="M962.5,452.4802584350324C1438.75,452.4802584350324,1438.75,601.1019382627421,1915,601.1019382627421" stroke-width="65.12562814070351" style="stroke: rgb(191, 105, 145);"></path><path d="M962.5,292.45872218234035C1438.75,292.45872218234035,1438.75,451.0804020100501,1915,451.0804020100501" stroke-width="234.91744436468053" style="stroke: rgb(191, 105, 135);"></path><path d="M962.5,594.9784637473082C1438.75,594.9784637473082,1438.75,723.6001435750177,1915,723.6001435750177" stroke-width="18.60732232591529" style="stroke: rgb(191, 105, 125);"></path><path d="M962.5,868.424264178033C1438.75,868.424264178033,1438.75,967.0459440057429,1915,967.0459440057429" stroke-width="18.60732232591529" style="stroke: rgb(191, 105, 115);"></path></g><g class="nodes" font-family="Arial, Helvetica" font-size="10"><g><rect x="957.5" y="175.0000000000001" height="234.91744436468053" width="5" fill="#000"></rect><text x="951.5" y="292.45872218234035" dy="0.35em" text-anchor="end">Asia</text></g><g><rect x="957.5" y="419.91744436468065" height="65.12562814070372" width="5" fill="#000"></rect><text x="951.5" y="452.4802584350325" dy="0.35em" text-anchor="end">Australia / Oceania</text></g><g><rect x="957.5" y="495.0430725053844" height="80.63173007896626" width="5" fill="#000"></rect><text x="951.5" y="535.3589375448676" dy="0.35em" text-anchor="end">Canada</text></g><g><rect x="957.5" y="585.6748025843506" height="18.607322325914993" width="5" fill="#000"></rect><text x="951.5" y="594.9784637473081" dy="0.35em" text-anchor="end">Central America</text></g><g><rect x="957.5" y="614.2821249102656" height="138.00430725053843" width="5" fill="#000"></rect><text x="951.5" y="683.2842785355348" dy="0.35em" text-anchor="end">Europe</text></g><g><rect x="957.5" y="762.286432160804" height="86.8341708542714" width="5" fill="#000"></rect><text x="951.5" y="805.7035175879397" dy="0.35em" text-anchor="end">Mexico</text></g><g><rect x="957.5" y="859.1206030150754" height="18.607322325915447" width="5" fill="#000"></rect><text x="951.5" y="868.4242641780331" dy="0.35em" text-anchor="end">Middle East</text></g><g><rect x="957.5" y="887.7279253409909" height="437.2720746590089" width="5" fill="#000"></rect><text x="951.5" y="1106.3639626704953" dy="0.35em" text-anchor="end">US</text></g><g><rect x="1915" y="204.99999999999977" height="118.62167982771007" width="5" fill="#000"></rect><text x="1909" y="264.3108399138548" dy="0.35em" text-anchor="end">Low Fare</text></g><g><rect x="1915" y="333.62167982770984" height="961.3783201722905" width="5" fill="#000"></rect><text x="1909" y="814.310839913855" dy="0.35em" text-anchor="end">Other</text></g><g><rect x="0" y="-1.1368683772161603e-13" height="15.506101938262873" width="5" fill="#000"></rect><text x="11" y="7.753050969131323" dy="0.35em" text-anchor="start">Aer Lingus</text></g><g><rect x="0" y="25.50610193826276" height="21.708542713567795" width="5" fill="#000"></rect><text x="11" y="36.36037329504666" dy="0.35em" text-anchor="start">Aeromexico</text></g><g><rect x="0" y="57.214644651830554" height="18.60732232591522" width="5" fill="#000"></rect><text x="11" y="66.51830581478816" dy="0.35em" text-anchor="start">Air Canada</text></g><g><rect x="0" y="85.82196697774577" height="18.607322325915447" width="5" fill="#000"></rect><text x="11" y="95.1256281407035" dy="0.35em" text-anchor="start">Air China</text></g><g><rect x="0" y="114.42928930366122" height="18.60732232591522" width="5" fill="#000"></rect><text x="11" y="123.73295046661883" dy="0.35em" text-anchor="start">Air France</text></g><g><rect x="0" y="143.03661162957644" height="18.607322325915675" width="5" fill="#000"></rect><text x="11" y="152.34027279253428" dy="0.35em" text-anchor="start">Air New Zealand</text></g><g><rect x="0" y="171.64393395549212" height="18.60732232591522" width="5" fill="#000"></rect><text x="11" y="180.94759511844973" dy="0.35em" text-anchor="start">AirTran Airways</text></g><g><rect x="0" y="200.25125628140734" height="55.82196697774543" width="5" fill="#000"></rect><text x="11" y="228.16223977028005" dy="0.35em" text-anchor="start">Alaska Airlines</text></g><g><rect x="0" y="266.07322325915277" height="18.607322325915447" width="5" fill="#000"></rect><text x="11" y="275.3768844221105" dy="0.35em" text-anchor="start">All Nippon Airways</text></g><g><rect x="0" y="294.6805455850682" height="1.5506101938262873" width="5" fill="#000"></rect><text x="11" y="295.45585068198136" dy="0.35em" text-anchor="start">Allegiant Air</text></g><g><rect x="0" y="306.2311557788945" height="35.66403445800438" width="5" fill="#000"></rect><text x="11" y="324.0631730078967" dy="0.35em" text-anchor="start">American Airlines</text></g><g><rect x="0" y="351.8951902368989" height="18.607322325915675" width="5" fill="#000"></rect><text x="11" y="361.1988513998567" dy="0.35em" text-anchor="start">Asiana Airlines</text></g><g><rect x="0" y="380.50251256281456" height="18.607322325915447" width="5" fill="#000"></rect><text x="11" y="389.8061737257723" dy="0.35em" text-anchor="start">British Airways</text></g><g><rect x="0" y="409.10983488873" height="18.607322325915106" width="5" fill="#000"></rect><text x="11" y="418.41349605168756" dy="0.35em" text-anchor="start">Cathay Pacific</text></g><g><rect x="0" y="437.7171572146451" height="18.60732232591522" width="5" fill="#000"></rect><text x="11" y="447.0208183776027" dy="0.35em" text-anchor="start">China Airlines</text></g><g><rect x="0" y="466.32447954056033" height="48.06891600861445" width="5" fill="#000"></rect><text x="11" y="490.35893754486756" dy="0.35em" text-anchor="start">Delta Air Lines</text></g><g><rect x="0" y="553.0007178750902" height="18.607322325915447" width="5" fill="#000"></rect><text x="11" y="562.304379038048" dy="0.35em" text-anchor="start">Emirates</text></g><g><rect x="0" y="524.3933955491748" height="18.607322325915447" width="5" fill="#000"></rect><text x="11" y="533.6970567121325" dy="0.35em" text-anchor="start">EVA Airways</text></g><g><rect x="0" y="581.6080402010057" height="18.607322325914993" width="5" fill="#000"></rect><text x="11" y="590.9117013639632" dy="0.35em" text-anchor="start">Frontier Airlines</text></g><g><rect x="0" y="610.2153625269207" height="18.607322325915447" width="5" fill="#000"></rect><text x="11" y="619.5190236898784" dy="0.35em" text-anchor="start">Hawaiian Airlines</text></g><g><rect x="0" y="638.8226848528361" height="18.607322325915447" width="5" fill="#000"></rect><text x="11" y="648.1263460157938" dy="0.35em" text-anchor="start">Japan Airlines</text></g><g><rect x="0" y="667.4300071787516" height="1.5506101938262873" width="5" fill="#000"></rect><text x="11" y="668.2053122756647" dy="0.35em" text-anchor="start">Jet Airways</text></g><g><rect x="0" y="678.9806173725779" height="18.607322325915447" width="5" fill="#000"></rect><text x="11" y="688.2842785355356" dy="0.35em" text-anchor="start">JetBlue Airways</text></g><g><rect x="0" y="707.5879396984933" height="18.607322325915447" width="5" fill="#000"></rect><text x="11" y="716.891600861451" dy="0.35em" text-anchor="start">KLM Royal Dutch Airlines</text></g><g><rect x="0" y="736.1952620244087" height="18.607322325915447" width="5" fill="#000"></rect><text x="11" y="745.4989231873665" dy="0.35em" text-anchor="start">Korean Air Lines</text></g><g><rect x="0" y="764.8025843503242" height="18.60732232591522" width="5" fill="#000"></rect><text x="11" y="774.1062455132818" dy="0.35em" text-anchor="start">Lufthansa German Airlines</text></g><g><rect x="0" y="793.4099066762394" height="18.60732232591522" width="5" fill="#000"></rect><text x="11" y="802.713567839197" dy="0.35em" text-anchor="start">Mexicana Airlines</text></g><g><rect x="0" y="822.0172290021546" height="1.5506101938262873" width="5" fill="#000"></rect><text x="11" y="822.7925340990678" dy="0.35em" text-anchor="start">Miami Air International</text></g><g><rect x="0" y="833.5678391959809" height="18.607322325915447" width="5" fill="#000"></rect><text x="11" y="842.8715003589386" dy="0.35em" text-anchor="start">Midwest Airlines</text></g><g><rect x="0" y="862.1751615218964" height="46.51830581478839" width="5" fill="#000"></rect><text x="11" y="885.4343144292906" dy="0.35em" text-anchor="start">Northwest Airlines</text></g><g><rect x="0" y="918.6934673366848" height="18.60732232591522" width="5" fill="#000"></rect><text x="11" y="927.9971284996424" dy="0.35em" text-anchor="start">Philippine Airlines</text></g><g><rect x="0" y="947.3007896626" height="18.607322325915447" width="5" fill="#000"></rect><text x="11" y="956.6044508255577" dy="0.35em" text-anchor="start">Qantas Airways</text></g><g><rect x="0" y="975.9081119885154" height="18.607322325915447" width="5" fill="#000"></rect><text x="11" y="985.2117731514732" dy="0.35em" text-anchor="start">Singapore Airlines</text></g><g><rect x="0" y="1004.5154343144309" height="27.91098348887317" width="5" fill="#000"></rect><text x="11" y="1018.4709260588675" dy="0.35em" text-anchor="start">Southwest Airlines</text></g><g><rect x="0" y="1042.426417803304" height="14.73079684134882" width="5" fill="#000"></rect><text x="11" y="1049.7918162239785" dy="0.35em" text-anchor="start">Sun Country Airlines</text></g><g><rect x="0" y="1067.1572146446529" height="18.607322325914993" width="5" fill="#000"></rect><text x="11" y="1076.4608758076104" dy="0.35em" text-anchor="start">TACA</text></g><g><rect x="0" y="1125.9224694903091" height="18.607322325914993" width="5" fill="#000"></rect><text x="11" y="1135.2261306532666" dy="0.35em" text-anchor="start">United Airlines</text></g><g><rect x="0" y="1154.5297918162241" height="258.9519023689878" width="5" fill="#000"></rect><text x="11" y="1284.005743000718" dy="0.35em" text-anchor="start">United Airlines - Pre 07/01/2013</text></g><g><rect x="0" y="1095.7645369705679" height="20.15793251974128" width="5" fill="#000"></rect><text x="11" y="1105.8435032304385" dy="0.35em" text-anchor="start">US Airways</text></g><g><rect x="0" y="1423.4816941852118" height="18.607322325915447" width="5" fill="#000"></rect><text x="11" y="1432.7853553481696" dy="0.35em" text-anchor="start">Virgin America</text></g><g><rect x="0" y="1452.0890165111273" height="18.60732232591522" width="5" fill="#000"></rect><text x="11" y="1461.392677674085" dy="0.35em" text-anchor="start">Virgin Atlantic</text></g><g><rect x="0" y="1480.6963388370425" height="7.753050969131436" width="5" fill="#000"></rect><text x="11" y="1484.5728643216082" dy="0.35em" text-anchor="start">WestJet Airlines</text></g><g><rect x="0" y="1498.449389806174" height="1.5506101938262873" width="5" fill="#000"></rect><text x="11" y="1499.224694903087" dy="0.35em" text-anchor="start">World Airways</text></g></g></g></svg>