<svg width="1920" height="1520" xmlns="http://www.w3.org/2000/svg" version="1.1"><g transform="translate(0, 10)"><g class="links" fill="none" stroke-opacity="0.4"><path d="M5,386.7394828701905C481.25,386.7394828701905,481.25,646.124855117748,957.5,646.124855117748" stroke-width="51.498572187717585" style="stroke: rgb(191, 105, 105);"></path><path d="M5,1476.4659368227406C481.25,1476.4659368227406,481.25,432.3450083293736,957.5,432.3450083293736" stroke-width="6.146831905413924" style="stroke: rgb(191, 115, 105);"></path><path d="M5,1429.2088292164244C481.25,1429.2088292164244,481.25,1290.8163083463905,957.5,1290.8163083463905" stroke-width="68.3673833072185" style="stroke: rgb(191, 125, 105);"></path><path d="M5,1033.9550585016573C481.25,1033.9550585016573,481.25,460.49723074638774,957.5,460.49723074638774" stroke-width="4.574597748377552" style="stroke: rgb(191, 135, 105);"></path><path d="M5,1022.7375494463658C481.25,1022.7375494463658,481.25,420.34138219556405,957.5,420.34138219556405" stroke-width="17.86042036220523" style="stroke: rgb(191, 135, 105);"></path><path d="M5,1005.1700591837869C481.25,1005.1700591837869,481.25,339.9731526940422,957.5,339.9731526940422" stroke-width="17.27456016295266" style="stroke: rgb(191, 135, 105);"></path><path d="M5,993.4168734614918C481.25,993.4168734614918,481.25,302.44295861409216,957.5,302.44295861409216" stroke-width="6.231811281637278" style="stroke: rgb(191, 135, 105);"></path><path d="M5,970.2182702445074C481.25,970.2182702445074,481.25,261.6223590373823,957.5,261.6223590373823" stroke-width="40.16539515233185" style="stroke: rgb(191, 135, 105);"></path><path d="M5,1210.6337474693307C481.25,1210.6337474693307,481.25,1082.2412265992966,957.5,1082.2412265992966" stroke-width="348.78278018696943" style="stroke: rgb(191, 135, 105);"></path><path d="M5,919.470384565262C481.25,919.470384565262,481.25,887.1846484027318,957.5,887.1846484027318" stroke-width="41.33037620616032" style="stroke: rgb(191, 145, 105);"></path><path d="M5,865.1150694093052C481.25,865.1150694093052,481.25,842.8293332467748,957.5,842.8293332467748" stroke-width="47.38025410575372" style="stroke: rgb(191, 155, 105);"></path><path d="M5,829.875023239813C481.25,829.875023239813,481.25,360.6061320644809,957.5,360.6061320644809" stroke-width="3.09983823323114" style="stroke: rgb(191, 166, 105);"></path><path d="M5,817.7297857020167C481.25,817.7297857020167,481.25,818.5438877727172,957.5,818.5438877727172" stroke-width="1.1906368423615217" style="stroke: rgb(191, 176, 105);"></path><path d="M5,765.9502451890584C481.25,765.9502451890584,481.25,776.7643472597589,957.5,776.7643472597589" stroke-width="82.36844418355507" style="stroke: rgb(191, 186, 105);"></path><path d="M5,710.2648639589208C481.25,710.2648639589208,481.25,237.03850232285617,957.5,237.03850232285617" stroke-width="9.00231827672032" style="stroke: rgb(186, 191, 105);"></path><path d="M5,693.997938666822C481.25,693.997938666822,481.25,297.56128681953516,957.5,297.56128681953516" stroke-width="3.5315323074767355" style="stroke: rgb(176, 191, 105);"></path><path d="M5,679.008986917734C481.25,679.008986917734,481.25,229.31415758914625,957.5,229.31415758914625" stroke-width="6.446371190699511" style="stroke: rgb(166, 191, 105);"></path><path d="M5,629.0537985784392C481.25,629.0537985784392,481.25,223.95734753277134,957.5,223.95734753277134" stroke-width="4.267248922050335" style="stroke: rgb(155, 191, 105);"></path><path d="M5,648.4866121809243C481.25,648.4866121809243,481.25,718.2809360265215,957.5,718.2809360265215" stroke-width="34.59837828291975" style="stroke: rgb(155, 191, 105);"></path><path d="M5,616.0549203563409C481.25,616.0549203563409,481.25,700.1164931239883,957.5,700.1164931239883" stroke-width="1.7305075221467174" style="stroke: rgb(145, 191, 105);"></path><path d="M5,591.8362641341054C481.25,591.8362641341054,481.25,454.85965322745324,957.5,454.85965322745324" stroke-width="6.700557289491491" style="stroke: rgb(135, 191, 105);"></path><path d="M5,572.4016009880523C481.25,572.4016009880523,481.25,405.3267875131545,957.5,405.3267875131545" stroke-width="12.168769002613946" style="stroke: rgb(125, 191, 105);"></path><path d="M5,554.6951892745122C481.25,554.6951892745122,481.25,220.20169585951288,957.5,220.20169585951288" stroke-width="3.244054424466553" style="stroke: rgb(115, 191, 105);"></path><path d="M5,539.7905805686737C481.25,539.7905805686737,481.25,395.9598215182423,957.5,395.9598215182423" stroke-width="6.565162987210511" style="stroke: rgb(105, 191, 105);"></path><path d="M5,519.9777765529627C481.25,519.9777765529627,481.25,692.7178930243925,957.5,692.7178930243925" stroke-width="13.060445044211482" style="stroke: rgb(105, 191, 115);"></path><path d="M5,503.3960399842083C481.25,503.3960399842083,481.25,218.52815460063093,957.5,218.52815460063093" stroke-width="0.10302809329734088" style="stroke: rgb(105, 191, 125);"></path><path d="M5,491.17558499649067C481.25,491.17558499649067,481.25,216.30769961291327,957.5,216.30769961291327" stroke-width="4.337881882137957" style="stroke: rgb(105, 191, 135);"></path><path d="M5,131.15008025669368C481.25,131.15008025669368,481.25,509.4755306671516,957.5,509.4755306671516" stroke-width="29.37344823535707" style="stroke: rgb(105, 191, 145);"></path><path d="M5,114.3007496034577C481.25,114.3007496034577,481.25,449.34676804715,957.5,449.34676804715" stroke-width="4.32521307111487" style="stroke: rgb(105, 191, 145);"></path><path d="M5,476.4864906991749C481.25,476.4864906991749,481.25,683.66751714604,957.5,683.66751714604" stroke-width="5.040306712493353" style="stroke: rgb(105, 191, 155);"></path><path d="M5,459.32972605383503C481.25,459.32972605383503,481.25,676.5107525007,957.5,676.5107525007" stroke-width="9.273222578186601" style="stroke: rgb(105, 191, 166);"></path><path d="M5,442.6896203968512C481.25,442.6896203968512,481.25,474.78802398846767,957.5,474.78802398846767" stroke-width="4.006988735781533" style="stroke: rgb(105, 191, 176);"></path><path d="M5,426.58744749650504C481.25,426.58744749650504,481.25,210.04008013938883,957.5,210.04008013938883" stroke-width="8.197357064910944" style="stroke: rgb(105, 191, 186);"></path><path d="M5,347.5314233595596C481.25,347.5314233595596,481.25,202.48262819016114,957.5,202.48262819016114" stroke-width="6.917546833544454" style="stroke: rgb(105, 186, 191);"></path><path d="M5,327.4415975685664C481.25,327.4415975685664,481.25,192.3928023991679,957.5,192.3928023991679" stroke-width="13.262104748441988" style="stroke: rgb(105, 176, 191);"></path><path d="M5,305.04643864842336C481.25,305.04643864842336,481.25,386.91313347871505,957.5,386.91313347871505" stroke-width="11.528213091843899" style="stroke: rgb(105, 166, 191);"></path><path d="M5,287.7227233701489C481.25,287.7227233701489,481.25,184.20214129259452,957.5,184.20214129259452" stroke-width="3.1192174647048114" style="stroke: rgb(105, 155, 191);"></path><path d="M5,228.09083396096298C481.25,228.09083396096298,481.25,572.3032883470559,957.5,572.3032883470559" stroke-width="96.14456135366663" style="stroke: rgb(105, 145, 191);"></path><path d="M5,169.98417684143357C481.25,169.98417684143357,481.25,524.1966312275263,957.5,524.1966312275263" stroke-width="0.06875288539241417" style="stroke: rgb(105, 135, 191);"></path><path d="M5,157.89330238655472C481.25,157.89330238655472,481.25,180.58603454805956,957.5,180.58603454805956" stroke-width="4.112996024365125" style="stroke: rgb(105, 125, 191);"></path><path d="M5,98.13949897134285C481.25,98.13949897134285,481.25,490.79016245291564,957.5,490.79016245291564" stroke-width="7.997288193114845" style="stroke: rgb(105, 115, 191);"></path><path d="M5,82.09562284866125C481.25,82.09562284866125,481.25,293.7502886396725,957.5,293.7502886396725" stroke-width="4.090464052248722" style="stroke: rgb(105, 105, 191);"></path><path d="M5,66.49441754402265C481.25,66.49441754402265,481.25,377.5930536542787,957.5,377.5930536542787" stroke-width="7.111946557028852" style="stroke: rgb(115, 105, 191);"></path><path d="M5,51.17367599756959C481.25,51.17367599756959,481.25,176.76476826793836,957.5,176.76476826793836" stroke-width="3.529536535877208" style="stroke: rgb(125, 105, 191);"></path><path d="M5,31.52040355080337C481.25,31.52040355080337,481.25,323.44736843373835,957.5,323.44736843373835" stroke-width="15.777008357655125" style="stroke: rgb(135, 105, 191);"></path><path d="M5,0.9405145973349338C481.25,0.9405145973349338,481.25,373.0965657784305,957.5,373.0965657784305" stroke-width="1.8810291946675939" style="stroke: rgb(145, 105, 191);"></path><path d="M5,12.756464283322156C481.25,12.756464283322156,481.25,446.30872642293906,957.5,446.30872642293906" stroke-width="1.7508701773071127" style="stroke: rgb(155, 105, 191);"></path><path d="M5,605.1881046870593C481.25,605.1881046870593,481.25,699.2496774547067,957.5,699.2496774547067" stroke-width="0.0031238164166515485" style="stroke: rgb(166, 105, 191);"></path><path d="M5,1489.7622428616207C481.25,1489.7622428616207,481.25,348.83332286169184,957.5,348.83332286169184" stroke-width="0.445780172346608" style="stroke: rgb(176, 105, 191);"></path><path d="M5,1499.9925664738967C481.25,1499.9925664738967,481.25,435.4258578081832,957.5,435.4258578081832" stroke-width="0.01486705220517496" style="stroke: rgb(186, 105, 191);"></path><path d="M962.5,997.0588456951994C1438.75,997.0588456951994,1438.75,967.0588456951996,1915,967.0588456951996" stroke-width="655.8823086096012" style="stroke: rgb(191, 105, 186);"></path><path d="M962.5,577.9546048733785C1438.75,577.9546048733785,1438.75,296.16308651702093,1915,296.16308651702093" stroke-width="182.32617303404044" style="stroke: rgb(191, 105, 186);"></path><path d="M962.5,403.7946712576913C1438.75,403.7946712576913,1438.75,586.1208442917318,1915,586.1208442917318" stroke-width="63.277240153189126" style="stroke: rgb(191, 105, 176);"></path><path d="M962.5,454.10891047743104C1438.75,454.10891047743104,1438.75,626.4350835114719,1915,626.4350835114719" stroke-width="17.351238286291025" style="stroke: rgb(191, 105, 166);"></path><path d="M962.5,332.30753860138793C1438.75,332.30753860138793,1438.75,534.633711635429,1915,534.633711635429" stroke-width="33.4973486929544" style="stroke: rgb(191, 105, 155);"></path><path d="M962.5,298.6319604342295C1438.75,298.6319604342295,1438.75,510.9581334682705,1915,510.9581334682705" stroke-width="13.853807641362735" style="stroke: rgb(191, 105, 145);"></path><path d="M962.5,228.35252830677396C1438.75,228.35252830677396,1438.75,450.67870134081494,1915,450.67870134081494" stroke-width="106.7050566135484" style="stroke: rgb(191, 105, 135);"></path><path d="M962.5,360.6061320644809C1438.75,360.6061320644809,1438.75,552.9323050985217,1915,552.9323050985217" stroke-width="3.09983823323114" style="stroke: rgb(191, 105, 125);"></path><path d="M962.5,474.78802398846767C1438.75,474.78802398846767,1438.75,637.1141970225083,1915,637.1141970225083" stroke-width="4.006988735781533" style="stroke: rgb(191, 105, 115);"></path></g><g class="nodes" font-family="Arial, Helvetica" font-size="10"><g><rect x="957.5" y="174.99999999999977" height="106.70505661354832" width="5" fill="#000"></rect><text x="951.5" y="228.35252830677393" dy="0.35em" text-anchor="end">Asia</text></g><g><rect x="957.5" y="291.7050566135481" height="13.853807641362664" width="5" fill="#000"></rect><text x="951.5" y="298.6319604342294" dy="0.35em" text-anchor="end">Australia / Oceania</text></g><g><rect x="957.5" y="315.55886425491076" height="33.497348692954574" width="5" fill="#000"></rect><text x="951.5" y="332.30753860138805" dy="0.35em" text-anchor="end">Canada</text></g><g><rect x="957.5" y="359.05621294786533" height="3.0998382332313668" width="5" fill="#000"></rect><text x="951.5" y="360.606132064481" dy="0.35em" text-anchor="end">Central America</text></g><g><rect x="957.5" y="372.1560511810967" height="63.277240153188814" width="5" fill="#000"></rect><text x="951.5" y="403.7946712576911" dy="0.35em" text-anchor="end">Europe</text></g><g><rect x="957.5" y="445.4332913342855" height="17.35123828629139" width="5" fill="#000"></rect><text x="951.5" y="454.1089104774312" dy="0.35em" text-anchor="end">Mexico</text></g><g><rect x="957.5" y="472.7845296205769" height="4.006988735781306" width="5" fill="#000"></rect><text x="951.5" y="474.78802398846756" dy="0.35em" text-anchor="end">Middle East</text></g><g><rect x="957.5" y="486.7915183563582" height="838.208481643642" width="5" fill="#000"></rect><text x="951.5" y="905.8957591781792" dy="0.35em" text-anchor="end">US</text></g><g><rect x="1915" y="205.00000000000068" height="182.32617303404004" width="5" fill="#000"></rect><text x="1909" y="296.1630865170207" dy="0.35em" text-anchor="end">Low Fare</text></g><g><rect x="1915" y="397.3261730340407" height="897.6738269659587" width="5" fill="#000"></rect><text x="1909" y="846.16308651702" dy="0.35em" text-anchor="end">Other</text></g><g><rect x="0" y="1.1368683772161603e-12" height="1.8810291946674624" width="5" fill="#000"></rect><text x="11" y="0.9405145973348681" dy="0.35em" text-anchor="start">Aer Lingus</text></g><g><rect x="0" y="11.8810291946686" height="1.7508701773072062" width="5" fill="#000"></rect><text x="11" y="12.756464283322202" dy="0.35em" text-anchor="start">Aeromexico</text></g><g><rect x="0" y="23.631899371975805" height="15.777008357655177" width="5" fill="#000"></rect><text x="11" y="31.520403550803394" dy="0.35em" text-anchor="start">Air Canada</text></g><g><rect x="0" y="49.40890772963098" height="3.5295365358772415" width="5" fill="#000"></rect><text x="11" y="51.1736759975696" dy="0.35em" text-anchor="start">Air China</text></g><g><rect x="0" y="62.938444265508224" height="7.111946557028659" width="5" fill="#000"></rect><text x="11" y="66.49441754402255" dy="0.35em" text-anchor="start">Air France</text></g><g><rect x="0" y="80.05039082253688" height="4.090464052248535" width="5" fill="#000"></rect><text x="11" y="82.09562284866115" dy="0.35em" text-anchor="start">Air New Zealand</text></g><g><rect x="0" y="94.14085487478542" height="7.997288193114855" width="5" fill="#000"></rect><text x="11" y="98.13949897134285" dy="0.35em" text-anchor="start">AirTran Airways</text></g><g><rect x="0" y="112.13814306790027" height="33.69866130647188" width="5" fill="#000"></rect><text x="11" y="128.9874737211362" dy="0.35em" text-anchor="start">Alaska Airlines</text></g><g><rect x="0" y="155.83680437437215" height="4.112996024365202" width="5" fill="#000"></rect><text x="11" y="157.89330238655475" dy="0.35em" text-anchor="start">All Nippon Airways</text></g><g><rect x="0" y="169.94980039873735" height="0.06875288539231406" width="5" fill="#000"></rect><text x="11" y="169.9841768414335" dy="0.35em" text-anchor="start">Allegiant Air</text></g><g><rect x="0" y="180.01855328412967" height="96.14456135366686" width="5" fill="#000"></rect><text x="11" y="228.0908339609631" dy="0.35em" text-anchor="start">American Airlines</text></g><g><rect x="0" y="286.1631146377965" height="3.1192174647048887" width="5" fill="#000"></rect><text x="11" y="287.72272337014897" dy="0.35em" text-anchor="start">Asiana Airlines</text></g><g><rect x="0" y="299.2823321025014" height="11.528213091844009" width="5" fill="#000"></rect><text x="11" y="305.0464386484234" dy="0.35em" text-anchor="start">British Airways</text></g><g><rect x="0" y="320.8105451943454" height="13.26210474844197" width="5" fill="#000"></rect><text x="11" y="327.4415975685664" dy="0.35em" text-anchor="start">Cathay Pacific</text></g><g><rect x="0" y="344.0726499427874" height="6.917546833544293" width="5" fill="#000"></rect><text x="11" y="347.53142335955954" dy="0.35em" text-anchor="start">China Airlines</text></g><g><rect x="0" y="360.9901967763317" height="51.498572187717855" width="5" fill="#000"></rect><text x="11" y="386.7394828701906" dy="0.35em" text-anchor="start">Delta Air Lines</text></g><g><rect x="0" y="440.6861260289604" height="4.006988735781306" width="5" fill="#000"></rect><text x="11" y="442.68962039685107" dy="0.35em" text-anchor="start">Emirates</text></g><g><rect x="0" y="422.48876896404954" height="8.197357064910875" width="5" fill="#000"></rect><text x="11" y="426.587447496505" dy="0.35em" text-anchor="start">EVA Airways</text></g><g><rect x="0" y="454.6931147647417" height="9.273222578186505" width="5" fill="#000"></rect><text x="11" y="459.329726053835" dy="0.35em" text-anchor="start">Frontier Airlines</text></g><g><rect x="0" y="473.9663373429282" height="5.040306712493475" width="5" fill="#000"></rect><text x="11" y="476.48649069917496" dy="0.35em" text-anchor="start">Hawaiian Airlines</text></g><g><rect x="0" y="489.0066440554217" height="4.3378818821379355" width="5" fill="#000"></rect><text x="11" y="491.17558499649067" dy="0.35em" text-anchor="start">Japan Airlines</text></g><g><rect x="0" y="503.34452593755964" height="0.10302809329732554" width="5" fill="#000"></rect><text x="11" y="503.3960399842083" dy="0.35em" text-anchor="start">Jet Airways</text></g><g><rect x="0" y="513.447554030857" height="13.06044504421152" width="5" fill="#000"></rect><text x="11" y="519.9777765529627" dy="0.35em" text-anchor="start">JetBlue Airways</text></g><g><rect x="0" y="536.5079990750685" height="6.565162987210442" width="5" fill="#000"></rect><text x="11" y="539.7905805686737" dy="0.35em" text-anchor="start">KLM Royal Dutch Airlines</text></g><g><rect x="0" y="553.0731620622789" height="3.2440544244664125" width="5" fill="#000"></rect><text x="11" y="554.6951892745121" dy="0.35em" text-anchor="start">Korean Air Lines</text></g><g><rect x="0" y="566.3172164867453" height="12.168769002614226" width="5" fill="#000"></rect><text x="11" y="572.4016009880525" dy="0.35em" text-anchor="start">Lufthansa German Airlines</text></g><g><rect x="0" y="588.4859854893596" height="6.700557289491371" width="5" fill="#000"></rect><text x="11" y="591.8362641341052" dy="0.35em" text-anchor="start">Mexicana Airlines</text></g><g><rect x="0" y="605.1865427788509" height="0.003123816416518821" width="5" fill="#000"></rect><text x="11" y="605.1881046870592" dy="0.35em" text-anchor="start">Miami Air International</text></g><g><rect x="0" y="615.1896665952675" height="1.7305075221465813" width="5" fill="#000"></rect><text x="11" y="616.0549203563407" dy="0.35em" text-anchor="start">Midwest Airlines</text></g><g><rect x="0" y="626.920174117414" height="38.865627204970224" width="5" fill="#000"></rect><text x="11" y="646.3529877198991" dy="0.35em" text-anchor="start">Northwest Airlines</text></g><g><rect x="0" y="675.7858013223843" height="6.446371190699438" width="5" fill="#000"></rect><text x="11" y="679.008986917734" dy="0.35em" text-anchor="start">Philippine Airlines</text></g><g><rect x="0" y="692.2321725130837" height="3.5315323074769367" width="5" fill="#000"></rect><text x="11" y="693.9979386668222" dy="0.35em" text-anchor="start">Qantas Airways</text></g><g><rect x="0" y="705.7637048205606" height="9.002318276720189" width="5" fill="#000"></rect><text x="11" y="710.2648639589207" dy="0.35em" text-anchor="start">Singapore Airlines</text></g><g><rect x="0" y="724.7660230972808" height="82.36844418355508" width="5" fill="#000"></rect><text x="11" y="765.9502451890584" dy="0.35em" text-anchor="start">Southwest Airlines</text></g><g><rect x="0" y="817.1344672808359" height="1.1906368423615277" width="5" fill="#000"></rect><text x="11" y="817.7297857020167" dy="0.35em" text-anchor="start">Sun Country Airlines</text></g><g><rect x="0" y="828.3251041231974" height="3.099838233230912" width="5" fill="#000"></rect><text x="11" y="829.8750232398129" dy="0.35em" text-anchor="start">TACA</text></g><g><rect x="0" y="898.8051964621818" height="41.3303762061596" width="5" fill="#000"></rect><text x="11" y="919.4703845652616" dy="0.35em" text-anchor="start">United Airlines</text></g><g><rect x="0" y="950.1355726683414" height="434.8895648944738" width="5" fill="#000"></rect><text x="11" y="1167.5803551155782" dy="0.35em" text-anchor="start">United Airlines - Pre 07/01/2013</text></g><g><rect x="0" y="841.4249423564283" height="47.380254105753465" width="5" fill="#000"></rect><text x="11" y="865.1150694093051" dy="0.35em" text-anchor="start">US Airways</text></g><g><rect x="0" y="1395.0251375628152" height="68.36738330721846" width="5" fill="#000"></rect><text x="11" y="1429.2088292164244" dy="0.35em" text-anchor="start">Virgin America</text></g><g><rect x="0" y="1473.3925208700336" height="6.146831905413819" width="5" fill="#000"></rect><text x="11" y="1476.4659368227406" dy="0.35em" text-anchor="start">Virgin Atlantic</text></g><g><rect x="0" y="1489.5393527754475" height="0.4457801723465309" width="5" fill="#000"></rect><text x="11" y="1489.7622428616207" dy="0.35em" text-anchor="start">WestJet Airlines</text></g><g><rect x="0" y="1499.985132947794" height="0.014867052204863285" width="5" fill="#000"></rect><text x="11" y="1499.9925664738964" dy="0.35em" text-anchor="start">World Airways</text></g></g></g></svg>