<svg width="1920" height="1520" xmlns="http://www.w3.org/2000/svg" version="1.1"><g transform="translate(0, 10)"><g class="links" fill="none" stroke-opacity="0.4"><path d="M5,639.7796641050509C481.25,639.7796641050509,481.25,744.1636618984985,957.5,744.1636618984985" stroke-width="1.9446938387092738" style="stroke: rgb(191, 105, 105);"></path><path d="M5,638.63245474684C481.25,638.63245474684,481.25,225.567164379864,957.5,225.567164379864" stroke-width="0.3497248777124593" style="stroke: rgb(191, 105, 105);"></path><path d="M5,1484.950659676738C481.25,1484.950659676738,481.25,431.56654446850075,957.5,431.56654446850075" stroke-width="5.897511741415187" style="stroke: rgb(191, 115, 105);"></path><path d="M5,1439.1751948635863C481.25,1439.1751948635863,481.25,1292.1732910575556,957.5,1292.1732910575556" stroke-width="65.65341788488861" style="stroke: rgb(191, 124, 105);"></path><path d="M5,1405.921401791446C481.25,1405.921401791446,481.25,349.94183178636194,957.5,349.94183178636194" stroke-width="0.74726093512154" style="stroke: rgb(191, 124, 105);"></path><path d="M5,1406.3217590900745C481.25,1406.3217590900745,481.25,460.71787947006345,957.5,460.71787947006345" stroke-width="0.05345366213516233" style="stroke: rgb(191, 124, 105);"></path><path d="M5,1045.8045623580927C481.25,1045.8045623580927,481.25,458.381128506168,957.5,458.381128506168" stroke-width="4.620048265655685" style="stroke: rgb(191, 134, 105);"></path><path d="M5,1035.4471588996578C481.25,1035.4471588996578,481.25,420.57040927218605,957.5,420.57040927218605" stroke-width="16.094758651214107" style="stroke: rgb(191, 134, 105);"></path><path d="M5,1018.7355842394556C481.25,1018.7355842394556,481.25,340.9040059842061,957.5,340.9040059842061" stroke-width="17.328390669190163" style="stroke: rgb(191, 134, 105);"></path><path d="M5,1007.1751871701023C481.25,1007.1751871701023,481.25,304.03757117841724,957.5,304.03757117841724" stroke-width="5.792403469516571" style="stroke: rgb(191, 134, 105);"></path><path d="M5,983.0279655074127C481.25,983.0279655074127,481.25,263.26749256808245,957.5,263.26749256808245" stroke-width="42.50203985586284" style="stroke: rgb(191, 134, 105);"></path><path d="M5,1221.8311789074025C481.25,1221.8311789074025,481.25,1085.629989698629,957.5,1085.629989698629" stroke-width="347.4331848329644" style="stroke: rgb(191, 134, 105);"></path><path d="M5,931.4177513480859C481.25,931.4177513480859,481.25,891.5542030507515,957.5,891.5542030507515" stroke-width="40.718388462790756" style="stroke: rgb(191, 144, 105);"></path><path d="M5,879.751575756651C481.25,879.751575756651,481.25,849.8880274593168,957.5,849.8880274593168" stroke-width="42.61396272007853" style="stroke: rgb(191, 154, 105);"></path><path d="M5,846.8883459491605C481.25,846.8883459491605,481.25,363.97229515392854,957.5,363.97229515392854" stroke-width="3.112496894902351" style="stroke: rgb(191, 163, 105);"></path><path d="M5,822.5893058691933C481.25,822.5893058691933,481.25,827.8913548400507,957.5,827.8913548400507" stroke-width="1.379382518453725" style="stroke: rgb(191, 173, 105);"></path><path d="M5,771.6638764626252C481.25,771.6638764626252,481.25,786.9659254334825,957.5,786.9659254334825" stroke-width="80.47147629468273" style="stroke: rgb(191, 183, 105);"></path><path d="M5,384.62900837185987C481.25,384.62900837185987,481.25,662.9751678293974,957.5,662.9751678293974" stroke-width="84.7551017668289" style="stroke: rgb(189, 191, 105);"></path><path d="M5,340.46208183782693C481.25,340.46208183782693,481.25,208.11842801035428,957.5,208.11842801035428" stroke-width="3.5787513012368497" style="stroke: rgb(189, 191, 105);"></path><path d="M5,716.7838846177178C481.25,716.7838846177178,481.25,237.3722189425851,957.5,237.3722189425851" stroke-width="9.288507395131894" style="stroke: rgb(179, 191, 105);"></path><path d="M5,679.1460622903672C481.25,679.1460622903672,481.25,299.74197928216233,957.5,299.74197928216233" stroke-width="2.7987803229933337" style="stroke: rgb(170, 191, 105);"></path><path d="M5,664.253702915721C481.25,664.253702915721,481.25,229.2349960318697,957.5,229.2349960318697" stroke-width="6.985938426298936" style="stroke: rgb(160, 191, 105);"></path><path d="M5,628.1933087887428C481.25,628.1933087887428,481.25,742.927031459903,957.5,742.927031459903" stroke-width="0.5285670384818627" style="stroke: rgb(150, 191, 105);"></path><path d="M5,615.7056418633933C481.25,615.7056418633933,481.25,453.8477209672317,957.5,453.8477209672317" stroke-width="4.446766812217017" style="stroke: rgb(141, 191, 105);"></path><path d="M5,597.9309007472079C481.25,597.9309007472079,481.25,404.909849185047,957.5,404.909849185047" stroke-width="11.102715420153752" style="stroke: rgb(131, 191, 105);"></path><path d="M5,569.6636554150825C481.25,569.6636554150825,481.25,223.67055430454403,957.5,223.67055430454403" stroke-width="3.4434952729274793" style="stroke: rgb(121, 191, 105);"></path><path d="M5,555.0366017485244C481.25,555.0366017485244,481.25,396.4531854448762,957.5,396.4531854448762" stroke-width="5.810612060187804" style="stroke: rgb(112, 191, 105);"></path><path d="M5,531.0353403738552C481.25,531.0353403738552,481.25,731.5667925960869,957.5,731.5667925960869" stroke-width="22.191910689150422" style="stroke: rgb(105, 191, 108);"></path><path d="M5,507.88272743880117C481.25,507.88272743880117,481.25,219.89214907760143,957.5,219.89214907760143" stroke-width="4.113315180957741" style="stroke: rgb(105, 191, 118);"></path><path d="M5,130.6854983106305C481.25,130.6854983106305,481.25,519.9354849170909,957.5,519.9354849170909" stroke-width="25.657485241185235" style="stroke: rgb(105, 191, 128);"></path><path d="M5,115.36051600755356C481.25,115.36051600755356,481.25,449.12809787863887,957.5,449.12809787863887" stroke-width="4.992479364968649" style="stroke: rgb(105, 191, 128);"></path><path d="M5,493.42661100592534C481.25,493.42661100592534,481.25,718.0713784091145,957.5,718.0713784091145" stroke-width="4.798917684794357" style="stroke: rgb(105, 191, 137);"></path><path d="M5,475.8675517365755C481.25,475.8675517365755,481.25,710.5123191397646,957.5,710.5123191397646" stroke-width="10.319200853905356" style="stroke: rgb(105, 191, 147);"></path><path d="M5,457.8210991955233C481.25,457.8210991955233,481.25,473.6314584152302,957.5,473.6314584152302" stroke-width="5.773704228198508" style="stroke: rgb(105, 191, 157);"></path><path d="M5,440.9704031683491C481.25,440.9704031683491,481.25,213.87164757404764,957.5,213.87164757404764" stroke-width="7.92768782614989" style="stroke: rgb(105, 191, 166);"></path><path d="M5,325.45381987705196C481.25,325.45381987705196,481.25,203.11016604957928,957.5,203.11016604957928" stroke-width="6.437772620313155" style="stroke: rgb(105, 191, 176);"></path><path d="M5,305.5393785484119C481.25,305.5393785484119,481.25,193.1957247209391,957.5,193.1957247209391" stroke-width="13.391110036967188" style="stroke: rgb(105, 191, 186);"></path><path d="M5,283.70383549966436C481.25,283.70383549966436,481.25,388.40789138451817,957.5,388.40789138451817" stroke-width="10.279976060528252" style="stroke: rgb(105, 186, 191);"></path><path d="M5,267.0577271630336C481.25,267.0577271630336,481.25,184.99404939608874,957.5,184.99404939608874" stroke-width="3.012240612733495" style="stroke: rgb(105, 176, 191);"></path><path d="M5,211.63491215251722C481.25,211.63491215251722,481.25,576.6809222418333,957.5,576.6809222418333" stroke-width="87.83338940829952" style="stroke: rgb(105, 166, 191);"></path><path d="M5,155.61622918979538C481.25,155.61622918979538,481.25,181.38594083114992,957.5,181.38594083114992" stroke-width="4.203976517144151" style="stroke: rgb(105, 157, 191);"></path><path d="M5,98.06713043427743C481.25,98.06713043427743,481.25,502.3095964057064,957.5,502.3095964057064" stroke-width="9.594291781583832" style="stroke: rgb(105, 147, 191);"></path><path d="M5,81.35794623115983C481.25,81.35794623115983,481.25,296.4305508083398,957.5,296.4305508083398" stroke-width="3.824076624651669" style="stroke: rgb(105, 137, 191);"></path><path d="M5,65.90495034658733C481.25,65.90495034658733,481.25,379.7269457820077,957.5,379.7269457820077" stroke-width="7.081915144492666" style="stroke: rgb(105, 128, 191);"></path><path d="M5,50.2220164880523C481.25,50.2220164880523,481.25,177.14197628628915,957.5,177.14197628628915" stroke-width="4.283952572577382" style="stroke: rgb(105, 118, 191);"></path><path d="M5,30.427021333545458C481.25,30.427021333545458,481.25,324.58679178139323,957.5,324.58679178139323" stroke-width="15.306037736435464" style="stroke: rgb(105, 108, 191);"></path><path d="M5,1.0582789284726535C481.25,1.0582789284726535,481.25,445.57357926768157,957.5,445.57357926768157" stroke-width="2.116557856945989" style="stroke: rgb(112, 105, 191);"></path><path d="M5,1498.949707773723C481.25,1498.949707773723,481.25,351.3657544802001,957.5,351.3657544802001" stroke-width="2.1005844525547572" style="stroke: rgb(121, 105, 191);"></path><path d="M5,702.1344245716216C481.25,702.1344245716216,481.25,746.7249809376109,957.5,746.7249809376109" stroke-width="0.01041269706049567" style="stroke: rgb(131, 105, 191);"></path><path d="M5,691.3373353374774C481.25,691.3373353374774,481.25,745.9278917034669,957.5,745.9278917034669" stroke-width="1.5837657712275377" style="stroke: rgb(141, 105, 191);"></path><path d="M5,12.44528016113663C481.25,12.44528016113663,481.25,375.85726590557016,957.5,375.85726590557016" stroke-width="0.6574446083824478" style="stroke: rgb(150, 105, 191);"></path><path d="M5,834.305547315065C481.25,834.305547315065,481.25,411.49647975993435,957.5,411.49647975993435" stroke-width="2.0531003732893556" style="stroke: rgb(160, 105, 191);"></path><path d="M5,650.7563723634884C481.25,650.7563723634884,481.25,410.4655682342068,957.5,410.4655682342068" stroke-width="0.008722678165860247" style="stroke: rgb(170, 105, 191);"></path><path d="M5,581.8824730443387C481.25,581.8824730443387,481.25,487.01538052212203,957.5,487.01538052212203" stroke-width="0.9941399855846533" style="stroke: rgb(179, 105, 191);"></path><path d="M962.5,1006.0662716173199C1438.75,1006.0662716173199,1438.75,971.0662716173197,1915,971.0662716173197" stroke-width="637.8674567653603" style="stroke: rgb(189, 105, 191);"></path><path d="M962.5,592.322496874777C1438.75,592.322496874777,1438.75,305.59094412266126,1915,305.59094412266126" stroke-width="189.6200927197252" style="stroke: rgb(189, 105, 191);"></path><path d="M962.5,405.02192197029365C1438.75,405.02192197029365,1438.75,599.6756515176962,1915,599.6756515176962" stroke-width="58.98675673782944" style="stroke: rgb(191, 105, 183);"></path><path d="M962.5,452.6467717340083C1438.75,452.6467717340083,1438.75,637.2668644537337,1915,637.2668644537337" stroke-width="16.195669134245403" style="stroke: rgb(191, 105, 173);"></path><path d="M962.5,444.53211875304714C1438.75,444.53211875304714,1438.75,210.76407934896008,1915,210.76407934896008" stroke-width="0.03363682767709858" style="stroke: rgb(191, 105, 173);"></path><path d="M962.5,335.04854027738725C1438.75,335.04854027738725,1438.75,549.7022698247889,1915,549.7022698247889" stroke-width="34.73501285818038" style="stroke: rgb(191, 105, 163);"></path><path d="M962.5,317.3074033807363C1438.75,317.3074033807363,1438.75,210.37363046756076,1915,210.37363046756076" stroke-width="0.74726093512154" style="stroke: rgb(191, 105, 163);"></path><path d="M962.5,300.72614270459474C1438.75,300.72614270459474,1438.75,526.1271331871179,1915,526.1271331871179" stroke-width="12.415260417161573" style="stroke: rgb(191, 105, 154);"></path><path d="M962.5,229.75925624800718C1438.75,229.75925624800718,1438.75,465.1602467305304,1915,465.1602467305304" stroke-width="109.51851249601346" style="stroke: rgb(191, 105, 144);"></path><path d="M962.5,363.97229515392854C1438.75,363.97229515392854,1438.75,568.6260247013303,1915,568.6260247013303" stroke-width="3.112496894902351" style="stroke: rgb(191, 105, 134);"></path><path d="M962.5,473.6314584152302C1438.75,473.6314584152302,1438.75,648.2515511349555,1915,648.2515511349555" stroke-width="5.773704228198508" style="stroke: rgb(191, 105, 124);"></path><path d="M962.5,487.01538052212203C1438.75,487.01538052212203,1438.75,651.6354732418472,1915,651.6354732418472" stroke-width="0.9941399855846533" style="stroke: rgb(191, 105, 115);"></path></g><g class="nodes" font-family="Arial, Helvetica" font-size="10"><g><rect x="957.5" y="175.00000000000045" height="109.5185124960135" width="5" fill="#000"></rect><text x="951.5" y="229.7592562480072" dy="0.35em" text-anchor="end">Asia</text></g><g><rect x="957.5" y="294.51851249601395" height="12.415260417161562" width="5" fill="#000"></rect><text x="951.5" y="300.72614270459474" dy="0.35em" text-anchor="end">Australia / Oceania</text></g><g><rect x="957.5" y="316.9337729131755" height="35.48227379330183" width="5" fill="#000"></rect><text x="951.5" y="334.67490980982643" dy="0.35em" text-anchor="end">Canada</text></g><g><rect x="957.5" y="362.41604670647735" height="3.1124968949015965" width="5" fill="#000"></rect><text x="951.5" y="363.97229515392814" dy="0.35em" text-anchor="end">Central America</text></g><g><rect x="957.5" y="375.52854360137894" height="58.98675673782964" width="5" fill="#000"></rect><text x="951.5" y="405.02192197029376" dy="0.35em" text-anchor="end">Europe</text></g><g><rect x="957.5" y="444.5153003392086" height="16.229305961922364" width="5" fill="#000"></rect><text x="951.5" y="452.62995332016976" dy="0.35em" text-anchor="end">Mexico</text></g><g><rect x="957.5" y="470.74460630113094" height="5.773704228198767" width="5" fill="#000"></rect><text x="951.5" y="473.6314584152303" dy="0.35em" text-anchor="end">Middle East</text></g><g><rect x="957.5" y="486.5183105293297" height="0.9941399855847521" width="5" fill="#000"></rect><text x="951.5" y="487.0153805221221" dy="0.35em" text-anchor="end">South America</text></g><g><rect x="957.5" y="497.51245051491446" height="827.4875494850851" width="5" fill="#000"></rect><text x="951.5" y="911.256225257457" dy="0.35em" text-anchor="end">US</text></g><g><rect x="1915" y="210" height="190.40099048252364" width="5" fill="#000"></rect><text x="1909" y="305.2004952412618" dy="0.35em" text-anchor="end">Low Fare</text></g><g><rect x="1915" y="410.40099048252364" height="879.5990095174762" width="5" fill="#000"></rect><text x="1909" y="850.2004952412617" dy="0.35em" text-anchor="end">Other</text></g><g><rect x="0" y="-3.410605131648481e-13" height="2.1165578569457466" width="5" fill="#000"></rect><text x="11" y="1.0582789284725322" dy="0.35em" text-anchor="start">Aeromexico</text></g><g><rect x="0" y="12.116557856945406" height="0.6574446083823204" width="5" fill="#000"></rect><text x="11" y="12.445280161136566" dy="0.35em" text-anchor="start">Air Berlin</text></g><g><rect x="0" y="22.774002465327726" height="15.306037736435883" width="5" fill="#000"></rect><text x="11" y="30.427021333545667" dy="0.35em" text-anchor="start">Air Canada</text></g><g><rect x="0" y="48.08004020176361" height="4.283952572577391" width="5" fill="#000"></rect><text x="11" y="50.222016488052304" dy="0.35em" text-anchor="start">Air China</text></g><g><rect x="0" y="62.363992774341" height="7.081915144492996" width="5" fill="#000"></rect><text x="11" y="65.9049503465875" dy="0.35em" text-anchor="start">Air France</text></g><g><rect x="0" y="79.445907918834" height="3.824076624651525" width="5" fill="#000"></rect><text x="11" y="81.35794623115976" dy="0.35em" text-anchor="start">Air New Zealand</text></g><g><rect x="0" y="93.26998454348552" height="9.594291781583706" width="5" fill="#000"></rect><text x="11" y="98.06713043427737" dy="0.35em" text-anchor="start">AirTran Airways</text></g><g><rect x="0" y="112.86427632506923" height="30.64996460615407" width="5" fill="#000"></rect><text x="11" y="128.18925862814626" dy="0.35em" text-anchor="start">Alaska Airlines</text></g><g><rect x="0" y="153.5142409312233" height="4.203976517144156" width="5" fill="#000"></rect><text x="11" y="155.61622918979538" dy="0.35em" text-anchor="start">All Nippon Airways</text></g><g><rect x="0" y="167.71821744836745" height="87.83338940829935" width="5" fill="#000"></rect><text x="11" y="211.63491215251713" dy="0.35em" text-anchor="start">American Airlines</text></g><g><rect x="0" y="265.5516068566668" height="3.0122406127334216" width="5" fill="#000"></rect><text x="11" y="267.0577271630335" dy="0.35em" text-anchor="start">Asiana Airlines</text></g><g><rect x="0" y="278.56384746940023" height="10.279976060528043" width="5" fill="#000"></rect><text x="11" y="283.70383549966425" dy="0.35em" text-anchor="start">British Airways</text></g><g><rect x="0" y="298.8438235299283" height="13.39111003696712" width="5" fill="#000"></rect><text x="11" y="305.53937854841183" dy="0.35em" text-anchor="start">Cathay Pacific</text></g><g><rect x="0" y="322.2349335668954" height="6.437772620313126" width="5" fill="#000"></rect><text x="11" y="325.45381987705196" dy="0.35em" text-anchor="start">China Airlines</text></g><g><rect x="0" y="338.6727061872085" height="88.33385306806565" width="5" fill="#000"></rect><text x="11" y="382.83963272124134" dy="0.35em" text-anchor="start">Delta Air Lines</text></g><g><rect x="0" y="454.934247081424" height="5.773704228198767" width="5" fill="#000"></rect><text x="11" y="457.8210991955234" dy="0.35em" text-anchor="start">Emirates</text></g><g><rect x="0" y="437.00655925527417" height="7.92768782614985" width="5" fill="#000"></rect><text x="11" y="440.9704031683491" dy="0.35em" text-anchor="start">EVA Airways</text></g><g><rect x="0" y="470.7079513096228" height="10.319200853905386" width="5" fill="#000"></rect><text x="11" y="475.8675517365755" dy="0.35em" text-anchor="start">Frontier Airlines</text></g><g><rect x="0" y="491.02715216352817" height="4.798917684794105" width="5" fill="#000"></rect><text x="11" y="493.4266110059252" dy="0.35em" text-anchor="start">Hawaiian Airlines</text></g><g><rect x="0" y="505.8260698483223" height="4.11331518095767" width="5" fill="#000"></rect><text x="11" y="507.8827274388011" dy="0.35em" text-anchor="start">Japan Airlines</text></g><g><rect x="0" y="519.93938502928" height="22.191910689150518" width="5" fill="#000"></rect><text x="11" y="531.0353403738552" dy="0.35em" text-anchor="start">JetBlue Airways</text></g><g><rect x="0" y="552.1312957184305" height="5.810612060188305" width="5" fill="#000"></rect><text x="11" y="555.0366017485246" dy="0.35em" text-anchor="start">KLM Royal Dutch Airlines</text></g><g><rect x="0" y="567.9419077786188" height="3.443495272927521" width="5" fill="#000"></rect><text x="11" y="569.6636554150825" dy="0.35em" text-anchor="start">Korean Air Lines</text></g><g><rect x="0" y="581.3854030515463" height="0.9941399855847521" width="5" fill="#000"></rect><text x="11" y="581.8824730443387" dy="0.35em" text-anchor="start">LAN Peru</text></g><g><rect x="0" y="592.379543037131" height="11.1027154201538" width="5" fill="#000"></rect><text x="11" y="597.9309007472079" dy="0.35em" text-anchor="start">Lufthansa German Airlines</text></g><g><rect x="0" y="613.4822584572848" height="4.4467668122169925" width="5" fill="#000"></rect><text x="11" y="615.7056418633933" dy="0.35em" text-anchor="start">Mexicana Airlines</text></g><g><rect x="0" y="627.9290252695018" height="0.5285670384819241" width="5" fill="#000"></rect><text x="11" y="628.1933087887428" dy="0.35em" text-anchor="start">Midwest Airlines</text></g><g><rect x="0" y="638.4575923079838" height="2.29441871642166" width="5" fill="#000"></rect><text x="11" y="639.6048016661946" dy="0.35em" text-anchor="start">Northwest Airlines</text></g><g><rect x="0" y="650.7520110244054" height="0.008722678166122932" width="5" fill="#000"></rect><text x="11" y="650.7563723634885" dy="0.35em" text-anchor="start">Pacific Aviation</text></g><g><rect x="0" y="660.7607337025715" height="6.985938426299072" width="5" fill="#000"></rect><text x="11" y="664.2537029157211" dy="0.35em" text-anchor="start">Philippine Airlines</text></g><g><rect x="0" y="677.7466721288706" height="2.798780322993025" width="5" fill="#000"></rect><text x="11" y="679.1460622903671" dy="0.35em" text-anchor="start">Qantas Airways</text></g><g><rect x="0" y="690.5454524518636" height="1.5837657712277178" width="5" fill="#000"></rect><text x="11" y="691.3373353374775" dy="0.35em" text-anchor="start">Republic Airlines</text></g><g><rect x="0" y="702.1292182230914" height="0.010412697060473874" width="5" fill="#000"></rect><text x="11" y="702.1344245716216" dy="0.35em" text-anchor="start">Servisair</text></g><g><rect x="0" y="712.1396309201518" height="9.288507395132001" width="5" fill="#000"></rect><text x="11" y="716.7838846177178" dy="0.35em" text-anchor="start">Singapore Airlines</text></g><g><rect x="0" y="731.4281383152838" height="80.47147629468259" width="5" fill="#000"></rect><text x="11" y="771.6638764626251" dy="0.35em" text-anchor="start">Southwest Airlines</text></g><g><rect x="0" y="821.8996146099664" height="1.3793825184538946" width="5" fill="#000"></rect><text x="11" y="822.5893058691934" dy="0.35em" text-anchor="start">Sun Country Airlines</text></g><g><rect x="0" y="833.2789971284203" height="2.0531003732889985" width="5" fill="#000"></rect><text x="11" y="834.3055473150648" dy="0.35em" text-anchor="start">Swiss International</text></g><g><rect x="0" y="845.3320975017093" height="3.112496894902506" width="5" fill="#000"></rect><text x="11" y="846.8883459491606" dy="0.35em" text-anchor="start">TACA</text></g><g><rect x="0" y="911.0585571166905" height="40.7183884627907" width="5" fill="#000"></rect><text x="11" y="931.4177513480859" dy="0.35em" text-anchor="start">United Airlines</text></g><g><rect x="0" y="961.7769455794812" height="433.77082574440385" width="5" fill="#000"></rect><text x="11" y="1178.662358451683" dy="0.35em" text-anchor="start">United Airlines - Pre 07/01/2013</text></g><g><rect x="0" y="858.4445943966118" height="42.61396272007869" width="5" fill="#000"></rect><text x="11" y="879.7515757566512" dy="0.35em" text-anchor="start">US Airways</text></g><g><rect x="0" y="1405.5477713238852" height="66.45413248214527" width="5" fill="#000"></rect><text x="11" y="1438.7748375649578" dy="0.35em" text-anchor="start">Virgin America</text></g><g><rect x="0" y="1482.0019038060304" height="5.897511741415201" width="5" fill="#000"></rect><text x="11" y="1484.950659676738" dy="0.35em" text-anchor="start">Virgin Atlantic</text></g><g><rect x="0" y="1497.8994155474456" height="2.1005844525548127" width="5" fill="#000"></rect><text x="11" y="1498.949707773723" dy="0.35em" text-anchor="start">WestJet Airlines</text></g></g></g></svg>