<svg width="1920" height="1520" xmlns="http://www.w3.org/2000/svg" version="1.1"><g transform="translate(0, 10)"><g class="links" fill="none" stroke-opacity="0.4"><path d="M5,825.8893709327541C481.25,825.8893709327541,481.25,1104.1142443962415,957.5,1104.1142443962415" stroke-width="2.3210412147505424" style="stroke: rgb(191, 105, 105);"></path><path d="M5,823.955169920462C481.25,823.955169920462,481.25,341.34128705712203,957.5,341.34128705712203" stroke-width="1.5473608098336948" style="stroke: rgb(191, 105, 105);"></path><path d="M5,1471.4316702819954C481.25,1471.4316702819954,481.25,758.1236442516271,957.5,758.1236442516271" stroke-width="18.56832971800434" style="stroke: rgb(191, 115, 105);"></path><path d="M5,1442.8633405639907C481.25,1442.8633405639907,481.25,1315.7158351409992,957.5,1315.7158351409992" stroke-width="18.56832971800434" style="stroke: rgb(191, 124, 105);"></path><path d="M5,1426.6160520607368C481.25,1426.6160520607368,481.25,571.7823571945049,957.5,571.7823571945049" stroke-width="10.831525668835864" style="stroke: rgb(191, 124, 105);"></path><path d="M5,1432.8054953000717C481.25,1432.8054953000717,481.25,854.7758496023147,957.5,854.7758496023147" stroke-width="1.5473608098336948" style="stroke: rgb(191, 124, 105);"></path><path d="M5,1304.8192335502524C481.25,1304.8192335502524,481.25,840.462762111353,957.5,840.462762111353" stroke-width="27.07881417208966" style="stroke: rgb(191, 134, 105);"></path><path d="M5,1277.3535791757042C481.25,1277.3535791757042,481.25,734.9132321041217,957.5,734.9132321041217" stroke-width="27.852494577006507" style="stroke: rgb(191, 134, 105);"></path><path d="M5,1235.5748373101947C481.25,1235.5748373101947,481.25,538.5140997830805,957.5,538.5140997830805" stroke-width="55.70498915401301" style="stroke: rgb(191, 134, 105);"></path><path d="M5,1193.7960954446846C481.25,1193.7960954446846,481.25,468.1670281995662,957.5,468.1670281995662" stroke-width="27.852494577006507" style="stroke: rgb(191, 134, 105);"></path><path d="M5,1165.943600867678C481.25,1165.943600867678,481.25,393.17787418655087,957.5,393.17787418655087" stroke-width="27.852494577006507" style="stroke: rgb(191, 134, 105);"></path><path d="M5,1364.779464931308C481.25,1364.779464931308,481.25,1260.0108459869862,957.5,1260.0108459869862" stroke-width="92.84164859002169" style="stroke: rgb(191, 134, 105);"></path><path d="M5,1132.733188720173C481.25,1132.733188720173,481.25,1204.3058568329732,957.5,1204.3058568329732" stroke-width="18.56832971800434" style="stroke: rgb(191, 144, 105);"></path><path d="M5,1094.8806941431667C481.25,1094.8806941431667,481.25,1176.4533622559668,957.5,1176.4533622559668" stroke-width="37.13665943600868" style="stroke: rgb(191, 154, 105);"></path><path d="M5,1057.02819956616C481.25,1057.02819956616,481.25,605.7664497469273,957.5,605.7664497469273" stroke-width="18.56832971800434" style="stroke: rgb(191, 163, 105);"></path><path d="M5,1009.9493853940699C481.25,1009.9493853940699,481.25,1150.921908893711,957.5,1150.921908893711" stroke-width="13.926247288503253" style="stroke: rgb(191, 173, 105);"></path><path d="M5,979.0600144613152C481.25,979.0600144613152,481.25,1130.0325379609558,957.5,1130.0325379609558" stroke-width="27.852494577006507" style="stroke: rgb(191, 183, 105);"></path><path d="M5,471.52205350686984C481.25,471.52205350686984,481.25,1014.367317425887,957.5,1014.367317425887" stroke-width="53.38394793926247" style="stroke: rgb(189, 191, 105);"></path><path d="M5,436.3195950831533C481.25,436.3195950831533,481.25,276.35213304410684,957.5,276.35213304410684" stroke-width="17.020968908170644" style="stroke: rgb(189, 191, 105);"></path><path d="M5,945.8496023138099C481.25,945.8496023138099,481.25,369.9674620390454,957.5,369.9674620390454" stroke-width="18.56832971800434" style="stroke: rgb(179, 191, 105);"></path><path d="M5,886.4497469269696C481.25,886.4497469269696,481.25,444.9566160520607,957.5,444.9566160520607" stroke-width="18.56832971800434" style="stroke: rgb(170, 191, 105);"></path><path d="M5,857.8814172089652C481.25,857.8814172089652,481.25,351.39913232104107,957.5,351.39913232104107" stroke-width="18.56832971800434" style="stroke: rgb(160, 191, 105);"></path><path d="M5,810.086767895878C481.25,810.086767895878,481.25,1099.8590021691987,957.5,1099.8590021691987" stroke-width="6.189443239334779" style="stroke: rgb(150, 191, 105);"></path><path d="M5,790.8026030368758C481.25,790.8026030368758,481.25,820.7339117859734,957.5,820.7339117859734" stroke-width="12.378886478669559" style="stroke: rgb(141, 191, 105);"></path><path d="M5,765.3289949385388C481.25,765.3289949385388,481.25,699.3239334779468,957.5,699.3239334779468" stroke-width="18.56832971800434" style="stroke: rgb(131, 191, 105);"></path><path d="M5,717.4765003615324C481.25,717.4765003615324,481.25,331.283441793203,957.5,331.283441793203" stroke-width="18.56832971800434" style="stroke: rgb(121, 191, 105);"></path><path d="M5,688.908170643528C481.25,688.908170643528,481.25,680.7556037599425,957.5,680.7556037599425" stroke-width="18.56832971800434" style="stroke: rgb(112, 191, 105);"></path><path d="M5,660.3398409255236C481.25,660.3398409255236,481.25,1087.4801156905291,957.5,1087.4801156905291" stroke-width="18.56832971800434" style="stroke: rgb(105, 191, 108);"></path><path d="M5,631.7715112075192C481.25,631.7715112075192,481.25,312.71511207519865,957.5,312.71511207519865" stroke-width="18.56832971800434" style="stroke: rgb(105, 191, 118);"></path><path d="M5,227.83080260303723C481.25,227.83080260303723,481.25,950.538684020247,957.5,950.538684020247" stroke-width="37.13665943600868" style="stroke: rgb(105, 191, 128);"></path><path d="M5,199.9783080260307C481.25,199.9783080260307,481.25,805.2603036876366,957.5,805.2603036876366" stroke-width="18.56832971800434" style="stroke: rgb(105, 191, 128);"></path><path d="M5,603.2031814895148C481.25,603.2031814895148,481.25,1068.9117859725247,957.5,1068.9117859725247" stroke-width="18.56832971800434" style="stroke: rgb(105, 191, 137);"></path><path d="M5,574.6348517715113C481.25,574.6348517715113,481.25,1050.3434562545203,957.5,1050.3434562545203" stroke-width="18.56832971800434" style="stroke: rgb(105, 191, 147);"></path><path d="M5,546.0665220535069C481.25,546.0665220535069,481.25,874.8336948662338,957.5,874.8336948662338" stroke-width="18.56832971800434" style="stroke: rgb(105, 191, 157);"></path><path d="M5,517.4981923355025C481.25,517.4981923355025,481.25,294.1467823571943,957.5,294.1467823571943" stroke-width="18.56832971800434" style="stroke: rgb(105, 191, 166);"></path><path d="M5,408.5249457700659C481.25,408.5249457700659,481.25,258.5574837310193,957.5,258.5574837310193" stroke-width="18.56832971800434" style="stroke: rgb(105, 191, 176);"></path><path d="M5,379.9566160520615C481.25,379.9566160520615,481.25,239.989154013015,957.5,239.989154013015" stroke-width="18.56832971800434" style="stroke: rgb(105, 191, 186);"></path><path d="M5,351.3882863340571C481.25,351.3882863340571,481.25,662.1872740419382,957.5,662.1872740419382" stroke-width="18.56832971800434" style="stroke: rgb(105, 186, 191);"></path><path d="M5,322.8199566160527C481.25,322.8199566160527,481.25,221.42082429501065,957.5,221.42082429501065" stroke-width="18.56832971800434" style="stroke: rgb(105, 176, 191);"></path><path d="M5,294.2516268980483C481.25,294.2516268980483,481.25,978.3911785972537,957.5,978.3911785972537" stroke-width="18.56832971800434" style="stroke: rgb(105, 166, 191);"></path><path d="M5,265.6832971800441C481.25,265.6832971800441,481.25,202.8524945770063,957.5,202.8524945770063" stroke-width="18.56832971800434" style="stroke: rgb(105, 157, 191);"></path><path d="M5,171.4099783080263C481.25,171.4099783080263,481.25,922.6861894432407,957.5,922.6861894432407" stroke-width="18.56832971800434" style="stroke: rgb(105, 147, 191);"></path><path d="M5,142.8416485900219C481.25,142.8416485900219,481.25,426.3882863340564,957.5,426.3882863340564" stroke-width="18.56832971800434" style="stroke: rgb(105, 137, 191);"></path><path d="M5,114.27331887201748C481.25,114.27331887201748,481.25,643.6189443239339,957.5,643.6189443239339" stroke-width="18.56832971800434" style="stroke: rgb(105, 128, 191);"></path><path d="M5,85.70498915401308C481.25,85.70498915401308,481.25,184.28416485900195,957.5,184.28416485900195" stroke-width="18.56832971800434" style="stroke: rgb(105, 118, 191);"></path><path d="M5,57.136659436008664C481.25,57.136659436008664,481.25,501.3774403470718,957.5,501.3774403470718" stroke-width="18.56832971800434" style="stroke: rgb(105, 108, 191);"></path><path d="M5,9.28416485900251C481.25,9.28416485900251,481.25,786.6919739696323,957.5,786.6919739696323" stroke-width="18.56832971800434" style="stroke: rgb(112, 105, 191);"></path><path d="M5,1495.3579175704986C481.25,1495.3579175704986,481.25,581.840202458424,957.5,581.840202458424" stroke-width="9.28416485900217" style="stroke: rgb(121, 105, 191);"></path><path d="M5,925.018076644974C481.25,925.018076644974,481.25,1114.558929862619,957.5,1114.558929862619" stroke-width="3.0947216196673897" style="stroke: rgb(131, 105, 191);"></path><path d="M5,909.6023138105563C481.25,909.6023138105563,481.25,1109.1431670282009,957.5,1109.1431670282009" stroke-width="7.736804049168474" style="stroke: rgb(141, 105, 191);"></path><path d="M5,33.21041214750561C481.25,33.21041214750561,481.25,629.6926970354306,957.5,629.6926970354306" stroke-width="9.28416485900217" style="stroke: rgb(150, 105, 191);"></path><path d="M5,1032.3282718727396C481.25,1032.3282718727396,481.25,715.5712219812004,957.5,715.5712219812004" stroke-width="10.831525668835864" style="stroke: rgb(160, 105, 191);"></path><path d="M5,837.8235719450462C481.25,837.8235719450462,481.25,709.3817787418657,957.5,709.3817787418657" stroke-width="1.5473608098336948" style="stroke: rgb(170, 105, 191);"></path><path d="M5,741.4027476500357C481.25,741.4027476500357,481.25,898.7599421547371,957.5,898.7599421547371" stroke-width="9.28416485900217" style="stroke: rgb(179, 105, 191);"></path><path d="M962.5,1178.774403470717C1438.75,1178.774403470717,1438.75,1143.7744034707157,1915,1143.7744034707157" stroke-width="292.4511930585683" style="stroke: rgb(189, 105, 191);"></path><path d="M962.5,972.9754157628357C1438.75,972.9754157628357,1438.75,281.17859725234996,1915,281.17859725234996" stroke-width="119.1467823571945" style="stroke: rgb(189, 105, 191);"></path><path d="M962.5,696.2292118582794C1438.75,696.2292118582794,1438.75,821.1496746203903,1915,821.1496746203903" stroke-width="142.35719450469992" style="stroke: rgb(191, 105, 183);"></path><path d="M962.5,816.8655097613893C1438.75,816.8655097613893,1438.75,931.0122921185826,1915,931.0122921185826" stroke-width="77.36804049168474" style="stroke: rgb(191, 105, 173);"></path><path d="M962.5,777.7946493130885C1438.75,777.7946493130885,1438.75,221.21836587129428,1915,221.21836587129428" stroke-width="0.7736804049168474" style="stroke: rgb(191, 105, 173);"></path><path d="M962.5,544.7035430224153C1438.75,544.7035430224153,1438.75,689.6240057845264,1915,689.6240057845264" stroke-width="83.55748373101952" style="stroke: rgb(191, 105, 163);"></path><path d="M962.5,497.5090383224876C1438.75,497.5090383224876,1438.75,215.41576283441793,1915,215.41576283441793" stroke-width="10.831525668835864" style="stroke: rgb(191, 105, 163);"></path><path d="M962.5,449.5986984815618C1438.75,449.5986984815618,1438.75,615.350686912509,1915,615.350686912509" stroke-width="64.98915401301518" style="stroke: rgb(191, 105, 154);"></path><path d="M962.5,291.05206073752686C1438.75,291.05206073752686,1438.75,466.8040491684743,1915,466.8040491684743" stroke-width="232.10412147505423" style="stroke: rgb(191, 105, 144);"></path><path d="M962.5,605.7664497469273C1438.75,605.7664497469273,1438.75,740.6869125090383,1915,740.6869125090383" stroke-width="18.56832971800434" style="stroke: rgb(191, 105, 134);"></path><path d="M962.5,874.8336948662338C1438.75,874.8336948662338,1438.75,978.9804772234272,1915,978.9804772234272" stroke-width="18.56832971800434" style="stroke: rgb(191, 105, 124);"></path><path d="M962.5,898.7599421547371C1438.75,898.7599421547371,1438.75,992.9067245119304,1915,992.9067245119304" stroke-width="9.28416485900217" style="stroke: rgb(191, 105, 115);"></path></g><g class="nodes" font-family="Arial, Helvetica" font-size="10"><g><rect x="957.5" y="174.99999999999977" height="232.10412147505446" width="5" fill="#000"></rect><text x="951.5" y="291.052060737527" dy="0.35em" text-anchor="end">Asia</text></g><g><rect x="957.5" y="417.1041214750542" height="64.98915401301542" width="5" fill="#000"></rect><text x="951.5" y="449.59869848156194" dy="0.35em" text-anchor="end">Australia / Oceania</text></g><g><rect x="957.5" y="492.09327548806965" height="94.38900939985547" width="5" fill="#000"></rect><text x="951.5" y="539.2877801879974" dy="0.35em" text-anchor="end">Canada</text></g><g><rect x="957.5" y="596.4822848879251" height="18.568329718004406" width="5" fill="#000"></rect><text x="951.5" y="605.7664497469273" dy="0.35em" text-anchor="end">Central America</text></g><g><rect x="957.5" y="625.0506146059295" height="142.3571945047006" width="5" fill="#000"></rect><text x="951.5" y="696.2292118582798" dy="0.35em" text-anchor="end">Europe</text></g><g><rect x="957.5" y="777.4078091106301" height="78.14172089660156" width="5" fill="#000"></rect><text x="951.5" y="816.4786695589308" dy="0.35em" text-anchor="end">Mexico</text></g><g><rect x="957.5" y="865.5495300072316" height="18.568329718004406" width="5" fill="#000"></rect><text x="951.5" y="874.8336948662338" dy="0.35em" text-anchor="end">Middle East</text></g><g><rect x="957.5" y="894.117859725236" height="9.28416485900243" width="5" fill="#000"></rect><text x="951.5" y="898.7599421547372" dy="0.35em" text-anchor="end">South America</text></g><g><rect x="957.5" y="913.4020245842385" height="411.59797541576177" width="5" fill="#000"></rect><text x="951.5" y="1119.2010122921192" dy="0.35em" text-anchor="end">US</text></g><g><rect x="1915" y="210" height="130.75198843094722" width="5" fill="#000"></rect><text x="1909" y="275.3759942154736" dy="0.35em" text-anchor="end">Low Fare</text></g><g><rect x="1915" y="350.7519884309472" height="939.2480115690528" width="5" fill="#000"></rect><text x="1909" y="820.3759942154736" dy="0.35em" text-anchor="end">Other</text></g><g><rect x="0" y="3.410605131648481e-13" height="18.56832971800418" width="5" fill="#000"></rect><text x="11" y="9.28416485900243" dy="0.35em" text-anchor="start">Aeromexico</text></g><g><rect x="0" y="28.56832971800452" height="9.284164859001976" width="5" fill="#000"></rect><text x="11" y="33.21041214750551" dy="0.35em" text-anchor="start">Air Berlin</text></g><g><rect x="0" y="47.852494577006496" height="18.568329718004406" width="5" fill="#000"></rect><text x="11" y="57.1366594360087" dy="0.35em" text-anchor="start">Air Canada</text></g><g><rect x="0" y="76.4208242950109" height="18.568329718004406" width="5" fill="#000"></rect><text x="11" y="85.7049891540131" dy="0.35em" text-anchor="start">Air China</text></g><g><rect x="0" y="104.98915401301531" height="18.568329718004406" width="5" fill="#000"></rect><text x="11" y="114.27331887201751" dy="0.35em" text-anchor="start">Air France</text></g><g><rect x="0" y="133.55748373101972" height="18.568329718004406" width="5" fill="#000"></rect><text x="11" y="142.84164859002192" dy="0.35em" text-anchor="start">Air New Zealand</text></g><g><rect x="0" y="162.12581344902412" height="18.568329718004406" width="5" fill="#000"></rect><text x="11" y="171.40997830802633" dy="0.35em" text-anchor="start">AirTran Airways</text></g><g><rect x="0" y="190.69414316702853" height="55.70498915401345" width="5" fill="#000"></rect><text x="11" y="218.54663774403525" dy="0.35em" text-anchor="start">Alaska Airlines</text></g><g><rect x="0" y="256.399132321042" height="18.56832971800418" width="5" fill="#000"></rect><text x="11" y="265.68329718004406" dy="0.35em" text-anchor="start">All Nippon Airways</text></g><g><rect x="0" y="284.96746203904615" height="18.568329718004406" width="5" fill="#000"></rect><text x="11" y="294.25162689804836" dy="0.35em" text-anchor="start">American Airlines</text></g><g><rect x="0" y="313.53579175705056" height="18.568329718004406" width="5" fill="#000"></rect><text x="11" y="322.81995661605276" dy="0.35em" text-anchor="start">Asiana Airlines</text></g><g><rect x="0" y="342.10412147505497" height="18.568329718004406" width="5" fill="#000"></rect><text x="11" y="351.38828633405717" dy="0.35em" text-anchor="start">British Airways</text></g><g><rect x="0" y="370.6724511930594" height="18.568329718004406" width="5" fill="#000"></rect><text x="11" y="379.9566160520616" dy="0.35em" text-anchor="start">Cathay Pacific</text></g><g><rect x="0" y="399.2407809110638" height="18.56832971800418" width="5" fill="#000"></rect><text x="11" y="408.52494577006587" dy="0.35em" text-anchor="start">China Airlines</text></g><g><rect x="0" y="427.80911062906796" height="70.40491684743233" width="5" fill="#000"></rect><text x="11" y="463.0115690527841" dy="0.35em" text-anchor="start">Delta Air Lines</text></g><g><rect x="0" y="536.7823571945047" height="18.568329718004406" width="5" fill="#000"></rect><text x="11" y="546.0665220535069" dy="0.35em" text-anchor="start">Emirates</text></g><g><rect x="0" y="508.2140274765003" height="18.568329718004406" width="5" fill="#000"></rect><text x="11" y="517.4981923355025" dy="0.35em" text-anchor="start">EVA Airways</text></g><g><rect x="0" y="565.3506869125091" height="18.568329718003497" width="5" fill="#000"></rect><text x="11" y="574.6348517715109" dy="0.35em" text-anchor="start">Frontier Airlines</text></g><g><rect x="0" y="593.9190166305126" height="18.568329718004406" width="5" fill="#000"></rect><text x="11" y="603.2031814895148" dy="0.35em" text-anchor="start">Hawaiian Airlines</text></g><g><rect x="0" y="622.487346348517" height="18.568329718004406" width="5" fill="#000"></rect><text x="11" y="631.7715112075192" dy="0.35em" text-anchor="start">Japan Airlines</text></g><g><rect x="0" y="651.0556760665214" height="18.568329718004406" width="5" fill="#000"></rect><text x="11" y="660.3398409255236" dy="0.35em" text-anchor="start">JetBlue Airways</text></g><g><rect x="0" y="679.6240057845258" height="18.568329718004406" width="5" fill="#000"></rect><text x="11" y="688.908170643528" dy="0.35em" text-anchor="start">KLM Royal Dutch Airlines</text></g><g><rect x="0" y="708.1923355025302" height="18.568329718004406" width="5" fill="#000"></rect><text x="11" y="717.4765003615324" dy="0.35em" text-anchor="start">Korean Air Lines</text></g><g><rect x="0" y="736.7606652205346" height="9.284164859001976" width="5" fill="#000"></rect><text x="11" y="741.4027476500356" dy="0.35em" text-anchor="start">LAN Peru</text></g><g><rect x="0" y="756.0448300795366" height="18.568329718004406" width="5" fill="#000"></rect><text x="11" y="765.3289949385388" dy="0.35em" text-anchor="start">Lufthansa German Airlines</text></g><g><rect x="0" y="784.613159797541" height="12.378886478669529" width="5" fill="#000"></rect><text x="11" y="790.8026030368758" dy="0.35em" text-anchor="start">Mexicana Airlines</text></g><g><rect x="0" y="806.9920462762105" height="6.189443239334651" width="5" fill="#000"></rect><text x="11" y="810.0867678958779" dy="0.35em" text-anchor="start">Midwest Airlines</text></g><g><rect x="0" y="823.1814895155452" height="3.8684020245841566" width="5" fill="#000"></rect><text x="11" y="825.1156905278373" dy="0.35em" text-anchor="start">Northwest Airlines</text></g><g><rect x="0" y="837.0498915401294" height="1.5473608098336626" width="5" fill="#000"></rect><text x="11" y="837.8235719450462" dy="0.35em" text-anchor="start">Pacific Aviation</text></g><g><rect x="0" y="848.597252349963" height="18.568329718004406" width="5" fill="#000"></rect><text x="11" y="857.8814172089652" dy="0.35em" text-anchor="start">Philippine Airlines</text></g><g><rect x="0" y="877.1655820679674" height="18.568329718004634" width="5" fill="#000"></rect><text x="11" y="886.4497469269697" dy="0.35em" text-anchor="start">Qantas Airways</text></g><g><rect x="0" y="905.733911785972" height="7.736804049168313" width="5" fill="#000"></rect><text x="11" y="909.6023138105562" dy="0.35em" text-anchor="start">Republic Airlines</text></g><g><rect x="0" y="923.4707158351404" height="3.0947216196673253" width="5" fill="#000"></rect><text x="11" y="925.018076644974" dy="0.35em" text-anchor="start">Servisair</text></g><g><rect x="0" y="936.5654374548077" height="18.56832971800418" width="5" fill="#000"></rect><text x="11" y="945.8496023138098" dy="0.35em" text-anchor="start">Singapore Airlines</text></g><g><rect x="0" y="965.1337671728119" height="27.852494577006382" width="5" fill="#000"></rect><text x="11" y="979.0600144613151" dy="0.35em" text-anchor="start">Southwest Airlines</text></g><g><rect x="0" y="1002.9862617498183" height="13.926247288503419" width="5" fill="#000"></rect><text x="11" y="1009.94938539407" dy="0.35em" text-anchor="start">Sun Country Airlines</text></g><g><rect x="0" y="1026.9125090383218" height="10.831525668836093" width="5" fill="#000"></rect><text x="11" y="1032.3282718727398" dy="0.35em" text-anchor="start">Swiss International</text></g><g><rect x="0" y="1047.7440347071579" height="18.568329718004406" width="5" fill="#000"></rect><text x="11" y="1057.02819956616" dy="0.35em" text-anchor="start">TACA</text></g><g><rect x="0" y="1123.4490238611709" height="18.56832971800395" width="5" fill="#000"></rect><text x="11" y="1132.7331887201728" dy="0.35em" text-anchor="start">United Airlines</text></g><g><rect x="0" y="1152.0173535791748" height="259.1829356471442" width="5" fill="#000"></rect><text x="11" y="1281.6088214027468" dy="0.35em" text-anchor="start">United Airlines - Pre 07/01/2013</text></g><g><rect x="0" y="1076.3123644251623" height="37.136659436008586" width="5" fill="#000"></rect><text x="11" y="1094.8806941431667" dy="0.35em" text-anchor="start">US Airways</text></g><g><rect x="0" y="1421.200289226319" height="30.947216196674162" width="5" fill="#000"></rect><text x="11" y="1436.673897324656" dy="0.35em" text-anchor="start">Virgin America</text></g><g><rect x="0" y="1462.1475054229932" height="18.568329718004406" width="5" fill="#000"></rect><text x="11" y="1471.4316702819954" dy="0.35em" text-anchor="start">Virgin Atlantic</text></g><g><rect x="0" y="1490.7158351409976" height="9.284164859002203" width="5" fill="#000"></rect><text x="11" y="1495.3579175704986" dy="0.35em" text-anchor="start">WestJet Airlines</text></g></g></g></svg>