<svg width="1920" height="1520" xmlns="http://www.w3.org/2000/svg" version="1.1"><g transform="translate(0, 10)"><g class="links" fill="none" stroke-opacity="0.4"><path d="M5,843.7482014388486C481.25,843.7482014388486,481.25,337.07194244604307,957.5,337.07194244604307" stroke-width="19.165467625899282" style="stroke: rgb(191, 105, 105);"></path><path d="M5,1470.8345323741005C481.25,1470.8345323741005,481.25,761.1798561151084,957.5,761.1798561151084" stroke-width="19.165467625899282" style="stroke: rgb(191, 116, 105);"></path><path d="M5,1420.5071942446036C481.25,1420.5071942446036,481.25,850.6366906474824,957.5,850.6366906474824" stroke-width="19.964028776978417" style="stroke: rgb(191, 126, 105);"></path><path d="M5,1407.3309352517979C481.25,1407.3309352517979,481.25,563.8992805755398,957.5,563.8992805755398" stroke-width="6.388489208633094" style="stroke: rgb(191, 126, 105);"></path><path d="M5,1440.8705035971216C481.25,1440.8705035971216,481.25,1334.618705035971,957.5,1334.618705035971" stroke-width="20.762589928057555" style="stroke: rgb(191, 126, 105);"></path><path d="M5,1287.5287769784168C481.25,1287.5287769784168,481.25,829.8741007194247,957.5,829.8741007194247" stroke-width="21.561151079136692" style="stroke: rgb(191, 137, 105);"></path><path d="M5,1262.3741007194237C481.25,1262.3741007194237,481.25,737.2230215827342,957.5,737.2230215827342" stroke-width="28.748201438848923" style="stroke: rgb(191, 137, 105);"></path><path d="M5,1219.2517985611503C481.25,1219.2517985611503,481.25,531.9568345323744,957.5,531.9568345323744" stroke-width="57.49640287769785" style="stroke: rgb(191, 137, 105);"></path><path d="M5,1176.129496402877C481.25,1176.129496402877,481.25,446.8920863309354,957.5,446.8920863309354" stroke-width="28.748201438848923" style="stroke: rgb(191, 137, 105);"></path><path d="M5,1146.9820143884888C481.25,1146.9820143884888,481.25,380.59352517985604,957.5,380.59352517985604" stroke-width="29.546762589928058" style="stroke: rgb(191, 137, 105);"></path><path d="M5,1346.223021582733C481.25,1346.223021582733,481.25,1276.3237410071943,957.5,1276.3237410071943" stroke-width="95.82733812949641" style="stroke: rgb(191, 137, 105);"></path><path d="M5,1111.0287769784168C481.25,1111.0287769784168,481.25,1217.230215827338,957.5,1217.230215827338" stroke-width="22.359712230215827" style="stroke: rgb(191, 147, 105);"></path><path d="M5,1071.8812949640287C481.25,1071.8812949640287,481.25,1188.0827338129495,957.5,1188.0827338129495" stroke-width="35.935251798561154" style="stroke: rgb(191, 158, 105);"></path><path d="M5,1034.3309352517986C481.25,1034.3309352517986,481.25,596.2589928057561,957.5,596.2589928057561" stroke-width="19.165467625899282" style="stroke: rgb(191, 168, 105);"></path><path d="M5,1005.1654676258988C481.25,1005.1654676258988,481.25,713.2661870503601,957.5,713.2661870503601" stroke-width="19.165467625899282" style="stroke: rgb(191, 179, 105);"></path><path d="M5,978.395683453237C481.25,978.395683453237,481.25,1162.9280575539567,957.5,1162.9280575539567" stroke-width="14.374100719424462" style="stroke: rgb(191, 189, 105);"></path><path d="M5,946.8345323741005C481.25,946.8345323741005,481.25,1141.36690647482,957.5,1141.36690647482" stroke-width="28.748201438848923" style="stroke: rgb(182, 191, 105);"></path><path d="M5,494.56115107913735C481.25,494.56115107913735,481.25,1032.7625899280577,957.5,1032.7625899280577" stroke-width="47.913669064748206" style="stroke: rgb(172, 191, 105);"></path><path d="M5,461.0215827338136C481.25,461.0215827338136,481.25,260.41007194244594,957.5,260.41007194244594" stroke-width="19.165467625899282" style="stroke: rgb(172, 191, 105);"></path><path d="M5,912.8776978417263C481.25,912.8776978417263,481.25,356.23741007194235,957.5,356.23741007194235" stroke-width="19.165467625899282" style="stroke: rgb(161, 191, 105);"></path><path d="M5,888.1043165467622C481.25,888.1043165467622,481.25,1121.8021582733813,957.5,1121.8021582733813" stroke-width="10.381294964028777" style="stroke: rgb(151, 191, 105);"></path><path d="M5,882.1151079136688C481.25,882.1151079136688,481.25,702.8848920863314,957.5,702.8848920863314" stroke-width="1.5971223021582734" style="stroke: rgb(151, 191, 105);"></path><path d="M5,867.3237410071939C481.25,867.3237410071939,481.25,428.52517985611524,957.5,428.52517985611524" stroke-width="7.985611510791367" style="stroke: rgb(140, 191, 105);"></path><path d="M5,802.187050359712C481.25,802.187050359712,481.25,692.5035971223026,957.5,692.5035971223026" stroke-width="19.165467625899282" style="stroke: rgb(130, 191, 105);"></path><path d="M5,773.0215827338129C481.25,773.0215827338129,481.25,910.9640287769784,957.5,910.9640287769784" stroke-width="19.165467625899282" style="stroke: rgb(119, 191, 105);"></path><path d="M5,743.8561151079139C481.25,743.8561151079139,481.25,317.9064748201438,957.5,317.9064748201438" stroke-width="19.165467625899282" style="stroke: rgb(109, 191, 105);"></path><path d="M5,714.6906474820146C481.25,714.6906474820146,481.25,673.3381294964033,957.5,673.3381294964033" stroke-width="19.165467625899282" style="stroke: rgb(105, 191, 112);"></path><path d="M5,685.5251798561155C481.25,685.5251798561155,481.25,1104.63309352518,957.5,1104.63309352518" stroke-width="19.165467625899282" style="stroke: rgb(105, 191, 123);"></path><path d="M5,656.3597122302162C481.25,656.3597122302162,481.25,298.7410071942445,957.5,298.7410071942445" stroke-width="19.165467625899282" style="stroke: rgb(105, 191, 133);"></path><path d="M5,245.68345323741062C481.25,245.68345323741062,481.25,968.8776978417268,957.5,968.8776978417268" stroke-width="38.330935251798564" style="stroke: rgb(105, 191, 144);"></path><path d="M5,216.9352517985617C481.25,216.9352517985617,481.25,809.5107913669068,957.5,809.5107913669068" stroke-width="19.165467625899282" style="stroke: rgb(105, 191, 144);"></path><path d="M5,627.1942446043172C481.25,627.1942446043172,481.25,1085.4676258992808,957.5,1085.4676258992808" stroke-width="19.165467625899282" style="stroke: rgb(105, 191, 154);"></path><path d="M5,598.0287769784177C481.25,598.0287769784177,481.25,1066.3021582733813,957.5,1066.3021582733813" stroke-width="19.165467625899282" style="stroke: rgb(105, 191, 165);"></path><path d="M5,568.0647482014394C481.25,568.0647482014394,481.25,881.0000000000001,957.5,881.0000000000001" stroke-width="20.762589928057555" style="stroke: rgb(105, 191, 175);"></path><path d="M5,538.100719424461C481.25,538.100719424461,481.25,279.5755395683452,957.5,279.5755395683452" stroke-width="19.165467625899282" style="stroke: rgb(105, 191, 185);"></path><path d="M5,431.8561151079143C481.25,431.8561151079143,481.25,241.24460431654666,957.5,241.24460431654666" stroke-width="19.165467625899282" style="stroke: rgb(105, 185, 191);"></path><path d="M5,402.69064748201504C481.25,402.69064748201504,481.25,222.07913669064737,957.5,222.07913669064737" stroke-width="19.165467625899282" style="stroke: rgb(105, 175, 191);"></path><path d="M5,373.52517985611576C481.25,373.52517985611576,481.25,654.172661870504,957.5,654.172661870504" stroke-width="19.165467625899282" style="stroke: rgb(105, 165, 191);"></path><path d="M5,344.3597122302165C481.25,344.3597122302165,481.25,202.9136690647481,957.5,202.9136690647481" stroke-width="19.165467625899282" style="stroke: rgb(105, 154, 191);"></path><path d="M5,314.3956834532377C481.25,314.3956834532377,481.25,998.4244604316549,957.5,998.4244604316549" stroke-width="20.762589928057555" style="stroke: rgb(105, 144, 191);"></path><path d="M5,284.4316546762593C481.25,284.4316546762593,481.25,183.7482014388488,957.5,183.7482014388488" stroke-width="19.165467625899282" style="stroke: rgb(105, 133, 191);"></path><path d="M5,187.76978417266264C481.25,187.76978417266264,481.25,940.1294964028779,957.5,940.1294964028779" stroke-width="19.165467625899282" style="stroke: rgb(105, 123, 191);"></path><path d="M5,158.60431654676313C481.25,158.60431654676313,481.25,414.9496402877699,957.5,414.9496402877699" stroke-width="19.165467625899282" style="stroke: rgb(105, 112, 191);"></path><path d="M5,129.43884892086385C481.25,129.43884892086385,481.25,635.0071942446048,957.5,635.0071942446048" stroke-width="19.165467625899282" style="stroke: rgb(109, 105, 191);"></path><path d="M5,100.27338129496434C481.25,100.27338129496434,481.25,164.58273381294953,957.5,164.58273381294953" stroke-width="19.165467625899282" style="stroke: rgb(119, 105, 191);"></path><path d="M5,64.71942446043188C481.25,64.71942446043188,481.25,487.2374100719427,957.5,487.2374100719427" stroke-width="31.942446043165468" style="stroke: rgb(130, 105, 191);"></path><path d="M5,9.582733812949982C481.25,9.582733812949982,481.25,790.3453237410075,957.5,790.3453237410075" stroke-width="19.165467625899282" style="stroke: rgb(140, 105, 191);"></path><path d="M5,822.9676258992803C481.25,822.9676258992803,481.25,1115.4136690647483,957.5,1115.4136690647483" stroke-width="2.3956834532374103" style="stroke: rgb(151, 105, 191);"></path><path d="M5,1495.208633093525C481.25,1495.208633093525,481.25,571.8848920863313,957.5,571.8848920863313" stroke-width="9.582733812949641" style="stroke: rgb(161, 105, 191);"></path><path d="M5,33.95683453237422C481.25,33.95683453237422,481.25,620.6330935251804,957.5,620.6330935251804" stroke-width="9.582733812949641" style="stroke: rgb(172, 105, 191);"></path><path d="M962.5,275.5827338129495C1438.75,275.5827338129495,1438.75,481.0935251798563,1915,481.0935251798563" stroke-width="239.56834532374103" style="stroke: rgb(182, 105, 191);"></path><path d="M962.5,155.39928057553945C1438.75,155.39928057553945,1438.75,190.39928057553968,1915,190.39928057553968" stroke-width="0.7985611510791367" style="stroke: rgb(182, 105, 191);"></path><path d="M962.5,694.1007194244609C1438.75,694.1007194244609,1438.75,851.6258992805757,1915,851.6258992805757" stroke-width="153.32374100719426" style="stroke: rgb(191, 105, 189);"></path><path d="M962.5,616.6402877697847C1438.75,616.6402877697847,1438.75,197.98561151079147,1915,197.98561151079147" stroke-width="1.5971223021582734" style="stroke: rgb(191, 105, 189);"></path><path d="M962.5,791.1438848920867C1438.75,791.1438848920867,1438.75,209.1654676258994,1915,209.1654676258994" stroke-width="20.762589928057555" style="stroke: rgb(191, 105, 179);"></path><path d="M962.5,831.0719424460435C1438.75,831.0719424460435,1438.75,957.834532374101,1915,957.834532374101" stroke-width="59.093525179856115" style="stroke: rgb(191, 105, 179);"></path><path d="M962.5,474.46043165467654C1438.75,474.46043165467654,1438.75,193.99280575539578,1915,193.99280575539578" stroke-width="6.388489208633094" style="stroke: rgb(191, 105, 168);"></path><path d="M962.5,527.1654676258995C1438.75,527.1654676258995,1438.75,706.2877697841728,1915,706.2877697841728" stroke-width="99.02158273381295" style="stroke: rgb(191, 105, 168);"></path><path d="M962.5,996.428057553957C1438.75,996.428057553957,1438.75,285.428057553957,1915,285.428057553957" stroke-width="131.76258992805757" style="stroke: rgb(191, 105, 158);"></path><path d="M962.5,1203.654676258993C1438.75,1203.654676258993,1438.75,1168.6546762589928,1915,1168.6546762589928" stroke-width="282.6906474820144" style="stroke: rgb(191, 105, 158);"></path><path d="M962.5,433.31654676259006C1438.75,433.31654676259006,1438.75,628.8273381294965,1915,628.8273381294965" stroke-width="55.89928057553957" style="stroke: rgb(191, 105, 147);"></path><path d="M962.5,596.2589928057561C1438.75,596.2589928057561,1438.75,765.3812949640289,1915,765.3812949640289" stroke-width="19.165467625899282" style="stroke: rgb(191, 105, 137);"></path><path d="M962.5,910.9640287769784C1438.75,910.9640287769784,1438.75,1017.7266187050361,1915,1017.7266187050361" stroke-width="19.165467625899282" style="stroke: rgb(191, 105, 126);"></path><path d="M962.5,881.0000000000001C1438.75,881.0000000000001,1438.75,997.7625899280578,1915,997.7625899280578" stroke-width="20.762589928057555" style="stroke: rgb(191, 105, 116);"></path></g><g class="nodes" font-family="Arial, Helvetica" font-size="10"><g><rect x="957.5" y="154.9999999999999" height="240.36690647482038" width="5" fill="#000"></rect><text x="951.5" y="275.18345323741005" dy="0.35em" text-anchor="end">Asia</text></g><g><rect x="957.5" y="405.36690647482027" height="55.899280575539706" width="5" fill="#000"></rect><text x="951.5" y="433.3165467625901" dy="0.35em" text-anchor="end">Australia / Oceania</text></g><g><rect x="957.5" y="471.26618705036" height="105.4100719424464" width="5" fill="#000"></rect><text x="951.5" y="523.9712230215832" dy="0.35em" text-anchor="end">Canada</text></g><g><rect x="957.5" y="586.6762589928064" height="19.165467625899055" width="5" fill="#000"></rect><text x="951.5" y="596.258992805756" dy="0.35em" text-anchor="end">Central America</text></g><g><rect x="957.5" y="615.8417266187055" height="154.9208633093524" width="5" fill="#000"></rect><text x="951.5" y="693.3021582733817" dy="0.35em" text-anchor="end">Europe</text></g><g><rect x="957.5" y="780.7625899280579" height="79.85611510791341" width="5" fill="#000"></rect><text x="951.5" y="820.6906474820146" dy="0.35em" text-anchor="end">Mexico</text></g><g><rect x="957.5" y="870.6187050359713" height="20.762589928057423" width="5" fill="#000"></rect><text x="951.5" y="881" dy="0.35em" text-anchor="end">Middle East</text></g><g><rect x="957.5" y="901.3812949640287" height="19.16546762589951" width="5" fill="#000"></rect><text x="951.5" y="910.9640287769785" dy="0.35em" text-anchor="end">South America</text></g><g><rect x="957.5" y="930.5467625899282" height="414.453237410072" width="5" fill="#000"></rect><text x="951.5" y="1137.773381294964" dy="0.35em" text-anchor="end">US</text></g><g><rect x="1915" y="190.0000000000001" height="161.30935251798564" width="5" fill="#000"></rect><text x="1909" y="270.65467625899294" dy="0.35em" text-anchor="end">Low Fare</text></g><g><rect x="1915" y="361.30935251798576" height="948.6906474820141" width="5" fill="#000"></rect><text x="1909" y="835.6546762589928" dy="0.35em" text-anchor="end">Other</text></g><g><rect x="0" y="3.410605131648481e-13" height="19.165467625899055" width="5" fill="#000"></rect><text x="11" y="9.582733812949868" dy="0.35em" text-anchor="start">Aeromexico</text></g><g><rect x="0" y="29.165467625899396" height="9.582733812949755" width="5" fill="#000"></rect><text x="11" y="33.95683453237427" dy="0.35em" text-anchor="start">Air Berlin</text></g><g><rect x="0" y="48.74820143884915" height="31.942446043165546" width="5" fill="#000"></rect><text x="11" y="64.71942446043192" dy="0.35em" text-anchor="start">Air Canada</text></g><g><rect x="0" y="90.6906474820147" height="19.16546762589951" width="5" fill="#000"></rect><text x="11" y="100.27338129496445" dy="0.35em" text-anchor="start">Air China</text></g><g><rect x="0" y="119.8561151079142" height="19.165467625899282" width="5" fill="#000"></rect><text x="11" y="129.43884892086385" dy="0.35em" text-anchor="start">Air France</text></g><g><rect x="0" y="149.0215827338135" height="19.16546762589951" width="5" fill="#000"></rect><text x="11" y="158.60431654676324" dy="0.35em" text-anchor="start">Air New Zealand</text></g><g><rect x="0" y="178.187050359713" height="19.165467625899055" width="5" fill="#000"></rect><text x="11" y="187.76978417266253" dy="0.35em" text-anchor="start">AirTran Airways</text></g><g><rect x="0" y="207.35251798561205" height="57.49640287769762" width="5" fill="#000"></rect><text x="11" y="236.10071942446086" dy="0.35em" text-anchor="start">Alaska Airlines</text></g><g><rect x="0" y="274.8489208633097" height="19.165467625899282" width="5" fill="#000"></rect><text x="11" y="284.4316546762593" dy="0.35em" text-anchor="start">All Nippon Airways</text></g><g><rect x="0" y="304.01438848920895" height="20.762589928057878" width="5" fill="#000"></rect><text x="11" y="314.3956834532379" dy="0.35em" text-anchor="start">American Airlines</text></g><g><rect x="0" y="334.77697841726683" height="19.165467625899282" width="5" fill="#000"></rect><text x="11" y="344.3597122302165" dy="0.35em" text-anchor="start">Asiana Airlines</text></g><g><rect x="0" y="363.9424460431661" height="19.165467625899282" width="5" fill="#000"></rect><text x="11" y="373.52517985611576" dy="0.35em" text-anchor="start">British Airways</text></g><g><rect x="0" y="393.1079136690654" height="19.165467625899282" width="5" fill="#000"></rect><text x="11" y="402.69064748201504" dy="0.35em" text-anchor="start">Cathay Pacific</text></g><g><rect x="0" y="422.2733812949647" height="19.165467625899282" width="5" fill="#000"></rect><text x="11" y="431.8561151079143" dy="0.35em" text-anchor="start">China Airlines</text></g><g><rect x="0" y="451.43884892086396" height="67.07913669064737" width="5" fill="#000"></rect><text x="11" y="484.97841726618765" dy="0.35em" text-anchor="start">Delta Air Lines</text></g><g><rect x="0" y="557.6834532374106" height="20.762589928057423" width="5" fill="#000"></rect><text x="11" y="568.0647482014393" dy="0.35em" text-anchor="start">Emirates</text></g><g><rect x="0" y="528.5179856115113" height="19.165467625899282" width="5" fill="#000"></rect><text x="11" y="538.100719424461" dy="0.35em" text-anchor="start">EVA Airways</text></g><g><rect x="0" y="588.446043165468" height="19.16546762589951" width="5" fill="#000"></rect><text x="11" y="598.0287769784178" dy="0.35em" text-anchor="start">Frontier Airlines</text></g><g><rect x="0" y="617.6115107913676" height="19.165467625899055" width="5" fill="#000"></rect><text x="11" y="627.1942446043171" dy="0.35em" text-anchor="start">Hawaiian Airlines</text></g><g><rect x="0" y="646.7769784172666" height="19.165467625899282" width="5" fill="#000"></rect><text x="11" y="656.3597122302162" dy="0.35em" text-anchor="start">Japan Airlines</text></g><g><rect x="0" y="675.9424460431659" height="19.165467625899055" width="5" fill="#000"></rect><text x="11" y="685.5251798561154" dy="0.35em" text-anchor="start">JetBlue Airways</text></g><g><rect x="0" y="705.1079136690649" height="19.165467625899282" width="5" fill="#000"></rect><text x="11" y="714.6906474820146" dy="0.35em" text-anchor="start">KLM Royal Dutch Airlines</text></g><g><rect x="0" y="734.2733812949642" height="19.165467625899055" width="5" fill="#000"></rect><text x="11" y="743.8561151079138" dy="0.35em" text-anchor="start">Korean Air Lines</text></g><g><rect x="0" y="763.4388489208633" height="19.165467625899055" width="5" fill="#000"></rect><text x="11" y="773.0215827338128" dy="0.35em" text-anchor="start">LAN Peru</text></g><g><rect x="0" y="792.6043165467623" height="19.165467625899282" width="5" fill="#000"></rect><text x="11" y="802.187050359712" dy="0.35em" text-anchor="start">Lufthansa German Airlines</text></g><g><rect x="0" y="821.7697841726616" height="2.395683453237325" width="5" fill="#000"></rect><text x="11" y="822.9676258992803" dy="0.35em" text-anchor="start">Miami Air International</text></g><g><rect x="0" y="834.1654676258989" height="19.165467625899282" width="5" fill="#000"></rect><text x="11" y="843.7482014388486" dy="0.35em" text-anchor="start">Philippine Airlines</text></g><g><rect x="0" y="863.3309352517982" height="7.9856115107913865" width="5" fill="#000"></rect><text x="11" y="867.3237410071939" dy="0.35em" text-anchor="start">Qantas Airways</text></g><g><rect x="0" y="881.3165467625896" height="11.97841726618708" width="5" fill="#000"></rect><text x="11" y="887.3057553956831" dy="0.35em" text-anchor="start">Servisair</text></g><g><rect x="0" y="903.2949640287767" height="19.165467625899282" width="5" fill="#000"></rect><text x="11" y="912.8776978417263" dy="0.35em" text-anchor="start">Singapore Airlines</text></g><g><rect x="0" y="932.460431654676" height="28.74820143884881" width="5" fill="#000"></rect><text x="11" y="946.8345323741004" dy="0.35em" text-anchor="start">Southwest Airlines</text></g><g><rect x="0" y="971.2086330935248" height="14.374100719424405" width="5" fill="#000"></rect><text x="11" y="978.395683453237" dy="0.35em" text-anchor="start">Sun Country Airlines</text></g><g><rect x="0" y="995.5827338129492" height="19.16546762589951" width="5" fill="#000"></rect><text x="11" y="1005.1654676258989" dy="0.35em" text-anchor="start">Swiss International</text></g><g><rect x="0" y="1024.7482014388488" height="19.165467625899282" width="5" fill="#000"></rect><text x="11" y="1034.3309352517986" dy="0.35em" text-anchor="start">TACA</text></g><g><rect x="0" y="1099.8489208633089" height="22.35971223021579" width="5" fill="#000"></rect><text x="11" y="1111.0287769784168" dy="0.35em" text-anchor="start">United Airlines</text></g><g><rect x="0" y="1132.2086330935247" height="261.9280575539568" width="5" fill="#000"></rect><text x="11" y="1263.1726618705031" dy="0.35em" text-anchor="start">United Airlines - Pre 07/01/2013</text></g><g><rect x="0" y="1053.913669064748" height="35.935251798560785" width="5" fill="#000"></rect><text x="11" y="1071.8812949640285" dy="0.35em" text-anchor="start">US Airways</text></g><g><rect x="0" y="1404.1366906474814" height="47.11510791366936" width="5" fill="#000"></rect><text x="11" y="1427.694244604316" dy="0.35em" text-anchor="start">Virgin America</text></g><g><rect x="0" y="1461.2517985611507" height="19.165467625899282" width="5" fill="#000"></rect><text x="11" y="1470.8345323741005" dy="0.35em" text-anchor="start">Virgin Atlantic</text></g><g><rect x="0" y="1490.41726618705" height="9.582733812949755" width="5" fill="#000"></rect><text x="11" y="1495.208633093525" dy="0.35em" text-anchor="start">WestJet Airlines</text></g></g></g></svg>