<svg width="1920" height="1520" xmlns="http://www.w3.org/2000/svg" version="1.1"><g transform="translate(0, 10)"><g class="links" fill="none" stroke-opacity="0.4"><path d="M5,636.4914013428419C481.25,636.4914013428419,481.25,207.6728915900806,957.5,207.6728915900806" stroke-width="6.385272587185635" style="stroke: rgb(191, 105, 105);"></path><path d="M5,1484.7410871430961C481.25,1484.7410871430961,481.25,414.128727852516,957.5,414.128727852516" stroke-width="5.844887871530603" style="stroke: rgb(191, 116, 105);"></path><path d="M5,1388.958464672386C481.25,1388.958464672386,481.25,441.61325841080236,957.5,441.61325841080236" stroke-width="2.618065633943649" style="stroke: rgb(191, 126, 105);"></path><path d="M5,1387.4762510974813C481.25,1387.4762510974813,481.25,325.6286256236783,957.5,325.6286256236783" stroke-width="0.34636151586601827" style="stroke: rgb(191, 126, 105);"></path><path d="M5,1431.0430703483441C481.25,1431.0430703483441,481.25,1304.2244271410136,957.5,1304.2244271410136" stroke-width="81.55114571797263" style="stroke: rgb(191, 126, 105);"></path><path d="M5,1016.1760201248111C481.25,1016.1760201248111,481.25,437.0601273179062,957.5,437.0601273179062" stroke-width="6.488196551848664" style="stroke: rgb(191, 137, 105);"></path><path d="M5,1004.5495039726791C481.25,1004.5495039726791,481.25,402.82386604054307,957.5,402.82386604054307" stroke-width="16.764835752415244" style="stroke: rgb(191, 137, 105);"></path><path d="M5,987.9443156294836C481.25,987.9443156294836,481.25,317.23267439875747,957.5,317.23267439875747" stroke-width="16.44554093397576" style="stroke: rgb(191, 137, 105);"></path><path d="M5,976.897319708424C481.25,976.897319708424,481.25,280.4676567405825,957.5,280.4676567405825" stroke-width="5.648450908143431" style="stroke: rgb(191, 137, 105);"></path><path d="M5,952.9399430499358C481.25,952.9399430499358,481.25,240.85136049137913,957.5,240.85136049137913" stroke-width="42.26630240883296" style="stroke: rgb(191, 137, 105);"></path><path d="M5,1198.3615943701416C481.25,1198.3615943701416,481.25,1084.5073783126209,957.5,1084.5073783126209" stroke-width="357.8829519388124" style="stroke: rgb(191, 137, 105);"></path><path d="M5,898.1584854113528C481.25,898.1584854113528,481.25,881.917595909048,957.5,881.917595909048" stroke-width="47.29661286833351" style="stroke: rgb(191, 147, 105);"></path><path d="M5,841.9012283000103C481.25,841.9012283000103,481.25,835.6603387977057,957.5,835.6603387977057" stroke-width="45.2179013543513" style="stroke: rgb(191, 158, 105);"></path><path d="M5,807.5947237898467C481.25,807.5947237898467,481.25,339.83582913573736,957.5,339.83582913573736" stroke-width="3.395107665975384" style="stroke: rgb(191, 168, 105);"></path><path d="M5,794.0025960602892C481.25,794.0025960602892,481.25,392.5468742677655,957.5,392.5468742677655" stroke-width="3.789147793139849" style="stroke: rgb(191, 179, 105);"></path><path d="M5,781.2213979764249C481.25,781.2213979764249,481.25,812.1647639332358,957.5,812.1647639332358" stroke-width="1.7732483745883543" style="stroke: rgb(191, 189, 105);"></path><path d="M5,729.9544208181686C481.25,729.9544208181686,481.25,770.8977867749796,957.5,770.8977867749796" stroke-width="80.76070594192416" style="stroke: rgb(182, 191, 105);"></path><path d="M5,387.5800848352747C481.25,387.5800848352747,481.25,645.9213931093169,957.5,645.9213931093169" stroke-width="88.73629616808493" style="stroke: rgb(172, 191, 105);"></path><path d="M5,341.6791833059323C481.25,341.6791833059323,481.25,188.32302350779537,957.5,188.32302350779537" stroke-width="3.0655068905999463" style="stroke: rgb(172, 191, 105);"></path><path d="M5,675.1477271455617C481.25,675.1477271455617,481.25,215.291868585318,957.5,215.291868585318" stroke-width="8.852681403289198" style="stroke: rgb(161, 191, 105);"></path><path d="M5,660.7027001167362C481.25,660.7027001167362,481.25,730.4987474768363,957.5,730.4987474768363" stroke-width="0.03737265436249105" style="stroke: rgb(151, 191, 105);"></path><path d="M5,660.6835798545261C481.25,660.6835798545261,481.25,390.65186643616664,957.5,390.65186643616664" stroke-width="0.0008678700577646688" style="stroke: rgb(151, 191, 105);"></path><path d="M5,650.1835917779658C481.25,650.1835917779658,481.25,277.1438771449797,957.5,277.1438771449797" stroke-width="0.9991082830622697" style="stroke: rgb(140, 191, 105);"></path><path d="M5,606.8446866390462C481.25,606.8446866390462,481.25,384.20901609483616,957.5,384.20901609483616" stroke-width="12.884832812603156" style="stroke: rgb(130, 191, 105);"></path><path d="M5,589.4970003996784C481.25,589.4970003996784,481.25,469.6953932470232,957.5,469.6953932470232" stroke-width="1.81053966613293" style="stroke: rgb(119, 191, 105);"></path><path d="M5,576.7818282425527C481.25,576.7818282425527,481.25,202.67035297242853,957.5,202.67035297242853" stroke-width="3.619804648118518" style="stroke: rgb(109, 191, 105);"></path><path d="M5,561.9857613358307C481.25,561.9857613358307,481.25,374.78043510587185,957.5,374.78043510587185" stroke-width="5.972329165325483" style="stroke: rgb(105, 191, 112);"></path><path d="M5,537.4690209238275C481.25,537.4690209238275,481.25,718.9378233164139,957.5,718.9378233164139" stroke-width="23.06115165868" style="stroke: rgb(105, 191, 123);"></path><path d="M5,514.1960874697679C481.25,514.1960874697679,481.25,199.1180930236495,957.5,199.1180930236495" stroke-width="3.4847152494395863" style="stroke: rgb(105, 191, 133);"></path><path d="M5,134.953117302753C481.25,134.953117302753,481.25,504.95107639098774,957.5,504.95107639098774" stroke-width="25.953301505241452" style="stroke: rgb(105, 191, 144);"></path><path d="M5,119.68119433579847C481.25,119.68119433579847,481.25,431.5207568276481,957.5,431.5207568276481" stroke-width="4.590544428667605" style="stroke: rgb(105, 191, 144);"></path><path d="M5,500.04968910363135C481.25,500.04968910363135,481.25,705.0032067456568,957.5,705.0032067456568" stroke-width="4.80808148283418" style="stroke: rgb(105, 191, 154);"></path><path d="M5,481.4908359567742C481.25,481.4908359567742,481.25,696.4443535987995,957.5,696.4443535987995" stroke-width="12.309624810880315" style="stroke: rgb(105, 191, 165);"></path><path d="M5,462.4021074582429C481.25,462.4021074582429,481.25,455.85620732086556,957.5,455.85620732086556" stroke-width="5.867832186182756" style="stroke: rgb(105, 191, 175);"></path><path d="M5,445.70821214223423C481.25,445.70821214223423,481.25,193.61575617601252,957.5,193.61575617601252" stroke-width="7.519958445834329" style="stroke: rgb(105, 191, 185);"></path><path d="M5,327.1265132690046C481.25,327.1265132690046,481.25,183.77035347086743,957.5,183.77035347086743" stroke-width="6.0398331832559915" style="stroke: rgb(105, 185, 191);"></path><path d="M5,307.62863828011564C481.25,307.62863828011564,481.25,174.27247848197845,957.5,174.27247848197845" stroke-width="12.955916794521942" style="stroke: rgb(105, 175, 191);"></path><path d="M5,285.4523128859202C481.25,285.4523128859202,481.25,366.0959035262746,957.5,366.0959035262746" stroke-width="11.396733993869105" style="stroke: rgb(105, 165, 191);"></path><path d="M5,267.67532929829076C481.25,267.67532929829076,481.25,165.71590349402283,957.5,165.71590349402283" stroke-width="4.157233181389289" style="stroke: rgb(105, 154, 191);"></path><path d="M5,213.7839537667632C481.25,213.7839537667632,481.25,559.7404860844414,957.5,559.7404860844414" stroke-width="83.62551788166601" style="stroke: rgb(105, 144, 191);"></path><path d="M5,159.9504814406519C481.25,159.9504814406519,481.25,161.61657351805002,957.5,161.61657351805002" stroke-width="4.041426770556316" style="stroke: rgb(105, 133, 191);"></path><path d="M5,101.6990408423259C481.25,101.6990408423259,481.25,486.2875443592282,957.5,486.2875443592282" stroke-width="11.373762558277646" style="stroke: rgb(105, 123, 191);"></path><path d="M5,83.68225390936061C481.25,83.68225390936061,481.25,274.3144173496221,957.5,274.3144173496221" stroke-width="4.659811307652948" style="stroke: rgb(105, 112, 191);"></path><path d="M5,67.31630499143012C481.25,67.31630499143012,481.25,356.36149326523577,957.5,356.36149326523577" stroke-width="8.072086528208489" style="stroke: rgb(109, 105, 191);"></path><path d="M5,50.982331660940446C481.25,50.982331660940446,481.25,157.29793006638616,957.5,157.29793006638616" stroke-width="4.5958601327714135" style="stroke: rgb(119, 105, 191);"></path><path d="M5,30.82539072599723C481.25,30.82539072599723,481.25,301.150893063212,957.5,301.150893063212" stroke-width="15.71802173711522" style="stroke: rgb(130, 105, 191);"></path><path d="M5,1.087156412516767C481.25,1.087156412516767,481.25,428.13832820079784,957.5,428.13832820079784" stroke-width="2.174312825032852" style="stroke: rgb(140, 105, 191);"></path><path d="M5,623.2929340472984C481.25,623.2929340472984,481.25,730.4742301477045,957.5,730.4742301477045" stroke-width="0.011662003901212737" style="stroke: rgb(151, 105, 191);"></path><path d="M5,1498.8317655394308C481.25,1498.8317655394308,481.25,326.97004084218054,957.5,326.97004084218054" stroke-width="2.3364689211383194" style="stroke: rgb(161, 105, 191);"></path><path d="M5,12.570346341236036C481.25,12.570346341236036,481.25,351.9294164849281,957.5,351.9294164849281" stroke-width="0.792067032406786" style="stroke: rgb(172, 105, 191);"></path><path d="M962.5,209.27885801103483C1438.75,209.27885801103483,1438.75,468.2412638934342,1915,468.2412638934342" stroke-width="105.41130736952154" style="stroke: rgb(182, 105, 191);"></path><path d="M962.5,155.78660216313725C1438.75,155.78660216313725,1438.75,190.78660216313656,1915,190.78660216313656" stroke-width="1.5732043262735982" style="stroke: rgb(182, 105, 191);"></path><path d="M962.5,384.29271131353187C1438.75,384.29271131353187,1438.75,602.9078878100077,1915,602.9078878100077" stroke-width="65.51692094949871" style="stroke: rgb(191, 105, 189);"></path><path d="M962.5,351.5338169037536C1438.75,351.5338169037536,1438.75,191.9199997771683,1915,191.9199997771683" stroke-width="0.0008678700577646688" style="stroke: rgb(191, 105, 189);"></path><path d="M962.5,428.4252541781766C1438.75,428.4252541781766,1438.75,193.2945161020924,1915,193.2945161020924" stroke-width="2.748164779790434" style="stroke: rgb(191, 105, 179);"></path><path d="M962.5,436.36081389792304C1438.75,436.36081389792304,1438.75,642.2278256146083,1915,642.2278256146083" stroke-width="13.122954659702335" style="stroke: rgb(191, 105, 179);"></path><path d="M962.5,293.46506295258735C1438.75,293.46506295258735,1438.75,191.7463850842064,1915,191.7463850842064" stroke-width="0.34636151586601827" style="stroke: rgb(191, 105, 168);"></path><path d="M962.5,310.88825950663505C1438.75,310.88825950663505,1438.75,549.5043038731683,1915,549.5043038731683" stroke-width="34.5000315922293" style="stroke: rgb(191, 105, 168);"></path><path d="M962.5,586.0341689384321C1438.75,586.0341689384321,1438.75,300.1021043503304,1915,300.1021043503304" stroke-width="210.8670117166856" style="stroke: rgb(191, 105, 158);"></path><path d="M962.5,1018.2338373983875C1438.75,1018.2338373983875,1438.75,983.2338373983878,1915,983.2338373983878" stroke-width="653.532325203225" style="stroke: rgb(191, 105, 158);"></path><path d="M962.5,277.63819694522493C1438.75,277.63819694522493,1438.75,526.6006028276244,1915,526.6006028276244" stroke-width="11.30737049885865" style="stroke: rgb(191, 105, 147);"></path><path d="M962.5,339.83582913573736C1438.75,339.83582913573736,1438.75,568.4518735022706,1915,568.4518735022706" stroke-width="3.395107665975384" style="stroke: rgb(191, 105, 137);"></path><path d="M962.5,469.6953932470232C1438.75,469.6953932470232,1438.75,655.5624049637087,1915,655.5624049637087" stroke-width="1.81053966613293" style="stroke: rgb(191, 105, 126);"></path><path d="M962.5,455.85620732086556C1438.75,455.85620732086556,1438.75,651.7232190375508,1915,651.7232190375508" stroke-width="5.867832186182756" style="stroke: rgb(191, 105, 116);"></path></g><g class="nodes" font-family="Arial, Helvetica" font-size="10"><g><rect x="957.5" y="155.00000000000045" height="106.98451169579516" width="5" fill="#000"></rect><text x="951.5" y="208.49225584789804" dy="0.35em" text-anchor="end">Asia</text></g><g><rect x="957.5" y="271.9845116957956" height="11.307370498858745" width="5" fill="#000"></rect><text x="951.5" y="277.638196945225" dy="0.35em" text-anchor="end">Australia / Oceania</text></g><g><rect x="957.5" y="293.29188219465436" height="34.8463931080953" width="5" fill="#000"></rect><text x="951.5" y="310.715078748702" dy="0.35em" text-anchor="end">Canada</text></g><g><rect x="957.5" y="338.13827530274966" height="3.395107665975047" width="5" fill="#000"></rect><text x="951.5" y="339.8358291357372" dy="0.35em" text-anchor="end">Central America</text></g><g><rect x="957.5" y="351.5333829687247" height="65.5177888195567" width="5" fill="#000"></rect><text x="951.5" y="384.29227737850306" dy="0.35em" text-anchor="end">Europe</text></g><g><rect x="957.5" y="427.0511717882814" height="15.871119439492759" width="5" fill="#000"></rect><text x="951.5" y="434.9867315080278" dy="0.35em" text-anchor="end">Mexico</text></g><g><rect x="957.5" y="452.92229122777417" height="5.867832186182568" width="5" fill="#000"></rect><text x="951.5" y="455.85620732086545" dy="0.35em" text-anchor="end">Middle East</text></g><g><rect x="957.5" y="468.79012341395674" height="1.8105396661326267" width="5" fill="#000"></rect><text x="951.5" y="469.69539324702305" dy="0.35em" text-anchor="end">South America</text></g><g><rect x="957.5" y="480.60066308008936" height="864.3993369199103" width="5" fill="#000"></rect><text x="951.5" y="912.8003315400445" dy="0.35em" text-anchor="end">US</text></g><g><rect x="1915" y="189.99999999999977" height="215.5356102086737" width="5" fill="#000"></rect><text x="1909" y="297.7678051043366" dy="0.35em" text-anchor="end">Low Fare</text></g><g><rect x="1915" y="415.53561020867346" height="894.4643897913268" width="5" fill="#000"></rect><text x="1909" y="862.7678051043368" dy="0.35em" text-anchor="end">Other</text></g><g><rect x="0" y="3.410605131648481e-13" height="2.1743128250323025" width="5" fill="#000"></rect><text x="11" y="1.0871564125164923" dy="0.35em" text-anchor="start">Aeromexico</text></g><g><rect x="0" y="12.174312825032644" height="0.7920670324069761" width="5" fill="#000"></rect><text x="11" y="12.570346341236132" dy="0.35em" text-anchor="start">Air Berlin</text></g><g><rect x="0" y="22.96637985743962" height="15.718021737115123" width="5" fill="#000"></rect><text x="11" y="30.82539072599718" dy="0.35em" text-anchor="start">Air Canada</text></g><g><rect x="0" y="48.68440159455474" height="4.595860132771122" width="5" fill="#000"></rect><text x="11" y="50.982331660940304" dy="0.35em" text-anchor="start">Air China</text></g><g><rect x="0" y="63.280261727325865" height="8.072086528208274" width="5" fill="#000"></rect><text x="11" y="67.31630499143" dy="0.35em" text-anchor="start">Air France</text></g><g><rect x="0" y="81.35234825553414" height="4.659811307652944" width="5" fill="#000"></rect><text x="11" y="83.68225390936061" dy="0.35em" text-anchor="start">Air New Zealand</text></g><g><rect x="0" y="96.01215956318708" height="11.373762558277576" width="5" fill="#000"></rect><text x="11" y="101.69904084232587" dy="0.35em" text-anchor="start">AirTran Airways</text></g><g><rect x="0" y="117.38592212146466" height="30.543845933909097" width="5" fill="#000"></rect><text x="11" y="132.6578450884192" dy="0.35em" text-anchor="start">Alaska Airlines</text></g><g><rect x="0" y="157.92976805537376" height="4.041426770556427" width="5" fill="#000"></rect><text x="11" y="159.95048144065197" dy="0.35em" text-anchor="start">All Nippon Airways</text></g><g><rect x="0" y="171.97119482593018" height="83.62551788166593" width="5" fill="#000"></rect><text x="11" y="213.78395376676315" dy="0.35em" text-anchor="start">American Airlines</text></g><g><rect x="0" y="265.5967127075961" height="4.157233181389529" width="5" fill="#000"></rect><text x="11" y="267.6753292982909" dy="0.35em" text-anchor="start">Asiana Airlines</text></g><g><rect x="0" y="279.75394588898564" height="11.39673399386902" width="5" fill="#000"></rect><text x="11" y="285.45231288592015" dy="0.35em" text-anchor="start">British Airways</text></g><g><rect x="0" y="301.15067988285466" height="12.955916794521954" width="5" fill="#000"></rect><text x="11" y="307.62863828011564" dy="0.35em" text-anchor="start">Cathay Pacific</text></g><g><rect x="0" y="324.1065966773766" height="6.039833183255723" width="5" fill="#000"></rect><text x="11" y="327.1265132690045" dy="0.35em" text-anchor="start">China Airlines</text></g><g><rect x="0" y="340.14642986063234" height="91.80180305868475" width="5" fill="#000"></rect><text x="11" y="386.0473313899747" dy="0.35em" text-anchor="start">Delta Air Lines</text></g><g><rect x="0" y="459.4681913651515" height="5.867832186182568" width="5" fill="#000"></rect><text x="11" y="462.40210745824277" dy="0.35em" text-anchor="start">Emirates</text></g><g><rect x="0" y="441.9482329193171" height="7.519958445834391" width="5" fill="#000"></rect><text x="11" y="445.7082121422343" dy="0.35em" text-anchor="start">EVA Airways</text></g><g><rect x="0" y="475.33602355133405" height="12.309624810880223" width="5" fill="#000"></rect><text x="11" y="481.49083595677416" dy="0.35em" text-anchor="start">Frontier Airlines</text></g><g><rect x="0" y="497.6456483622143" height="4.808081482833813" width="5" fill="#000"></rect><text x="11" y="500.0496891036312" dy="0.35em" text-anchor="start">Hawaiian Airlines</text></g><g><rect x="0" y="512.4537298450481" height="3.4847152494394322" width="5" fill="#000"></rect><text x="11" y="514.1960874697678" dy="0.35em" text-anchor="start">Japan Airlines</text></g><g><rect x="0" y="525.9384450944875" height="23.0611516586805" width="5" fill="#000"></rect><text x="11" y="537.4690209238278" dy="0.35em" text-anchor="start">JetBlue Airways</text></g><g><rect x="0" y="558.999596753168" height="5.972329165325391" width="5" fill="#000"></rect><text x="11" y="561.9857613358307" dy="0.35em" text-anchor="start">KLM Royal Dutch Airlines</text></g><g><rect x="0" y="574.9719259184934" height="3.6198046481185884" width="5" fill="#000"></rect><text x="11" y="576.7818282425527" dy="0.35em" text-anchor="start">Korean Air Lines</text></g><g><rect x="0" y="588.591730566612" height="1.8105396661326267" width="5" fill="#000"></rect><text x="11" y="589.4970003996783" dy="0.35em" text-anchor="start">LAN Peru</text></g><g><rect x="0" y="600.4022702327446" height="12.884832812603236" width="5" fill="#000"></rect><text x="11" y="606.8446866390462" dy="0.35em" text-anchor="start">Lufthansa German Airlines</text></g><g><rect x="0" y="623.2871030453479" height="0.011662003901165008" width="5" fill="#000"></rect><text x="11" y="623.2929340472984" dy="0.35em" text-anchor="start">Miami Air International</text></g><g><rect x="0" y="633.298765049249" height="6.385272587185682" width="5" fill="#000"></rect><text x="11" y="636.4914013428419" dy="0.35em" text-anchor="start">Philippine Airlines</text></g><g><rect x="0" y="649.6840376364347" height="0.9991082830624691" width="5" fill="#000"></rect><text x="11" y="650.183591777966" dy="0.35em" text-anchor="start">Qantas Airways</text></g><g><rect x="0" y="660.6831459194972" height="0.03824052441996173" width="5" fill="#000"></rect><text x="11" y="660.7022661817072" dy="0.35em" text-anchor="start">Servisair</text></g><g><rect x="0" y="670.7213864439171" height="8.852681403289353" width="5" fill="#000"></rect><text x="11" y="675.1477271455618" dy="0.35em" text-anchor="start">Singapore Airlines</text></g><g><rect x="0" y="689.5740678472065" height="80.76070594192424" width="5" fill="#000"></rect><text x="11" y="729.9544208181686" dy="0.35em" text-anchor="start">Southwest Airlines</text></g><g><rect x="0" y="780.3347737891307" height="1.7732483745885474" width="5" fill="#000"></rect><text x="11" y="781.221397976425" dy="0.35em" text-anchor="start">Sun Country Airlines</text></g><g><rect x="0" y="792.1080221637193" height="3.7891477931398185" width="5" fill="#000"></rect><text x="11" y="794.0025960602892" dy="0.35em" text-anchor="start">Swiss International</text></g><g><rect x="0" y="805.8971699568591" height="3.3951076659755017" width="5" fill="#000"></rect><text x="11" y="807.5947237898469" dy="0.35em" text-anchor="start">TACA</text></g><g><rect x="0" y="874.510178977186" height="47.29661286833334" width="5" fill="#000"></rect><text x="11" y="898.1584854113527" dy="0.35em" text-anchor="start">United Airlines</text></g><g><rect x="0" y="931.8067918455193" height="445.4962784940289" width="5" fill="#000"></rect><text x="11" y="1154.5549310925337" dy="0.35em" text-anchor="start">United Airlines - Pre 07/01/2013</text></g><g><rect x="0" y="819.2922776228346" height="45.2179013543514" width="5" fill="#000"></rect><text x="11" y="841.9012283000103" dy="0.35em" text-anchor="start">US Airways</text></g><g><rect x="0" y="1387.3030703395482" height="84.51557286778257" width="5" fill="#000"></rect><text x="11" y="1429.5608567734394" dy="0.35em" text-anchor="start">Virgin America</text></g><g><rect x="0" y="1481.8186432073308" height="5.844887871530773" width="5" fill="#000"></rect><text x="11" y="1484.7410871430961" dy="0.35em" text-anchor="start">Virgin Atlantic</text></g><g><rect x="0" y="1497.6635310788615" height="2.336468921138021" width="5" fill="#000"></rect><text x="11" y="1498.8317655394305" dy="0.35em" text-anchor="start">WestJet Airlines</text></g></g></g></svg>