<svg width="1920" height="1520" xmlns="http://www.w3.org/2000/svg" version="1.1"><g transform="translate(0, 10)"><g class="links" fill="none" stroke-opacity="0.4"><path d="M5,0.9235068964720431C481.25,0.9235068964720431,481.25,419.513925542825,957.5,419.513925542825" stroke-width="1.8470137929411303" style="stroke: rgb(191, 105, 105);"></path><path d="M5,1464.1672472800312C481.25,1464.1672472800312,481.25,404.9943136113976,957.5,404.9943136113976" stroke-width="6.420176538745539" style="stroke: rgb(191, 115, 105);"></path><path d="M5,1355.6073636226752C481.25,1355.6073636226752,481.25,437.92221308681303,957.5,437.92221308681303" stroke-width="3.475141883813438" style="stroke: rgb(191, 126, 105);"></path><path d="M5,1404.15104678762C481.25,1404.15104678762,481.25,1293.1871737956083,957.5,1293.1871737956083" stroke-width="93.61222444607684" style="stroke: rgb(191, 126, 105);"></path><path d="M5,1005.497705680994C481.25,1005.497705680994,481.25,430.08930090697294,957.5,430.08930090697294" stroke-width="12.190682475866772" style="stroke: rgb(191, 136, 105);"></path><path d="M5,991.9429453477184C481.25,991.9429453477184,481.25,394.3248062466826,957.5,394.3248062466826" stroke-width="14.918838190684504" style="stroke: rgb(191, 136, 105);"></path><path d="M5,976.9814944340505C481.25,976.9814944340505,481.25,313.3191189571775,957.5,313.3191189571775" stroke-width="15.004063636651312" style="stroke: rgb(191, 136, 105);"></path><path d="M5,966.8536393731646C481.25,966.8536393731646,481.25,279.2709260395607,957.5,279.2709260395607" stroke-width="5.251646485120401" style="stroke: rgb(191, 136, 105);"></path><path d="M5,944.2097462639821C481.25,944.2097462639821,481.25,242.0484692696839,957.5,242.0484692696839" stroke-width="40.0361397332448" style="stroke: rgb(191, 136, 105);"></path><path d="M5,1177.731419799848C481.25,1177.731419799848,481.25,1080.2426886916492,957.5,1080.2426886916492" stroke-width="332.2767457618415" style="stroke: rgb(191, 136, 105);"></path><path d="M5,870.214417222026C481.25,870.214417222026,481.25,870.127056635395,957.5,870.127056635395" stroke-width="87.9545183506669" style="stroke: rgb(191, 146, 105);"></path><path d="M5,797.1143517601449C481.25,797.1143517601449,481.25,807.0269911735138,957.5,807.0269911735138" stroke-width="38.24561257309563" style="stroke: rgb(191, 156, 105);"></path><path d="M5,766.3715187550594C481.25,766.3715187550594,481.25,334.67111119769805,957.5,334.67111119769805" stroke-width="3.240053437075344" style="stroke: rgb(191, 167, 105);"></path><path d="M5,742.9775516310457C481.25,742.9775516310457,481.25,385.0914467458641,957.5,385.0914467458641" stroke-width="3.525930303648309" style="stroke: rgb(191, 177, 105);"></path><path d="M5,730.0902299634331C481.25,730.0902299634331,481.25,786.7798283711776,957.5,786.7798283711776" stroke-width="2.248713031576546" style="stroke: rgb(191, 187, 105);"></path><path d="M5,681.4537199814816C481.25,681.4537199814816,481.25,748.143318389226,957.5,748.143318389226" stroke-width="75.02430693232651" style="stroke: rgb(184, 191, 105);"></path><path d="M5,366.83260328264447C481.25,366.83260328264447,481.25,627.8914033223288,957.5,627.8914033223288" stroke-width="82.81316944852448" style="stroke: rgb(174, 191, 105);"></path><path d="M5,323.9811995008554C481.25,323.9811995008554,481.25,191.41518947627904,957.5,191.41518947627904" stroke-width="2.8896381150536765" style="stroke: rgb(174, 191, 105);"></path><path d="M5,629.551254468339C481.25,629.551254468339,481.25,217.6400873560821,957.5,217.6400873560821" stroke-width="8.780624093958801" style="stroke: rgb(163, 191, 105);"></path><path d="M5,615.148988561569C481.25,615.148988561569,481.25,710.6192110632724,957.5,710.6192110632724" stroke-width="0.02390771958080522" style="stroke: rgb(153, 191, 105);"></path><path d="M5,602.3871886154653C481.25,602.3871886154653,481.25,210.49992922278963,957.5,210.49992922278963" stroke-width="5.499692172626123" style="stroke: rgb(143, 191, 105);"></path><path d="M5,583.411252078693C481.25,583.411252078693,481.25,377.1023911435804,957.5,377.1023911435804" stroke-width="12.452180900919" style="stroke: rgb(132, 191, 105);"></path><path d="M5,566.3619804420662C481.25,566.3619804420662,481.25,466.1002883228189,957.5,466.1002883228189" stroke-width="1.6463623723349734" style="stroke: rgb(122, 191, 105);"></path><path d="M5,553.568270503403C481.25,553.568270503403,481.25,205.77955438398095,957.5,205.77955438398095" stroke-width="3.9410575049912855" style="stroke: rgb(112, 191, 105);"></path><path d="M5,538.8562695601578C481.25,538.8562695601578,481.25,368.13482850237085,957.5,368.13482850237085" stroke-width="5.482944381500087" style="stroke: rgb(105, 191, 108);"></path><path d="M5,513.2277313330878C481.25,513.2277313330878,481.25,697.7201911671622,957.5,697.7201911671622" stroke-width="25.77413207263938" style="stroke: rgb(105, 191, 119);"></path><path d="M5,488.5856033185671C481.25,488.5856033185671,481.25,202.05396365328423,957.5,202.05396365328423" stroke-width="3.5101239564021394" style="stroke: rgb(105, 191, 129);"></path><path d="M5,127.76511358081345C481.25,127.76511358081345,481.25,497.83068357046454,957.5,497.83068357046454" stroke-width="24.348761263683453" style="stroke: rgb(105, 191, 139);"></path><path d="M5,113.81246933409975C481.25,113.81246933409975,481.25,422.2156960541676,957.5,422.2156960541676" stroke-width="3.556527229743951" style="stroke: rgb(105, 191, 139);"></path><path d="M5,474.4377502329119C481.25,474.4377502329119,481.25,682.440334023388,957.5,682.440334023388" stroke-width="4.78558221490889" style="stroke: rgb(105, 191, 150);"></path><path d="M5,456.67018169078665C481.25,456.67018169078665,481.25,674.6727654812623,957.5,674.6727654812623" stroke-width="10.749554869342568" style="stroke: rgb(105, 191, 160);"></path><path d="M5,438.4867427021496C481.25,438.4867427021496,481.25,452.4684455826857,957.5,452.4684455826857" stroke-width="5.617323107931473" style="stroke: rgb(105, 191, 170);"></path><path d="M5,421.95863457754524C481.25,421.95863457754524,481.25,196.57945510444452,957.5,196.57945510444452" stroke-width="7.438893141277281" style="stroke: rgb(105, 191, 180);"></path><path d="M5,309.7201873383241C481.25,309.7201873383241,481.25,187.15417731374754,957.5,187.15417731374754" stroke-width="5.632386210009328" style="stroke: rgb(105, 191, 191);"></path><path d="M5,291.2554052786407C481.25,291.2554052786407,481.25,178.68939525406427,957.5,178.68939525406427" stroke-width="11.297177909357197" style="stroke: rgb(105, 180, 191);"></path><path d="M5,270.40734564965754C481.25,270.40734564965754,481.25,360.19388563731616,957.5,360.19388563731616" stroke-width="10.398941348609348" style="stroke: rgb(105, 170, 191);"></path><path d="M5,252.91990621146974C481.25,252.91990621146974,481.25,170.75283753550264,957.5,170.75283753550264" stroke-width="4.575937527766119" style="stroke: rgb(105, 160, 191);"></path><path d="M5,202.3920602497066C481.25,202.3920602497066,481.25,548.2449414001865,957.5,548.2449414001865" stroke-width="76.47975439576025" style="stroke: rgb(105, 150, 191);"></path><path d="M5,152.04583863224073C481.25,152.04583863224073,481.25,166.3585243520338,957.5,166.3585243520338" stroke-width="4.212688839171543" style="stroke: rgb(105, 139, 191);"></path><path d="M5,97.66778900440961C481.25,97.66778900440961,481.25,481.2898862238048,957.5,481.2898862238048" stroke-width="8.732833429636136" style="stroke: rgb(105, 129, 191);"></path><path d="M5,81.01209045924435C481.25,81.01209045924435,481.25,274.3558209666534,957.5,274.3558209666534" stroke-width="4.578563660694166" style="stroke: rgb(105, 119, 191);"></path><path d="M5,64.74555508420954C481.25,64.74555508420954,481.25,351.0171614183232,957.5,351.0171614183232" stroke-width="7.95450708937647" style="stroke: rgb(105, 108, 191);"></path><path d="M5,48.642211573297175C481.25,48.642211573297175,481.25,162.12608996622401,957.5,162.12608996622401" stroke-width="4.252179932448024" style="stroke: rgb(112, 105, 191);"></path><path d="M5,29.555952678707563C481.25,29.555952678707563,481.25,298.8569182104864,957.5,298.8569182104864" stroke-width="13.920337856730935" style="stroke: rgb(122, 105, 191);"></path><path d="M5,1478.4923024012326C481.25,1478.4923024012326,481.25,321.9361176273318,957.5,321.9361176273318" stroke-width="2.229933703657115" style="stroke: rgb(132, 105, 191);"></path><path d="M5,754.7460044096958C481.25,754.7460044096958,481.25,386.8598995245143,957.5,386.8598995245143" stroke-width="0.010975253652120947" style="stroke: rgb(143, 105, 191);"></path><path d="M5,1499.8069916172067C481.25,1499.8069916172067,481.25,408.39741026356234,957.5,408.39741026356234" stroke-width="0.3860167655839649" style="stroke: rgb(153, 105, 191);"></path><path d="M5,12.221398771642052C481.25,12.221398771642052,481.25,346.6655228949352,957.5,346.6655228949352" stroke-width="0.7487699573996645" style="stroke: rgb(163, 105, 191);"></path><path d="M5,1489.610626243738C481.25,1489.610626243738,481.25,1339.9966430093236,957.5,1339.9966430093236" stroke-width="0.0067139813537805335" style="stroke: rgb(174, 105, 191);"></path><path d="M962.5,430.8626722794438C1438.75,430.8626722794438,1438.75,642.0283447806227,1915,642.0283447806227" stroke-width="17.594223498551855" style="stroke: rgb(184, 105, 191);"></path><path d="M962.5,420.3279895882612C1438.75,420.3279895882612,1438.75,196.91565248423527,1915,196.91565248423527" stroke-width="3.475141883813438" style="stroke: rgb(184, 105, 191);"></path><path d="M962.5,377.44077828129485C1438.75,377.44077828129485,1438.75,602.0815926662873,1915,602.0815926662873" stroke-width="62.29928073011901" style="stroke: rgb(191, 105, 187);"></path><path d="M962.5,585.0063057595761C1438.75,585.0063057595761,1438.75,306.73605967673143,1915,306.73605967673143" stroke-width="216.1656725011788" style="stroke: rgb(191, 105, 177);"></path><path d="M962.5,1016.5445710050828C1438.75,1016.5445710050828,1438.75,981.5445710050824,1915,981.5445710050824" stroke-width="646.9108579898349" style="stroke: rgb(191, 105, 177);"></path><path d="M962.5,307.4739168806406C1438.75,307.4739168806406,1438.75,552.1147312656328,1915,552.1147312656328" stroke-width="31.154335197039362" style="stroke: rgb(191, 105, 167);"></path><path d="M962.5,277.0706849803778C1438.75,277.0706849803778,1438.75,531.71149936537,1915,531.71149936537" stroke-width="9.652128603486247" style="stroke: rgb(191, 105, 156);"></path><path d="M962.5,272.1555799074705C1438.75,272.1555799074705,1438.75,195.08904077116438,1915,195.08904077116438" stroke-width="0.1780815423283191" style="stroke: rgb(191, 105, 156);"></path><path d="M962.5,211.03326956815317C1438.75,211.03326956815317,1438.75,475.8521654954736,1915,475.8521654954736" stroke-width="102.06653913630632" style="stroke: rgb(191, 105, 146);"></path><path d="M962.5,334.67111119769805C1438.75,334.67111119769805,1438.75,569.3119255826902,1915,569.3119255826902" stroke-width="3.240053437075344" style="stroke: rgb(191, 105, 136);"></path><path d="M962.5,466.1002883228189C1438.75,466.1002883228189,1438.75,657.2659608239976,1915,657.2659608239976" stroke-width="1.6463623723349734" style="stroke: rgb(191, 105, 126);"></path><path d="M962.5,452.4684455826857C1438.75,452.4684455826857,1438.75,653.6341180838643,1915,653.6341180838643" stroke-width="5.617323107931473" style="stroke: rgb(191, 105, 115);"></path></g><g class="nodes" font-family="Arial, Helvetica" font-size="10"><g><rect x="957.5" y="160" height="102.06653913630635" width="5" fill="#000"></rect><text x="951.5" y="211.03326956815317" dy="0.35em" text-anchor="end">Asia</text></g><g><rect x="957.5" y="272.06653913630635" height="9.83021014581459" width="5" fill="#000"></rect><text x="951.5" y="276.98164420921364" dy="0.35em" text-anchor="end">Australia / Oceania</text></g><g><rect x="957.5" y="291.89674928212094" height="31.154335197039472" width="5" fill="#000"></rect><text x="951.5" y="307.4739168806407" dy="0.35em" text-anchor="end">Canada</text></g><g><rect x="957.5" y="333.0510844791604" height="3.2400534370749483" width="5" fill="#000"></rect><text x="951.5" y="334.6711111976979" dy="0.35em" text-anchor="end">Central America</text></g><g><rect x="957.5" y="346.29113791623536" height="62.29928073011911" width="5" fill="#000"></rect><text x="951.5" y="377.4407782812949" dy="0.35em" text-anchor="end">Europe</text></g><g><rect x="957.5" y="418.59041864635446" height="21.069365382365504" width="5" fill="#000"></rect><text x="951.5" y="429.1251013375372" dy="0.35em" text-anchor="end">Mexico</text></g><g><rect x="957.5" y="449.65978402871997" height="5.617323107931497" width="5" fill="#000"></rect><text x="951.5" y="452.4684455826857" dy="0.35em" text-anchor="end">Middle East</text></g><g><rect x="957.5" y="465.27710713665147" height="1.6463623723352612" width="5" fill="#000"></rect><text x="951.5" y="466.1002883228191" dy="0.35em" text-anchor="end">South America</text></g><g><rect x="957.5" y="476.9234695089867" height="863.0765304910133" width="5" fill="#000"></rect><text x="951.5" y="908.4617347544934" dy="0.35em" text-anchor="end">US</text></g><g><rect x="1915" y="195.00000000000023" height="219.81889592732023" width="5" fill="#000"></rect><text x="1909" y="304.90944796366034" dy="0.35em" text-anchor="end">Low Fare</text></g><g><rect x="1915" y="424.81889592732045" height="880.1811040726793" width="5" fill="#000"></rect><text x="1909" y="864.9094479636601" dy="0.35em" text-anchor="end">Other</text></g><g><rect x="0" y="1.4779288903810084e-12" height="1.8470137929407429" width="5" fill="#000"></rect><text x="11" y="0.9235068964718494" dy="0.35em" text-anchor="start">Aeromexico</text></g><g><rect x="0" y="11.84701379294222" height="0.7487699573998725" width="5" fill="#000"></rect><text x="11" y="12.221398771642157" dy="0.35em" text-anchor="start">Air Berlin</text></g><g><rect x="0" y="22.595783750342093" height="13.920337856731066" width="5" fill="#000"></rect><text x="11" y="29.555952678707627" dy="0.35em" text-anchor="start">Air Canada</text></g><g><rect x="0" y="46.51612160707316" height="4.2521799324481435" width="5" fill="#000"></rect><text x="11" y="48.64221157329723" dy="0.35em" text-anchor="start">Air China</text></g><g><rect x="0" y="60.7683015395213" height="7.954507089375966" width="5" fill="#000"></rect><text x="11" y="64.74555508420929" dy="0.35em" text-anchor="start">Air France</text></g><g><rect x="0" y="78.72280862889727" height="4.578563660694272" width="5" fill="#000"></rect><text x="11" y="81.0120904592444" dy="0.35em" text-anchor="start">Air New Zealand</text></g><g><rect x="0" y="93.30137228959154" height="8.73283342963623" width="5" fill="#000"></rect><text x="11" y="97.66778900440966" dy="0.35em" text-anchor="start">AirTran Airways</text></g><g><rect x="0" y="112.03420571922777" height="27.90528849342718" width="5" fill="#000"></rect><text x="11" y="125.98684996594136" dy="0.35em" text-anchor="start">Alaska Airlines</text></g><g><rect x="0" y="149.93949421265495" height="4.212688839171506" width="5" fill="#000"></rect><text x="11" y="152.0458386322407" dy="0.35em" text-anchor="start">All Nippon Airways</text></g><g><rect x="0" y="164.15218305182646" height="76.47975439576021" width="5" fill="#000"></rect><text x="11" y="202.39206024970656" dy="0.35em" text-anchor="start">American Airlines</text></g><g><rect x="0" y="250.63193744758667" height="4.5759375277662" width="5" fill="#000"></rect><text x="11" y="252.91990621146977" dy="0.35em" text-anchor="start">Asiana Airlines</text></g><g><rect x="0" y="265.20787497535287" height="10.398941348609242" width="5" fill="#000"></rect><text x="11" y="270.4073456496575" dy="0.35em" text-anchor="start">British Airways</text></g><g><rect x="0" y="285.6068163239621" height="11.297177909357288" width="5" fill="#000"></rect><text x="11" y="291.25540527864075" dy="0.35em" text-anchor="start">Cathay Pacific</text></g><g><rect x="0" y="306.9039942333194" height="5.632386210009145" width="5" fill="#000"></rect><text x="11" y="309.72018733832397" dy="0.35em" text-anchor="start">China Airlines</text></g><g><rect x="0" y="322.53638044332854" height="85.70280756357806" width="5" fill="#000"></rect><text x="11" y="365.38778422511757" dy="0.35em" text-anchor="start">Delta Air Lines</text></g><g><rect x="0" y="435.6780811481839" height="5.617323107931497" width="5" fill="#000"></rect><text x="11" y="438.4867427021496" dy="0.35em" text-anchor="start">Emirates</text></g><g><rect x="0" y="418.2391880069066" height="7.438893141277276" width="5" fill="#000"></rect><text x="11" y="421.95863457754524" dy="0.35em" text-anchor="start">EVA Airways</text></g><g><rect x="0" y="451.2954042561154" height="10.749554869342091" width="5" fill="#000"></rect><text x="11" y="456.6701816907864" dy="0.35em" text-anchor="start">Frontier Airlines</text></g><g><rect x="0" y="472.04495912545747" height="4.7855822149085725" width="5" fill="#000"></rect><text x="11" y="474.43775023291175" dy="0.35em" text-anchor="start">Hawaiian Airlines</text></g><g><rect x="0" y="486.83054134036604" height="3.51012395640214" width="5" fill="#000"></rect><text x="11" y="488.5856033185671" dy="0.35em" text-anchor="start">Japan Airlines</text></g><g><rect x="0" y="500.3406652967682" height="25.77413207263953" width="5" fill="#000"></rect><text x="11" y="513.227731333088" dy="0.35em" text-anchor="start">JetBlue Airways</text></g><g><rect x="0" y="536.1147973694077" height="5.482944381499692" width="5" fill="#000"></rect><text x="11" y="538.8562695601576" dy="0.35em" text-anchor="start">KLM Royal Dutch Airlines</text></g><g><rect x="0" y="551.5977417509074" height="3.9410575049912495" width="5" fill="#000"></rect><text x="11" y="553.568270503403" dy="0.35em" text-anchor="start">Korean Air Lines</text></g><g><rect x="0" y="565.5387992558987" height="1.6463623723348064" width="5" fill="#000"></rect><text x="11" y="566.361980442066" dy="0.35em" text-anchor="start">LAN Peru</text></g><g><rect x="0" y="577.1851616282335" height="12.452180900918847" width="5" fill="#000"></rect><text x="11" y="583.4112520786929" dy="0.35em" text-anchor="start">Lufthansa German Airlines</text></g><g><rect x="0" y="599.6373425291523" height="5.499692172626283" width="5" fill="#000"></rect><text x="11" y="602.3871886154654" dy="0.35em" text-anchor="start">Philippine Airlines</text></g><g><rect x="0" y="615.1370347017786" height="0.02390771958107507" width="5" fill="#000"></rect><text x="11" y="615.1489885615691" dy="0.35em" text-anchor="start">Servisair</text></g><g><rect x="0" y="625.1609424213597" height="8.78062409395875" width="5" fill="#000"></rect><text x="11" y="629.551254468339" dy="0.35em" text-anchor="start">Singapore Airlines</text></g><g><rect x="0" y="643.9415665153184" height="75.02430693232645" width="5" fill="#000"></rect><text x="11" y="681.4537199814816" dy="0.35em" text-anchor="start">Southwest Airlines</text></g><g><rect x="0" y="728.9658734476449" height="2.248713031576699" width="5" fill="#000"></rect><text x="11" y="730.0902299634332" dy="0.35em" text-anchor="start">Sun Country Airlines</text></g><g><rect x="0" y="741.2145864792216" height="3.525930303648238" width="5" fill="#000"></rect><text x="11" y="742.9775516310457" dy="0.35em" text-anchor="start">Swiss International</text></g><g><rect x="0" y="754.7405167828698" height="0.010975253651849926" width="5" fill="#000"></rect><text x="11" y="754.7460044096957" dy="0.35em" text-anchor="start">Swissport USA</text></g><g><rect x="0" y="764.7514920365217" height="3.240053437075403" width="5" fill="#000"></rect><text x="11" y="766.3715187550594" dy="0.35em" text-anchor="start">TACA</text></g><g><rect x="0" y="826.2371580466926" height="87.95451835066706" width="5" fill="#000"></rect><text x="11" y="870.2144172220261" dy="0.35em" text-anchor="start">United Airlines</text></g><g><rect x="0" y="924.1916763973596" height="419.67811628340866" width="5" fill="#000"></rect><text x="11" y="1134.030734539064" dy="0.35em" text-anchor="start">United Airlines - Pre 07/01/2013</text></g><g><rect x="0" y="777.9915454735971" height="38.245612573095514" width="5" fill="#000"></rect><text x="11" y="797.1143517601448" dy="0.35em" text-anchor="start">US Airways</text></g><g><rect x="0" y="1353.8697926807683" height="97.08736632989007" width="5" fill="#000"></rect><text x="11" y="1402.4134758457135" dy="0.35em" text-anchor="start">Virgin America</text></g><g><rect x="0" y="1460.9571590106584" height="6.420176538745636" width="5" fill="#000"></rect><text x="11" y="1464.1672472800312" dy="0.35em" text-anchor="start">Virgin Atlantic</text></g><g><rect x="0" y="1477.377335549404" height="2.229933703657025" width="5" fill="#000"></rect><text x="11" y="1478.4923024012326" dy="0.35em" text-anchor="start">WestJet Airlines</text></g><g><rect x="0" y="1489.607269253061" height="0.0067139813536414295" width="5" fill="#000"></rect><text x="11" y="1489.610626243738" dy="0.35em" text-anchor="start">World Airways</text></g><g><rect x="0" y="1499.6139832344147" height="0.38601676558391773" width="5" fill="#000"></rect><text x="11" y="1499.8069916172067" dy="0.35em" text-anchor="start">XL Airways France</text></g></g></g></svg>