<svg width="1920" height="1520" xmlns="http://www.w3.org/2000/svg" version="1.1"><g transform="translate(0, 10)"><g class="links" fill="none" stroke-opacity="0.4"><path d="M5,9.579100145137994C481.25,9.579100145137994,481.25,793.5268505079827,957.5,793.5268505079827" stroke-width="19.15820029027576" style="stroke: rgb(191, 105, 105);"></path><path d="M5,1439.66618287373C481.25,1439.66618287373,481.25,756.3860667634254,957.5,756.3860667634254" stroke-width="19.15820029027576" style="stroke: rgb(191, 115, 105);"></path><path d="M5,1391.3497822931784C481.25,1391.3497822931784,481.25,855.791001451379,957.5,855.791001451379" stroke-width="19.15820029027576" style="stroke: rgb(191, 126, 105);"></path><path d="M5,1410.5079825834541C481.25,1410.5079825834541,481.25,1329.6226415094334,957.5,1329.6226415094334" stroke-width="19.15820029027576" style="stroke: rgb(191, 126, 105);"></path><path d="M5,1251.2336719883892C481.25,1251.2336719883892,481.25,835.0362844702469,957.5,835.0362844702469" stroke-width="22.35123367198839" style="stroke: rgb(191, 136, 105);"></path><path d="M5,1227.2859216255445C481.25,1227.2859216255445,481.25,734.0348330914371,957.5,734.0348330914371" stroke-width="25.544267053701017" style="stroke: rgb(191, 136, 105);"></path><path d="M5,1183.3817126269957C481.25,1183.3817126269957,481.25,531.2336719883895,957.5,531.2336719883895" stroke-width="62.26415094339623" style="stroke: rgb(191, 136, 105);"></path><path d="M5,1139.477503628447C481.25,1139.477503628447,481.25,439.01306240928875,957.5,439.01306240928875" stroke-width="25.544267053701017" style="stroke: rgb(191, 136, 105);"></path><path d="M5,1113.933236574746C481.25,1113.933236574746,481.25,383.5123367198839,957.5,383.5123367198839" stroke-width="25.544267053701017" style="stroke: rgb(191, 136, 105);"></path><path d="M5,1317.0899854862123C481.25,1317.0899854862123,481.25,1265.3628447024669,957.5,1265.3628447024669" stroke-width="109.36139332365748" style="stroke: rgb(191, 136, 105);"></path><path d="M5,1079.9854862119014C481.25,1079.9854862119014,481.25,1199.5065312046438,957.5,1199.5065312046438" stroke-width="22.35123367198839" style="stroke: rgb(191, 146, 105);"></path><path d="M5,1049.2307692307686C481.25,1049.2307692307686,481.25,1178.7518142235117,957.5,1178.7518142235117" stroke-width="19.15820029027576" style="stroke: rgb(191, 156, 105);"></path><path d="M5,1020.0725689404932C481.25,1020.0725689404932,481.25,593.9187227866477,957.5,593.9187227866477" stroke-width="19.15820029027576" style="stroke: rgb(191, 167, 105);"></path><path d="M5,978.5195936139329C481.25,978.5195936139329,481.25,709.2888243831642,957.5,709.2888243831642" stroke-width="19.15820029027576" style="stroke: rgb(191, 177, 105);"></path><path d="M5,949.3613933236574C481.25,949.3613933236574,481.25,1159.593613933236,957.5,1159.593613933236" stroke-width="19.15820029027576" style="stroke: rgb(191, 187, 105);"></path><path d="M5,915.4136429608125C481.25,915.4136429608125,481.25,1135.6458635703914,957.5,1135.6458635703914" stroke-width="28.737300435413644" style="stroke: rgb(184, 191, 105);"></path><path d="M5,501.61103047895506C481.25,501.61103047895506,481.25,1034.2670537010156,957.5,1034.2670537010156" stroke-width="38.31640058055152" style="stroke: rgb(174, 191, 105);"></path><path d="M5,472.8737300435414C481.25,472.8737300435414,481.25,265.37010159651663,957.5,265.37010159651663" stroke-width="19.15820029027576" style="stroke: rgb(174, 191, 105);"></path><path d="M5,881.4658925979678C481.25,881.4658925979678,481.25,361.1611030478955,957.5,361.1611030478955" stroke-width="19.15820029027576" style="stroke: rgb(163, 191, 105);"></path><path d="M5,856.6981132075472C481.25,856.6981132075472,481.25,1116.0885341074018,957.5,1116.0885341074018" stroke-width="10.377358490566039" style="stroke: rgb(153, 191, 105);"></path><path d="M5,831.9303338171263C481.25,831.9303338171263,481.25,342.0029027576197,957.5,342.0029027576197" stroke-width="19.15820029027576" style="stroke: rgb(143, 191, 105);"></path><path d="M5,802.7721335268508C481.25,802.7721335268508,481.25,690.1306240928884,957.5,690.1306240928884" stroke-width="19.15820029027576" style="stroke: rgb(132, 191, 105);"></path><path d="M5,773.6139332365747C481.25,773.6139332365747,481.25,914.1074020319303,957.5,914.1074020319303" stroke-width="19.15820029027576" style="stroke: rgb(122, 191, 105);"></path><path d="M5,744.4557329462989C481.25,744.4557329462989,481.25,322.84470246734395,957.5,322.84470246734395" stroke-width="19.15820029027576" style="stroke: rgb(112, 191, 105);"></path><path d="M5,715.2975326560231C481.25,715.2975326560231,481.25,670.9724238026126,957.5,670.9724238026126" stroke-width="19.15820029027576" style="stroke: rgb(105, 191, 108);"></path><path d="M5,686.1393323657476C481.25,686.1393323657476,481.25,1101.3207547169807,957.5,1101.3207547169807" stroke-width="19.15820029027576" style="stroke: rgb(105, 191, 119);"></path><path d="M5,656.9811320754718C481.25,656.9811320754718,481.25,303.6865021770682,957.5,303.6865021770682" stroke-width="19.15820029027576" style="stroke: rgb(105, 191, 129);"></path><path d="M5,256.7924528301883C481.25,256.7924528301883,481.25,974.397677793904,957.5,974.397677793904" stroke-width="43.105950653120466" style="stroke: rgb(105, 191, 139);"></path><path d="M5,224.86211901306206C481.25,224.86211901306206,481.25,813.4833091436866,957.5,813.4833091436866" stroke-width="20.754716981132077" style="stroke: rgb(105, 191, 139);"></path><path d="M5,627.8229317851963C481.25,627.8229317851963,481.25,1082.162554426705,957.5,1082.162554426705" stroke-width="19.15820029027576" style="stroke: rgb(105, 191, 150);"></path><path d="M5,598.6647314949203C481.25,598.6647314949203,481.25,1063.0043541364291,957.5,1063.0043541364291" stroke-width="19.15820029027576" style="stroke: rgb(105, 191, 160);"></path><path d="M5,569.5065312046443C481.25,569.5065312046443,481.25,884.9492017416547,957.5,884.9492017416547" stroke-width="19.15820029027576" style="stroke: rgb(105, 191, 170);"></path><path d="M5,540.3483309143685C481.25,540.3483309143685,481.25,284.5283018867924,957.5,284.5283018867924" stroke-width="19.15820029027576" style="stroke: rgb(105, 191, 180);"></path><path d="M5,443.7155297532656C481.25,443.7155297532656,481.25,246.21190130624086,957.5,246.21190130624086" stroke-width="19.15820029027576" style="stroke: rgb(105, 191, 191);"></path><path d="M5,414.5573294629901C481.25,414.5573294629901,481.25,227.0537010159651,957.5,227.0537010159651" stroke-width="19.15820029027576" style="stroke: rgb(105, 180, 191);"></path><path d="M5,385.3991291727143C481.25,385.3991291727143,481.25,651.8142235123369,957.5,651.8142235123369" stroke-width="19.15820029027576" style="stroke: rgb(105, 170, 191);"></path><path d="M5,356.24092888243854C481.25,356.24092888243854,481.25,207.89550072568932,957.5,207.89550072568932" stroke-width="19.15820029027576" style="stroke: rgb(105, 160, 191);"></path><path d="M5,327.082728592163C481.25,327.082728592163,481.25,1005.529753265602,957.5,1005.529753265602" stroke-width="19.15820029027576" style="stroke: rgb(105, 150, 191);"></path><path d="M5,297.924528301887C481.25,297.924528301887,481.25,188.73730043541354,957.5,188.73730043541354" stroke-width="19.15820029027576" style="stroke: rgb(105, 139, 191);"></path><path d="M5,194.90566037735834C481.25,194.90566037735834,481.25,943.2656023222058,957.5,943.2656023222058" stroke-width="19.15820029027576" style="stroke: rgb(105, 129, 191);"></path><path d="M5,165.3483309143685C481.25,165.3483309143685,481.25,416.2626995645863,957.5,416.2626995645863" stroke-width="19.956458635703918" style="stroke: rgb(105, 119, 191);"></path><path d="M5,135.79100145137863C481.25,135.79100145137863,481.25,632.6560232220611,957.5,632.6560232220611" stroke-width="19.15820029027576" style="stroke: rgb(105, 108, 191);"></path><path d="M5,106.63280116110286C481.25,106.63280116110286,481.25,169.57910014513777,957.5,169.57910014513777" stroke-width="19.15820029027576" style="stroke: rgb(112, 105, 191);"></path><path d="M5,67.89550072568942C481.25,67.89550072568942,481.25,480.9433962264156,957.5,480.9433962264156" stroke-width="38.31640058055152" style="stroke: rgb(122, 105, 191);"></path><path d="M5,1465.2322206095794C481.25,1465.2322206095794,481.25,568.3526850507988,957.5,568.3526850507988" stroke-width="11.973875181422352" style="stroke: rgb(132, 105, 191);"></path><path d="M5,999.296081277213C481.25,999.296081277213,481.25,720.0653120464443,957.5,720.0653120464443" stroke-width="2.39477503628447" style="stroke: rgb(143, 105, 191);"></path><path d="M5,1496.0087082728592C481.25,1496.0087082728592,481.25,769.9564586357042,957.5,769.9564586357042" stroke-width="7.982583454281568" style="stroke: rgb(153, 105, 191);"></path><path d="M5,33.9477503628446C481.25,33.9477503628446,481.25,618.2873730043542,957.5,618.2873730043542" stroke-width="9.57910014513788" style="stroke: rgb(163, 105, 191);"></path><path d="M5,1481.6182873730043C481.25,1481.6182873730043,481.25,1339.6008708272855,957.5,1339.6008708272855" stroke-width="0.7982583454281568" style="stroke: rgb(174, 105, 191);"></path><path d="M962.5,834.2380261248187C1438.75,834.2380261248187,1438.75,964.1436865021766,1915,964.1436865021766" stroke-width="62.26415094339623" style="stroke: rgb(184, 105, 191);"></path><path d="M962.5,793.5268505079827C1438.75,793.5268505079827,1438.75,206.1756168359935,1915,206.1756168359935" stroke-width="19.15820029027576" style="stroke: rgb(184, 105, 191);"></path><path d="M962.5,693.722786647315C1438.75,693.722786647315,1438.75,852.7866473149486,1915,852.7866473149486" stroke-width="160.4499274310595" style="stroke: rgb(191, 105, 187);"></path><path d="M962.5,1001.1393323657472C1438.75,1001.1393323657472,1438.75,283.20754716981065,1915,283.20754716981065" stroke-width="134.9056603773585" style="stroke: rgb(191, 105, 177);"></path><path d="M962.5,1204.2960812772133C1438.75,1204.2960812772133,1438.75,1169.2960812772128,1915,1169.2960812772128" stroke-width="271.4078374455733" style="stroke: rgb(191, 105, 177);"></path><path d="M962.5,518.0624092888248C1438.75,518.0624092888248,1438.75,697.126269956458,1915,697.126269956458" stroke-width="112.5544267053701" style="stroke: rgb(191, 105, 167);"></path><path d="M962.5,429.83309143686495C1438.75,429.83309143686495,1438.75,618.8969521044987,1915,618.8969521044987" stroke-width="43.904208998548626" style="stroke: rgb(191, 105, 156);"></path><path d="M962.5,407.0827285921625C1438.75,407.0827285921625,1438.75,195.79825834542748,1915,195.79825834542748" stroke-width="1.5965166908563135" style="stroke: rgb(191, 105, 156);"></path><path d="M962.5,278.1422351233671C1438.75,278.1422351233671,1438.75,478.8026124818572,1915,478.8026124818572" stroke-width="236.2844702467344" style="stroke: rgb(191, 105, 146);"></path><path d="M962.5,593.9187227866477C1438.75,593.9187227866477,1438.75,762.982583454281,1915,762.982583454281" stroke-width="19.15820029027576" style="stroke: rgb(191, 105, 136);"></path><path d="M962.5,914.1074020319303C1438.75,914.1074020319303,1438.75,1024.0130624092883,1915,1024.0130624092883" stroke-width="19.15820029027576" style="stroke: rgb(191, 105, 126);"></path><path d="M962.5,884.9492017416547C1438.75,884.9492017416547,1438.75,1004.8548621190125,1915,1004.8548621190125" stroke-width="19.15820029027576" style="stroke: rgb(191, 105, 115);"></path></g><g class="nodes" font-family="Arial, Helvetica" font-size="10"><g><rect x="957.5" y="159.9999999999999" height="236.28447024673443" width="5" fill="#000"></rect><text x="951.5" y="278.1422351233671" dy="0.35em" text-anchor="end">Asia</text></g><g><rect x="957.5" y="406.2844702467343" height="45.5007256894055" width="5" fill="#000"></rect><text x="951.5" y="429.03483309143706" dy="0.35em" text-anchor="end">Australia / Oceania</text></g><g><rect x="957.5" y="461.7851959361398" height="112.5544267053699" width="5" fill="#000"></rect><text x="951.5" y="518.0624092888247" dy="0.35em" text-anchor="end">Canada</text></g><g><rect x="957.5" y="584.3396226415098" height="19.158200290275545" width="5" fill="#000"></rect><text x="951.5" y="593.9187227866475" dy="0.35em" text-anchor="end">Central America</text></g><g><rect x="957.5" y="613.4978229317853" height="160.44992743105945" width="5" fill="#000"></rect><text x="951.5" y="693.722786647315" dy="0.35em" text-anchor="end">Europe</text></g><g><rect x="957.5" y="783.9477503628448" height="81.42235123367209" width="5" fill="#000"></rect><text x="951.5" y="824.6589259796808" dy="0.35em" text-anchor="end">Mexico</text></g><g><rect x="957.5" y="875.3701015965169" height="19.158200290275545" width="5" fill="#000"></rect><text x="951.5" y="884.9492017416546" dy="0.35em" text-anchor="end">Middle East</text></g><g><rect x="957.5" y="904.5283018867924" height="19.158200290275545" width="5" fill="#000"></rect><text x="951.5" y="914.1074020319302" dy="0.35em" text-anchor="end">South America</text></g><g><rect x="957.5" y="933.686502177068" height="406.3134978229323" width="5" fill="#000"></rect><text x="951.5" y="1136.843251088534" dy="0.35em" text-anchor="end">US</text></g><g><rect x="1915" y="194.99999999999932" height="155.66037735849068" width="5" fill="#000"></rect><text x="1909" y="272.83018867924466" dy="0.35em" text-anchor="end">Low Fare</text></g><g><rect x="1915" y="360.66037735849" height="944.3396226415106" width="5" fill="#000"></rect><text x="1909" y="832.8301886792453" dy="0.35em" text-anchor="end">Other</text></g><g><rect x="0" y="1.1368683772161603e-13" height="19.158200290275545" width="5" fill="#000"></rect><text x="11" y="9.579100145137886" dy="0.35em" text-anchor="start">Aeromexico</text></g><g><rect x="0" y="29.15820029027566" height="9.579100145138" width="5" fill="#000"></rect><text x="11" y="33.94775036284466" dy="0.35em" text-anchor="start">Air Berlin</text></g><g><rect x="0" y="48.73730043541366" height="38.31640058055132" width="5" fill="#000"></rect><text x="11" y="67.89550072568932" dy="0.35em" text-anchor="start">Air Canada</text></g><g><rect x="0" y="97.05370101596498" height="19.158200290275772" width="5" fill="#000"></rect><text x="11" y="106.63280116110286" dy="0.35em" text-anchor="start">Air China</text></g><g><rect x="0" y="126.21190130624075" height="19.158200290275772" width="5" fill="#000"></rect><text x="11" y="135.79100145137863" dy="0.35em" text-anchor="start">Air France</text></g><g><rect x="0" y="155.37010159651652" height="19.95645863570394" width="5" fill="#000"></rect><text x="11" y="165.3483309143685" dy="0.35em" text-anchor="start">Air New Zealand</text></g><g><rect x="0" y="185.32656023222046" height="19.158200290275545" width="5" fill="#000"></rect><text x="11" y="194.90566037735823" dy="0.35em" text-anchor="start">AirTran Airways</text></g><g><rect x="0" y="214.484760522496" height="63.860667634253105" width="5" fill="#000"></rect><text x="11" y="246.41509433962256" dy="0.35em" text-anchor="start">Alaska Airlines</text></g><g><rect x="0" y="288.3454281567491" height="19.158200290276" width="5" fill="#000"></rect><text x="11" y="297.9245283018871" dy="0.35em" text-anchor="start">All Nippon Airways</text></g><g><rect x="0" y="317.5036284470251" height="19.158200290275545" width="5" fill="#000"></rect><text x="11" y="327.0827285921629" dy="0.35em" text-anchor="start">American Airlines</text></g><g><rect x="0" y="346.66182873730065" height="19.158200290275772" width="5" fill="#000"></rect><text x="11" y="356.24092888243854" dy="0.35em" text-anchor="start">Asiana Airlines</text></g><g><rect x="0" y="375.8200290275764" height="19.158200290275772" width="5" fill="#000"></rect><text x="11" y="385.3991291727143" dy="0.35em" text-anchor="start">British Airways</text></g><g><rect x="0" y="404.9782293178522" height="19.158200290275545" width="5" fill="#000"></rect><text x="11" y="414.55732946298997" dy="0.35em" text-anchor="start">Cathay Pacific</text></g><g><rect x="0" y="434.13642960812774" height="19.158200290275772" width="5" fill="#000"></rect><text x="11" y="443.7155297532656" dy="0.35em" text-anchor="start">China Airlines</text></g><g><rect x="0" y="463.2946298984035" height="57.47460087082709" width="5" fill="#000"></rect><text x="11" y="492.03193033381706" dy="0.35em" text-anchor="start">Delta Air Lines</text></g><g><rect x="0" y="559.9274310595064" height="19.158200290276" width="5" fill="#000"></rect><text x="11" y="569.5065312046444" dy="0.35em" text-anchor="start">Emirates</text></g><g><rect x="0" y="530.7692307692306" height="19.158200290275772" width="5" fill="#000"></rect><text x="11" y="540.3483309143685" dy="0.35em" text-anchor="start">EVA Airways</text></g><g><rect x="0" y="589.0856313497824" height="19.158200290276" width="5" fill="#000"></rect><text x="11" y="598.6647314949204" dy="0.35em" text-anchor="start">Frontier Airlines</text></g><g><rect x="0" y="618.2438316400584" height="19.158200290275545" width="5" fill="#000"></rect><text x="11" y="627.8229317851961" dy="0.35em" text-anchor="start">Hawaiian Airlines</text></g><g><rect x="0" y="647.4020319303339" height="19.158200290275772" width="5" fill="#000"></rect><text x="11" y="656.9811320754718" dy="0.35em" text-anchor="start">Japan Airlines</text></g><g><rect x="0" y="676.5602322206097" height="19.158200290275545" width="5" fill="#000"></rect><text x="11" y="686.1393323657475" dy="0.35em" text-anchor="start">JetBlue Airways</text></g><g><rect x="0" y="705.7184325108852" height="19.158200290275772" width="5" fill="#000"></rect><text x="11" y="715.2975326560231" dy="0.35em" text-anchor="start">KLM Royal Dutch Airlines</text></g><g><rect x="0" y="734.876632801161" height="19.158200290275772" width="5" fill="#000"></rect><text x="11" y="744.4557329462989" dy="0.35em" text-anchor="start">Korean Air Lines</text></g><g><rect x="0" y="764.0348330914368" height="19.158200290276113" width="5" fill="#000"></rect><text x="11" y="773.6139332365749" dy="0.35em" text-anchor="start">LAN Peru</text></g><g><rect x="0" y="793.1930333817129" height="19.158200290275545" width="5" fill="#000"></rect><text x="11" y="802.7721335268507" dy="0.35em" text-anchor="start">Lufthansa German Airlines</text></g><g><rect x="0" y="822.3512336719884" height="19.158200290275772" width="5" fill="#000"></rect><text x="11" y="831.9303338171263" dy="0.35em" text-anchor="start">Philippine Airlines</text></g><g><rect x="0" y="851.5094339622642" height="10.377358490565712" width="5" fill="#000"></rect><text x="11" y="856.6981132075471" dy="0.35em" text-anchor="start">Servisair</text></g><g><rect x="0" y="871.8867924528299" height="19.158200290275772" width="5" fill="#000"></rect><text x="11" y="881.4658925979678" dy="0.35em" text-anchor="start">Singapore Airlines</text></g><g><rect x="0" y="901.0449927431057" height="28.737300435413772" width="5" fill="#000"></rect><text x="11" y="915.4136429608126" dy="0.35em" text-anchor="start">Southwest Airlines</text></g><g><rect x="0" y="939.7822931785195" height="19.158200290275545" width="5" fill="#000"></rect><text x="11" y="949.3613933236572" dy="0.35em" text-anchor="start">Sun Country Airlines</text></g><g><rect x="0" y="968.940493468795" height="19.158200290275772" width="5" fill="#000"></rect><text x="11" y="978.5195936139329" dy="0.35em" text-anchor="start">Swiss International</text></g><g><rect x="0" y="998.0986937590708" height="2.3947750362845" width="5" fill="#000"></rect><text x="11" y="999.296081277213" dy="0.35em" text-anchor="start">Swissport USA</text></g><g><rect x="0" y="1010.4934687953553" height="19.158200290275545" width="5" fill="#000"></rect><text x="11" y="1020.072568940493" dy="0.35em" text-anchor="start">TACA</text></g><g><rect x="0" y="1068.8098693759073" height="22.35123367198821" width="5" fill="#000"></rect><text x="11" y="1079.9854862119014" dy="0.35em" text-anchor="start">United Airlines</text></g><g><rect x="0" y="1101.1611030478955" height="270.6095791001451" width="5" fill="#000"></rect><text x="11" y="1236.465892597968" dy="0.35em" text-anchor="start">United Airlines - Pre 07/01/2013</text></g><g><rect x="0" y="1039.6516690856308" height="19.158200290276454" width="5" fill="#000"></rect><text x="11" y="1049.230769230769" dy="0.35em" text-anchor="start">US Airways</text></g><g><rect x="0" y="1381.7706821480406" height="38.316400580551544" width="5" fill="#000"></rect><text x="11" y="1400.9288824383164" dy="0.35em" text-anchor="start">Virgin America</text></g><g><rect x="0" y="1430.0870827285921" height="19.158200290276" width="5" fill="#000"></rect><text x="11" y="1439.6661828737301" dy="0.35em" text-anchor="start">Virgin Atlantic</text></g><g><rect x="0" y="1459.2452830188681" height="11.973875181422045" width="5" fill="#000"></rect><text x="11" y="1465.2322206095791" dy="0.35em" text-anchor="start">WestJet Airlines</text></g><g><rect x="0" y="1481.2191582002902" height="0.7982583454281666" width="5" fill="#000"></rect><text x="11" y="1481.6182873730043" dy="0.35em" text-anchor="start">World Airways</text></g><g><rect x="0" y="1492.0174165457183" height="7.9825834542816665" width="5" fill="#000"></rect><text x="11" y="1496.0087082728592" dy="0.35em" text-anchor="start">XL Airways France</text></g></g></g></svg>