<svg width="1920" height="1520" xmlns="http://www.w3.org/2000/svg" version="1.1"><g transform="translate(0, 10)"><g class="links" fill="none" stroke-opacity="0.4"><path d="M5,1371.374323184211C481.25,1371.374323184211,481.25,446.06527601268704,957.5,446.06527601268704" stroke-width="2.286067473327851" style="stroke: rgb(191, 105, 105);"></path><path d="M5,1417.2149524226531C481.25,1417.2149524226531,481.25,1285.3024044982217,957.5,1285.3024044982217" stroke-width="89.39519100355629" style="stroke: rgb(191, 105, 105);"></path><path d="M5,1225.2725231478998C481.25,1225.2725231478998,481.25,441.98301953287665,957.5,441.98301953287665" stroke-width="5.8784454862928115" style="stroke: rgb(191, 115, 105);"></path><path d="M5,1218.5158430962108C481.25,1218.5158430962108,481.25,407.32497837393294,957.5,407.32497837393294" stroke-width="7.634914617085126" style="stroke: rgb(191, 115, 105);"></path><path d="M5,1211.4063577965965C481.25,1211.4063577965965,481.25,323.358401326399,957.5,323.358401326399" stroke-width="6.584055982143811" style="stroke: rgb(191, 115, 105);"></path><path d="M5,1206.8437383192531C481.25,1206.8437383192531,481.25,286.5282140072838,957.5,286.5282140072838" stroke-width="2.541182972542905" style="stroke: rgb(191, 115, 105);"></path><path d="M5,1197.0433335647224C481.25,1197.0433335647224,481.25,258.9072468682256,957.5,258.9072468682256" stroke-width="17.059626536518685" style="stroke: rgb(191, 115, 105);"></path><path d="M5,1294.2215176692962C481.25,1294.2215176692962,481.25,1174.5950372181935,957.5,1174.5950372181935" stroke-width="132.0195435565001" style="stroke: rgb(191, 115, 105);"></path><path d="M5,1036.9927686171054C481.25,1036.9927686171054,481.25,967.0645137605859,957.5,967.0645137605859" stroke-width="283.04150335871503" style="stroke: rgb(191, 125, 105);"></path><path d="M5,892.7565759261821C481.25,892.7565759261821,481.25,436.32835577816434,957.5,436.32835577816434" stroke-width="5.430882023131882" style="stroke: rgb(191, 125, 105);"></path><path d="M5,884.8267898907474C481.25,884.8267898907474,481.25,398.29317604152163,957.5,398.29317604152163" stroke-width="10.42869004773754" style="stroke: rgb(191, 125, 105);"></path><path d="M5,875.8498817241039C481.25,875.8498817241039,481.25,316.30381019255236,957.5,316.30381019255236" stroke-width="7.525126285549516" style="stroke: rgb(191, 125, 105);"></path><path d="M5,870.7180161154236C481.25,870.7180161154236,481.25,283.88832005510676,957.5,283.88832005510676" stroke-width="2.738604931811143" style="stroke: rgb(191, 125, 105);"></path><path d="M5,860.4018296720305C481.25,860.4018296720305,481.25,241.43054962247876,957.5,241.43054962247876" stroke-width="17.893767954975065" style="stroke: rgb(191, 125, 105);"></path><path d="M5,822.0051221739261C481.25,822.0051221739261,481.25,806.0939385606115,957.5,806.0939385606115" stroke-width="38.8996470412337" style="stroke: rgb(191, 135, 105);"></path><path d="M5,791.0041089526569C481.25,791.0041089526569,481.25,340.264529512906,957.5,340.264529512906" stroke-width="3.10237940130504" style="stroke: rgb(191, 145, 105);"></path><path d="M5,767.602785223789C481.25,767.602785223789,481.25,391.26207321891945,957.5,391.26207321891945" stroke-width="3.5781528669222635" style="stroke: rgb(191, 154, 105);"></path><path d="M5,754.3837812510008C481.25,754.3837812510008,481.25,785.1808112711852,957.5,785.1808112711852" stroke-width="2.8598550786548054" style="stroke: rgb(191, 164, 105);"></path><path d="M5,705.1734156903785C481.25,705.1734156903785,481.25,745.9704457105629,957.5,745.9704457105629" stroke-width="75.56087604259" style="stroke: rgb(191, 174, 105);"></path><path d="M5,370.9362338071486C481.25,370.9362338071486,481.25,627.6340028514367,957.5,627.6340028514367" stroke-width="81.21580411589436" style="stroke: rgb(191, 184, 105);"></path><path d="M5,328.95313017290147C481.25,328.95313017290147,481.25,201.87124747695933,957.5,201.87124747695933" stroke-width="2.750403152599934" style="stroke: rgb(191, 184, 105);"></path><path d="M5,652.861535771116C481.25,652.861535771116,481.25,227.95222374702354,957.5,227.95222374702354" stroke-width="9.062883795935367" style="stroke: rgb(187, 191, 105);"></path><path d="M5,603.0987844014646C481.25,603.0987844014646,481.25,220.6311273855425,957.5,220.6311273855425" stroke-width="5.57930892702671" style="stroke: rgb(178, 191, 105);"></path><path d="M5,584.3036913826795C481.25,584.3036913826795,481.25,381.042603351239,957.5,381.042603351239" stroke-width="12.010877110543909" style="stroke: rgb(168, 191, 105);"></path><path d="M5,567.5123615664745C481.25,567.5123615664745,481.25,473.3592436750426,957.5,473.3592436750426" stroke-width="1.5717825218663564" style="stroke: rgb(158, 191, 105);"></path><path d="M5,554.8415303245511C481.25,554.8415303245511,481.25,215.95653294103872,957.5,215.95653294103872" stroke-width="3.7698799619808407" style="stroke: rgb(148, 191, 105);"></path><path d="M5,540.3111577154328C481.25,540.3111577154328,481.25,372.3917321678393,957.5,372.3917321678393" stroke-width="5.29086525625554" style="stroke: rgb(138, 191, 105);"></path><path d="M5,514.6250507278104C481.25,514.6250507278104,481.25,695.1326332005509,957.5,695.1326332005509" stroke-width="26.08134871898929" style="stroke: rgb(128, 191, 105);"></path><path d="M5,490.01285816504145C481.25,490.01285816504145,481.25,212.50007475677393,957.5,212.50007475677393" stroke-width="3.1430364065486933" style="stroke: rgb(118, 191, 105);"></path><path d="M5,116.32488626290922C481.25,116.32488626290922,481.25,501.92669964864285,957.5,501.92669964864285" stroke-width="26.79837297222252" style="stroke: rgb(108, 191, 105);"></path><path d="M5,101.12984717579621C481.25,101.12984717579621,481.25,431.81706216559667,957.5,431.81706216559667" stroke-width="3.5917052020034816" style="stroke: rgb(108, 191, 105);"></path><path d="M5,476.05163557140867C481.25,476.05163557140867,481.25,679.7022544506976,957.5,679.7022544506976" stroke-width="4.7794087807170245" style="stroke: rgb(105, 191, 112);"></path><path d="M5,459.12660860557236C481.25,459.12660860557236,481.25,672.7772274848614,957.5,672.7772274848614" stroke-width="9.070645150955285" style="stroke: rgb(105, 191, 122);"></path><path d="M5,441.9087646977153C481.25,441.9087646977153,481.25,459.89083108173025,957.5,459.89083108173025" stroke-width="5.365042664758589" style="stroke: rgb(105, 191, 131);"></path><path d="M5,425.3851896152158C481.25,425.3851896152158,481.25,207.08750280337946,957.5,207.08750280337946" stroke-width="7.682107500240289" style="stroke: rgb(105, 191, 141);"></path><path d="M5,302.6253911381186C481.25,302.6253911381186,481.25,195.54350844217606,957.5,195.54350844217606" stroke-width="5.514646987836005" style="stroke: rgb(105, 191, 151);"></path><path d="M5,284.7852091053751C481.25,284.7852091053751,481.25,187.7033264094326,957.5,187.7033264094326" stroke-width="10.165717077650928" style="stroke: rgb(105, 191, 161);"></path><path d="M5,264.591942821748C481.25,264.591942821748,481.25,364.6358917949098,957.5,364.6358917949098" stroke-width="10.220815489603469" style="stroke: rgb(105, 191, 171);"></path><path d="M5,237.36059463673556C481.25,237.36059463673556,481.25,180.5011613998744,957.5,180.5011613998744" stroke-width="4.238612941465447" style="stroke: rgb(105, 191, 181);"></path><path d="M5,189.391997821374C481.25,189.391997821374,481.25,551.1751764793828,957.5,551.1751764793828" stroke-width="71.69858068925745" style="stroke: rgb(105, 191, 191);"></path><path d="M5,141.63339011288272C481.25,141.63339011288272,481.25,176.47253756527914,957.5,176.47253756527914" stroke-width="3.8186347277251516" style="stroke: rgb(105, 181, 191);"></path><path d="M5,87.14280546151652C481.25,87.14280546151652,481.25,486.33632404925373,957.5,486.33632404925373" stroke-width="4.382378226555742" style="stroke: rgb(105, 171, 191);"></path><path d="M5,72.4106376218805C481.25,72.4106376218805,481.25,279.97803886284305,957.5,279.97803886284305" stroke-width="5.081957452716341" style="stroke: rgb(105, 161, 191);"></path><path d="M5,56.01477647724738C481.25,56.01477647724738,481.25,355.6706016318332,957.5,355.6706016318332" stroke-width="7.709764836549654" style="stroke: rgb(105, 151, 191);"></path><path d="M5,39.87828395826459C481.25,39.87828395826459,481.25,172.28161010070852,957.5,172.28161010070852" stroke-width="4.563220201416107" style="stroke: rgb(105, 141, 191);"></path><path d="M5,20.22545307944548C481.25,20.22545307944548,481.25,305.17002627166636,957.5,305.17002627166636" stroke-width="14.742441556222433" style="stroke: rgb(105, 131, 191);"></path><path d="M5,1.4271161506672783C481.25,1.4271161506672783,481.25,428.594093413928,957.5,428.594093413928" stroke-width="2.8542323013338744" style="stroke: rgb(105, 122, 191);"></path><path d="M5,1474.7457188397746C481.25,1474.7457188397746,481.25,413.97560659781885,957.5,413.97560659781885" stroke-width="5.666341830686588" style="stroke: rgb(105, 112, 191);"></path><path d="M5,1488.6103450025093C481.25,1488.6103450025093,481.25,327.68188456486246,957.5,327.68188456486246" stroke-width="2.0629104947830452" style="stroke: rgb(108, 105, 191);"></path><path d="M5,779.4362311372635C481.25,779.4362311372635,481.25,786.6274269252536,957.5,786.6274269252536" stroke-width="0.03337622948193556" style="stroke: rgb(118, 105, 191);"></path><path d="M5,779.4057023398863C481.25,779.4057023398863,481.25,393.0649903350168,957.5,393.0649903350168" stroke-width="0.027681365272274848" style="stroke: rgb(118, 105, 191);"></path><path d="M5,638.3242668496422C481.25,638.3242668496422,481.25,708.1841806657621,957.5,708.1841806657621" stroke-width="0.01165404701133099" style="stroke: rgb(128, 105, 191);"></path><path d="M5,627.1059623866627C481.25,627.1059623866627,481.25,388.2605193459847,957.5,388.2605193459847" stroke-width="2.4249548789474247" style="stroke: rgb(138, 105, 191);"></path><path d="M5,316.4803216143191C481.25,316.4803216143191,481.25,199.39843891837674,957.5,199.39843891837674" stroke-width="2.1952139645652893" style="stroke: rgb(148, 105, 191);"></path><path d="M5,1499.8209001249502C481.25,1499.8209001249502,481.25,416.98787738821153,957.5,416.98787738821153" stroke-width="0.35819975009878574" style="stroke: rgb(158, 105, 191);"></path><path d="M5,615.8909619060832C481.25,615.8909619060832,481.25,708.175830601151,957.5,708.175830601151" stroke-width="0.005046082211091769" style="stroke: rgb(168, 105, 191);"></path><path d="M5,249.48071809220716C481.25,249.48071809220716,481.25,587.0252838087505,957.5,587.0252838087505" stroke-width="0.0016339694778773348" style="stroke: rgb(178, 105, 191);"></path><path d="M962.5,428.310010999925C1438.75,428.310010999925,1438.75,206.35487307367828,1915,206.35487307367828" stroke-width="2.286067473327851" style="stroke: rgb(187, 105, 191);"></path><path d="M962.5,438.33067724296995C1438.75,438.33067724296995,1438.75,640.9114572765038,1915,640.9114572765038" stroke-width="17.75526501276205" style="stroke: rgb(187, 105, 191);"></path><path d="M962.5,587.8261090701322C1438.75,587.8261090701322,1438.75,311.3977127097196,1915,311.3977127097196" stroke-width="207.36194826831274" style="stroke: rgb(191, 105, 184);"></path><path d="M962.5,1010.7535416021442C1438.75,1010.7535416021442,1438.75,975.7535416021443,1915,975.7535416021443" stroke-width="638.4929167957112" style="stroke: rgb(191, 105, 184);"></path><path d="M962.5,384.49134823840967C1438.75,384.49134823840967,1438.75,599.3581957452716,1915,599.3581957452716" stroke-width="65.35125804970258" style="stroke: rgb(191, 105, 174);"></path><path d="M962.5,313.2697451328003C1438.75,313.2697451328003,1438.75,548.1365926396617,1915,548.1365926396617" stroke-width="30.88718935890727" style="stroke: rgb(191, 105, 164);"></path><path d="M962.5,297.81247797345094C1438.75,297.81247797345094,1438.75,205.19816685711857,1915,205.19816685711857" stroke-width="0.0273449597915354" style="stroke: rgb(191, 105, 164);"></path><path d="M962.5,282.6179328150201C1438.75,282.6179328150201,1438.75,527.5121252816728,1915,527.5121252816728" stroke-width="10.361745357070388" style="stroke: rgb(191, 105, 154);"></path><path d="M962.5,218.81077725685404C1438.75,218.81077725685404,1438.75,473.7049697235067,1915,473.7049697235067" stroke-width="97.25256575926183" style="stroke: rgb(191, 105, 145);"></path><path d="M962.5,170.0922471886118C1438.75,170.0922471886118,1438.75,205.09224718861145,1915,205.09224718861145" stroke-width="0.18449437722267906" style="stroke: rgb(191, 105, 145);"></path><path d="M962.5,340.264529512906C1438.75,340.264529512906,1438.75,565.1313770197678,1915,565.1313770197678" stroke-width="3.10237940130504" style="stroke: rgb(191, 105, 135);"></path><path d="M962.5,473.3592436750426C1438.75,473.3592436750426,1438.75,655.7211919433556,1915,655.7211919433556" stroke-width="1.5717825218663564" style="stroke: rgb(191, 105, 125);"></path><path d="M962.5,460.00024696434076C1438.75,460.00024696434076,1438.75,652.3621952326537,1915,652.3621952326537" stroke-width="5.146210899537576" style="stroke: rgb(191, 105, 115);"></path><path d="M962.5,457.3177256319615C1438.75,457.3177256319615,1438.75,207.6073226929527,1915,207.6073226929527" stroke-width="0.21883176522101305" style="stroke: rgb(191, 105, 115);"></path></g><g class="nodes" font-family="Arial, Helvetica" font-size="10"><g><rect x="957.5" y="170.00000000000045" height="97.43706013648443" width="5" fill="#000"></rect><text x="951.5" y="218.71853006824267" dy="0.35em" text-anchor="end">Asia</text></g><g><rect x="957.5" y="277.4370601364849" height="10.361745357070276" width="5" fill="#000"></rect><text x="951.5" y="282.61793281502" dy="0.35em" text-anchor="end">Australia / Oceania</text></g><g><rect x="957.5" y="297.79880549355516" height="30.914534318698315" width="5" fill="#000"></rect><text x="951.5" y="313.2560726529043" dy="0.35em" text-anchor="end">Canada</text></g><g><rect x="957.5" y="338.7133398122535" height="3.1023794013049155" width="5" fill="#000"></rect><text x="951.5" y="340.26452951290594" dy="0.35em" text-anchor="end">Central America</text></g><g><rect x="957.5" y="351.8157192135584" height="65.35125804970266" width="5" fill="#000"></rect><text x="951.5" y="384.4913482384097" dy="0.35em" text-anchor="end">Europe</text></g><g><rect x="957.5" y="427.16697726326106" height="20.041332486089914" width="5" fill="#000"></rect><text x="951.5" y="437.187643506306" dy="0.35em" text-anchor="end">Mexico</text></g><g><rect x="957.5" y="457.208309749351" height="5.365042664758448" width="5" fill="#000"></rect><text x="951.5" y="459.8908310817302" dy="0.35em" text-anchor="end">Middle East</text></g><g><rect x="957.5" y="472.5733524141094" height="1.571782521866453" width="5" fill="#000"></rect><text x="951.5" y="473.35924367504265" dy="0.35em" text-anchor="end">South America</text></g><g><rect x="957.5" y="484.1451349359759" height="845.8548650640238" width="5" fill="#000"></rect><text x="951.5" y="907.0725674679877" dy="0.35em" text-anchor="end">US</text></g><g><rect x="1915" y="205.0000000000001" height="210.07868684387563" width="5" fill="#000"></rect><text x="1909" y="310.03934342193793" dy="0.35em" text-anchor="end">Low Fare</text></g><g><rect x="1915" y="425.07868684387574" height="869.9213131561241" width="5" fill="#000"></rect><text x="1909" y="860.0393434219378" dy="0.35em" text-anchor="end">Other</text></g><g><rect x="0" y="3.410605131648481e-13" height="2.854232301333923" width="5" fill="#000"></rect><text x="11" y="1.4271161506673025" dy="0.35em" text-anchor="start">Aeromexico</text></g><g><rect x="0" y="12.854232301334264" height="14.742441556222275" width="5" fill="#000"></rect><text x="11" y="20.2254530794454" dy="0.35em" text-anchor="start">Air Canada</text></g><g><rect x="0" y="37.59667385755654" height="4.563220201416016" width="5" fill="#000"></rect><text x="11" y="39.87828395826455" dy="0.35em" text-anchor="start">Air China</text></g><g><rect x="0" y="52.159894058972554" height="7.709764836549766" width="5" fill="#000"></rect><text x="11" y="56.01477647724744" dy="0.35em" text-anchor="start">Air France</text></g><g><rect x="0" y="69.86965889552232" height="5.081957452716324" width="5" fill="#000"></rect><text x="11" y="72.41063762188048" dy="0.35em" text-anchor="start">Air New Zealand</text></g><g><rect x="0" y="84.95161634823864" height="4.382378226555829" width="5" fill="#000"></rect><text x="11" y="87.14280546151656" dy="0.35em" text-anchor="start">AirTran Airways</text></g><g><rect x="0" y="99.33399457479447" height="30.390078174225664" width="5" fill="#000"></rect><text x="11" y="114.5290336619073" dy="0.35em" text-anchor="start">Alaska Airlines</text></g><g><rect x="0" y="139.72407274902014" height="3.8186347277251116" width="5" fill="#000"></rect><text x="11" y="141.6333901128827" dy="0.35em" text-anchor="start">All Nippon Airways</text></g><g><rect x="0" y="153.54270747674525" height="71.6985806892576" width="5" fill="#000"></rect><text x="11" y="189.39199782137405" dy="0.35em" text-anchor="start">American Airlines</text></g><g><rect x="0" y="235.24128816600285" height="4.238612941465362" width="5" fill="#000"></rect><text x="11" y="237.36059463673553" dy="0.35em" text-anchor="start">Asiana Airlines</text></g><g><rect x="0" y="249.4799011074682" height="0.0016339694780072023" width="5" fill="#000"></rect><text x="11" y="249.4807180922072" dy="0.35em" text-anchor="start">Atlas Air, Inc</text></g><g><rect x="0" y="259.4815350769462" height="10.22081548960341" width="5" fill="#000"></rect><text x="11" y="264.5919428217479" dy="0.35em" text-anchor="start">British Airways</text></g><g><rect x="0" y="279.7023505665496" height="10.165717077650925" width="5" fill="#000"></rect><text x="11" y="284.7852091053751" dy="0.35em" text-anchor="start">Cathay Pacific</text></g><g><rect x="0" y="299.86806764420055" height="5.514646987835931" width="5" fill="#000"></rect><text x="11" y="302.6253911381185" dy="0.35em" text-anchor="start">China Airlines</text></g><g><rect x="0" y="315.3827146320365" height="2.1952139645650277" width="5" fill="#000"></rect><text x="11" y="316.480321614319" dy="0.35em" text-anchor="start">China Eastern</text></g><g><rect x="0" y="327.5779285966015" height="83.96620726849414" width="5" fill="#000"></rect><text x="11" y="369.5610322308486" dy="0.35em" text-anchor="start">Delta Air Lines</text></g><g><rect x="0" y="439.226243365336" height="5.3650426647586755" width="5" fill="#000"></rect><text x="11" y="441.90876469771536" dy="0.35em" text-anchor="start">Emirates</text></g><g><rect x="0" y="421.54413586509565" height="7.682107500240363" width="5" fill="#000"></rect><text x="11" y="425.38518961521584" dy="0.35em" text-anchor="start">EVA Airways</text></g><g><rect x="0" y="454.5912860300947" height="9.070645150955443" width="5" fill="#000"></rect><text x="11" y="459.1266086055724" dy="0.35em" text-anchor="start">Frontier Airlines</text></g><g><rect x="0" y="473.66193118105014" height="4.779408780716949" width="5" fill="#000"></rect><text x="11" y="476.0516355714086" dy="0.35em" text-anchor="start">Hawaiian Airlines</text></g><g><rect x="0" y="488.4413399617671" height="3.1430364065486174" width="5" fill="#000"></rect><text x="11" y="490.0128581650414" dy="0.35em" text-anchor="start">Japan Airlines</text></g><g><rect x="0" y="501.5843763683157" height="26.081348718989375" width="5" fill="#000"></rect><text x="11" y="514.6250507278104" dy="0.35em" text-anchor="start">JetBlue Airways</text></g><g><rect x="0" y="537.6657250873051" height="5.290865256255529" width="5" fill="#000"></rect><text x="11" y="540.3111577154328" dy="0.35em" text-anchor="start">KLM Royal Dutch Airlines</text></g><g><rect x="0" y="552.9565903435606" height="3.7698799619806778" width="5" fill="#000"></rect><text x="11" y="554.841530324551" dy="0.35em" text-anchor="start">Korean Air Lines</text></g><g><rect x="0" y="566.7264703055413" height="1.5717825218662256" width="5" fill="#000"></rect><text x="11" y="567.5123615664744" dy="0.35em" text-anchor="start">LAN Peru</text></g><g><rect x="0" y="578.2982528274075" height="12.010877110543788" width="5" fill="#000"></rect><text x="11" y="584.3036913826794" dy="0.35em" text-anchor="start">Lufthansa German Airlines</text></g><g><rect x="0" y="600.3091299379513" height="5.579308927026432" width="5" fill="#000"></rect><text x="11" y="603.0987844014645" dy="0.35em" text-anchor="start">Philippine Airlines</text></g><g><rect x="0" y="615.8884388649777" height="0.005046082211265457" width="5" fill="#000"></rect><text x="11" y="615.8909619060834" dy="0.35em" text-anchor="start">Republic Airlines</text></g><g><rect x="0" y="625.893484947189" height="2.424954878947574" width="5" fill="#000"></rect><text x="11" y="627.1059623866628" dy="0.35em" text-anchor="start">SAS Airlines</text></g><g><rect x="0" y="638.3184398261366" height="0.011654047011688817" width="5" fill="#000"></rect><text x="11" y="638.3242668496424" dy="0.35em" text-anchor="start">Servisair</text></g><g><rect x="0" y="648.3300938731483" height="9.06288379593525" width="5" fill="#000"></rect><text x="11" y="652.8615357711159" dy="0.35em" text-anchor="start">Singapore Airlines</text></g><g><rect x="0" y="667.3929776690835" height="75.56087604258983" width="5" fill="#000"></rect><text x="11" y="705.1734156903784" dy="0.35em" text-anchor="start">Southwest Airlines</text></g><g><rect x="0" y="752.9538537116733" height="2.8598550786546184" width="5" fill="#000"></rect><text x="11" y="754.3837812510006" dy="0.35em" text-anchor="start">Sun Country Airlines</text></g><g><rect x="0" y="765.813708790328" height="3.57815286692221" width="5" fill="#000"></rect><text x="11" y="767.602785223789" dy="0.35em" text-anchor="start">Swiss International</text></g><g><rect x="0" y="779.3918616572502" height="0.061057594754174715" width="5" fill="#000"></rect><text x="11" y="779.4223904546272" dy="0.35em" text-anchor="start">Swissport USA</text></g><g><rect x="0" y="789.4529192520043" height="3.1023794013049155" width="5" fill="#000"></rect><text x="11" y="791.0041089526568" dy="0.35em" text-anchor="start">TACA</text></g><g><rect x="0" y="851.454945694543" height="327.0585746019201" width="5" fill="#000"></rect><text x="11" y="1014.984232995503" dy="0.35em" text-anchor="start">United Airlines</text></g><g><rect x="0" y="1188.513520296463" height="171.7177691510842" width="5" fill="#000"></rect><text x="11" y="1274.372404872005" dy="0.35em" text-anchor="start">United Airlines - Pre 07/01/2013</text></g><g><rect x="0" y="802.5552986533093" height="38.89964704123372" width="5" fill="#000"></rect><text x="11" y="822.0051221739261" dy="0.35em" text-anchor="start">US Airways</text></g><g><rect x="0" y="1370.2312894475472" height="91.68125847688407" width="5" fill="#000"></rect><text x="11" y="1416.0719186859892" dy="0.35em" text-anchor="start">Virgin America</text></g><g><rect x="0" y="1471.9125479244312" height="5.666341830686633" width="5" fill="#000"></rect><text x="11" y="1474.7457188397746" dy="0.35em" text-anchor="start">Virgin Atlantic</text></g><g><rect x="0" y="1487.5788897551179" height="2.0629104947829546" width="5" fill="#000"></rect><text x="11" y="1488.6103450025093" dy="0.35em" text-anchor="start">WestJet Airlines</text></g><g><rect x="0" y="1499.6418002499008" height="0.35819975009871996" width="5" fill="#000"></rect><text x="11" y="1499.8209001249502" dy="0.35em" text-anchor="start">XL Airways France</text></g></g></g></svg>