<svg width="1920" height="1520" xmlns="http://www.w3.org/2000/svg" version="1.1"><g transform="translate(0, 10)"><g class="links" fill="none" stroke-opacity="0.4"><path d="M5,1405.5817378497795C481.25,1405.5817378497795,481.25,863.3873343151699,957.5,863.3873343151699" stroke-width="19.086892488954344" style="stroke: rgb(191, 105, 105);"></path><path d="M5,1424.668630338734C481.25,1424.668630338734,481.25,1320.4565537555236,957.5,1320.4565537555236" stroke-width="19.086892488954344" style="stroke: rgb(191, 105, 105);"></path><path d="M5,1338.3210603829164C481.25,1338.3210603829164,481.25,849.0721649484541,957.5,849.0721649484541" stroke-width="9.543446244477172" style="stroke: rgb(191, 115, 105);"></path><path d="M5,1328.7776141384393C481.25,1328.7776141384393,481.25,755.5670103092789,957.5,755.5670103092789" stroke-width="9.543446244477172" style="stroke: rgb(191, 115, 105);"></path><path d="M5,1306.9072164948457C481.25,1306.9072164948457,481.25,561.0014727540503,957.5,561.0014727540503" stroke-width="34.19734904270987" style="stroke: rgb(191, 115, 105);"></path><path d="M5,1285.0368188512523C481.25,1285.0368188512523,481.25,457.55522827687787,957.5,457.55522827687787" stroke-width="9.543446244477172" style="stroke: rgb(191, 115, 105);"></path><path d="M5,1275.4933726067752C481.25,1275.4933726067752,481.25,409.3814432989692,957.5,409.3814432989692" stroke-width="9.543446244477172" style="stroke: rgb(191, 115, 105);"></path><path d="M5,1364.5655375552285C481.25,1364.5655375552285,481.25,1289.440353460973,957.5,1289.440353460973" stroke-width="42.94550810014727" style="stroke: rgb(191, 115, 105);"></path><path d="M5,1234.079528718704C481.25,1234.079528718704,481.25,1241.325478645067,957.5,1241.325478645067" stroke-width="53.28424153166421" style="stroke: rgb(191, 125, 105);"></path><path d="M5,1202.6656848306336C481.25,1202.6656848306336,481.25,839.5287187039769,957.5,839.5287187039769" stroke-width="9.543446244477172" style="stroke: rgb(191, 125, 105);"></path><path d="M5,1193.1222385861565C481.25,1193.1222385861565,481.25,746.0235640648017,957.5,746.0235640648017" stroke-width="9.543446244477172" style="stroke: rgb(191, 125, 105);"></path><path d="M5,1171.6494845360828C481.25,1171.6494845360828,481.25,527.2017673048603,957.5,527.2017673048603" stroke-width="33.4020618556701" style="stroke: rgb(191, 125, 105);"></path><path d="M5,1150.1767304860093C481.25,1150.1767304860093,481.25,448.0117820324007,957.5,448.0117820324007" stroke-width="9.543446244477172" style="stroke: rgb(191, 125, 105);"></path><path d="M5,1140.6332842415322C481.25,1140.6332842415322,481.25,399.837997054492,957.5,399.837997054492" stroke-width="9.543446244477172" style="stroke: rgb(191, 125, 105);"></path><path d="M5,1116.318114874816C481.25,1116.318114874816,481.25,1205.1399116347577,957.5,1205.1399116347577" stroke-width="19.086892488954344" style="stroke: rgb(191, 135, 105);"></path><path d="M5,1087.2312223858617C481.25,1087.2312223858617,481.25,608.7776141384392,957.5,608.7776141384392" stroke-width="19.086892488954344" style="stroke: rgb(191, 145, 105);"></path><path d="M5,1041.7820324005886C481.25,1041.7820324005886,481.25,728.5272459499269,957.5,728.5272459499269" stroke-width="19.086892488954344" style="stroke: rgb(191, 154, 105);"></path><path d="M5,1012.695139911634C481.25,1012.695139911634,481.25,1182.8718703976442,957.5,1182.8718703976442" stroke-width="19.086892488954344" style="stroke: rgb(191, 164, 105);"></path><path d="M5,978.836524300441C481.25,978.836524300441,481.25,1159.0132547864514,957.5,1159.0132547864514" stroke-width="28.630338733431515" style="stroke: rgb(191, 174, 105);"></path><path d="M5,532.5331369661249C481.25,532.5331369661249,481.25,1060.3976435935206,957.5,1060.3976435935206" stroke-width="41.35493372606774" style="stroke: rgb(191, 184, 105);"></path><path d="M5,502.31222385861383C481.25,502.31222385861383,481.25,290.0883652430046,957.5,290.0883652430046" stroke-width="19.086892488954344" style="stroke: rgb(191, 184, 105);"></path><path d="M5,944.9779086892481C481.25,944.9779086892481,481.25,385.52282768777627,957.5,385.52282768777627" stroke-width="19.086892488954344" style="stroke: rgb(187, 191, 105);"></path><path d="M5,865.2135493372596C481.25,865.2135493372596,481.25,366.43593519882194,957.5,366.43593519882194" stroke-width="19.086892488954344" style="stroke: rgb(178, 191, 105);"></path><path d="M5,836.1266568483052C481.25,836.1266568483052,481.25,695.1251840942567,957.5,695.1251840942567" stroke-width="19.086892488954344" style="stroke: rgb(168, 191, 105);"></path><path d="M5,807.0397643593508C481.25,807.0397643593508,481.25,923.1516936671582,957.5,923.1516936671582" stroke-width="19.086892488954344" style="stroke: rgb(158, 191, 105);"></path><path d="M5,777.9528718703964C481.25,777.9528718703964,481.25,347.3490427098676,957.5,347.3490427098676" stroke-width="19.086892488954344" style="stroke: rgb(148, 191, 105);"></path><path d="M5,748.8659793814422C481.25,748.8659793814422,481.25,676.0382916053023,957.5,676.0382916053023" stroke-width="19.086892488954344" style="stroke: rgb(138, 191, 105);"></path><path d="M5,719.7790868924876C481.25,719.7790868924876,481.25,1128.7923416789401,957.5,1128.7923416789401" stroke-width="19.086892488954344" style="stroke: rgb(128, 191, 105);"></path><path d="M5,690.6921944035332C481.25,690.6921944035332,481.25,328.26215022091327,957.5,328.26215022091327" stroke-width="19.086892488954344" style="stroke: rgb(118, 191, 105);"></path><path d="M5,243.7113402061833C481.25,243.7113402061833,481.25,990.4123711340212,957.5,990.4123711340212" stroke-width="57.26067746686303" style="stroke: rgb(108, 191, 105);"></path><path d="M5,204.74226804123484C481.25,204.74226804123484,481.25,824.4182621502215,957.5,824.4182621502215" stroke-width="20.67746686303387" style="stroke: rgb(108, 191, 105);"></path><path d="M5,661.6053019145786C481.25,661.6053019145786,481.25,1109.7054491899858,957.5,1109.7054491899858" stroke-width="19.086892488954344" style="stroke: rgb(105, 191, 112);"></path><path d="M5,632.518409425624C481.25,632.518409425624,481.25,1090.6185567010314,957.5,1090.6185567010314" stroke-width="19.086892488954344" style="stroke: rgb(105, 191, 122);"></path><path d="M5,602.6362297496298C481.25,602.6362297496298,481.25,893.2695139911642,957.5,893.2695139911642" stroke-width="20.67746686303387" style="stroke: rgb(105, 191, 131);"></path><path d="M5,572.7540500736357C481.25,572.7540500736357,481.25,309.17525773195894,957.5,309.17525773195894" stroke-width="19.086892488954344" style="stroke: rgb(105, 191, 141);"></path><path d="M5,448.9101620029437C481.25,448.9101620029437,481.25,256.68630338733453,957.5,256.68630338733453" stroke-width="19.086892488954344" style="stroke: rgb(105, 191, 151);"></path><path d="M5,419.8232695139893C481.25,419.8232695139893,481.25,237.59941089838017,957.5,237.59941089838017" stroke-width="19.086892488954344" style="stroke: rgb(105, 191, 161);"></path><path d="M5,390.73637702503515C481.25,390.73637702503515,481.25,656.951399116348,957.5,656.951399116348" stroke-width="19.086892488954344" style="stroke: rgb(105, 191, 171);"></path><path d="M5,350.0589101620012C481.25,350.0589101620012,481.25,218.51251840942584,957.5,218.51251840942584" stroke-width="19.086892488954344" style="stroke: rgb(105, 191, 181);"></path><path d="M5,320.9720176730466C481.25,320.9720176730466,481.25,1028.58615611193,957.5,1028.58615611193" stroke-width="19.086892488954344" style="stroke: rgb(105, 191, 191);"></path><path d="M5,291.8851251840922C481.25,291.8851251840922,481.25,199.4256259204715,957.5,199.4256259204715" stroke-width="19.086892488954344" style="stroke: rgb(105, 181, 191);"></path><path d="M5,174.8600883652409C481.25,174.8600883652409,481.25,952.2385861561125,957.5,952.2385861561125" stroke-width="19.086892488954344" style="stroke: rgb(105, 171, 191);"></path><path d="M5,145.77319587628674C481.25,145.77319587628674,481.25,433.69661266568494,957.5,433.69661266568494" stroke-width="19.086892488954344" style="stroke: rgb(105, 161, 191);"></path><path d="M5,116.6863033873328C481.25,116.6863033873328,481.25,637.8645066273936,957.5,637.8645066273936" stroke-width="19.086892488954344" style="stroke: rgb(105, 151, 191);"></path><path d="M5,87.20176730485875C481.25,87.20176730485875,481.25,179.94108983799728,957.5,179.94108983799728" stroke-width="19.88217967599411" style="stroke: rgb(105, 141, 191);"></path><path d="M5,48.17378497790726C481.25,48.17378497790726,481.25,491.41384388807086,957.5,491.41384388807086" stroke-width="38.17378497790869" style="stroke: rgb(105, 131, 191);"></path><path d="M5,9.543446244476376C481.25,9.543446244476376,481.25,804.5360824742273,957.5,804.5360824742273" stroke-width="19.086892488954344" style="stroke: rgb(105, 122, 191);"></path><path d="M5,1453.7555228276883C481.25,1453.7555228276883,481.25,769.8821796759947,957.5,769.8821796759947" stroke-width="19.086892488954344" style="stroke: rgb(105, 112, 191);"></path><path d="M5,1478.865979381444C481.25,1478.865979381444,481.25,583.6671575846835,957.5,583.6671575846835" stroke-width="11.1340206185567" style="stroke: rgb(108, 105, 191);"></path><path d="M5,1066.097201767305C481.25,1066.097201767305,481.25,1194.005891016201,957.5,1194.005891016201" stroke-width="3.1811487481590572" style="stroke: rgb(118, 105, 191);"></path><path d="M5,1062.916053019146C481.25,1062.916053019146,481.25,739.6612665684836,957.5,739.6612665684836" stroke-width="3.1811487481590572" style="stroke: rgb(118, 105, 191);"></path><path d="M5,923.8438880706909C481.25,923.8438880706909,481.25,1143.107511045656,957.5,1143.107511045656" stroke-width="3.1811487481590572" style="stroke: rgb(128, 105, 191);"></path><path d="M5,905.0957290132535C481.25,905.0957290132535,481.25,711.8262150220918,957.5,711.8262150220918" stroke-width="14.315169366715757" style="stroke: rgb(138, 105, 191);"></path><path d="M5,475.61119293077877C481.25,475.61119293077877,481.25,273.38733431516954,957.5,273.38733431516954" stroke-width="14.315169366715757" style="stroke: rgb(148, 105, 191);"></path><path d="M5,1497.2164948453615C481.25,1497.2164948453615,481.25,782.2091310751111,957.5,782.2091310751111" stroke-width="5.56701030927835" style="stroke: rgb(158, 105, 191);"></path><path d="M5,886.3475699558161C481.25,886.3475699558161,481.25,1139.926362297497,957.5,1139.926362297497" stroke-width="3.1811487481590572" style="stroke: rgb(168, 105, 191);"></path><path d="M5,370.3976435935182C481.25,370.3976435935182,481.25,1038.9248895434469,957.5,1038.9248895434469" stroke-width="1.5905743740795286" style="stroke: rgb(178, 105, 191);"></path><path d="M962.5,804.5360824742273C1438.75,804.5360824742273,1438.75,216.1340206185565,1915,216.1340206185565" stroke-width="19.086892488954344" style="stroke: rgb(187, 105, 191);"></path><path d="M962.5,843.5051546391758C1438.75,843.5051546391758,1438.75,967.3416789396166,1915,967.3416789396166" stroke-width="58.85125184094256" style="stroke: rgb(187, 105, 191);"></path><path d="M962.5,1006.3181148748165C1438.75,1006.3181148748165,1438.75,290.8910162002943,1915,290.8910162002943" stroke-width="127.24594992636229" style="stroke: rgb(191, 105, 184);"></path><path d="M962.5,1199.9705449189992C1438.75,1199.9705449189992,1438.75,1164.9705449189983,1915,1164.9705449189983" stroke-width="260.0589101620029" style="stroke: rgb(191, 105, 184);"></path><path d="M962.5,706.6568483063331C1438.75,706.6568483063331,1438.75,859.5802650957286,1915,859.5802650957286" stroke-width="156.67157584683358" style="stroke: rgb(191, 105, 174);"></path><path d="M962.5,531.1782032400591C1438.75,531.1782032400591,1438.75,704.1016200294547,1915,704.1016200294547" stroke-width="116.1119293078056" style="stroke: rgb(191, 105, 164);"></path><path d="M962.5,472.7245949926364C1438.75,472.7245949926364,1438.75,206.19293078055944,1915,206.19293078055944" stroke-width="0.7952871870397643" style="stroke: rgb(191, 105, 164);"></path><path d="M962.5,443.2400589101621C1438.75,443.2400589101621,1438.75,626.9587628865976,1915,626.9587628865976" stroke-width="38.17378497790869" style="stroke: rgb(191, 105, 154);"></path><path d="M962.5,292.47422680412393C1438.75,292.47422680412393,1438.75,486.19293078055927,1915,486.19293078055927" stroke-width="243.35787923416788" style="stroke: rgb(191, 105, 145);"></path><path d="M962.5,170.39764359352012C1438.75,170.39764359352012,1438.75,205.39764359351966,1915,205.39764359351966" stroke-width="0.7952871870397643" style="stroke: rgb(191, 105, 145);"></path><path d="M962.5,608.7776141384392C1438.75,608.7776141384392,1438.75,771.7010309278346,1915,771.7010309278346" stroke-width="19.086892488954344" style="stroke: rgb(191, 105, 135);"></path><path d="M962.5,923.1516936671582C1438.75,923.1516936671582,1438.75,1025.3976435935194,1915,1025.3976435935194" stroke-width="19.086892488954344" style="stroke: rgb(191, 105, 125);"></path><path d="M962.5,894.064801178204C1438.75,894.064801178204,1438.75,1006.3107511045652,1915,1006.3107511045652" stroke-width="19.086892488954344" style="stroke: rgb(191, 105, 115);"></path><path d="M962.5,883.726067746687C1438.75,883.726067746687,1438.75,226.47275405007343,1915,226.47275405007343" stroke-width="1.5905743740795286" style="stroke: rgb(191, 105, 115);"></path></g><g class="nodes" font-family="Arial, Helvetica" font-size="10"><g><rect x="957.5" y="170.00000000000023" height="244.15316642120752" width="5" fill="#000"></rect><text x="951.5" y="292.076583210604" dy="0.35em" text-anchor="end">Asia</text></g><g><rect x="957.5" y="424.15316642120774" height="38.17378497790878" width="5" fill="#000"></rect><text x="951.5" y="443.24005891016213" dy="0.35em" text-anchor="end">Australia / Oceania</text></g><g><rect x="957.5" y="472.3269513991165" height="116.90721649484544" width="5" fill="#000"></rect><text x="951.5" y="530.7805596465392" dy="0.35em" text-anchor="end">Canada</text></g><g><rect x="957.5" y="599.234167893962" height="19.08689248895439" width="5" fill="#000"></rect><text x="951.5" y="608.7776141384392" dy="0.35em" text-anchor="end">Central America</text></g><g><rect x="957.5" y="628.3210603829164" height="156.67157584683378" width="5" fill="#000"></rect><text x="951.5" y="706.6568483063332" dy="0.35em" text-anchor="end">Europe</text></g><g><rect x="957.5" y="794.9926362297501" height="77.93814432989711" width="5" fill="#000"></rect><text x="951.5" y="833.9617083946987" dy="0.35em" text-anchor="end">Mexico</text></g><g><rect x="957.5" y="882.9307805596472" height="20.677466863033715" width="5" fill="#000"></rect><text x="951.5" y="893.2695139911641" dy="0.35em" text-anchor="end">Middle East</text></g><g><rect x="957.5" y="913.608247422681" height="19.08689248895439" width="5" fill="#000"></rect><text x="951.5" y="923.1516936671582" dy="0.35em" text-anchor="end">South America</text></g><g><rect x="957.5" y="942.6951399116354" height="387.30486008836453" width="5" fill="#000"></rect><text x="951.5" y="1136.3475699558176" dy="0.35em" text-anchor="end">US</text></g><g><rect x="1915" y="204.99999999999977" height="149.51399116347557" width="5" fill="#000"></rect><text x="1909" y="279.75699558173756" dy="0.35em" text-anchor="end">Low Fare</text></g><g><rect x="1915" y="364.51399116347534" height="930.4860088365248" width="5" fill="#000"></rect><text x="1909" y="829.7569955817378" dy="0.35em" text-anchor="end">Other</text></g><g><rect x="0" y="-7.958078640513122e-13" height="19.08689248895371" width="5" fill="#000"></rect><text x="11" y="9.543446244476058" dy="0.35em" text-anchor="start">Aeromexico</text></g><g><rect x="0" y="29.086892488952913" height="38.17378497790878" width="5" fill="#000"></rect><text x="11" y="48.1737849779073" dy="0.35em" text-anchor="start">Air Canada</text></g><g><rect x="0" y="77.2606774668617" height="19.88217967599394" width="5" fill="#000"></rect><text x="11" y="87.20176730485866" dy="0.35em" text-anchor="start">Air China</text></g><g><rect x="0" y="107.14285714285563" height="19.086892488953936" width="5" fill="#000"></rect><text x="11" y="116.6863033873326" dy="0.35em" text-anchor="start">Air France</text></g><g><rect x="0" y="136.22974963180957" height="19.086892488954163" width="5" fill="#000"></rect><text x="11" y="145.77319587628665" dy="0.35em" text-anchor="start">Air New Zealand</text></g><g><rect x="0" y="165.31664212076373" height="19.086892488954163" width="5" fill="#000"></rect><text x="11" y="174.8600883652408" dy="0.35em" text-anchor="start">AirTran Airways</text></g><g><rect x="0" y="194.4035346097179" height="77.93814432989711" width="5" fill="#000"></rect><text x="11" y="233.37260677466645" dy="0.35em" text-anchor="start">Alaska Airlines</text></g><g><rect x="0" y="282.341678939615" height="19.08689248895439" width="5" fill="#000"></rect><text x="11" y="291.8851251840922" dy="0.35em" text-anchor="start">All Nippon Airways</text></g><g><rect x="0" y="311.4285714285694" height="19.086892488954618" width="5" fill="#000"></rect><text x="11" y="320.9720176730467" dy="0.35em" text-anchor="start">American Airlines</text></g><g><rect x="0" y="340.515463917524" height="19.08689248895439" width="5" fill="#000"></rect><text x="11" y="350.0589101620012" dy="0.35em" text-anchor="start">Asiana Airlines</text></g><g><rect x="0" y="369.6023564064784" height="1.5905743740795515" width="5" fill="#000"></rect><text x="11" y="370.3976435935182" dy="0.35em" text-anchor="start">Atlas Air, Inc</text></g><g><rect x="0" y="381.19293078055796" height="19.086892488954163" width="5" fill="#000"></rect><text x="11" y="390.73637702503504" dy="0.35em" text-anchor="start">British Airways</text></g><g><rect x="0" y="410.2798232695121" height="19.08689248895439" width="5" fill="#000"></rect><text x="11" y="419.8232695139893" dy="0.35em" text-anchor="start">Cathay Pacific</text></g><g><rect x="0" y="439.3667157584665" height="19.08689248895439" width="5" fill="#000"></rect><text x="11" y="448.9101620029437" dy="0.35em" text-anchor="start">China Airlines</text></g><g><rect x="0" y="468.4536082474209" height="14.315169366715736" width="5" fill="#000"></rect><text x="11" y="475.61119293077877" dy="0.35em" text-anchor="start">China Eastern</text></g><g><rect x="0" y="492.76877761413664" height="60.44182621502182" width="5" fill="#000"></rect><text x="11" y="522.9896907216475" dy="0.35em" text-anchor="start">Delta Air Lines</text></g><g><rect x="0" y="592.2974963181128" height="20.677466863033942" width="5" fill="#000"></rect><text x="11" y="602.6362297496298" dy="0.35em" text-anchor="start">Emirates</text></g><g><rect x="0" y="563.2106038291585" height="19.08689248895439" width="5" fill="#000"></rect><text x="11" y="572.7540500736357" dy="0.35em" text-anchor="start">EVA Airways</text></g><g><rect x="0" y="622.9749631811468" height="19.086892488954618" width="5" fill="#000"></rect><text x="11" y="632.5184094256241" dy="0.35em" text-anchor="start">Frontier Airlines</text></g><g><rect x="0" y="652.0618556701014" height="19.086892488954618" width="5" fill="#000"></rect><text x="11" y="661.6053019145787" dy="0.35em" text-anchor="start">Hawaiian Airlines</text></g><g><rect x="0" y="681.148748159056" height="19.08689248895439" width="5" fill="#000"></rect><text x="11" y="690.6921944035332" dy="0.35em" text-anchor="start">Japan Airlines</text></g><g><rect x="0" y="710.2356406480104" height="19.086892488954618" width="5" fill="#000"></rect><text x="11" y="719.7790868924877" dy="0.35em" text-anchor="start">JetBlue Airways</text></g><g><rect x="0" y="739.322533136965" height="19.086892488954163" width="5" fill="#000"></rect><text x="11" y="748.8659793814421" dy="0.35em" text-anchor="start">KLM Royal Dutch Airlines</text></g><g><rect x="0" y="768.4094256259192" height="19.08689248895439" width="5" fill="#000"></rect><text x="11" y="777.9528718703964" dy="0.35em" text-anchor="start">Korean Air Lines</text></g><g><rect x="0" y="797.4963181148736" height="19.08689248895439" width="5" fill="#000"></rect><text x="11" y="807.0397643593508" dy="0.35em" text-anchor="start">LAN Peru</text></g><g><rect x="0" y="826.583210603828" height="19.08689248895439" width="5" fill="#000"></rect><text x="11" y="836.1266568483052" dy="0.35em" text-anchor="start">Lufthansa German Airlines</text></g><g><rect x="0" y="855.6701030927824" height="19.086892488954163" width="5" fill="#000"></rect><text x="11" y="865.2135493372595" dy="0.35em" text-anchor="start">Philippine Airlines</text></g><g><rect x="0" y="884.7569955817365" height="3.181148748159103" width="5" fill="#000"></rect><text x="11" y="886.3475699558161" dy="0.35em" text-anchor="start">Republic Airlines</text></g><g><rect x="0" y="897.9381443298956" height="14.315169366715736" width="5" fill="#000"></rect><text x="11" y="905.0957290132535" dy="0.35em" text-anchor="start">SAS Airlines</text></g><g><rect x="0" y="922.2533136966114" height="3.1811487481595577" width="5" fill="#000"></rect><text x="11" y="923.8438880706912" dy="0.35em" text-anchor="start">Servisair</text></g><g><rect x="0" y="935.4344624447709" height="19.08689248895439" width="5" fill="#000"></rect><text x="11" y="944.9779086892481" dy="0.35em" text-anchor="start">Singapore Airlines</text></g><g><rect x="0" y="964.5213549337253" height="28.630338733431472" width="5" fill="#000"></rect><text x="11" y="978.836524300441" dy="0.35em" text-anchor="start">Southwest Airlines</text></g><g><rect x="0" y="1003.1516936671568" height="19.086892488954618" width="5" fill="#000"></rect><text x="11" y="1012.6951399116341" dy="0.35em" text-anchor="start">Sun Country Airlines</text></g><g><rect x="0" y="1032.2385861561115" height="19.086892488954845" width="5" fill="#000"></rect><text x="11" y="1041.7820324005888" dy="0.35em" text-anchor="start">Swiss International</text></g><g><rect x="0" y="1061.3254786450664" height="6.362297496318206" width="5" fill="#000"></rect><text x="11" y="1064.5066273932255" dy="0.35em" text-anchor="start">Swissport USA</text></g><g><rect x="0" y="1077.6877761413846" height="19.08689248895439" width="5" fill="#000"></rect><text x="11" y="1087.2312223858617" dy="0.35em" text-anchor="start">TACA</text></g><g><rect x="0" y="1135.8615611192936" height="124.86008836524297" width="5" fill="#000"></rect><text x="11" y="1198.291605301915" dy="0.35em" text-anchor="start">United Airlines</text></g><g><rect x="0" y="1270.7216494845366" height="115.31664212076589" width="5" fill="#000"></rect><text x="11" y="1328.3799705449196" dy="0.35em" text-anchor="start">United Airlines - Pre 07/01/2013</text></g><g><rect x="0" y="1106.774668630339" height="19.086892488954618" width="5" fill="#000"></rect><text x="11" y="1116.3181148748163" dy="0.35em" text-anchor="start">US Airways</text></g><g><rect x="0" y="1396.0382916053024" height="38.17378497790878" width="5" fill="#000"></rect><text x="11" y="1415.1251840942568" dy="0.35em" text-anchor="start">Virgin America</text></g><g><rect x="0" y="1444.2120765832112" height="19.086892488954504" width="5" fill="#000"></rect><text x="11" y="1453.7555228276885" dy="0.35em" text-anchor="start">Virgin Atlantic</text></g><g><rect x="0" y="1473.2989690721656" height="11.134020618556633" width="5" fill="#000"></rect><text x="11" y="1478.865979381444" dy="0.35em" text-anchor="start">WestJet Airlines</text></g><g><rect x="0" y="1494.4329896907223" height="5.56701030927843" width="5" fill="#000"></rect><text x="11" y="1497.2164948453615" dy="0.35em" text-anchor="start">XL Airways France</text></g></g></g></svg>