<svg width="1920" height="1520" xmlns="http://www.w3.org/2000/svg" version="1.1"><g transform="translate(0, 10)"><g class="links" fill="none" stroke-opacity="0.4"><path d="M5,72.10526315789517C481.25,72.10526315789517,481.25,481.31578947368337,957.5,481.31578947368337" stroke-width="37.89473684210526" style="stroke: rgb(191, 105, 105);"></path><path d="M5,1453.157894736842C481.25,1453.157894736842,481.25,771.3157894736837,957.5,771.3157894736837" stroke-width="18.94736842105263" style="stroke: rgb(191, 115, 105);"></path><path d="M5,1405.2631578947367C481.25,1405.2631578947367,481.25,869.7368421052626,957.5,869.7368421052626" stroke-width="18.94736842105263" style="stroke: rgb(191, 125, 105);"></path><path d="M5,1424.2105263157894C481.25,1424.2105263157894,481.25,1320.5263157894747,957.5,1320.5263157894747" stroke-width="18.94736842105263" style="stroke: rgb(191, 125, 105);"></path><path d="M5,1272.8947368421057C481.25,1272.8947368421057,481.25,847.6315789473678,957.5,847.6315789473678" stroke-width="25.263157894736842" style="stroke: rgb(191, 135, 105);"></path><path d="M5,1250.7894736842109C481.25,1250.7894736842109,481.25,752.3684210526311,957.5,752.3684210526311" stroke-width="18.94736842105263" style="stroke: rgb(191, 135, 105);"></path><path d="M5,1209.3421052631581C481.25,1209.3421052631581,481.25,532.2368421052623,957.5,532.2368421052623" stroke-width="63.94736842105263" style="stroke: rgb(191, 135, 105);"></path><path d="M5,1167.8947368421054C481.25,1167.8947368421054,481.25,442.89473684210446,957.5,442.89473684210446" stroke-width="18.94736842105263" style="stroke: rgb(191, 135, 105);"></path><path d="M5,1148.9473684210527C481.25,1148.9473684210527,481.25,394.99999999999847,957.5,394.99999999999847" stroke-width="18.94736842105263" style="stroke: rgb(191, 135, 105);"></path><path d="M5,1335.6578947368425C481.25,1335.6578947368425,481.25,1260.9210526315799,957.5,1260.9210526315799" stroke-width="100.26315789473685" style="stroke: rgb(191, 135, 105);"></path><path d="M5,1117.631578947368C481.25,1117.631578947368,481.25,1198.9473684210536,957.5,1198.9473684210536" stroke-width="23.68421052631579" style="stroke: rgb(191, 145, 105);"></path><path d="M5,1086.3157894736837C481.25,1086.3157894736837,481.25,596.315789473684,957.5,596.315789473684" stroke-width="18.94736842105263" style="stroke: rgb(191, 154, 105);"></path><path d="M5,1044.6052631578943C481.25,1044.6052631578943,481.25,733.8157894736837,957.5,733.8157894736837" stroke-width="18.157894736842106" style="stroke: rgb(191, 164, 105);"></path><path d="M5,1016.0526315789472C481.25,1016.0526315789472,481.25,1176.8421052631586,957.5,1176.8421052631586" stroke-width="18.94736842105263" style="stroke: rgb(191, 174, 105);"></path><path d="M5,982.3684210526311C481.25,982.3684210526311,481.25,1153.1578947368428,957.5,1153.1578947368428" stroke-width="28.42105263157895" style="stroke: rgb(191, 184, 105);"></path><path d="M5,536.184210526316C481.25,536.184210526316,481.25,1045.3947368421059,957.5,1045.3947368421059" stroke-width="57.631578947368425" style="stroke: rgb(187, 191, 105);"></path><path d="M5,505.0000000000001C481.25,505.0000000000001,481.25,287.63157894736696,957.5,287.63157894736696" stroke-width="4.7368421052631575" style="stroke: rgb(187, 191, 105);"></path><path d="M5,948.6842105263155C481.25,948.6842105263155,481.25,375.26315789473534,957.5,375.26315789473534" stroke-width="18.94736842105263" style="stroke: rgb(178, 191, 105);"></path><path d="M5,919.7368421052628C481.25,919.7368421052628,481.25,715.2631578947364,957.5,715.2631578947364" stroke-width="18.94736842105263" style="stroke: rgb(168, 191, 105);"></path><path d="M5,874.4736842105261C481.25,874.4736842105261,481.25,356.31578947368274,957.5,356.31578947368274" stroke-width="18.94736842105263" style="stroke: rgb(158, 191, 105);"></path><path d="M5,845.5263157894736C481.25,845.5263157894736,481.25,696.3157894736838,957.5,696.3157894736838" stroke-width="18.94736842105263" style="stroke: rgb(148, 191, 105);"></path><path d="M5,823.684210526316C481.25,823.684210526316,481.25,923.6842105263162,957.5,923.6842105263162" stroke-width="4.7368421052631575" style="stroke: rgb(138, 191, 105);"></path><path d="M5,801.8421052631583C481.25,801.8421052631583,481.25,337.36842105263014,957.5,337.36842105263014" stroke-width="18.94736842105263" style="stroke: rgb(128, 191, 105);"></path><path d="M5,772.8947368421055C481.25,772.8947368421055,481.25,677.3684210526312,957.5,677.3684210526312" stroke-width="18.94736842105263" style="stroke: rgb(118, 191, 105);"></path><path d="M5,743.947368421053C481.25,743.947368421053,481.25,1123.1578947368428,957.5,1123.1578947368428" stroke-width="18.94736842105263" style="stroke: rgb(108, 191, 105);"></path><path d="M5,715.0000000000006C481.25,715.0000000000006,481.25,318.42105263157754,957.5,318.42105263157754" stroke-width="18.94736842105263" style="stroke: rgb(105, 191, 112);"></path><path d="M5,254.73684210526363C481.25,254.73684210526363,481.25,973.9473684210532,957.5,973.9473684210532" stroke-width="41.05263157894737" style="stroke: rgb(105, 191, 122);"></path><path d="M5,224.73684210526363C481.25,224.73684210526363,481.25,825.5263157894731,957.5,825.5263157894731" stroke-width="18.94736842105263" style="stroke: rgb(105, 191, 122);"></path><path d="M5,686.0526315789481C481.25,686.0526315789481,481.25,1104.21052631579,957.5,1104.21052631579" stroke-width="18.94736842105263" style="stroke: rgb(105, 191, 131);"></path><path d="M5,656.3157894736848C481.25,656.3157894736848,481.25,1084.473684210527,957.5,1084.473684210527" stroke-width="20.526315789473685" style="stroke: rgb(105, 191, 141);"></path><path d="M5,613.4210526315795C481.25,613.4210526315795,481.25,898.6842105263164,957.5,898.6842105263164" stroke-width="18.94736842105263" style="stroke: rgb(105, 191, 151);"></path><path d="M5,584.4736842105268C481.25,584.4736842105268,481.25,299.4736842105249,957.5,299.4736842105249" stroke-width="18.94736842105263" style="stroke: rgb(105, 191, 161);"></path><path d="M5,471.5789473684213C481.25,471.5789473684213,481.25,274.21052631578806,957.5,274.21052631578806" stroke-width="18.94736842105263" style="stroke: rgb(105, 191, 171);"></path><path d="M5,442.63157894736884C481.25,442.63157894736884,481.25,255.26315789473546,957.5,255.26315789473546" stroke-width="18.94736842105263" style="stroke: rgb(105, 191, 181);"></path><path d="M5,413.6842105263159C481.25,413.6842105263159,481.25,236.31578947368286,957.5,236.31578947368286" stroke-width="18.94736842105263" style="stroke: rgb(105, 191, 191);"></path><path d="M5,384.7368421052634C481.25,384.7368421052634,481.25,658.4210526315786,957.5,658.4210526315786" stroke-width="18.94736842105263" style="stroke: rgb(105, 181, 191);"></path><path d="M5,355.7894736842109C481.25,355.7894736842109,481.25,217.3684210526302,957.5,217.3684210526302" stroke-width="18.94736842105263" style="stroke: rgb(105, 171, 191);"></path><path d="M5,325.2631578947374C481.25,325.2631578947374,481.25,1005.5263157894743,957.5,1005.5263157894743" stroke-width="22.105263157894736" style="stroke: rgb(105, 161, 191);"></path><path d="M5,294.73684210526363C481.25,294.73684210526363,481.25,198.4210526315776,957.5,198.4210526315776" stroke-width="18.94736842105263" style="stroke: rgb(105, 151, 191);"></path><path d="M5,196.57894736842144C481.25,196.57894736842144,481.25,944.7368421052638,957.5,944.7368421052638" stroke-width="17.36842105263158" style="stroke: rgb(105, 141, 191);"></path><path d="M5,168.42105263157924C481.25,168.42105263157924,481.25,423.94736842105186,957.5,423.94736842105186" stroke-width="18.94736842105263" style="stroke: rgb(105, 131, 191);"></path><path d="M5,139.47368421052653C481.25,139.47368421052653,481.25,639.473684210526,957.5,639.473684210526" stroke-width="18.94736842105263" style="stroke: rgb(105, 122, 191);"></path><path d="M5,110.52631578947428C481.25,110.52631578947428,481.25,179.47368421052494,957.5,179.47368421052494" stroke-width="18.94736842105263" style="stroke: rgb(105, 112, 191);"></path><path d="M5,33.68421052631636C481.25,33.68421052631636,481.25,806.5789473684205,957.5,806.5789473684205" stroke-width="18.94736842105263" style="stroke: rgb(108, 105, 191);"></path><path d="M5,1064.0789473684206C481.25,1064.0789473684206,481.25,385.1315789473669,957.5,385.1315789473669" stroke-width="0.7894736842105263" style="stroke: rgb(118, 105, 191);"></path><path d="M5,1066.4473684210523C481.25,1066.4473684210523,481.25,1186.7105263157903,957.5,1186.7105263157903" stroke-width="0.7894736842105263" style="stroke: rgb(118, 105, 191);"></path><path d="M5,1065.2631578947367C481.25,1065.2631578947367,481.25,586.0526315789472,957.5,586.0526315789472" stroke-width="1.5789473684210527" style="stroke: rgb(118, 105, 191);"></path><path d="M5,897.1052631578943C481.25,897.1052631578943,481.25,1135.7894736842113,957.5,1135.7894736842113" stroke-width="6.315789473684211" style="stroke: rgb(128, 105, 191);"></path><path d="M5,7.105263157895192C481.25,7.105263157895192,481.25,622.8947368421049,957.5,622.8947368421049" stroke-width="14.210526315789474" style="stroke: rgb(138, 105, 191);"></path><path d="M5,1478.157894736842C481.25,1478.157894736842,481.25,569.7368421052623,957.5,569.7368421052623" stroke-width="11.052631578947368" style="stroke: rgb(148, 105, 191);"></path><path d="M5,1496.8421052631575C481.25,1496.8421052631575,481.25,783.947368421052,957.5,783.947368421052" stroke-width="6.315789473684211" style="stroke: rgb(158, 105, 191);"></path><path d="M5,634.4736842105269C481.25,634.4736842105269,481.25,909.7368421052637,957.5,909.7368421052637" stroke-width="3.1578947368421053" style="stroke: rgb(168, 105, 191);"></path><path d="M5,491.84210526315803C481.25,491.84210526315803,481.25,284.4736842105249,957.5,284.4736842105249" stroke-width="1.5789473684210527" style="stroke: rgb(178, 105, 191);"></path><path d="M962.5,518.8157894736834C1438.75,518.8157894736834,1438.75,685.9210526315791,1915,685.9210526315791" stroke-width="112.89473684210526" style="stroke: rgb(187, 105, 191);"></path><path d="M962.5,701.4473684210523C1438.75,701.4473684210523,1438.75,848.5526315789474,1915,848.5526315789474" stroke-width="171.31578947368422" style="stroke: rgb(191, 105, 184);"></path><path d="M962.5,806.5789473684205C1438.75,806.5789473684205,1438.75,214.4736842105262,1915,214.4736842105262" stroke-width="18.94736842105263" style="stroke: rgb(191, 105, 174);"></path><path d="M962.5,847.6315789473678C1438.75,847.6315789473678,1438.75,965.7894736842106,1915,965.7894736842106" stroke-width="63.15789473684211" style="stroke: rgb(191, 105, 174);"></path><path d="M962.5,997.631578947369C1438.75,997.631578947369,1438.75,285.5263157894736,1915,285.5263157894736" stroke-width="123.15789473684211" style="stroke: rgb(191, 105, 164);"></path><path d="M962.5,1194.6052631578953C1438.75,1194.6052631578953,1438.75,1159.6052631578948,1915,1159.6052631578948" stroke-width="270.7894736842105" style="stroke: rgb(191, 105, 164);"></path><path d="M962.5,433.42105263157816C1438.75,433.42105263157816,1438.75,610.5263157894739,1915,610.5263157894739" stroke-width="37.89473684210526" style="stroke: rgb(191, 105, 154);"></path><path d="M962.5,287.2368421052618C1438.75,287.2368421052618,1438.75,474.3421052631581,1915,474.3421052631581" stroke-width="234.47368421052633" style="stroke: rgb(191, 105, 145);"></path><path d="M962.5,595.5263157894735C1438.75,595.5263157894735,1438.75,752.6315789473686,1915,752.6315789473686" stroke-width="20.526315789473685" style="stroke: rgb(191, 105, 135);"></path><path d="M962.5,923.6842105263162C1438.75,923.6842105263162,1438.75,1021.8421052631579,1915,1021.8421052631579" stroke-width="4.7368421052631575" style="stroke: rgb(191, 105, 125);"></path><path d="M962.5,900.2631578947374C1438.75,900.2631578947374,1438.75,1008.4210526315791,1915,1008.4210526315791" stroke-width="22.105263157894736" style="stroke: rgb(191, 105, 115);"></path></g><g class="nodes" font-family="Arial, Helvetica" font-size="10"><g><rect x="957.5" y="169.99999999999864" height="234.47368421052693" width="5" fill="#000"></rect><text x="951.5" y="287.2368421052621" dy="0.35em" text-anchor="end">Asia</text></g><g><rect x="957.5" y="414.47368421052556" height="37.8947368421052" width="5" fill="#000"></rect><text x="951.5" y="433.42105263157816" dy="0.35em" text-anchor="end">Australia / Oceania</text></g><g><rect x="957.5" y="462.36842105263077" height="112.89473684210586" width="5" fill="#000"></rect><text x="951.5" y="518.8157894736837" dy="0.35em" text-anchor="end">Canada</text></g><g><rect x="957.5" y="585.2631578947367" height="20.52631578947353" width="5" fill="#000"></rect><text x="951.5" y="595.5263157894734" dy="0.35em" text-anchor="end">Central America</text></g><g><rect x="957.5" y="615.7894736842102" height="171.31578947368394" width="5" fill="#000"></rect><text x="951.5" y="701.4473684210521" dy="0.35em" text-anchor="end">Europe</text></g><g><rect x="957.5" y="797.1052631578941" height="82.10526315789593" width="5" fill="#000"></rect><text x="951.5" y="838.1578947368421" dy="0.35em" text-anchor="end">Mexico</text></g><g><rect x="957.5" y="889.21052631579" height="22.10526315789457" width="5" fill="#000"></rect><text x="951.5" y="900.2631578947373" dy="0.35em" text-anchor="end">Middle East</text></g><g><rect x="957.5" y="921.3157894736846" height="4.736842105263349" width="5" fill="#000"></rect><text x="951.5" y="923.6842105263163" dy="0.35em" text-anchor="end">South America</text></g><g><rect x="957.5" y="936.052631578948" height="393.9473684210534" width="5" fill="#000"></rect><text x="951.5" y="1133.0263157894747" dy="0.35em" text-anchor="end">US</text></g><g><rect x="1915" y="204.9999999999999" height="142.10526315789502" width="5" fill="#000"></rect><text x="1909" y="276.0526315789474" dy="0.35em" text-anchor="end">Low Fare</text></g><g><rect x="1915" y="357.1052631578949" height="937.8947368421052" width="5" fill="#000"></rect><text x="1909" y="826.0526315789475" dy="0.35em" text-anchor="end">Other</text></g><g><rect x="0" y="4.547473508864641e-13" height="14.210526315789593" width="5" fill="#000"></rect><text x="11" y="7.105263157895251" dy="0.35em" text-anchor="start">Aer Lingus</text></g><g><rect x="0" y="24.210526315790048" height="18.947368421052488" width="5" fill="#000"></rect><text x="11" y="33.68421052631629" dy="0.35em" text-anchor="start">Aeromexico</text></g><g><rect x="0" y="53.157894736842536" height="37.89473684210543" width="5" fill="#000"></rect><text x="11" y="72.10526315789525" dy="0.35em" text-anchor="start">Air Canada</text></g><g><rect x="0" y="101.05263157894797" height="18.94736842105226" width="5" fill="#000"></rect><text x="11" y="110.5263157894741" dy="0.35em" text-anchor="start">Air China</text></g><g><rect x="0" y="130.00000000000023" height="18.947368421052715" width="5" fill="#000"></rect><text x="11" y="139.47368421052659" dy="0.35em" text-anchor="start">Air France</text></g><g><rect x="0" y="158.94736842105294" height="18.947368421052715" width="5" fill="#000"></rect><text x="11" y="168.4210526315793" dy="0.35em" text-anchor="start">Air New Zealand</text></g><g><rect x="0" y="187.89473684210566" height="17.368421052631675" width="5" fill="#000"></rect><text x="11" y="196.5789473684215" dy="0.35em" text-anchor="start">AirTran Airways</text></g><g><rect x="0" y="215.26315789473733" height="60" width="5" fill="#000"></rect><text x="11" y="245.26315789473733" dy="0.35em" text-anchor="start">Alaska Airlines</text></g><g><rect x="0" y="285.26315789473733" height="18.947368421052715" width="5" fill="#000"></rect><text x="11" y="294.7368421052637" dy="0.35em" text-anchor="start">All Nippon Airways</text></g><g><rect x="0" y="314.21052631579005" height="22.10526315789457" width="5" fill="#000"></rect><text x="11" y="325.26315789473733" dy="0.35em" text-anchor="start">American Airlines</text></g><g><rect x="0" y="346.3157894736846" height="18.947368421052488" width="5" fill="#000"></rect><text x="11" y="355.78947368421086" dy="0.35em" text-anchor="start">Asiana Airlines</text></g><g><rect x="0" y="375.2631578947371" height="18.947368421052488" width="5" fill="#000"></rect><text x="11" y="384.73684210526335" dy="0.35em" text-anchor="start">British Airways</text></g><g><rect x="0" y="404.2105263157896" height="18.947368421052943" width="5" fill="#000"></rect><text x="11" y="413.68421052631606" dy="0.35em" text-anchor="start">Cathay Pacific</text></g><g><rect x="0" y="433.15789473684254" height="18.947368421052488" width="5" fill="#000"></rect><text x="11" y="442.6315789473688" dy="0.35em" text-anchor="start">China Airlines</text></g><g><rect x="0" y="462.105263157895" height="18.947368421052488" width="5" fill="#000"></rect><text x="11" y="471.57894736842127" dy="0.35em" text-anchor="start">China Eastern</text></g><g><rect x="0" y="491.0526315789475" height="1.5789473684210407" width="5" fill="#000"></rect><text x="11" y="491.84210526315803" dy="0.35em" text-anchor="start">China Southern</text></g><g><rect x="0" y="502.63157894736855" height="62.3684210526319" width="5" fill="#000"></rect><text x="11" y="533.8157894736845" dy="0.35em" text-anchor="start">Delta Air Lines</text></g><g><rect x="0" y="603.9473684210532" height="18.947368421052715" width="5" fill="#000"></rect><text x="11" y="613.4210526315795" dy="0.35em" text-anchor="start">Emirates</text></g><g><rect x="0" y="632.8947368421059" height="3.1578947368420813" width="5" fill="#000"></rect><text x="11" y="634.4736842105269" dy="0.35em" text-anchor="start">Etihad Airways</text></g><g><rect x="0" y="575.0000000000005" height="18.947368421052715" width="5" fill="#000"></rect><text x="11" y="584.4736842105268" dy="0.35em" text-anchor="start">EVA Airways</text></g><g><rect x="0" y="646.052631578948" height="20.526315789473756" width="5" fill="#000"></rect><text x="11" y="656.3157894736848" dy="0.35em" text-anchor="start">Frontier Airlines</text></g><g><rect x="0" y="676.5789473684217" height="18.947368421052488" width="5" fill="#000"></rect><text x="11" y="686.052631578948" dy="0.35em" text-anchor="start">Hawaiian Airlines</text></g><g><rect x="0" y="705.5263157894742" height="18.947368421052488" width="5" fill="#000"></rect><text x="11" y="715.0000000000005" dy="0.35em" text-anchor="start">Japan Airlines</text></g><g><rect x="0" y="734.4736842105267" height="18.947368421052488" width="5" fill="#000"></rect><text x="11" y="743.9473684210529" dy="0.35em" text-anchor="start">JetBlue Airways</text></g><g><rect x="0" y="763.4210526315792" height="18.947368421052715" width="5" fill="#000"></rect><text x="11" y="772.8947368421055" dy="0.35em" text-anchor="start">KLM Royal Dutch Airlines</text></g><g><rect x="0" y="792.3684210526319" height="18.947368421052488" width="5" fill="#000"></rect><text x="11" y="801.8421052631581" dy="0.35em" text-anchor="start">Korean Air Lines</text></g><g><rect x="0" y="821.3157894736844" height="4.736842105262895" width="5" fill="#000"></rect><text x="11" y="823.6842105263158" dy="0.35em" text-anchor="start">LAN Peru</text></g><g><rect x="0" y="836.0526315789473" height="18.947368421052488" width="5" fill="#000"></rect><text x="11" y="845.5263157894735" dy="0.35em" text-anchor="start">Lufthansa German Airlines</text></g><g><rect x="0" y="864.9999999999998" height="18.947368421052488" width="5" fill="#000"></rect><text x="11" y="874.473684210526" dy="0.35em" text-anchor="start">Philippine Airlines</text></g><g><rect x="0" y="893.9473684210523" height="6.315789473684163" width="5" fill="#000"></rect><text x="11" y="897.1052631578943" dy="0.35em" text-anchor="start">Republic Airlines</text></g><g><rect x="0" y="910.2631578947364" height="18.947368421052715" width="5" fill="#000"></rect><text x="11" y="919.7368421052628" dy="0.35em" text-anchor="start">SAS Airlines</text></g><g><rect x="0" y="939.2105263157891" height="18.947368421052488" width="5" fill="#000"></rect><text x="11" y="948.6842105263154" dy="0.35em" text-anchor="start">Singapore Airlines</text></g><g><rect x="0" y="968.1578947368416" height="28.421052631579187" width="5" fill="#000"></rect><text x="11" y="982.3684210526312" dy="0.35em" text-anchor="start">Southwest Airlines</text></g><g><rect x="0" y="1006.5789473684208" height="18.947368421052488" width="5" fill="#000"></rect><text x="11" y="1016.0526315789471" dy="0.35em" text-anchor="start">Sun Country Airlines</text></g><g><rect x="0" y="1035.5263157894733" height="18.15789473684208" width="5" fill="#000"></rect><text x="11" y="1044.6052631578943" dy="0.35em" text-anchor="start">Swiss International</text></g><g><rect x="0" y="1063.6842105263154" height="3.1578947368420813" width="5" fill="#000"></rect><text x="11" y="1065.2631578947364" dy="0.35em" text-anchor="start">Swissport USA</text></g><g><rect x="0" y="1076.8421052631575" height="18.947368421052715" width="5" fill="#000"></rect><text x="11" y="1086.3157894736837" dy="0.35em" text-anchor="start">TACA</text></g><g><rect x="0" y="1139.4736842105265" height="246.31578947368405" width="5" fill="#000"></rect><text x="11" y="1262.6315789473686" dy="0.35em" text-anchor="start">United Airlines</text></g><g><rect x="0" y="1105.7894736842102" height="23.684210526316292" width="5" fill="#000"></rect><text x="11" y="1117.6315789473683" dy="0.35em" text-anchor="start">US Airways</text></g><g><rect x="0" y="1395.7894736842104" height="37.89473684210543" width="5" fill="#000"></rect><text x="11" y="1414.7368421052631" dy="0.35em" text-anchor="start">Virgin America</text></g><g><rect x="0" y="1443.6842105263158" height="18.947368421052488" width="5" fill="#000"></rect><text x="11" y="1453.157894736842" dy="0.35em" text-anchor="start">Virgin Atlantic</text></g><g><rect x="0" y="1472.6315789473683" height="11.052631578947057" width="5" fill="#000"></rect><text x="11" y="1478.1578947368419" dy="0.35em" text-anchor="start">WestJet Airlines</text></g><g><rect x="0" y="1493.6842105263154" height="6.315789473684163" width="5" fill="#000"></rect><text x="11" y="1496.8421052631575" dy="0.35em" text-anchor="start">XL Airways France</text></g></g></g></svg>