<svg width="1920" height="1520" xmlns="http://www.w3.org/2000/svg" version="1.1"><g transform="translate(0, 10)"><g class="links" fill="none" stroke-opacity="0.4"><path d="M5,35.96034276486254C481.25,35.96034276486254,481.25,304.07799373404777,957.5,304.07799373404777" stroke-width="16.75673868696966" style="stroke: rgb(191, 105, 105);"></path><path d="M5,1474.859203290799C481.25,1474.859203290799,481.25,413.16199229067485,957.5,413.16199229067485" stroke-width="5.444925165603016" style="stroke: rgb(191, 115, 105);"></path><path d="M5,1372.0471869980258C481.25,1372.0471869980258,481.25,448.05459985455445,957.5,448.05459985455445" stroke-width="2.1037184818448433" style="stroke: rgb(191, 125, 105);"></path><path d="M5,1417.617893473473C481.25,1417.617893473473,481.25,1285.481152765475,957.5,1285.481152765475" stroke-width="89.03769446904933" style="stroke: rgb(191, 125, 105);"></path><path d="M5,941.9845389429025C481.25,941.9845389429025,481.25,441.17409897575106,957.5,441.17409897575106" stroke-width="11.657283275762046" style="stroke: rgb(191, 135, 105);"></path><path d="M5,927.5555663377685C481.25,927.5555663377685,481.25,401.83919874062036,957.5,401.83919874062036" stroke-width="17.200661934506076" style="stroke: rgb(191, 135, 105);"></path><path d="M5,912.0935426619383C481.25,912.0935426619383,481.25,319.31805578610965,957.5,319.31805578610965" stroke-width="13.723385417154175" style="stroke: rgb(191, 135, 105);"></path><path d="M5,903.1769112231821C481.25,903.1769112231821,481.25,283.64468566038386,957.5,283.64468566038386" stroke-width="4.109877460358333" style="stroke: rgb(191, 135, 105);"></path><path d="M5,882.1780991981021C481.25,882.1780991981021,481.25,247.58114628977958,957.5,247.58114628977958" stroke-width="37.887746589801374" style="stroke: rgb(191, 135, 105);"></path><path d="M5,1154.4042541689435C481.25,1154.4042541689435,481.25,1034.3712319427905,957.5,1034.3712319427905" stroke-width="413.1821471763198" style="stroke: rgb(191, 135, 105);"></path><path d="M5,833.2546768752151C481.25,833.2546768752151,481.25,807.8006093266439,957.5,807.8006093266439" stroke-width="39.959098055973314" style="stroke: rgb(191, 145, 105);"></path><path d="M5,801.8126751326988C481.25,801.8126751326988,481.25,339.66944917811185,957.5,339.66944917811185" stroke-width="2.924905429058757" style="stroke: rgb(191, 154, 105);"></path><path d="M5,778.706771151407C481.25,778.706771151407,481.25,391.6159324265957,957.5,391.6159324265957" stroke-width="3.2458706935431585" style="stroke: rgb(191, 164, 105);"></path><path d="M5,765.500224548081C481.25,765.500224548081,481.25,786.2326123280045,957.5,786.2326123280045" stroke-width="3.1672225131085074" style="stroke: rgb(191, 174, 105);"></path><path d="M5,716.4551966882639C481.25,716.4551966882639,481.25,747.1875844681874,957.5,747.1875844681874" stroke-width="74.9228332065256" style="stroke: rgb(191, 184, 105);"></path><path d="M5,382.0370512930477C481.25,382.0370512930477,481.25,626.9681214313232,957.5,626.9681214313232" stroke-width="88.871733283871" style="stroke: rgb(187, 191, 105);"></path><path d="M5,337.3396124019312C481.25,337.3396124019312,481.25,200.39631829017154,957.5,200.39631829017154" stroke-width="0.5231444983618783" style="stroke: rgb(187, 191, 105);"></path><path d="M5,665.1233887409617C481.25,665.1233887409617,481.25,224.76193032266312,957.5,224.76193032266312" stroke-width="7.740782688078359" style="stroke: rgb(178, 191, 105);"></path><path d="M5,649.6395864800462C481.25,649.6395864800462,481.25,388.3795861629478,957.5,388.3795861629478" stroke-width="3.2268218337526617" style="stroke: rgb(168, 191, 105);"></path><path d="M5,625.135012518722C481.25,625.135012518722,481.25,218.01059950994807,957.5,218.01059950994807" stroke-width="5.761878937351754" style="stroke: rgb(158, 191, 105);"></path><path d="M5,606.4690076846821C481.25,606.4690076846821,481.25,380.9811098807076,957.5,380.9811098807076" stroke-width="11.570130730727787" style="stroke: rgb(148, 191, 105);"></path><path d="M5,590.5046056712185C481.25,590.5046056712185,481.25,475.2331661050257,957.5,475.2331661050257" stroke-width="0.3586732961996455" style="stroke: rgb(138, 191, 105);"></path><path d="M5,578.5425043443503C481.25,578.5425043443503,481.25,213.34689536250391,957.5,213.34689536250391" stroke-width="3.5655293575365157" style="stroke: rgb(128, 191, 105);"></path><path d="M5,564.1991121611451C481.25,564.1991121611451,481.25,372.6354170109067,957.5,372.6354170109067" stroke-width="5.1212550088739945" style="stroke: rgb(118, 191, 105);"></path><path d="M5,539.6279837148669C481.25,539.6279837148669,481.25,697.7054433473114,957.5,697.7054433473114" stroke-width="24.021001883682374" style="stroke: rgb(108, 191, 105);"></path><path d="M5,516.2982632719752C481.25,516.2982632719752,481.25,210.24491118268512,957.5,210.24491118268512" stroke-width="2.638439002101067" style="stroke: rgb(105, 191, 112);"></path><path d="M5,130.08757661712403C481.25,130.08757661712403,481.25,501.1436059002559,957.5,501.1436059002559" stroke-width="27.98389825020597" style="stroke: rgb(105, 191, 122);"></path><path d="M5,114.36173425618101C481.25,114.36173425618101,481.25,433.61156410203,957.5,433.61156410203" stroke-width="3.467786471680103" style="stroke: rgb(105, 191, 122);"></path><path d="M5,502.66372477797785C481.25,502.66372477797785,481.25,683.3796234125231,957.5,683.3796234125231" stroke-width="4.630637985894445" style="stroke: rgb(105, 191, 131);"></path><path d="M5,485.51824761187277C481.25,485.51824761187277,481.25,676.2341462464173,957.5,676.2341462464173" stroke-width="9.660316346317135" style="stroke: rgb(105, 191, 141);"></path><path d="M5,457.49761172914657C481.25,457.49761172914657,481.25,461.86335174735825,957.5,461.86335174735825" stroke-width="5.5137853037626465" style="stroke: rgb(105, 191, 151);"></path><path d="M5,440.60681850612406C481.25,440.60681850612406,481.25,204.79179111049353,957.5,204.79179111049353" stroke-width="8.267801142282108" style="stroke: rgb(105, 191, 161);"></path><path d="M5,315.50509946687293C481.25,315.50509946687293,481.25,198.5618053551132,957.5,198.5618053551132" stroke-width="3.020768644033315" style="stroke: rgb(105, 191, 171);"></path><path d="M5,301.3028889051473C481.25,301.3028889051473,481.25,194.3595947933877,957.5,194.3595947933877" stroke-width="5.383652479417699" style="stroke: rgb(105, 191, 181);"></path><path d="M5,283.83601094106C481.25,283.83601094106,481.25,186.8927168293005,957.5,186.8927168293005" stroke-width="9.550103448756714" style="stroke: rgb(105, 191, 191);"></path><path d="M5,264.2100788181918C481.25,264.2100788181918,481.25,365.22390910797947,957.5,365.22390910797947" stroke-width="9.701760796980453" style="stroke: rgb(105, 181, 191);"></path><path d="M5,247.25864328641399C481.25,247.25864328641399,481.25,180.01710997163457,957.5,180.01710997163457" stroke-width="4.201110266575154" style="stroke: rgb(105, 171, 191);"></path><path d="M5,201.45973827111212C481.25,201.45973827111212,481.25,548.8339049073733,957.5,548.8339049073733" stroke-width="67.39669976402871" style="stroke: rgb(105, 161, 191);"></path><path d="M5,155.92045706566242C481.25,155.92045706566242,481.25,176.07562351491163,957.5,176.07562351491163" stroke-width="3.6818626468707776" style="stroke: rgb(105, 151, 191);"></path><path d="M5,101.75826400932696C481.25,101.75826400932696,481.25,486.28207976413916,957.5,486.28207976413916" stroke-width="1.7391540220276798" style="stroke: rgb(105, 141, 191);"></path><path d="M5,88.35632332555069C481.25,88.35632332555069,481.25,279.0573832574424,957.5,279.0573832574424" stroke-width="5.064727345524578" style="stroke: rgb(105, 131, 191);"></path><path d="M5,72.19868197630618C481.25,72.19868197630618,481.25,356.7477510330069,957.5,356.7477510330069" stroke-width="7.25055535296456" style="stroke: rgb(105, 122, 191);"></path><path d="M5,56.45605820408558C481.25,56.45605820408558,481.25,172.11734609573796,957.5,172.11734609573796" stroke-width="4.234692191476571" style="stroke: rgb(105, 112, 191);"></path><path d="M5,14.786272442630759C481.25,14.786272442630759,481.25,429.08196988744305,957.5,429.08196988744305" stroke-width="5.591401957493841" style="stroke: rgb(108, 105, 191);"></path><path d="M5,790.3321821622668C481.25,790.3321821622668,481.25,228.6347973307906,957.5,228.6347973307906" stroke-width="0.004951328176591259" style="stroke: rgb(118, 105, 191);"></path><path d="M5,790.3478040611203C481.25,790.3478040611203,481.25,787.818641941608,957.5,787.818641941608" stroke-width="0.004836714098429424" style="stroke: rgb(118, 105, 191);"></path><path d="M5,790.3400217652131C481.25,790.3400217652131,481.25,338.20163252472446,957.5,338.20163252472446" stroke-width="0.010727877715947727" style="stroke: rgb(118, 105, 191);"></path><path d="M5,638.0210637752837C481.25,638.0210637752837,481.25,709.7210560770386,957.5,709.7210560770386" stroke-width="0.010223575772035655" style="stroke: rgb(128, 105, 191);"></path><path d="M5,0.9952857319420811C481.25,0.9952857319420811,481.25,352.1271876245829,957.5,352.1271876245829" stroke-width="1.9905714638834802" style="stroke: rgb(138, 105, 191);"></path><path d="M5,1488.5899259191906C481.25,1488.5899259191906,481.25,327.1880085402764,957.5,327.1880085402764" stroke-width="2.0165200911793195" style="stroke: rgb(148, 105, 191);"></path><path d="M5,1499.79909298239C481.25,1499.79909298239,481.25,416.0853618910863,957.5,416.0853618910863" stroke-width="0.40181403521976006" style="stroke: rgb(158, 105, 191);"></path><path d="M5,470.471296909871C481.25,470.471296909871,481.25,464.8370369280826,957.5,464.8370369280826" stroke-width="0.43358505768622063" style="stroke: rgb(168, 105, 191);"></path><path d="M5,327.04676197081994C481.25,327.04676197081994,481.25,200.10346785906023,957.5,200.10346785906023" stroke-width="0.06255636386072938" style="stroke: rgb(178, 105, 191);"></path><path d="M962.5,311.9479464882145C1438.75,311.9479464882145,1438.75,541.5998874107705,1915,541.5998874107705" stroke-width="32.496644195303155" style="stroke: rgb(187, 105, 191);"></path><path d="M962.5,383.70908540066864C1438.75,383.70908540066864,1438.75,593.3610263232242,1915,593.3610263232242" stroke-width="65.15436701605495" style="stroke: rgb(191, 105, 184);"></path><path d="M962.5,427.3381281496185C1438.75,427.3381281496185,1438.75,206.05185924092254,1915,206.05185924092254" stroke-width="2.1037184818448433" style="stroke: rgb(191, 105, 174);"></path><path d="M962.5,438.74822324300897C1438.75,438.74822324300897,1438.75,636.2964456837196,1915,636.2964456837196" stroke-width="20.716471704935987" style="stroke: rgb(191, 105, 174);"></path><path d="M962.5,586.6866139734806C1438.75,586.6866139734806,1438.75,308.3778297022003,1915,308.3778297022003" stroke-width="202.54822244071062" style="stroke: rgb(191, 105, 164);"></path><path d="M962.5,1008.9803625969178C1438.75,1008.9803625969178,1438.75,973.980362596918,1915,973.980362596918" stroke-width="642.0392748061637" style="stroke: rgb(191, 105, 164);"></path><path d="M962.5,281.11232198762156C1438.75,281.11232198762156,1438.75,520.7642629101774,1915,520.7642629101774" stroke-width="9.174604805882911" style="stroke: rgb(191, 105, 154);"></path><path d="M962.5,218.26250979233996C1438.75,218.26250979233996,1438.75,467.9144507148957,1915,467.9144507148957" stroke-width="96.5250195846806" style="stroke: rgb(191, 105, 145);"></path><path d="M962.5,339.66408523925384C1438.75,339.66408523925384,1438.75,559.3160261618094,1915,559.3160261618094" stroke-width="2.9356333067747045" style="stroke: rgb(191, 105, 135);"></path><path d="M962.5,475.2331661050257C1438.75,475.2331661050257,1438.75,652.7813885457364,1915,652.7813885457364" stroke-width="0.3586732961996455" style="stroke: rgb(191, 105, 125);"></path><path d="M962.5,462.08014427620134C1438.75,462.08014427620134,1438.75,649.6283667169122,1915,649.6283667169122" stroke-width="5.947370361448867" style="stroke: rgb(191, 105, 115);"></path></g><g class="nodes" font-family="Arial, Helvetica" font-size="10"><g><rect x="957.5" y="169.99999999999966" height="96.52501958468042" width="5" fill="#000"></rect><text x="951.5" y="218.26250979233987" dy="0.35em" text-anchor="end">Asia</text></g><g><rect x="957.5" y="276.5250195846801" height="9.174604805882836" width="5" fill="#000"></rect><text x="951.5" y="281.1123219876215" dy="0.35em" text-anchor="end">Australia / Oceania</text></g><g><rect x="957.5" y="295.6996243905629" height="32.49664419530359" width="5" fill="#000"></rect><text x="951.5" y="311.9479464882147" dy="0.35em" text-anchor="end">Canada</text></g><g><rect x="957.5" y="338.1962685858665" height="2.935633306774662" width="5" fill="#000"></rect><text x="951.5" y="339.66408523925384" dy="0.35em" text-anchor="end">Central America</text></g><g><rect x="957.5" y="351.13190189264117" height="65.15436701605495" width="5" fill="#000"></rect><text x="951.5" y="383.70908540066864" dy="0.35em" text-anchor="end">Europe</text></g><g><rect x="957.5" y="426.2862689086961" height="22.820190186780792" width="5" fill="#000"></rect><text x="951.5" y="437.6963640020865" dy="0.35em" text-anchor="end">Mexico</text></g><g><rect x="957.5" y="459.1064590954769" height="5.947370361448975" width="5" fill="#000"></rect><text x="951.5" y="462.0801442762014" dy="0.35em" text-anchor="end">Middle East</text></g><g><rect x="957.5" y="475.0538294569259" height="0.358673296199413" width="5" fill="#000"></rect><text x="951.5" y="475.2331661050256" dy="0.35em" text-anchor="end">South America</text></g><g><rect x="957.5" y="485.4125027531253" height="844.587497246875" width="5" fill="#000"></rect><text x="951.5" y="907.7062513765628" dy="0.35em" text-anchor="end">US</text></g><g><rect x="1915" y="205.0000000000001" height="204.65194092255524" width="5" fill="#000"></rect><text x="1909" y="307.32597046127773" dy="0.35em" text-anchor="end">Low Fare</text></g><g><rect x="1915" y="419.65194092255535" height="875.3480590774445" width="5" fill="#000"></rect><text x="1909" y="857.3259704612776" dy="0.35em" text-anchor="end">Other</text></g><g><rect x="0" y="3.410605131648481e-13" height="1.990571463883498" width="5" fill="#000"></rect><text x="11" y="0.99528573194209" dy="0.35em" text-anchor="start">Aer Lingus</text></g><g><rect x="0" y="11.990571463883839" height="5.591401957493872" width="5" fill="#000"></rect><text x="11" y="14.786272442630775" dy="0.35em" text-anchor="start">Aeromexico</text></g><g><rect x="0" y="27.58197342137771" height="16.756738686969584" width="5" fill="#000"></rect><text x="11" y="35.9603427648625" dy="0.35em" text-anchor="start">Air Canada</text></g><g><rect x="0" y="54.338712108347295" height="4.234692191476597" width="5" fill="#000"></rect><text x="11" y="56.45605820408559" dy="0.35em" text-anchor="start">Air China</text></g><g><rect x="0" y="68.57340429982389" height="7.250555352964511" width="5" fill="#000"></rect><text x="11" y="72.19868197630615" dy="0.35em" text-anchor="start">Air France</text></g><g><rect x="0" y="85.8239596527884" height="5.064727345524716" width="5" fill="#000"></rect><text x="11" y="88.35632332555076" dy="0.35em" text-anchor="start">Air New Zealand</text></g><g><rect x="0" y="100.88868699831312" height="1.739154022027833" width="5" fill="#000"></rect><text x="11" y="101.75826400932704" dy="0.35em" text-anchor="start">AirTran Airways</text></g><g><rect x="0" y="112.62784102034095" height="31.451684721886068" width="5" fill="#000"></rect><text x="11" y="128.353683381284" dy="0.35em" text-anchor="start">Alaska Airlines</text></g><g><rect x="0" y="154.07952574222702" height="3.6818626468707407" width="5" fill="#000"></rect><text x="11" y="155.9204570656624" dy="0.35em" text-anchor="start">All Nippon Airways</text></g><g><rect x="0" y="167.76138838909776" height="67.39669976402865" width="5" fill="#000"></rect><text x="11" y="201.4597382711121" dy="0.35em" text-anchor="start">American Airlines</text></g><g><rect x="0" y="245.1580881531264" height="4.201110266575142" width="5" fill="#000"></rect><text x="11" y="247.25864328641399" dy="0.35em" text-anchor="start">Asiana Airlines</text></g><g><rect x="0" y="259.35919841970156" height="9.701760796980125" width="5" fill="#000"></rect><text x="11" y="264.2100788181916" dy="0.35em" text-anchor="start">British Airways</text></g><g><rect x="0" y="279.0609592166817" height="9.550103448756772" width="5" fill="#000"></rect><text x="11" y="283.83601094106007" dy="0.35em" text-anchor="start">Cathay Pacific</text></g><g><rect x="0" y="298.61106266543845" height="5.383652479417833" width="5" fill="#000"></rect><text x="11" y="301.30288890514737" dy="0.35em" text-anchor="start">China Airlines</text></g><g><rect x="0" y="313.9947151448563" height="3.0207686440332964" width="5" fill="#000"></rect><text x="11" y="315.50509946687293" dy="0.35em" text-anchor="start">China Eastern</text></g><g><rect x="0" y="327.0154837888896" height="0.06255636386072183" width="5" fill="#000"></rect><text x="11" y="327.04676197081994" dy="0.35em" text-anchor="start">China Southern</text></g><g><rect x="0" y="337.0780401527503" height="89.3948777822327" width="5" fill="#000"></rect><text x="11" y="381.77547904386665" dy="0.35em" text-anchor="start">Delta Air Lines</text></g><g><rect x="0" y="454.7407190772652" height="5.513785303762688" width="5" fill="#000"></rect><text x="11" y="457.49761172914657" dy="0.35em" text-anchor="start">Emirates</text></g><g><rect x="0" y="470.2545043810279" height="0.43358505768628675" width="5" fill="#000"></rect><text x="11" y="470.47129690987106" dy="0.35em" text-anchor="start">Etihad Airways</text></g><g><rect x="0" y="436.472917934983" height="8.267801142282224" width="5" fill="#000"></rect><text x="11" y="440.6068185061241" dy="0.35em" text-anchor="start">EVA Airways</text></g><g><rect x="0" y="480.6880894387142" height="9.66031634631645" width="5" fill="#000"></rect><text x="11" y="485.5182476118724" dy="0.35em" text-anchor="start">Frontier Airlines</text></g><g><rect x="0" y="500.34840578503065" height="4.6306379858940545" width="5" fill="#000"></rect><text x="11" y="502.6637247779777" dy="0.35em" text-anchor="start">Hawaiian Airlines</text></g><g><rect x="0" y="514.9790437709247" height="2.638439002100995" width="5" fill="#000"></rect><text x="11" y="516.2982632719752" dy="0.35em" text-anchor="start">Japan Airlines</text></g><g><rect x="0" y="527.6174827730257" height="24.021001883682402" width="5" fill="#000"></rect><text x="11" y="539.6279837148669" dy="0.35em" text-anchor="start">JetBlue Airways</text></g><g><rect x="0" y="561.6384846567081" height="5.121255008873959" width="5" fill="#000"></rect><text x="11" y="564.1991121611451" dy="0.35em" text-anchor="start">KLM Royal Dutch Airlines</text></g><g><rect x="0" y="576.7597396655821" height="3.5655293575366613" width="5" fill="#000"></rect><text x="11" y="578.5425043443504" dy="0.35em" text-anchor="start">Korean Air Lines</text></g><g><rect x="0" y="590.3252690231187" height="0.358673296199413" width="5" fill="#000"></rect><text x="11" y="590.5046056712184" dy="0.35em" text-anchor="start">LAN Peru</text></g><g><rect x="0" y="600.6839423193181" height="11.570130730727897" width="5" fill="#000"></rect><text x="11" y="606.4690076846821" dy="0.35em" text-anchor="start">Lufthansa German Airlines</text></g><g><rect x="0" y="622.254073050046" height="5.761878937351639" width="5" fill="#000"></rect><text x="11" y="625.1350125187219" dy="0.35em" text-anchor="start">Philippine Airlines</text></g><g><rect x="0" y="638.0159519873977" height="0.010223575772215554" width="5" fill="#000"></rect><text x="11" y="638.0210637752838" dy="0.35em" text-anchor="start">Republic Airlines</text></g><g><rect x="0" y="648.0261755631699" height="3.2268218337526378" width="5" fill="#000"></rect><text x="11" y="649.6395864800462" dy="0.35em" text-anchor="start">SAS Airlines</text></g><g><rect x="0" y="661.2529973969225" height="7.740782688078525" width="5" fill="#000"></rect><text x="11" y="665.1233887409618" dy="0.35em" text-anchor="start">Singapore Airlines</text></g><g><rect x="0" y="678.993780085001" height="74.92283320652564" width="5" fill="#000"></rect><text x="11" y="716.4551966882639" dy="0.35em" text-anchor="start">Southwest Airlines</text></g><g><rect x="0" y="763.9166132915267" height="3.1672225131087544" width="5" fill="#000"></rect><text x="11" y="765.5002245480811" dy="0.35em" text-anchor="start">Sun Country Airlines</text></g><g><rect x="0" y="777.0838358046354" height="3.245870693543111" width="5" fill="#000"></rect><text x="11" y="778.706771151407" dy="0.35em" text-anchor="start">Swiss International</text></g><g><rect x="0" y="790.3297064981786" height="0.020515919990884868" width="5" fill="#000"></rect><text x="11" y="790.339964458174" dy="0.35em" text-anchor="start">Swissport USA</text></g><g><rect x="0" y="800.3502224181694" height="2.924905429058981" width="5" fill="#000"></rect><text x="11" y="801.8126751326989" dy="0.35em" text-anchor="start">TACA</text></g><g><rect x="0" y="863.2342259032015" height="497.76110185390195" width="5" fill="#000"></rect><text x="11" y="1112.1147768301526" dy="0.35em" text-anchor="start">United Airlines</text></g><g><rect x="0" y="813.2751278472284" height="39.95909805597307" width="5" fill="#000"></rect><text x="11" y="833.254676875215" dy="0.35em" text-anchor="start">US Airways</text></g><g><rect x="0" y="1370.9953277571035" height="91.14141295089416" width="5" fill="#000"></rect><text x="11" y="1416.5660342325505" dy="0.35em" text-anchor="start">Virgin America</text></g><g><rect x="0" y="1472.1367407079977" height="5.444925165603308" width="5" fill="#000"></rect><text x="11" y="1474.8592032907993" dy="0.35em" text-anchor="start">Virgin Atlantic</text></g><g><rect x="0" y="1487.581665873601" height="2.0165200911792454" width="5" fill="#000"></rect><text x="11" y="1488.5899259191906" dy="0.35em" text-anchor="start">WestJet Airlines</text></g><g><rect x="0" y="1499.5981859647802" height="0.4018140352195587" width="5" fill="#000"></rect><text x="11" y="1499.79909298239" dy="0.35em" text-anchor="start">XL Airways France</text></g></g></g></svg>