<svg width="1920" height="1520" xmlns="http://www.w3.org/2000/svg" version="1.1"><g transform="translate(0, 10)"><g class="links" fill="none" stroke-opacity="0.4"><path d="M5,8.71232876712181C481.25,8.71232876712181,481.25,644.6438356164393,957.5,644.6438356164393" stroke-width="17.424657534246577" style="stroke: rgb(191, 105, 105);"></path><path d="M5,1458.2191780821931C481.25,1458.2191780821931,481.25,797.1095890410966,957.5,797.1095890410966" stroke-width="17.424657534246577" style="stroke: rgb(191, 115, 105);"></path><path d="M5,1412.6438356164394C481.25,1412.6438356164394,481.25,904.3972602739735,957.5,904.3972602739735" stroke-width="17.424657534246577" style="stroke: rgb(191, 124, 105);"></path><path d="M5,1430.431506849316C481.25,1430.431506849316,481.25,1305.924657534247,957.5,1305.924657534247" stroke-width="18.15068493150685" style="stroke: rgb(191, 124, 105);"></path><path d="M5,1284.664383561645C481.25,1284.664383561645,481.25,877.1712328767134,957.5,877.1712328767134" stroke-width="37.02739726027397" style="stroke: rgb(191, 134, 105);"></path><path d="M5,1257.438356164385C481.25,1257.438356164385,481.25,779.68493150685,957.5,779.68493150685" stroke-width="17.424657534246577" style="stroke: rgb(191, 134, 105);"></path><path d="M5,1208.4315068493163C481.25,1208.4315068493163,481.25,543.6917808219185,957.5,543.6917808219185" stroke-width="80.58904109589041" style="stroke: rgb(191, 134, 105);"></path><path d="M5,1159.424657534248C481.25,1159.424657534248,481.25,452.73972602739804,957.5,452.73972602739804" stroke-width="17.424657534246577" style="stroke: rgb(191, 134, 105);"></path><path d="M5,1140.9109589041107C481.25,1140.9109589041107,481.25,405.34931506849307,957.5,405.34931506849307" stroke-width="19.602739726027398" style="stroke: rgb(191, 134, 105);"></path><path d="M5,1348.5547945205492C481.25,1348.5547945205492,481.25,1251.4726027397264,957.5,1251.4726027397264" stroke-width="90.75342465753425" style="stroke: rgb(191, 134, 105);"></path><path d="M5,1113.1232876712343C481.25,1113.1232876712343,481.25,1198.1095890410963,957.5,1198.1095890410963" stroke-width="15.972602739726028" style="stroke: rgb(191, 144, 105);"></path><path d="M5,1063.3561643835635C481.25,1063.3561643835635,481.25,617.2191780821925,957.5,617.2191780821925" stroke-width="17.424657534246577" style="stroke: rgb(191, 154, 105);"></path><path d="M5,1035.931506849317C481.25,1035.931506849317,481.25,749.1917808219185,957.5,749.1917808219185" stroke-width="17.424657534246577" style="stroke: rgb(191, 163, 105);"></path><path d="M5,997.9794520547962C481.25,997.9794520547962,481.25,856.8424657534256,957.5,856.8424657534256" stroke-width="3.6301369863013697" style="stroke: rgb(191, 173, 105);"></path><path d="M5,1008.5068493150702C481.25,1008.5068493150702,481.25,1181.4109589041102,957.5,1181.4109589041102" stroke-width="17.424657534246577" style="stroke: rgb(191, 173, 105);"></path><path d="M5,973.0958904109608C481.25,973.0958904109608,481.25,1159.6301369863017,957.5,1159.6301369863017" stroke-width="26.136986301369863" style="stroke: rgb(191, 183, 105);"></path><path d="M5,524.6643835616442C481.25,524.6643835616442,481.25,1056.8972602739732,957.5,1056.8972602739732" stroke-width="58.80821917808219" style="stroke: rgb(189, 191, 105);"></path><path d="M5,941.3150684931526C481.25,941.3150684931526,481.25,386.83561643835606,957.5,386.83561643835606" stroke-width="17.424657534246577" style="stroke: rgb(179, 191, 105);"></path><path d="M5,913.890410958906C481.25,913.890410958906,481.25,731.767123287672,957.5,731.767123287672" stroke-width="17.424657534246577" style="stroke: rgb(170, 191, 105);"></path><path d="M5,894.4520547945223C481.25,894.4520547945223,481.25,1145.8356164383565,957.5,1145.8356164383565" stroke-width="1.452054794520548" style="stroke: rgb(160, 191, 105);"></path><path d="M5,863.5616438356184C481.25,863.5616438356184,481.25,369.41095890410946,957.5,369.41095890410946" stroke-width="17.424657534246577" style="stroke: rgb(150, 191, 105);"></path><path d="M5,283.8493150684926C481.25,283.8493150684926,481.25,1006.4383561643841,957.5,1006.4383561643841" stroke-width="42.109589041095894" style="stroke: rgb(141, 191, 105);"></path><path d="M5,825.410958904111C481.25,825.410958904111,481.25,714.3424657534255,957.5,714.3424657534255" stroke-width="17.424657534246577" style="stroke: rgb(131, 191, 105);"></path><path d="M5,797.9863013698645C481.25,797.9863013698645,481.25,351.9863013698629,957.5,351.9863013698629" stroke-width="17.424657534246577" style="stroke: rgb(121, 191, 105);"></path><path d="M5,770.5616438356179C481.25,770.5616438356179,481.25,696.9178082191789,957.5,696.9178082191789" stroke-width="17.424657534246577" style="stroke: rgb(112, 191, 105);"></path><path d="M5,740.2328767123305C481.25,740.2328767123305,481.25,1132.7671232876717,957.5,1132.7671232876717" stroke-width="23.232876712328768" style="stroke: rgb(105, 191, 108);"></path><path d="M5,709.9041095890428C481.25,709.9041095890428,481.25,334.5616438356163,957.5,334.5616438356163" stroke-width="17.424657534246577" style="stroke: rgb(105, 191, 118);"></path><path d="M5,682.4794520547952C481.25,682.4794520547952,481.25,1112.4383561643842,957.5,1112.4383561643842" stroke-width="17.424657534246577" style="stroke: rgb(105, 191, 128);"></path><path d="M5,655.0547945205489C481.25,655.0547945205489,481.25,1095.0136986301377,957.5,1095.0136986301377" stroke-width="17.424657534246577" style="stroke: rgb(105, 191, 137);"></path><path d="M5,627.6301369863023C481.25,627.6301369863023,481.25,949.2465753424673,957.5,949.2465753424673" stroke-width="17.424657534246577" style="stroke: rgb(105, 191, 147);"></path><path d="M5,600.2054794520556C481.25,600.2054794520556,481.25,931.8219178082207,957.5,931.8219178082207" stroke-width="17.424657534246577" style="stroke: rgb(105, 191, 157);"></path><path d="M5,572.780821917809C481.25,572.780821917809,481.25,317.1369863013697,957.5,317.1369863013697" stroke-width="17.424657534246577" style="stroke: rgb(105, 191, 166);"></path><path d="M5,476.54794520547955C481.25,476.54794520547955,481.25,299.7123287671231,957.5,299.7123287671231" stroke-width="17.424657534246577" style="stroke: rgb(105, 191, 176);"></path><path d="M5,449.1232876712328C481.25,449.1232876712328,481.25,282.2876712328765,957.5,282.2876712328765" stroke-width="17.424657534246577" style="stroke: rgb(105, 191, 186);"></path><path d="M5,421.69863013698625C481.25,421.69863013698625,481.25,264.8630136986299,957.5,264.8630136986299" stroke-width="17.424657534246577" style="stroke: rgb(105, 186, 191);"></path><path d="M5,394.27397260273983C481.25,394.27397260273983,481.25,247.43835616438335,957.5,247.43835616438335" stroke-width="17.424657534246577" style="stroke: rgb(105, 176, 191);"></path><path d="M5,351.04109589041104C481.25,351.04109589041104,481.25,679.4931506849324,957.5,679.4931506849324" stroke-width="17.424657534246577" style="stroke: rgb(105, 166, 191);"></path><path d="M5,323.6164383561643C481.25,323.6164383561643,481.25,230.01369863013676,957.5,230.01369863013676" stroke-width="17.424657534246577" style="stroke: rgb(105, 157, 191);"></path><path d="M5,244.08219178082143C481.25,244.08219178082143,481.25,212.5890410958902,957.5,212.5890410958902" stroke-width="17.424657534246577" style="stroke: rgb(105, 147, 191);"></path><path d="M5,199.2328767123279C481.25,199.2328767123279,481.25,846.3150684931517,957.5,846.3150684931517" stroke-width="17.424657534246577" style="stroke: rgb(105, 137, 191);"></path><path d="M5,216.6575342465745C481.25,216.6575342465745,481.25,976.6712328767129,957.5,976.6712328767129" stroke-width="17.424657534246577" style="stroke: rgb(105, 137, 191);"></path><path d="M5,171.80821917808137C481.25,171.80821917808137,481.25,433.8630136986309,957.5,433.8630136986309" stroke-width="17.424657534246577" style="stroke: rgb(105, 128, 191);"></path><path d="M5,132.93150684931405C481.25,132.93150684931405,481.25,662.0684931506859,957.5,662.0684931506859" stroke-width="17.424657534246577" style="stroke: rgb(105, 118, 191);"></path><path d="M5,105.50684931506729C481.25,105.50684931506729,481.25,193.71232876712307,957.5,193.71232876712307" stroke-width="17.424657534246577" style="stroke: rgb(105, 108, 191);"></path><path d="M5,70.82191780821785C481.25,70.82191780821785,481.25,487.4246575342473,957.5,487.4246575342473" stroke-width="31.945205479452056" style="stroke: rgb(112, 105, 191);"></path><path d="M5,36.136986301368346C481.25,36.136986301368346,481.25,828.8904109589051,957.5,828.8904109589051" stroke-width="17.424657534246577" style="stroke: rgb(121, 105, 191);"></path><path d="M5,1088.6027397260289C481.25,1088.6027397260289,481.25,764.4383561643842,957.5,764.4383561643842" stroke-width="13.068493150684931" style="stroke: rgb(131, 105, 191);"></path><path d="M5,1481.287671232878C481.25,1481.287671232878,481.25,588.3424657534254,957.5,588.3424657534254" stroke-width="8.712328767123289" style="stroke: rgb(141, 105, 191);"></path><path d="M5,1497.8219178082204C481.25,1497.8219178082204,481.25,808.0000000000007,957.5,808.0000000000007" stroke-width="4.356164383561644" style="stroke: rgb(150, 105, 191);"></path><path d="M5,844.4863013698646C481.25,844.4863013698646,481.25,1144.7465753424663,957.5,1144.7465753424663" stroke-width="0.726027397260274" style="stroke: rgb(160, 105, 191);"></path><path d="M5,372.6575342465754C481.25,372.6575342465754,481.25,605.6027397260282,957.5,605.6027397260282" stroke-width="5.808219178082192" style="stroke: rgb(170, 105, 191);"></path><path d="M5,883.0000000000019C481.25,883.0000000000019,481.25,443.3013698630145,957.5,443.3013698630145" stroke-width="1.452054794520548" style="stroke: rgb(179, 105, 191);"></path><path d="M5,152.3698630136978C481.25,152.3698630136978,481.25,203.15068493150665,957.5,203.15068493150665" stroke-width="1.452054794520548" style="stroke: rgb(189, 105, 191);"></path><path d="M962.5,723.054794520549C1438.75,723.054794520549,1438.75,846.4794520547944,1915,846.4794520547944" stroke-width="174.24657534246575" style="stroke: rgb(191, 105, 183);"></path><path d="M962.5,830.7054794520559C1438.75,830.7054794520559,1438.75,225.52739726027397,1915,225.52739726027397" stroke-width="21.054794520547947" style="stroke: rgb(191, 105, 173);"></path><path d="M962.5,877.1712328767134C1438.75,877.1712328767134,1438.75,969.5410958904108,1915,969.5410958904108" stroke-width="71.87671232876713" style="stroke: rgb(191, 105, 173);"></path><path d="M962.5,1019.143835616439C1438.75,1019.143835616439,1438.75,287.23972602739724,1915,287.23972602739724" stroke-width="102.36986301369863" style="stroke: rgb(191, 105, 163);"></path><path d="M962.5,1192.6643835616446C1438.75,1192.6643835616446,1438.75,1162.6643835616437,1915,1162.6643835616437" stroke-width="244.67123287671234" style="stroke: rgb(191, 105, 163);"></path><path d="M962.5,532.0753424657541C1438.75,532.0753424657541,1438.75,675.4999999999998,1915,675.4999999999998" stroke-width="121.24657534246576" style="stroke: rgb(191, 105, 154);"></path><path d="M962.5,443.3013698630145C1438.75,443.3013698630145,1438.75,596.7260273972599,1915,596.7260273972599" stroke-width="36.3013698630137" style="stroke: rgb(191, 105, 144);"></path><path d="M962.5,300.0753424657532C1438.75,300.0753424657532,1438.75,463.4999999999997,1915,463.4999999999997" stroke-width="230.15068493150685" style="stroke: rgb(191, 105, 134);"></path><path d="M962.5,614.3150684931514C1438.75,614.3150684931514,1438.75,747.7397260273971,1915,747.7397260273971" stroke-width="23.232876712328768" style="stroke: rgb(191, 105, 124);"></path><path d="M962.5,940.534246575344C1438.75,940.534246575344,1438.75,1022.9041095890409,1915,1022.9041095890409" stroke-width="34.849315068493155" style="stroke: rgb(191, 105, 115);"></path></g><g class="nodes" font-family="Arial, Helvetica" font-size="10"><g><rect x="957.5" y="184.99999999999977" height="230.15068493150784" width="5" fill="#000"></rect><text x="951.5" y="300.0753424657537" dy="0.35em" text-anchor="end">Asia</text></g><g><rect x="957.5" y="425.1506849315076" height="36.30136986301363" width="5" fill="#000"></rect><text x="951.5" y="443.30136986301443" dy="0.35em" text-anchor="end">Australia / Oceania</text></g><g><rect x="957.5" y="471.45205479452125" height="121.2465753424658" width="5" fill="#000"></rect><text x="951.5" y="532.0753424657541" dy="0.35em" text-anchor="end">Canada</text></g><g><rect x="957.5" y="602.698630136987" height="23.232876712329016" width="5" fill="#000"></rect><text x="951.5" y="614.3150684931516" dy="0.35em" text-anchor="end">Central America</text></g><g><rect x="957.5" y="635.9315068493161" height="174.2465753424658" width="5" fill="#000"></rect><text x="951.5" y="723.054794520549" dy="0.35em" text-anchor="end">Europe</text></g><g><rect x="957.5" y="820.1780821917819" height="92.93150684931561" width="5" fill="#000"></rect><text x="951.5" y="866.6438356164397" dy="0.35em" text-anchor="end">Mexico</text></g><g><rect x="957.5" y="923.1095890410975" height="34.84931506849216" width="5" fill="#000"></rect><text x="951.5" y="940.5342465753436" dy="0.35em" text-anchor="end">Middle East</text></g><g><rect x="957.5" y="967.9589041095896" height="347.0410958904106" width="5" fill="#000"></rect><text x="951.5" y="1141.4794520547948" dy="0.35em" text-anchor="end">US</text></g><g><rect x="1915" y="215" height="123.42465753424631" width="5" fill="#000"></rect><text x="1909" y="276.71232876712315" dy="0.35em" text-anchor="end">Low Fare</text></g><g><rect x="1915" y="348.4246575342463" height="936.5753424657537" width="5" fill="#000"></rect><text x="1909" y="816.7123287671232" dy="0.35em" text-anchor="end">Other</text></g><g><rect x="0" y="-1.4779288903810084e-12" height="17.424657534246535" width="5" fill="#000"></rect><text x="11" y="8.71232876712179" dy="0.35em" text-anchor="start">Aer Lingus</text></g><g><rect x="0" y="27.424657534245057" height="17.424657534246762" width="5" fill="#000"></rect><text x="11" y="36.13698630136844" dy="0.35em" text-anchor="start">Aeromexico</text></g><g><rect x="0" y="54.84931506849182" height="31.94520547945217" width="5" fill="#000"></rect><text x="11" y="70.8219178082179" dy="0.35em" text-anchor="start">Air Canada</text></g><g><rect x="0" y="96.79452054794399" height="17.424657534246762" width="5" fill="#000"></rect><text x="11" y="105.50684931506737" dy="0.35em" text-anchor="start">Air China</text></g><g><rect x="0" y="124.21917808219075" height="17.424657534246762" width="5" fill="#000"></rect><text x="11" y="132.93150684931413" dy="0.35em" text-anchor="start">Air France</text></g><g><rect x="0" y="151.6438356164375" height="1.4520547945205635" width="5" fill="#000"></rect><text x="11" y="152.3698630136978" dy="0.35em" text-anchor="start">Air India Limited</text></g><g><rect x="0" y="163.09589041095808" height="17.424657534246535" width="5" fill="#000"></rect><text x="11" y="171.80821917808134" dy="0.35em" text-anchor="start">Air New Zealand</text></g><g><rect x="0" y="190.5205479452046" height="34.849315068493524" width="5" fill="#000"></rect><text x="11" y="207.94520547945137" dy="0.35em" text-anchor="start">Alaska Airlines</text></g><g><rect x="0" y="235.36986301369814" height="17.424657534246535" width="5" fill="#000"></rect><text x="11" y="244.0821917808214" dy="0.35em" text-anchor="start">All Nippon Airways</text></g><g><rect x="0" y="262.79452054794467" height="42.10958904109634" width="5" fill="#000"></rect><text x="11" y="283.84931506849284" dy="0.35em" text-anchor="start">American Airlines</text></g><g><rect x="0" y="314.904109589041" height="17.424657534246762" width="5" fill="#000"></rect><text x="11" y="323.6164383561644" dy="0.35em" text-anchor="start">Asiana Airlines</text></g><g><rect x="0" y="342.3287671232878" height="17.424657534246535" width="5" fill="#000"></rect><text x="11" y="351.04109589041104" dy="0.35em" text-anchor="start">British Airways</text></g><g><rect x="0" y="385.56164383561656" height="17.42465753424642" width="5" fill="#000"></rect><text x="11" y="394.2739726027398" dy="0.35em" text-anchor="start">Cathay Pacific</text></g><g><rect x="0" y="412.986301369863" height="17.424657534246535" width="5" fill="#000"></rect><text x="11" y="421.69863013698625" dy="0.35em" text-anchor="start">China Airlines</text></g><g><rect x="0" y="440.4109589041095" height="17.424657534246762" width="5" fill="#000"></rect><text x="11" y="449.1232876712329" dy="0.35em" text-anchor="start">China Eastern</text></g><g><rect x="0" y="467.8356164383563" height="17.424657534246762" width="5" fill="#000"></rect><text x="11" y="476.54794520547966" dy="0.35em" text-anchor="start">China Southern</text></g><g><rect x="0" y="369.7534246575343" height="5.808219178082254" width="5" fill="#000"></rect><text x="11" y="372.65753424657544" dy="0.35em" text-anchor="start">COPA Airlines, Inc.</text></g><g><rect x="0" y="495.26027397260304" height="58.80821917808271" width="5" fill="#000"></rect><text x="11" y="524.6643835616444" dy="0.35em" text-anchor="start">Delta Air Lines</text></g><g><rect x="0" y="591.4931506849323" height="17.424657534246762" width="5" fill="#000"></rect><text x="11" y="600.2054794520557" dy="0.35em" text-anchor="start">Emirates</text></g><g><rect x="0" y="618.917808219179" height="17.424657534246535" width="5" fill="#000"></rect><text x="11" y="627.6301369863023" dy="0.35em" text-anchor="start">Etihad Airways</text></g><g><rect x="0" y="564.0684931506858" height="17.424657534246535" width="5" fill="#000"></rect><text x="11" y="572.780821917809" dy="0.35em" text-anchor="start">EVA Airways</text></g><g><rect x="0" y="646.3424657534256" height="17.424657534246307" width="5" fill="#000"></rect><text x="11" y="655.0547945205487" dy="0.35em" text-anchor="start">Frontier Airlines</text></g><g><rect x="0" y="673.7671232876719" height="17.42465753424767" width="5" fill="#000"></rect><text x="11" y="682.4794520547957" dy="0.35em" text-anchor="start">Hawaiian Airlines</text></g><g><rect x="0" y="701.1917808219196" height="17.424657534246535" width="5" fill="#000"></rect><text x="11" y="709.9041095890428" dy="0.35em" text-anchor="start">Japan Airlines</text></g><g><rect x="0" y="728.6164383561661" height="23.23287671232856" width="5" fill="#000"></rect><text x="11" y="740.2328767123304" dy="0.35em" text-anchor="start">JetBlue Airways</text></g><g><rect x="0" y="761.8493150684947" height="17.424657534246535" width="5" fill="#000"></rect><text x="11" y="770.5616438356179" dy="0.35em" text-anchor="start">KLM Royal Dutch Airlines</text></g><g><rect x="0" y="789.2739726027412" height="17.424657534246535" width="5" fill="#000"></rect><text x="11" y="797.9863013698645" dy="0.35em" text-anchor="start">Korean Air Lines</text></g><g><rect x="0" y="816.6986301369877" height="17.424657534246762" width="5" fill="#000"></rect><text x="11" y="825.4109589041111" dy="0.35em" text-anchor="start">Lufthansa German Airlines</text></g><g><rect x="0" y="844.1232876712345" height="0.7260273972606228" width="5" fill="#000"></rect><text x="11" y="844.4863013698648" dy="0.35em" text-anchor="start">Miami Air International</text></g><g><rect x="0" y="854.8493150684951" height="17.424657534246535" width="5" fill="#000"></rect><text x="11" y="863.5616438356184" dy="0.35em" text-anchor="start">Philippine Airlines</text></g><g><rect x="0" y="882.2739726027417" height="1.4520547945203361" width="5" fill="#000"></rect><text x="11" y="883.0000000000018" dy="0.35em" text-anchor="start">Qantas Airways</text></g><g><rect x="0" y="893.726027397262" height="1.452054794520791" width="5" fill="#000"></rect><text x="11" y="894.4520547945224" dy="0.35em" text-anchor="start">Republic Airlines</text></g><g><rect x="0" y="905.1780821917828" height="17.424657534246535" width="5" fill="#000"></rect><text x="11" y="913.890410958906" dy="0.35em" text-anchor="start">SAS Airlines</text></g><g><rect x="0" y="932.6027397260293" height="17.424657534246535" width="5" fill="#000"></rect><text x="11" y="941.3150684931526" dy="0.35em" text-anchor="start">Singapore Airlines</text></g><g><rect x="0" y="960.0273972602758" height="26.13698630136969" width="5" fill="#000"></rect><text x="11" y="973.0958904109607" dy="0.35em" text-anchor="start">Southwest Airlines</text></g><g><rect x="0" y="996.1643835616455" height="21.054794520548057" width="5" fill="#000"></rect><text x="11" y="1006.6917808219196" dy="0.35em" text-anchor="start">Sun Country Airlines</text></g><g><rect x="0" y="1027.2191780821936" height="17.424657534246535" width="5" fill="#000"></rect><text x="11" y="1035.931506849317" dy="0.35em" text-anchor="start">Swiss International</text></g><g><rect x="0" y="1054.6438356164401" height="17.424657534246307" width="5" fill="#000"></rect><text x="11" y="1063.3561643835633" dy="0.35em" text-anchor="start">TACA</text></g><g><rect x="0" y="1082.0684931506864" height="13.068493150684844" width="5" fill="#000"></rect><text x="11" y="1088.6027397260289" dy="0.35em" text-anchor="start">Turkish Airlines</text></g><g><rect x="0" y="1131.109589041097" height="262.82191780821915" width="5" fill="#000"></rect><text x="11" y="1262.5205479452065" dy="0.35em" text-anchor="start">United Airlines</text></g><g><rect x="0" y="1105.1369863013713" height="15.972602739725744" width="5" fill="#000"></rect><text x="11" y="1113.1232876712343" dy="0.35em" text-anchor="start">US Airways</text></g><g><rect x="0" y="1403.931506849316" height="35.57534246575369" width="5" fill="#000"></rect><text x="11" y="1421.719178082193" dy="0.35em" text-anchor="start">Virgin America</text></g><g><rect x="0" y="1449.5068493150698" height="17.424657534246535" width="5" fill="#000"></rect><text x="11" y="1458.2191780821931" dy="0.35em" text-anchor="start">Virgin Atlantic</text></g><g><rect x="0" y="1476.9315068493163" height="8.712328767123381" width="5" fill="#000"></rect><text x="11" y="1481.287671232878" dy="0.35em" text-anchor="start">WestJet Airlines</text></g><g><rect x="0" y="1495.6438356164397" height="4.356164383561691" width="5" fill="#000"></rect><text x="11" y="1497.8219178082204" dy="0.35em" text-anchor="start">XL Airways France</text></g></g></g></svg>