<svg width="1920" height="1520" xmlns="http://www.w3.org/2000/svg" version="1.1"><g transform="translate(0, 10)"><g class="links" fill="none" stroke-opacity="0.4"><path d="M5,1.4249195136825707C481.25,1.4249195136825707,481.25,365.63613192462566,957.5,365.63613192462566" stroke-width="2.8498390273644594" style="stroke: rgb(191, 105, 105);"></path><path d="M5,1474.571908119094C481.25,1474.571908119094,481.25,428.4731639791349,957.5,428.4731639791349" stroke-width="6.355969839478043" style="stroke: rgb(191, 115, 105);"></path><path d="M5,1374.2159578169963C481.25,1374.2159578169963,481.25,462.3238213191063,957.5,462.3238213191063" stroke-width="1.9940530050739058" style="stroke: rgb(191, 124, 105);"></path><path d="M5,1418.303453759444C481.25,1418.303453759444,481.25,1271.90953056009,957.5,1271.90953056009" stroke-width="86.18093887982128" style="stroke: rgb(191, 124, 105);"></path><path d="M5,967.2456440280816C481.25,967.2456440280816,481.25,455.95530500518356,957.5,455.95530500518356" stroke-width="10.742979622771532" style="stroke: rgb(191, 134, 105);"></path><path d="M5,954.1000833694785C481.25,954.1000833694785,481.25,417.52110821217855,957.5,417.52110821217855" stroke-width="15.548141694434685" style="stroke: rgb(191, 134, 105);"></path><path d="M5,939.4753410186878C481.25,939.4753410186878,481.25,332.1349395950332,957.5,332.1349395950332" stroke-width="13.701343007146907" style="stroke: rgb(191, 134, 105);"></path><path d="M5,930.9185925087078C481.25,930.9185925087078,481.25,296.0520897536087,957.5,296.0520897536087" stroke-width="3.4121540128132057" style="stroke: rgb(191, 134, 105);"></path><path d="M5,911.2192618118288C481.25,911.2192618118288,481.25,261.4547848374026,957.5,261.4547848374026" stroke-width="35.986507380944786" style="stroke: rgb(191, 134, 105);"></path><path d="M5,1167.918032576963C481.25,1167.918032576963,481.25,1033.5181623826834,957.5,1033.5181623826834" stroke-width="390.6017974749913" style="stroke: rgb(191, 134, 105);"></path><path d="M5,868.3769115144618C481.25,868.3769115144618,481.25,823.3681670382934,957.5,823.3681670382934" stroke-width="29.69819321378867" style="stroke: rgb(191, 144, 105);"></path><path d="M5,829.0057690609257C481.25,829.0057690609257,481.25,352.7660703097597,957.5,352.7660703097597" stroke-width="2.890284202367551" style="stroke: rgb(191, 154, 105);"></path><path d="M5,815.8478585002983C481.25,815.8478585002983,481.25,404.9573651600597,957.5,404.9573651600597" stroke-width="3.4255369188875275" style="stroke: rgb(191, 163, 105);"></path><path d="M5,800.5185608413703C481.25,800.5185608413703,481.25,450.5380655599789,957.5,450.5380655599789" stroke-width="0.09149926763788492" style="stroke: rgb(191, 173, 105);"></path><path d="M5,802.3497002580222C481.25,802.3497002580222,481.25,806.7336806485662,957.5,806.7336806485662" stroke-width="3.5707795656656462" style="stroke: rgb(191, 173, 105);"></path><path d="M5,753.737094016772C481.25,753.737094016772,481.25,768.2125736749538,957.5,768.2125736749538" stroke-width="73.47143438155909" style="stroke: rgb(191, 183, 105);"></path><path d="M5,397.1467836826589C481.25,397.1467836826589,481.25,637.7170529591075,957.5,637.7170529591075" stroke-width="88.47195687664563" style="stroke: rgb(189, 191, 105);"></path><path d="M5,703.4885333853574C481.25,703.4885333853574,481.25,239.94868770629515,957.5,239.94868770629515" stroke-width="7.025686881270079" style="stroke: rgb(179, 191, 105);"></path><path d="M5,688.3951200337311C481.25,688.3951200337311,481.25,401.6640267896247,957.5,401.6640267896247" stroke-width="3.161139821982498" style="stroke: rgb(170, 191, 105);"></path><path d="M5,676.8134701730409C481.25,676.8134701730409,481.25,731.4757765344752,957.5,731.4757765344752" stroke-width="0.0021598993980708773" style="stroke: rgb(160, 191, 105);"></path><path d="M5,654.0715096504163C481.25,654.0715096504163,481.25,233.78896166751926,957.5,233.78896166751926" stroke-width="5.293765196281657" style="stroke: rgb(150, 191, 105);"></path><path d="M5,203.09418533786692C481.25,203.09418533786692,481.25,557.4792043259839,957.5,557.4792043259839" stroke-width="72.00374038960135" style="stroke: rgb(141, 191, 105);"></path><path d="M5,625.9565452692789C481.25,625.9565452692789,481.25,394.6188902260298,957.5,394.6188902260298" stroke-width="10.92913330520723" style="stroke: rgb(131, 191, 105);"></path><path d="M5,608.7367003725099C481.25,608.7367003725099,481.25,229.38680082521284,957.5,229.38680082521284" stroke-width="3.5105564883311997" style="stroke: rgb(121, 191, 105);"></path><path d="M5,594.5959297083385C481.25,594.5959297083385,481.25,386.76883115342054,957.5,386.76883115342054" stroke-width="4.770984840011326" style="stroke: rgb(112, 191, 105);"></path><path d="M5,567.1204907230696C481.25,567.1204907230696,481.25,716.3812348891198,957.5,716.3812348891198" stroke-width="30.179893130527066" style="stroke: rgb(105, 191, 108);"></path><path d="M5,540.4480790409705C481.25,540.4480790409705,481.25,226.04905746421161,957.5,226.04905746421161" stroke-width="3.1649302336712695" style="stroke: rgb(105, 191, 118);"></path><path d="M5,525.3773658085088C481.25,525.3773658085088,481.25,697.8030402082296,957.5,697.8030402082296" stroke-width="6.976496231253229" style="stroke: rgb(105, 191, 128);"></path><path d="M5,505.70823734529586C481.25,505.70823734529586,481.25,688.1339117450167,957.5,688.1339117450167" stroke-width="12.361760695172771" style="stroke: rgb(105, 191, 137);"></path><path d="M5,487.8054619045345C481.25,487.8054619045345,481.25,481.36601780654496,957.5,481.36601780654496" stroke-width="3.4437901863496556" style="stroke: rgb(105, 191, 147);"></path><path d="M5,472.921929365496C481.25,472.921929365496,481.25,476.4824852675067,957.5,476.4824852675067" stroke-width="6.323274891726853" style="stroke: rgb(105, 191, 157);"></path><path d="M5,455.5715270203072C481.25,455.5715270203072,481.25,220.27782744805054,957.5,220.27782744805054" stroke-width="8.37752979865091" style="stroke: rgb(105, 191, 166);"></path><path d="M5,341.8501464114931C481.25,341.8501464114931,481.25,215.02840371588223,957.5,215.02840371588223" stroke-width="2.121317665685729" style="stroke: rgb(105, 191, 176);"></path><path d="M5,329.35777073450936C481.25,329.35777073450936,481.25,212.53602803889848,957.5,212.53602803889848" stroke-width="2.863433688281729" style="stroke: rgb(105, 191, 186);"></path><path d="M5,315.4913496448618C481.25,315.4913496448618,481.25,208.6696069492508,957.5,208.6696069492508" stroke-width="4.869408491013614" style="stroke: rgb(105, 186, 191);"></path><path d="M5,298.29269082012956C481.25,298.29269082012956,481.25,201.47094812451854,957.5,201.47094812451854" stroke-width="9.527909158450896" style="stroke: rgb(105, 176, 191);"></path><path d="M5,267.999552597975C481.25,267.999552597975,481.25,379.3819540365338,957.5,379.3819540365338" stroke-width="10.002769393762067" style="stroke: rgb(105, 166, 191);"></path><path d="M5,251.04711171688078C481.25,251.04711171688078,481.25,194.75593736107982,957.5,194.75593736107982" stroke-width="3.902112368426578" style="stroke: rgb(105, 157, 191);"></path><path d="M5,155.33098071039248C481.25,155.33098071039248,481.25,191.0435467441926,957.5,191.0435467441926" stroke-width="3.5226688653478324" style="stroke: rgb(105, 147, 191);"></path><path d="M5,113.77524225103663C481.25,113.77524225103663,481.25,449.08733313094126,957.5,449.08733313094126" stroke-width="2.809965590437327" style="stroke: rgb(105, 137, 191);"></path><path d="M5,129.37493566198705C481.25,129.37493566198705,481.25,507.2826235154515,957.5,507.2826235154515" stroke-width="28.389421231463487" style="stroke: rgb(105, 137, 191);"></path><path d="M5,99.96827133354694C481.25,99.96827133354694,481.25,291.85002665014616,957.5,291.85002665014616" stroke-width="4.8039762445426435" style="stroke: rgb(105, 128, 191);"></path><path d="M5,73.78302883619565C481.25,73.78302883619565,481.25,370.7208103889803,957.5,370.7208103889803" stroke-width="7.319517901344898" style="stroke: rgb(105, 118, 191);"></path><path d="M5,58.04391144196749C481.25,58.04391144196749,481.25,187.07935844355578,957.5,187.07935844355578" stroke-width="4.158716887111116" style="stroke: rgb(105, 108, 191);"></path><path d="M5,37.20150233268962C481.25,37.20150233268962,481.25,316.5212174257375,957.5,316.5212174257375" stroke-width="17.526101331444533" style="stroke: rgb(112, 105, 191);"></path><path d="M5,15.64414534716605C481.25,15.64414534716605,481.25,444.8880440159213,957.5,444.8880440159213" stroke-width="5.588612639602626" style="stroke: rgb(121, 105, 191);"></path><path d="M5,841.9893630348383C481.25,841.9893630348383,481.25,408.2085854922323,957.5,408.2085854922323" stroke-width="3.076903745457734" style="stroke: rgb(131, 105, 191);"></path><path d="M5,1488.6536521207938C481.25,1488.6536521207938,481.25,339.88937018056714,957.5,339.88937018056714" stroke-width="1.8075181639209024" style="stroke: rgb(141, 105, 191);"></path><path d="M5,1499.778705601377C481.25,1499.778705601377,481.25,431.8724432974969,957.5,431.8724432974969" stroke-width="0.4425887972458766" style="stroke: rgb(150, 105, 191);"></path><path d="M5,641.4228694870792C481.25,641.4228694870792,481.25,731.4729390195798,957.5,731.4729390195798" stroke-width="0.003515130392938879" style="stroke: rgb(160, 105, 191);"></path><path d="M5,283.26483676788035C481.25,283.26483676788035,481.25,351.0570287355518,957.5,351.0570287355518" stroke-width="0.5277989460482022" style="stroke: rgb(170, 105, 191);"></path><path d="M5,666.7653912359494C481.25,666.7653912359494,481.25,294.2990137598098,957.5,294.2990137598098" stroke-width="0.0939979747846728" style="stroke: rgb(179, 105, 191);"></path><path d="M5,87.50453549907195C481.25,87.50453549907195,481.25,189.22046459931502,957.5,189.22046459931502" stroke-width="0.12349542440734665" style="stroke: rgb(189, 105, 191);"></path><path d="M962.5,398.1524750535316C1438.75,398.1524750535316,1438.75,606.0028339789892,1915,606.0028339789892" stroke-width="67.88252528517634" style="stroke: rgb(191, 105, 183);"></path><path d="M962.5,443.1365138324759C1438.75,443.1365138324759,1438.75,216.04277613635566,1915,216.04277613635566" stroke-width="2.0855522727117908" style="stroke: rgb(191, 105, 173);"></path><path d="M962.5,453.7500688952375C1438.75,453.7500688952375,1438.75,649.5148755479831,1915,649.5148755479831" stroke-width="19.141557852811488" style="stroke: rgb(191, 105, 173);"></path><path d="M962.5,595.9703162260927C1438.75,595.9703162260927,1438.75,319.96795559908446,1915,319.96795559908446" stroke-width="205.76480665274585" style="stroke: rgb(191, 105, 163);"></path><path d="M962.5,1006.926359776233C1438.75,1006.926359776233,1438.75,976.9263597762327,1915,976.9263597762327" stroke-width="616.1472804475347" style="stroke: rgb(191, 105, 163);"></path><path d="M962.5,324.2756480112714C1438.75,324.2756480112714,1438.75,552.126006936729,1915,552.126006936729" stroke-width="33.03496250251234" style="stroke: rgb(191, 105, 154);"></path><path d="M962.5,293.6031026439451C1438.75,293.6031026439451,1438.75,531.4534615694025,1915,531.4534615694025" stroke-width="8.310128232140523" style="stroke: rgb(191, 105, 144);"></path><path d="M962.5,232.2240192639376C1438.75,232.2240192639376,1438.75,480.07437818939496,1915,480.07437818939496" stroke-width="94.44803852787474" style="stroke: rgb(191, 105, 134);"></path><path d="M962.5,352.5021708367356C1438.75,352.5021708367356,1438.75,570.3525297621931,1915,570.3525297621931" stroke-width="3.4180831484157532" style="stroke: rgb(191, 105, 124);"></path><path d="M962.5,478.2043803606815C1438.75,478.2043803606815,1438.75,663.9691870134271,1915,663.9691870134271" stroke-width="9.767065078076508" style="stroke: rgb(191, 105, 115);"></path></g><g class="nodes" font-family="Arial, Helvetica" font-size="10"><g><rect x="957.5" y="185.00000000000023" height="94.44803852787459" width="5" fill="#000"></rect><text x="951.5" y="232.22401926393752" dy="0.35em" text-anchor="end">Asia</text></g><g><rect x="957.5" y="289.4480385278748" height="8.310128232140414" width="5" fill="#000"></rect><text x="951.5" y="293.603102643945" dy="0.35em" text-anchor="end">Australia / Oceania</text></g><g><rect x="957.5" y="307.75816676001523" height="33.034962502512485" width="5" fill="#000"></rect><text x="951.5" y="324.27564801127147" dy="0.35em" text-anchor="end">Canada</text></g><g><rect x="957.5" y="350.7931292625277" height="3.4180831484156897" width="5" fill="#000"></rect><text x="951.5" y="352.50217083673556" dy="0.35em" text-anchor="end">Central America</text></g><g><rect x="957.5" y="364.2112124109434" height="67.8825252851766" width="5" fill="#000"></rect><text x="951.5" y="398.1524750535317" dy="0.35em" text-anchor="end">Europe</text></g><g><rect x="957.5" y="442.09373769612" height="21.227110125523268" width="5" fill="#000"></rect><text x="951.5" y="452.70729275888164" dy="0.35em" text-anchor="end">Mexico</text></g><g><rect x="957.5" y="473.32084782164327" height="9.767065078076484" width="5" fill="#000"></rect><text x="951.5" y="478.2043803606815" dy="0.35em" text-anchor="end">Middle East</text></g><g><rect x="957.5" y="493.08791289971975" height="821.91208710028" width="5" fill="#000"></rect><text x="951.5" y="904.0439564498597" dy="0.35em" text-anchor="end">US</text></g><g><rect x="1915" y="214.99999999999977" height="207.85035892545784" width="5" fill="#000"></rect><text x="1909" y="318.9251794627287" dy="0.35em" text-anchor="end">Low Fare</text></g><g><rect x="1915" y="432.8503589254576" height="852.1496410745426" width="5" fill="#000"></rect><text x="1909" y="858.9251794627289" dy="0.35em" text-anchor="end">Other</text></g><g><rect x="0" y="3.410605131648481e-13" height="2.8498390273643963" width="5" fill="#000"></rect><text x="11" y="1.4249195136825392" dy="0.35em" text-anchor="start">Aer Lingus</text></g><g><rect x="0" y="12.849839027364737" height="5.588612639602616" width="5" fill="#000"></rect><text x="11" y="15.644145347166045" dy="0.35em" text-anchor="start">Aeromexico</text></g><g><rect x="0" y="28.438451666967353" height="17.52610133144458" width="5" fill="#000"></rect><text x="11" y="37.20150233268964" dy="0.35em" text-anchor="start">Air Canada</text></g><g><rect x="0" y="55.96455299841193" height="4.158716887111268" width="5" fill="#000"></rect><text x="11" y="58.043911441967566" dy="0.35em" text-anchor="start">Air China</text></g><g><rect x="0" y="70.1232698855232" height="7.31951790134508" width="5" fill="#000"></rect><text x="11" y="73.78302883619574" dy="0.35em" text-anchor="start">Air France</text></g><g><rect x="0" y="87.44278778686828" height="0.12349542440733785" width="5" fill="#000"></rect><text x="11" y="87.50453549907195" dy="0.35em" text-anchor="start">Air India Limited</text></g><g><rect x="0" y="97.56628321127562" height="4.803976244542355" width="5" fill="#000"></rect><text x="11" y="99.9682713335468" dy="0.35em" text-anchor="start">Air New Zealand</text></g><g><rect x="0" y="112.37025945581797" height="31.19938682190059" width="5" fill="#000"></rect><text x="11" y="127.96995286676827" dy="0.35em" text-anchor="start">Alaska Airlines</text></g><g><rect x="0" y="153.56964627771856" height="3.5226688653476685" width="5" fill="#000"></rect><text x="11" y="155.3309807103924" dy="0.35em" text-anchor="start">All Nippon Airways</text></g><g><rect x="0" y="167.09231514306623" height="72.00374038960126" width="5" fill="#000"></rect><text x="11" y="203.09418533786686" dy="0.35em" text-anchor="start">American Airlines</text></g><g><rect x="0" y="249.0960555326675" height="3.902112368426515" width="5" fill="#000"></rect><text x="11" y="251.04711171688075" dy="0.35em" text-anchor="start">Asiana Airlines</text></g><g><rect x="0" y="262.998167901094" height="10.002769393762264" width="5" fill="#000"></rect><text x="11" y="267.99955259797514" dy="0.35em" text-anchor="start">British Airways</text></g><g><rect x="0" y="293.5287362409041" height="9.527909158450939" width="5" fill="#000"></rect><text x="11" y="298.29269082012956" dy="0.35em" text-anchor="start">Cathay Pacific</text></g><g><rect x="0" y="313.05664539935503" height="4.869408491013473" width="5" fill="#000"></rect><text x="11" y="315.49134964486177" dy="0.35em" text-anchor="start">China Airlines</text></g><g><rect x="0" y="327.9260538903685" height="2.8634336882817024" width="5" fill="#000"></rect><text x="11" y="329.35777073450936" dy="0.35em" text-anchor="start">China Eastern</text></g><g><rect x="0" y="340.7894875786502" height="2.121317665685865" width="5" fill="#000"></rect><text x="11" y="341.85014641149314" dy="0.35em" text-anchor="start">China Southern</text></g><g><rect x="0" y="283.00093729485627" height="0.5277989460478238" width="5" fill="#000"></rect><text x="11" y="283.2648367678802" dy="0.35em" text-anchor="start">COPA Airlines, Inc.</text></g><g><rect x="0" y="352.9108052443361" height="88.47195687664566" width="5" fill="#000"></rect><text x="11" y="397.1467836826589" dy="0.35em" text-anchor="start">Delta Air Lines</text></g><g><rect x="0" y="469.76029191963255" height="6.323274891727124" width="5" fill="#000"></rect><text x="11" y="472.9219293654961" dy="0.35em" text-anchor="start">Emirates</text></g><g><rect x="0" y="486.0835668113597" height="3.4437901863498155" width="5" fill="#000"></rect><text x="11" y="487.8054619045346" dy="0.35em" text-anchor="start">Etihad Airways</text></g><g><rect x="0" y="451.38276212098174" height="8.377529798650812" width="5" fill="#000"></rect><text x="11" y="455.57152702030714" dy="0.35em" text-anchor="start">EVA Airways</text></g><g><rect x="0" y="499.5273569977095" height="12.361760695172734" width="5" fill="#000"></rect><text x="11" y="505.70823734529586" dy="0.35em" text-anchor="start">Frontier Airlines</text></g><g><rect x="0" y="521.8891176928822" height="6.976496231252668" width="5" fill="#000"></rect><text x="11" y="525.3773658085086" dy="0.35em" text-anchor="start">Hawaiian Airlines</text></g><g><rect x="0" y="538.8656139241349" height="3.164930233671157" width="5" fill="#000"></rect><text x="11" y="540.4480790409705" dy="0.35em" text-anchor="start">Japan Airlines</text></g><g><rect x="0" y="552.030544157806" height="30.179893130526807" width="5" fill="#000"></rect><text x="11" y="567.1204907230695" dy="0.35em" text-anchor="start">JetBlue Airways</text></g><g><rect x="0" y="592.2104372883329" height="4.7709848400113515" width="5" fill="#000"></rect><text x="11" y="594.5959297083385" dy="0.35em" text-anchor="start">KLM Royal Dutch Airlines</text></g><g><rect x="0" y="606.9814221283442" height="3.5105564883310763" width="5" fill="#000"></rect><text x="11" y="608.7367003725097" dy="0.35em" text-anchor="start">Korean Air Lines</text></g><g><rect x="0" y="620.4919786166753" height="10.929133305207415" width="5" fill="#000"></rect><text x="11" y="625.956545269279" dy="0.35em" text-anchor="start">Lufthansa German Airlines</text></g><g><rect x="0" y="641.4211119218827" height="0.0035151303927705158" width="5" fill="#000"></rect><text x="11" y="641.4228694870791" dy="0.35em" text-anchor="start">Miami Air International</text></g><g><rect x="0" y="651.4246270522755" height="5.2937651962815835" width="5" fill="#000"></rect><text x="11" y="654.0715096504163" dy="0.35em" text-anchor="start">Philippine Airlines</text></g><g><rect x="0" y="666.718392248557" height="0.09399797478477012" width="5" fill="#000"></rect><text x="11" y="666.7653912359494" dy="0.35em" text-anchor="start">Qantas Airways</text></g><g><rect x="0" y="676.8123902233418" height="0.0021598993980660453" width="5" fill="#000"></rect><text x="11" y="676.8134701730409" dy="0.35em" text-anchor="start">Republic Airlines</text></g><g><rect x="0" y="686.8145501227399" height="3.1611398219824878" width="5" fill="#000"></rect><text x="11" y="688.3951200337311" dy="0.35em" text-anchor="start">SAS Airlines</text></g><g><rect x="0" y="699.9756899447224" height="7.025686881270076" width="5" fill="#000"></rect><text x="11" y="703.4885333853574" dy="0.35em" text-anchor="start">Singapore Airlines</text></g><g><rect x="0" y="717.0013768259925" height="73.47143438155899" width="5" fill="#000"></rect><text x="11" y="753.737094016772" dy="0.35em" text-anchor="start">Southwest Airlines</text></g><g><rect x="0" y="800.4728112075514" height="3.662278833303162" width="5" fill="#000"></rect><text x="11" y="802.303950624203" dy="0.35em" text-anchor="start">Sun Country Airlines</text></g><g><rect x="0" y="814.1350900408546" height="3.4255369188872464" width="5" fill="#000"></rect><text x="11" y="815.8478585002982" dy="0.35em" text-anchor="start">Swiss International</text></g><g><rect x="0" y="827.5606269597419" height="2.8902842023676385" width="5" fill="#000"></rect><text x="11" y="829.0057690609257" dy="0.35em" text-anchor="start">TACA</text></g><g><rect x="0" y="840.4509111621095" height="3.076903745457912" width="5" fill="#000"></rect><text x="11" y="841.9893630348384" dy="0.35em" text-anchor="start">Turkish Airlines</text></g><g><rect x="0" y="893.2260081213564" height="469.99292319310285" width="5" fill="#000"></rect><text x="11" y="1128.2224697179079" dy="0.35em" text-anchor="start">United Airlines</text></g><g><rect x="0" y="853.5278149075674" height="29.698193213788954" width="5" fill="#000"></rect><text x="11" y="868.3769115144619" dy="0.35em" text-anchor="start">US Airways</text></g><g><rect x="0" y="1373.2189313144593" height="88.17499188489569" width="5" fill="#000"></rect><text x="11" y="1417.3064272569072" dy="0.35em" text-anchor="start">Virgin America</text></g><g><rect x="0" y="1471.393923199355" height="6.355969839478348" width="5" fill="#000"></rect><text x="11" y="1474.5719081190941" dy="0.35em" text-anchor="start">Virgin Atlantic</text></g><g><rect x="0" y="1487.7498930388333" height="1.807518163920804" width="5" fill="#000"></rect><text x="11" y="1488.6536521207936" dy="0.35em" text-anchor="start">WestJet Airlines</text></g><g><rect x="0" y="1499.557411202754" height="0.44258879724566214" width="5" fill="#000"></rect><text x="11" y="1499.778705601377" dy="0.35em" text-anchor="start">XL Airways France</text></g></g></g></svg>