<svg width="1920" height="1520" xmlns="http://www.w3.org/2000/svg" version="1.1"><g transform="translate(0, 10)"><g class="links" fill="none" stroke-opacity="0.4"><path d="M5,842.2758620689654C481.25,842.2758620689654,481.25,725.984326018807,957.5,725.984326018807" stroke-width="15.648902821316614" style="stroke: rgb(191, 105, 105);"></path><path d="M5,1420.8777429467088C481.25,1420.8777429467088,481.25,808.1410658307192,957.5,808.1410658307192" stroke-width="15.648902821316614" style="stroke: rgb(191, 114, 105);"></path><path d="M5,1379.5799373040752C481.25,1379.5799373040752,481.25,918.5548589341676,957.5,918.5548589341676" stroke-width="15.648902821316614" style="stroke: rgb(191, 124, 105);"></path><path d="M5,1395.2288401253918C481.25,1395.2288401253918,481.25,1297.1755485893402,957.5,1297.1755485893402" stroke-width="15.648902821316614" style="stroke: rgb(191, 124, 105);"></path><path d="M5,1254.8213166144203C481.25,1254.8213166144203,481.25,894.4294670846378,957.5,894.4294670846378" stroke-width="32.60188087774294" style="stroke: rgb(191, 133, 105);"></path><path d="M5,1230.0438871473355C481.25,1230.0438871473355,481.25,791.8401253918478,957.5,791.8401253918478" stroke-width="16.952978056426332" style="stroke: rgb(191, 133, 105);"></path><path d="M5,1187.6614420062697C481.25,1187.6614420062697,481.25,554.7115987460803,957.5,554.7115987460803" stroke-width="67.81191222570533" style="stroke: rgb(191, 133, 105);"></path><path d="M5,1145.6050156739811C481.25,1145.6050156739811,481.25,477.877742946707,957.5,477.877742946707" stroke-width="16.30094043887147" style="stroke: rgb(191, 133, 105);"></path><path d="M5,1127.0219435736676C481.25,1127.0219435736676,481.25,411.47648902821226,957.5,411.47648902821226" stroke-width="20.865203761755485" style="stroke: rgb(191, 133, 105);"></path><path d="M5,1320.3510971786839C481.25,1320.3510971786839,481.25,1247.9467084639484,957.5,1247.9467084639484" stroke-width="82.80877742946709" style="stroke: rgb(191, 133, 105);"></path><path d="M5,1275.034482758621C481.25,1275.034482758621,481.25,979.4137931034464,957.5,979.4137931034464" stroke-width="7.824451410658307" style="stroke: rgb(191, 133, 105);"></path><path d="M5,1098.7648902821318C481.25,1098.7648902821318,481.25,775.5391849529763,957.5,775.5391849529763" stroke-width="15.648902821316614" style="stroke: rgb(191, 142, 105);"></path><path d="M5,1073.115987460815C481.25,1073.115987460815,481.25,629.9153605015657,957.5,629.9153605015657" stroke-width="15.648902821316614" style="stroke: rgb(191, 152, 105);"></path><path d="M5,1034.8589341692789C481.25,1034.8589341692789,481.25,757.2821316614402,957.5,757.2821316614402" stroke-width="15.648902821316614" style="stroke: rgb(191, 161, 105);"></path><path d="M5,998.7774294670845C481.25,998.7774294670845,481.25,875.520376175547,957.5,875.520376175547" stroke-width="5.216300940438871" style="stroke: rgb(191, 170, 105);"></path><path d="M5,1009.2100313479622C481.25,1009.2100313479622,481.25,1198.7178683385566,957.5,1198.7178683385566" stroke-width="15.648902821316614" style="stroke: rgb(191, 170, 105);"></path><path d="M5,974.4326018808775C481.25,974.4326018808775,481.25,1179.1567398119107,957.5,1179.1567398119107" stroke-width="23.47335423197492" style="stroke: rgb(191, 180, 105);"></path><path d="M5,560.3573667711603C481.25,560.3573667711603,481.25,1087.2194357366755,957.5,1087.2194357366755" stroke-width="50.858934169278996" style="stroke: rgb(191, 189, 105);"></path><path d="M5,944.8714733542317C481.25,944.8714733542317,481.25,393.2194357366762,957.5,393.2194357366762" stroke-width="15.648902821316614" style="stroke: rgb(183, 191, 105);"></path><path d="M5,919.2225705329151C481.25,919.2225705329151,481.25,741.6332288401236,957.5,741.6332288401236" stroke-width="15.648902821316614" style="stroke: rgb(174, 191, 105);"></path><path d="M5,893.5736677115985C481.25,893.5736677115985,481.25,461.9028213166129,957.5,461.9028213166129" stroke-width="15.648902821316614" style="stroke: rgb(164, 191, 105);"></path><path d="M5,867.924764890282C481.25,867.924764890282,481.25,377.5705329153596,957.5,377.5705329153596" stroke-width="15.648902821316614" style="stroke: rgb(155, 191, 105);"></path><path d="M5,816.6269592476488C481.25,816.6269592476488,481.25,361.921630094043,957.5,361.921630094043" stroke-width="15.648902821316614" style="stroke: rgb(146, 191, 105);"></path><path d="M5,790.9780564263322C481.25,790.9780564263322,481.25,710.3354231974904,957.5,710.3354231974904" stroke-width="15.648902821316614" style="stroke: rgb(136, 191, 105);"></path><path d="M5,761.4169278996868C481.25,761.4169278996868,481.25,1155.6833855799357,957.5,1155.6833855799357" stroke-width="23.47335423197492" style="stroke: rgb(127, 191, 105);"></path><path d="M5,731.855799373041C481.25,731.855799373041,481.25,346.2727272727264,957.5,346.2727272727264" stroke-width="15.648902821316614" style="stroke: rgb(118, 191, 105);"></path><path d="M5,706.2068965517246C481.25,706.2068965517246,481.25,1136.12225705329,957.5,1136.12225705329" stroke-width="15.648902821316614" style="stroke: rgb(108, 191, 105);"></path><path d="M5,680.5579937304083C481.25,680.5579937304083,481.25,1120.4733542319734,957.5,1120.4733542319734" stroke-width="15.648902821316614" style="stroke: rgb(105, 191, 111);"></path><path d="M5,654.9090909090914C481.25,654.9090909090914,481.25,967.6771159874589,957.5,967.6771159874589" stroke-width="15.648902821316614" style="stroke: rgb(105, 191, 121);"></path><path d="M5,629.2601880877748C481.25,629.2601880877748,481.25,952.0282131661423,957.5,952.0282131661423" stroke-width="15.648902821316614" style="stroke: rgb(105, 191, 130);"></path><path d="M5,603.6112852664583C481.25,603.6112852664583,481.25,330.6238244514098,957.5,330.6238244514098" stroke-width="15.648902821316614" style="stroke: rgb(105, 191, 139);"></path><path d="M5,321.5862068965523C481.25,321.5862068965523,481.25,1037.9905956112834,957.5,1037.9905956112834" stroke-width="47.5987460815047" style="stroke: rgb(105, 191, 149);"></path><path d="M5,517.1034482758625C481.25,517.1034482758625,481.25,314.9749216300932,957.5,314.9749216300932" stroke-width="15.648902821316614" style="stroke: rgb(105, 191, 158);"></path><path d="M5,491.45454545454595C481.25,491.45454545454595,481.25,299.3260188087766,957.5,299.3260188087766" stroke-width="15.648902821316614" style="stroke: rgb(105, 191, 167);"></path><path d="M5,465.80564263322935C481.25,465.80564263322935,481.25,283.67711598746,957.5,283.67711598746" stroke-width="15.648902821316614" style="stroke: rgb(105, 191, 177);"></path><path d="M5,440.15673981191276C481.25,440.15673981191276,481.25,268.0282131661434,957.5,268.0282131661434" stroke-width="15.648902821316614" style="stroke: rgb(105, 191, 186);"></path><path d="M5,414.50783699059593C481.25,414.50783699059593,481.25,614.2664576802491,957.5,614.2664576802491" stroke-width="15.648902821316614" style="stroke: rgb(105, 186, 191);"></path><path d="M5,388.85893416927934C481.25,388.85893416927934,481.25,694.6865203761738,957.5,694.6865203761738" stroke-width="15.648902821316614" style="stroke: rgb(105, 177, 191);"></path><path d="M5,363.21003134796274C481.25,363.21003134796274,481.25,252.3793103448268,957.5,252.3793103448268" stroke-width="15.648902821316614" style="stroke: rgb(105, 167, 191);"></path><path d="M5,279.96238244514166C481.25,279.96238244514166,481.25,236.73040752351017,957.5,236.73040752351017" stroke-width="15.648902821316614" style="stroke: rgb(105, 158, 191);"></path><path d="M5,233.44827586206907C481.25,233.44827586206907,481.25,865.0877742946692,957.5,865.0877742946692" stroke-width="15.648902821316614" style="stroke: rgb(105, 149, 191);"></path><path d="M5,251.70532915360513C481.25,251.70532915360513,481.25,1003.7586206896534,957.5,1003.7586206896534" stroke-width="20.865203761755485" style="stroke: rgb(105, 149, 191);"></path><path d="M5,191.2789968652039C481.25,191.2789968652039,481.25,439.73354231974776,957.5,439.73354231974776" stroke-width="15.648902821316614" style="stroke: rgb(105, 139, 191);"></path><path d="M5,164.32601880877758C481.25,164.32601880877758,481.25,219.77742946708386,957.5,219.77742946708386" stroke-width="18.25705329153605" style="stroke: rgb(105, 130, 191);"></path><path d="M5,137.37304075235124C481.25,137.37304075235124,481.25,679.0376175548572,957.5,679.0376175548572" stroke-width="15.648902821316614" style="stroke: rgb(105, 121, 191);"></path><path d="M5,111.72413793103443C481.25,111.72413793103443,481.25,202.8244514106575,957.5,202.8244514106575" stroke-width="15.648902821316614" style="stroke: rgb(105, 111, 191);"></path><path d="M5,81.51097178683358C481.25,81.51097178683358,481.25,508.4169278996853,957.5,508.4169278996853" stroke-width="24.777429467084637" style="stroke: rgb(108, 105, 191);"></path><path d="M5,33.47335423197479C481.25,33.47335423197479,481.25,849.4388714733526,957.5,849.4388714733526" stroke-width="15.648902821316614" style="stroke: rgb(118, 105, 191);"></path><path d="M5,7.8244514106581935C481.25,7.8244514106581935,481.25,655.5642633228823,957.5,655.5642633228823" stroke-width="15.648902821316614" style="stroke: rgb(127, 105, 191);"></path><path d="M5,1479.5673981191223C481.25,1479.5673981191223,481.25,592.5297805642622,957.5,592.5297805642622" stroke-width="7.824451410658307" style="stroke: rgb(136, 105, 191);"></path><path d="M5,55.21003134796201C481.25,55.21003134796201,481.25,667.3009404388698,957.5,667.3009404388698" stroke-width="7.824451410658307" style="stroke: rgb(146, 105, 191);"></path><path d="M5,1496.739811912226C481.25,1496.739811912226,481.25,828.3542319749198,957.5,828.3542319749198" stroke-width="6.520376175548589" style="stroke: rgb(155, 105, 191);"></path><path d="M5,1461.0909090909092C481.25,1461.0909090909092,481.25,820.5297805642615,957.5,820.5297805642615" stroke-width="9.128526645768025" style="stroke: rgb(164, 105, 191);"></path><path d="M5,212.3636363636365C481.25,212.3636363636365,481.25,450.81818181818034,957.5,450.81818181818034" stroke-width="6.520376175548589" style="stroke: rgb(174, 105, 191);"></path><path d="M5,1442.6144200626961C481.25,1442.6144200626961,481.25,930.2915360501551,957.5,930.2915360501551" stroke-width="7.824451410658307" style="stroke: rgb(183, 105, 191);"></path><path d="M5,1053.9874608150467C481.25,1053.9874608150467,481.25,766.4106583072082,957.5,766.4106583072082" stroke-width="2.6081504702194356" style="stroke: rgb(191, 105, 189);"></path><path d="M962.5,740.6551724137914C1438.75,740.6551724137914,1438.75,863.2382445141063,1915,863.2382445141063" stroke-width="181.91849529780563" style="stroke: rgb(191, 105, 180);"></path><path d="M962.5,648.7178683385563C1438.75,648.7178683385563,1438.75,229.89028213166145,1915,229.89028213166145" stroke-width="1.9561128526645768" style="stroke: rgb(191, 105, 180);"></path><path d="M962.5,855.9592476489012C1438.75,855.9592476489012,1438.75,245.2131661442006,1915,245.2131661442006" stroke-width="28.68965517241379" style="stroke: rgb(191, 105, 170);"></path><path d="M962.5,902.2539184952963C1438.75,902.2539184952963,1438.75,986.1473354231972,1915,986.1473354231972" stroke-width="63.89968652037617" style="stroke: rgb(191, 105, 170);"></path><path d="M962.5,1040.2727272727254C1438.75,1040.2727272727254,1438.75,306.5047021943574,1915,306.5047021943574" stroke-width="93.89341692789968" style="stroke: rgb(191, 105, 161);"></path><path d="M962.5,1196.1097178683367C1438.75,1196.1097178683367,1438.75,1166.1097178683383,1915,1166.1097178683383" stroke-width="217.78056426332287" style="stroke: rgb(191, 105, 161);"></path><path d="M962.5,546.2351097178671C1438.75,546.2351097178671,1438.75,690.7742946708462,1915,690.7742946708462" stroke-width="100.41379310344827" style="stroke: rgb(191, 105, 152);"></path><path d="M962.5,459.62068965517096C1438.75,459.62068965517096,1438.75,614.1598746081503,1915,614.1598746081503" stroke-width="52.81504702194357" style="stroke: rgb(191, 105, 142);"></path><path d="M962.5,432.5611285266443C1438.75,432.5611285266443,1438.75,228.2601880877743,1915,228.2601880877743" stroke-width="1.3040752351097178" style="stroke: rgb(191, 105, 142);"></path><path d="M962.5,309.7586206896544C1438.75,309.7586206896544,1438.75,475.6018808777427,1915,475.6018808777427" stroke-width="224.30094043887146" style="stroke: rgb(191, 105, 133);"></path><path d="M962.5,196.3040752351089C1438.75,196.3040752351089,1438.75,226.3040752351097,1915,226.3040752351097" stroke-width="2.6081504702194356" style="stroke: rgb(191, 105, 133);"></path><path d="M962.5,622.0909090909074C1438.75,622.0909090909074,1438.75,756.6300940438869,1915,756.6300940438869" stroke-width="31.29780564263323" style="stroke: rgb(191, 105, 124);"></path><path d="M962.5,963.7648902821298C1438.75,963.7648902821298,1438.75,1037.658307210031,1915,1037.658307210031" stroke-width="39.122257053291534" style="stroke: rgb(191, 105, 114);"></path></g><g class="nodes" font-family="Arial, Helvetica" font-size="10"><g><rect x="957.5" y="194.9999999999992" height="226.90909090909025" width="5" fill="#000"></rect><text x="951.5" y="308.45454545454436" dy="0.35em" text-anchor="end">Asia</text></g><g><rect x="957.5" y="431.90909090908946" height="54.119122257053505" width="5" fill="#000"></rect><text x="951.5" y="458.9686520376162" dy="0.35em" text-anchor="end">Australia / Oceania</text></g><g><rect x="957.5" y="496.02821316614296" height="100.41379310344792" width="5" fill="#000"></rect><text x="951.5" y="546.2351097178669" dy="0.35em" text-anchor="end">Canada</text></g><g><rect x="957.5" y="606.4420062695908" height="31.297805642633193" width="5" fill="#000"></rect><text x="951.5" y="622.0909090909074" dy="0.35em" text-anchor="end">Central America</text></g><g><rect x="957.5" y="647.739811912224" height="183.8746081504703" width="5" fill="#000"></rect><text x="951.5" y="739.6771159874592" dy="0.35em" text-anchor="end">Europe</text></g><g><rect x="957.5" y="841.6144200626943" height="92.58934169278973" width="5" fill="#000"></rect><text x="951.5" y="887.9090909090892" dy="0.35em" text-anchor="end">Mexico</text></g><g><rect x="957.5" y="944.203761755484" height="39.122257053291605" width="5" fill="#000"></rect><text x="951.5" y="963.7648902821298" dy="0.35em" text-anchor="end">Middle East</text></g><g><rect x="957.5" y="993.3260188087756" height="311.67398119122504" width="5" fill="#000"></rect><text x="951.5" y="1149.163009404388" dy="0.35em" text-anchor="end">US</text></g><g><rect x="1915" y="225" height="128.45141065830694" width="5" fill="#000"></rect><text x="1909" y="289.22570532915347" dy="0.35em" text-anchor="end">Low Fare</text></g><g><rect x="1915" y="363.45141065830694" height="911.548589341693" width="5" fill="#000"></rect><text x="1909" y="819.2257053291535" dy="0.35em" text-anchor="end">Other</text></g><g><rect x="0" y="-1.1368683772161603e-13" height="15.648902821316597" width="5" fill="#000"></rect><text x="11" y="7.824451410658185" dy="0.35em" text-anchor="start">Aer Lingus</text></g><g><rect x="0" y="25.648902821316483" height="15.64890282131637" width="5" fill="#000"></rect><text x="11" y="33.47335423197467" dy="0.35em" text-anchor="start">Aeromexico</text></g><g><rect x="0" y="51.29780564263285" height="7.824451410658412" width="5" fill="#000"></rect><text x="11" y="55.21003134796206" dy="0.35em" text-anchor="start">Air Berlin</text></g><g><rect x="0" y="69.12225705329126" height="24.777429467084858" width="5" fill="#000"></rect><text x="11" y="81.5109717868337" dy="0.35em" text-anchor="start">Air Canada</text></g><g><rect x="0" y="103.89968652037612" height="15.648902821316824" width="5" fill="#000"></rect><text x="11" y="111.72413793103453" dy="0.35em" text-anchor="start">Air China</text></g><g><rect x="0" y="129.54858934169295" height="15.648902821316597" width="5" fill="#000"></rect><text x="11" y="137.37304075235124" dy="0.35em" text-anchor="start">Air France</text></g><g><rect x="0" y="155.19749216300954" height="18.257053291536067" width="5" fill="#000"></rect><text x="11" y="164.32601880877758" dy="0.35em" text-anchor="start">Air India Limited</text></g><g><rect x="0" y="183.4545454545456" height="15.648902821316597" width="5" fill="#000"></rect><text x="11" y="191.2789968652039" dy="0.35em" text-anchor="start">Air New Zealand</text></g><g><rect x="0" y="209.1034482758622" height="6.520376175548563" width="5" fill="#000"></rect><text x="11" y="212.3636363636365" dy="0.35em" text-anchor="start">Air Pacific Limited dba Fiji Airways</text></g><g><rect x="0" y="225.62382445141077" height="36.51410658307259" width="5" fill="#000"></rect><text x="11" y="243.88087774294706" dy="0.35em" text-anchor="start">Alaska Airlines</text></g><g><rect x="0" y="272.13793103448336" height="15.648902821316597" width="5" fill="#000"></rect><text x="11" y="279.96238244514166" dy="0.35em" text-anchor="start">All Nippon Airways</text></g><g><rect x="0" y="297.78683385579996" height="47.59874608150449" width="5" fill="#000"></rect><text x="11" y="321.5862068965522" dy="0.35em" text-anchor="start">American Airlines</text></g><g><rect x="0" y="355.38557993730444" height="15.648902821316597" width="5" fill="#000"></rect><text x="11" y="363.21003134796274" dy="0.35em" text-anchor="start">Asiana Airlines</text></g><g><rect x="0" y="381.03448275862104" height="15.648902821316597" width="5" fill="#000"></rect><text x="11" y="388.85893416927934" dy="0.35em" text-anchor="start">British Airways</text></g><g><rect x="0" y="432.33228840125446" height="15.648902821316597" width="5" fill="#000"></rect><text x="11" y="440.15673981191276" dy="0.35em" text-anchor="start">Cathay Pacific</text></g><g><rect x="0" y="457.98119122257106" height="15.648902821316597" width="5" fill="#000"></rect><text x="11" y="465.80564263322935" dy="0.35em" text-anchor="start">China Airlines</text></g><g><rect x="0" y="483.63009404388765" height="15.648902821316597" width="5" fill="#000"></rect><text x="11" y="491.45454545454595" dy="0.35em" text-anchor="start">China Eastern</text></g><g><rect x="0" y="509.27899686520425" height="15.648902821316597" width="5" fill="#000"></rect><text x="11" y="517.1034482758625" dy="0.35em" text-anchor="start">China Southern</text></g><g><rect x="0" y="406.68338557993764" height="15.648902821316824" width="5" fill="#000"></rect><text x="11" y="414.50783699059605" dy="0.35em" text-anchor="start">COPA Airlines, Inc.</text></g><g><rect x="0" y="534.9278996865208" height="50.85893416927911" width="5" fill="#000"></rect><text x="11" y="560.3573667711604" dy="0.35em" text-anchor="start">Delta Air Lines</text></g><g><rect x="0" y="621.4357366771166" height="15.648902821316597" width="5" fill="#000"></rect><text x="11" y="629.2601880877748" dy="0.35em" text-anchor="start">Emirates</text></g><g><rect x="0" y="647.0846394984331" height="15.648902821316824" width="5" fill="#000"></rect><text x="11" y="654.9090909090916" dy="0.35em" text-anchor="start">Etihad Airways</text></g><g><rect x="0" y="595.7868338558" height="15.648902821316597" width="5" fill="#000"></rect><text x="11" y="603.6112852664583" dy="0.35em" text-anchor="start">EVA Airways</text></g><g><rect x="0" y="672.73354231975" height="15.64890282131637" width="5" fill="#000"></rect><text x="11" y="680.5579937304082" dy="0.35em" text-anchor="start">Frontier Airlines</text></g><g><rect x="0" y="698.3824451410663" height="15.64890282131637" width="5" fill="#000"></rect><text x="11" y="706.2068965517245" dy="0.35em" text-anchor="start">Hawaiian Airlines</text></g><g><rect x="0" y="724.0313479623827" height="15.648902821316597" width="5" fill="#000"></rect><text x="11" y="731.855799373041" dy="0.35em" text-anchor="start">Japan Airlines</text></g><g><rect x="0" y="749.6802507836993" height="23.473354231974554" width="5" fill="#000"></rect><text x="11" y="761.4169278996866" dy="0.35em" text-anchor="start">JetBlue Airways</text></g><g><rect x="0" y="783.1536050156739" height="15.648902821316597" width="5" fill="#000"></rect><text x="11" y="790.9780564263322" dy="0.35em" text-anchor="start">KLM Royal Dutch Airlines</text></g><g><rect x="0" y="808.8025078369905" height="15.648902821316597" width="5" fill="#000"></rect><text x="11" y="816.6269592476488" dy="0.35em" text-anchor="start">Korean Air Lines</text></g><g><rect x="0" y="834.451410658307" height="15.648902821316597" width="5" fill="#000"></rect><text x="11" y="842.2758620689654" dy="0.35em" text-anchor="start">Lufthansa German Airlines</text></g><g><rect x="0" y="860.1003134796237" height="15.648902821316597" width="5" fill="#000"></rect><text x="11" y="867.924764890282" dy="0.35em" text-anchor="start">Philippine Airlines</text></g><g><rect x="0" y="885.7492163009402" height="15.648902821316597" width="5" fill="#000"></rect><text x="11" y="893.5736677115985" dy="0.35em" text-anchor="start">Qantas Airways</text></g><g><rect x="0" y="911.3981191222568" height="15.648902821316597" width="5" fill="#000"></rect><text x="11" y="919.2225705329151" dy="0.35em" text-anchor="start">SAS Airlines</text></g><g><rect x="0" y="937.0470219435734" height="15.648902821316597" width="5" fill="#000"></rect><text x="11" y="944.8714733542317" dy="0.35em" text-anchor="start">Singapore Airlines</text></g><g><rect x="0" y="962.69592476489" height="23.47335423197501" width="5" fill="#000"></rect><text x="11" y="974.4326018808775" dy="0.35em" text-anchor="start">Southwest Airlines</text></g><g><rect x="0" y="996.169278996865" height="20.86520376175531" width="5" fill="#000"></rect><text x="11" y="1006.6018808777427" dy="0.35em" text-anchor="start">Sun Country Airlines</text></g><g><rect x="0" y="1027.0344827586205" height="15.648902821316597" width="5" fill="#000"></rect><text x="11" y="1034.8589341692787" dy="0.35em" text-anchor="start">Swiss International</text></g><g><rect x="0" y="1052.683385579937" height="2.6081504702194707" width="5" fill="#000"></rect><text x="11" y="1053.9874608150467" dy="0.35em" text-anchor="start">Swissport USA</text></g><g><rect x="0" y="1065.2915360501565" height="15.648902821316824" width="5" fill="#000"></rect><text x="11" y="1073.115987460815" dy="0.35em" text-anchor="start">TACA</text></g><g><rect x="0" y="1090.9404388714734" height="15.648902821316597" width="5" fill="#000"></rect><text x="11" y="1098.7648902821315" dy="0.35em" text-anchor="start">Turkish Airlines</text></g><g><rect x="0" y="1116.58934169279" height="245.16614420062683" width="5" fill="#000"></rect><text x="11" y="1239.1724137931033" dy="0.35em" text-anchor="start">United Airlines</text></g><g><rect x="0" y="1371.7554858934168" height="31.297805642633648" width="5" fill="#000"></rect><text x="11" y="1387.4043887147336" dy="0.35em" text-anchor="start">Virgin America</text></g><g><rect x="0" y="1413.0532915360504" height="15.648902821316597" width="5" fill="#000"></rect><text x="11" y="1420.8777429467086" dy="0.35em" text-anchor="start">Virgin Atlantic</text></g><g><rect x="0" y="1438.702194357367" height="7.824451410658185" width="5" fill="#000"></rect><text x="11" y="1442.6144200626961" dy="0.35em" text-anchor="start">Volaris Airlines</text></g><g><rect x="0" y="1475.6551724137933" height="7.824451410658412" width="5" fill="#000"></rect><text x="11" y="1479.5673981191226" dy="0.35em" text-anchor="start">WestJet Airlines</text></g><g><rect x="0" y="1456.5266457680252" height="9.128526645768034" width="5" fill="#000"></rect><text x="11" y="1461.0909090909092" dy="0.35em" text-anchor="start">WOW Air</text></g><g><rect x="0" y="1493.4796238244517" height="6.520376175548563" width="5" fill="#000"></rect><text x="11" y="1496.7398119122258" dy="0.35em" text-anchor="start">XL Airways France</text></g></g></g></svg>