<svg width="1920" height="1520" xmlns="http://www.w3.org/2000/svg" version="1.1"><g transform="translate(0, 10)"><g class="links" fill="none" stroke-opacity="0.4"><path d="M5,662.1687322450323C481.25,662.1687322450323,481.25,407.1903639854047,957.5,407.1903639854047" stroke-width="9.994338597373186" style="stroke: rgb(191, 105, 105);"></path><path d="M5,1452.3568782200352C481.25,1452.3568782200352,481.25,439.3546136589853,957.5,439.3546136589853" stroke-width="5.526702522216636" style="stroke: rgb(191, 114, 105);"></path><path d="M5,1344.6367640760348C481.25,1344.6367640760348,481.25,475.1315922084761,957.5,475.1315922084761" stroke-width="2.1554999592493505" style="stroke: rgb(191, 124, 105);"></path><path d="M5,1392.6540205072931C481.25,1392.6540205072931,481.25,1258.0604935483666,957.5,1258.0604935483666" stroke-width="93.8790129032676" style="stroke: rgb(191, 124, 105);"></path><path d="M5,947.5534808963816C481.25,947.5534808963816,481.25,468.4200227450393,957.5,468.4200227450393" stroke-width="11.267638967624098" style="stroke: rgb(191, 133, 105);"></path><path d="M5,934.863259349939C481.25,934.863259349939,481.25,429.53486033524626,957.5,429.53486033524626" stroke-width="14.11280412526132" style="stroke: rgb(191, 133, 105);"></path><path d="M5,922.3932253890557C481.25,922.3932253890557,481.25,345.6200328084158,957.5,345.6200328084158" stroke-width="10.827263796505266" style="stroke: rgb(191, 133, 105);"></path><path d="M5,914.9616250907096C481.25,914.9616250907096,481.25,310.1880435334443,957.5,310.1880435334443" stroke-width="4.035936800186684" style="stroke: rgb(191, 133, 105);"></path><path d="M5,895.4091907553723C481.25,895.4091907553723,481.25,273.04316209373013,957.5,273.04316209373013" stroke-width="35.06893187048796" style="stroke: rgb(191, 133, 105);"></path><path d="M5,1143.873989500644C481.25,1143.873989500644,481.25,1021.4359625009663,957.5,1021.4359625009663" stroke-width="379.3700491915327" style="stroke: rgb(191, 133, 105);"></path><path d="M5,953.6881326425356C481.25,953.6881326425356,481.25,496.69127398281205,957.5,496.69127398281205" stroke-width="1.0016645246839715" style="stroke: rgb(191, 133, 105);"></path><path d="M5,865.9040723683328C481.25,865.9040723683328,481.25,420.50780582082007,957.5,420.50780582082007" stroke-width="3.941304903591194" style="stroke: rgb(191, 142, 105);"></path><path d="M5,852.6426404552864C481.25,852.6426404552864,481.25,366.1404871487818,957.5,366.1404871487818" stroke-width="2.5815589225016047" style="stroke: rgb(191, 152, 105);"></path><path d="M5,829.659757686544C481.25,829.659757686544,481.25,416.845050061533,957.5,416.845050061533" stroke-width="3.3458211602380317" style="stroke: rgb(191, 161, 105);"></path><path d="M5,814.6503089592223C481.25,814.6503089592223,481.25,462.7404932350158,957.5,462.7404932350158" stroke-width="0.0914200524229613" style="stroke: rgb(191, 170, 105);"></path><path d="M5,816.3414330459294C481.25,816.3414330459294,481.25,830.1055238447043,957.5,830.1055238447043" stroke-width="3.2908281209913146" style="stroke: rgb(191, 170, 105);"></path><path d="M5,769.8620021811015C481.25,769.8620021811015,481.25,793.7175130322989,957.5,793.7175130322989" stroke-width="69.48519350381919" style="stroke: rgb(191, 180, 105);"></path><path d="M5,435.18049223470405C481.25,435.18049223470405,481.25,666.0879323692883,957.5,666.0879323692883" stroke-width="81.75373320391549" style="stroke: rgb(191, 189, 105);"></path><path d="M5,721.9253536983138C481.25,721.9253536983138,481.25,252.31464442760796,957.5,252.31464442760796" stroke-width="6.388103461756382" style="stroke: rgb(183, 191, 105);"></path><path d="M5,707.2389988687743C481.25,707.2389988687743,481.25,413.6798363827526,957.5,413.6798363827526" stroke-width="2.984606197322629" style="stroke: rgb(174, 191, 105);"></path><path d="M5,694.0928702030799C481.25,694.0928702030799,481.25,306.51624956631804,957.5,306.51624956631804" stroke-width="3.30765113406572" style="stroke: rgb(164, 191, 105);"></path><path d="M5,679.8024730898828C481.25,679.8024730898828,481.25,246.48402115056578,957.5,246.48402115056578" stroke-width="5.273143092328016" style="stroke: rgb(155, 191, 105);"></path><path d="M5,645.0090223896572C481.25,645.0090223896572,481.25,241.68490904771323,957.5,241.68490904771323" stroke-width="4.325081113377045" style="stroke: rgb(146, 191, 105);"></path><path d="M5,630.3400487290386C481.25,630.3400487290386,481.25,399.6867615827886,957.5,399.6867615827886" stroke-width="5.012866207859045" style="stroke: rgb(136, 191, 105);"></path><path d="M5,602.7034794426148C481.25,602.7034794426148,481.25,743.8447800978952,957.5,743.8447800978952" stroke-width="30.260272364988428" style="stroke: rgb(127, 191, 105);"></path><path d="M5,576.1216582395924C481.25,576.1216582395924,481.25,238.07068347049648,957.5,238.07068347049648" stroke-width="2.903370041056468" style="stroke: rgb(118, 191, 105);"></path><path d="M5,560.9677744465853C481.25,560.9677744465853,481.25,725.012445142922,957.5,725.012445142922" stroke-width="7.404397544957909" style="stroke: rgb(108, 191, 105);"></path><path d="M5,540.0928519745082C481.25,540.0928519745082,481.25,714.1375226708445,957.5,714.1375226708445" stroke-width="14.345447399197129" style="stroke: rgb(105, 191, 111);"></path><path d="M5,521.4312328645777C481.25,521.4312328645777,481.25,494.7015463101381,957.5,494.7015463101381" stroke-width="2.977790820663848" style="stroke: rgb(105, 191, 121);"></path><path d="M5,507.01065814031557C481.25,507.01065814031557,481.25,490.2809715858754,957.5,490.2809715858754" stroke-width="5.863358627861603" style="stroke: rgb(105, 191, 130);"></path><path d="M5,490.0681688315234C481.25,490.0681688315234,481.25,232.6081884551069,957.5,232.6081884551069" stroke-width="8.021619989722701" style="stroke: rgb(105, 191, 139);"></path><path d="M5,233.53347074562868C481.25,233.53347074562868,481.25,579.5637194782535,957.5,579.5637194782535" stroke-width="91.29469257815424" style="stroke: rgb(105, 191, 149);"></path><path d="M5,382.872798014924C481.25,382.872798014924,481.25,227.16655084242305,957.5,227.16655084242305" stroke-width="2.861655235644962" style="stroke: rgb(105, 191, 158);"></path><path d="M5,369.76212693382956C481.25,369.76212693382956,481.25,224.05587976132867,957.5,224.05587976132867" stroke-width="3.359686926543828" style="stroke: rgb(105, 191, 167);"></path><path d="M5,355.7906228612503C481.25,355.7906228612503,481.25,220.08437568874942,957.5,220.08437568874942" stroke-width="4.583321218614655" style="stroke: rgb(105, 191, 177);"></path><path d="M5,338.74426760386666C481.25,338.74426760386666,481.25,213.03802043136577,957.5,213.03802043136577" stroke-width="9.509389296152671" style="stroke: rgb(105, 191, 186);"></path><path d="M5,322.90366606703225C481.25,322.90366606703225,481.25,363.76380079877305,957.5,363.76380079877305" stroke-width="2.1718137775159154" style="stroke: rgb(105, 186, 191);"></path><path d="M5,307.3452563758198C481.25,307.3452563758198,481.25,392.7078256764046,957.5,392.7078256764046" stroke-width="8.94500560490912" style="stroke: rgb(105, 177, 191);"></path><path d="M5,291.0267853040354C481.25,291.0267853040354,481.25,206.43735751395974,957.5,206.43735751395974" stroke-width="3.6919365386594105" style="stroke: rgb(105, 167, 191);"></path><path d="M5,176.25323462988737C481.25,176.25323462988737,481.25,202.95849941796564,957.5,202.95849941796564" stroke-width="3.265779653328725" style="stroke: rgb(105, 158, 191);"></path><path d="M5,136.36982517594734C481.25,136.36982517594734,481.25,461.16853052555103,957.5,461.16853052555103" stroke-width="3.052505366506521" style="stroke: rgb(105, 149, 191);"></path><path d="M5,151.2582113312117C481.25,151.2582113312117,481.25,520.5542397171653,957.5,520.5542397171653" stroke-width="26.724266944022165" style="stroke: rgb(105, 149, 191);"></path><path d="M5,112.56676666268473C481.25,112.56676666268473,481.25,302.58561816927585,957.5,302.58561816927585" stroke-width="4.015980280602495" style="stroke: rgb(105, 139, 191);"></path><path d="M5,99.83612137577215C481.25,99.83612137577215,481.25,200.6029544446901,957.5,200.6029544446901" stroke-width="1.4453102932223911" style="stroke: rgb(105, 130, 191);"></path><path d="M5,85.61960647075142C481.25,85.61960647075142,481.25,384.74146311554034,957.5,384.74146311554034" stroke-width="6.987719516819322" style="stroke: rgb(105, 121, 191);"></path><path d="M5,69.68559706330197C481.25,69.68559706330197,481.25,197.44014964903917,957.5,197.44014964903917" stroke-width="4.880299298079477" style="stroke: rgb(105, 111, 191);"></path><path d="M5,48.245252925949586C481.25,48.245252925949586,481.25,331.2062064218504,957.5,331.2062064218504" stroke-width="18.000388976625395" style="stroke: rgb(108, 105, 191);"></path><path d="M5,15.502829119495328C481.25,15.502829119495328,481.25,456.92791699702843,957.5,456.92791699702843" stroke-width="5.428721690538814" style="stroke: rgb(118, 105, 191);"></path><path d="M5,1.3942341371132456C481.25,1.3942341371132456,481.25,378.8255007471457,957.5,378.8255007471457" stroke-width="2.788468274225809" style="stroke: rgb(127, 105, 191);"></path><path d="M5,1488.7071935517256C481.25,1488.7071935517256,481.25,351.85577930834177,957.5,351.85577930834177" stroke-width="1.644229203346645" style="stroke: rgb(136, 105, 191);"></path><path d="M5,28.731124201200565C481.25,28.731124201200565,481.25,380.7336691206946,957.5,380.7336691206946" stroke-width="1.027868472872044" style="stroke: rgb(146, 105, 191);"></path><path d="M5,1499.7646540766993C481.25,1499.7646540766993,481.25,443.97821022845847,957.5,443.97821022845847" stroke-width="0.47069184660099656" style="stroke: rgb(155, 105, 191);"></path><path d="M5,1477.07262925752C481.25,1477.07262925752,481.25,442.9304146126258,957.5,442.9304146126258" stroke-width="1.6248993850644122" style="stroke: rgb(164, 105, 191);"></path><path d="M5,124.70916464783998C481.25,124.70916464783998,481.25,304.72801615443115,957.5,304.72801615443115" stroke-width="0.26881568970813347" style="stroke: rgb(174, 105, 191);"></path><path d="M5,1465.6902045230659C481.25,1465.6902045230659,481.25,476.77931723002274,957.5,476.77931723002274" stroke-width="1.1399500838438965" style="stroke: rgb(183, 105, 191);"></path><path d="M5,841.3422646303495C481.25,841.3422646303495,481.25,418.5275570053382,957.5,418.5275570053382" stroke-width="0.01919272737242975" style="stroke: rgb(191, 105, 189);"></path><path d="M962.5,411.0120668624006C1438.75,411.0120668624006,1438.75,625.65969125018,1915,625.65969125018" stroke-width="66.40297857871677" style="stroke: rgb(191, 105, 180);"></path><path d="M962.5,377.6209220915375C1438.75,377.6209220915375,1438.75,225.20354083222617,1915,225.20354083222617" stroke-width="0.3793109630094076" style="stroke: rgb(191, 105, 180);"></path><path d="M962.5,455.9069911995171C1438.75,455.9069911995171,1438.75,227.08663136148897,1915,227.08663136148897" stroke-width="3.3868700955162083" style="stroke: rgb(191, 105, 170);"></path><path d="M962.5,467.4748592596099C1438.75,467.4748592596099,1438.75,668.7356135518731,1915,668.7356135518731" stroke-width="19.748866024669432" style="stroke: rgb(191, 105, 170);"></path><path d="M962.5,612.8224833912859C1438.75,612.8224833912859,1438.75,334.4104435553789,1915,334.4104435553789" stroke-width="211.26075429226364" style="stroke: rgb(191, 105, 161);"></path><path d="M962.5,1011.726430268709C1438.75,1011.726430268709,1438.75,981.7264302687086,1915,981.7264302687086" stroke-width="586.5471394625825" style="stroke: rgb(191, 105, 161);"></path><path d="M962.5,337.4419529217764C1438.75,337.4419529217764,1438.75,572.4688882725654,1915,572.4688882725654" stroke-width="30.471881976477306" style="stroke: rgb(191, 105, 152);"></path><path d="M962.5,306.39230959164826C1438.75,306.39230959164826,1438.75,551.4192449424373,1915,551.4192449424373" stroke-width="11.627404683778725" style="stroke: rgb(191, 105, 142);"></path><path d="M962.5,300.5781176393667C1438.75,300.5781176393667,1438.75,225.01339574032932,1915,225.01339574032932" stroke-width="0.0009792207843076404" style="stroke: rgb(191, 105, 142);"></path><path d="M962.5,242.79526707945536C1438.75,242.79526707945536,1438.75,497.82318165102924,1915,497.82318165102924" stroke-width="95.56472189903751" style="stroke: rgb(191, 105, 133);"></path><path d="M962.5,195.006453064968C1438.75,195.006453064968,1438.75,225.00645306496858,1915,225.00645306496858" stroke-width="0.0129061299371747" style="stroke: rgb(191, 105, 133);"></path><path d="M962.5,365.05458026002384C1438.75,365.05458026002384,1438.75,590.0815156108129,1915,590.0815156108129" stroke-width="4.75337270001752" style="stroke: rgb(191, 105, 124);"></path><path d="M962.5,492.2706992585493C1438.75,492.2706992585493,1438.75,683.5314535508124,1915,683.5314535508124" stroke-width="9.842813973209422" style="stroke: rgb(191, 105, 114);"></path></g><g class="nodes" font-family="Arial, Helvetica" font-size="10"><g><rect x="957.5" y="194.99999999999943" height="95.57762802897514" width="5" fill="#000"></rect><text x="951.5" y="242.788814014487" dy="0.35em" text-anchor="end">Asia</text></g><g><rect x="957.5" y="300.5776280289746" height="11.62838390456318" width="5" fill="#000"></rect><text x="951.5" y="306.39181998125616" dy="0.35em" text-anchor="end">Australia / Oceania</text></g><g><rect x="957.5" y="322.20601193353775" height="30.471881976477334" width="5" fill="#000"></rect><text x="951.5" y="337.4419529217764" dy="0.35em" text-anchor="end">Canada</text></g><g><rect x="957.5" y="362.6778939100151" height="4.753372700017735" width="5" fill="#000"></rect><text x="951.5" y="365.05458026002395" dy="0.35em" text-anchor="end">Central America</text></g><g><rect x="957.5" y="377.4312666100328" height="66.78228954172619" width="5" fill="#000"></rect><text x="951.5" y="410.8224113808959" dy="0.35em" text-anchor="end">Europe</text></g><g><rect x="957.5" y="454.213556151759" height="23.135736120185584" width="5" fill="#000"></rect><text x="951.5" y="465.7814242118518" dy="0.35em" text-anchor="end">Mexico</text></g><g><rect x="957.5" y="487.3492922719446" height="9.842813973209559" width="5" fill="#000"></rect><text x="951.5" y="492.27069925854937" dy="0.35em" text-anchor="end">Middle East</text></g><g><rect x="957.5" y="507.19210624515415" height="797.8078937548464" width="5" fill="#000"></rect><text x="951.5" y="906.0960531225774" dy="0.35em" text-anchor="end">US</text></g><g><rect x="1915" y="225" height="215.04082070151048" width="5" fill="#000"></rect><text x="1909" y="332.52041035075524" dy="0.35em" text-anchor="end">Low Fare</text></g><g><rect x="1915" y="450.0408207015105" height="824.9591792984896" width="5" fill="#000"></rect><text x="1909" y="862.5204103507554" dy="0.35em" text-anchor="end">Other</text></g><g><rect x="0" y="3.410605131648481e-13" height="2.788468274225579" width="5" fill="#000"></rect><text x="11" y="1.3942341371131306" dy="0.35em" text-anchor="start">Aer Lingus</text></g><g><rect x="0" y="12.78846827422592" height="5.428721690538623" width="5" fill="#000"></rect><text x="11" y="15.502829119495232" dy="0.35em" text-anchor="start">Aeromexico</text></g><g><rect x="0" y="28.217189964764543" height="1.027868472872342" width="5" fill="#000"></rect><text x="11" y="28.731124201200714" dy="0.35em" text-anchor="start">Air Berlin</text></g><g><rect x="0" y="39.245058437636885" height="18.000388976625345" width="5" fill="#000"></rect><text x="11" y="48.24525292594956" dy="0.35em" text-anchor="start">Air Canada</text></g><g><rect x="0" y="67.24544741426223" height="4.880299298079535" width="5" fill="#000"></rect><text x="11" y="69.685597063302" dy="0.35em" text-anchor="start">Air China</text></g><g><rect x="0" y="82.12574671234177" height="6.9877195168191975" width="5" fill="#000"></rect><text x="11" y="85.61960647075136" dy="0.35em" text-anchor="start">Air France</text></g><g><rect x="0" y="99.11346622916096" height="1.4453102932225192" width="5" fill="#000"></rect><text x="11" y="99.83612137577222" dy="0.35em" text-anchor="start">Air India Limited</text></g><g><rect x="0" y="110.55877652238348" height="4.0159802806024345" width="5" fill="#000"></rect><text x="11" y="112.5667666626847" dy="0.35em" text-anchor="start">Air New Zealand</text></g><g><rect x="0" y="124.57475680298592" height="0.2688156897081626" width="5" fill="#000"></rect><text x="11" y="124.70916464784" dy="0.35em" text-anchor="start">Air Pacific Limited dba Fiji Airways</text></g><g><rect x="0" y="134.84357249269408" height="29.77677231052894" width="5" fill="#000"></rect><text x="11" y="149.73195864795855" dy="0.35em" text-anchor="start">Alaska Airlines</text></g><g><rect x="0" y="174.62034480322302" height="3.2657796533285364" width="5" fill="#000"></rect><text x="11" y="176.2532346298873" dy="0.35em" text-anchor="start">All Nippon Airways</text></g><g><rect x="0" y="187.88612445655156" height="91.29469257815413" width="5" fill="#000"></rect><text x="11" y="233.53347074562862" dy="0.35em" text-anchor="start">American Airlines</text></g><g><rect x="0" y="289.1808170347057" height="3.6919365386595473" width="5" fill="#000"></rect><text x="11" y="291.02678530403546" dy="0.35em" text-anchor="start">Asiana Airlines</text></g><g><rect x="0" y="302.87275357336523" height="8.945005604909056" width="5" fill="#000"></rect><text x="11" y="307.34525637581976" dy="0.35em" text-anchor="start">British Airways</text></g><g><rect x="0" y="333.9895729557903" height="9.509389296152676" width="5" fill="#000"></rect><text x="11" y="338.74426760386666" dy="0.35em" text-anchor="start">Cathay Pacific</text></g><g><rect x="0" y="353.498962251943" height="4.583321218614628" width="5" fill="#000"></rect><text x="11" y="355.7906228612503" dy="0.35em" text-anchor="start">China Airlines</text></g><g><rect x="0" y="368.0822834705576" height="3.3596869265438727" width="5" fill="#000"></rect><text x="11" y="369.76212693382956" dy="0.35em" text-anchor="start">China Eastern</text></g><g><rect x="0" y="381.4419703971015" height="2.8616552356447755" width="5" fill="#000"></rect><text x="11" y="382.8727980149239" dy="0.35em" text-anchor="start">China Southern</text></g><g><rect x="0" y="321.8177591782743" height="2.1718137775160358" width="5" fill="#000"></rect><text x="11" y="322.9036660670323" dy="0.35em" text-anchor="start">COPA Airlines, Inc.</text></g><g><rect x="0" y="394.3036256327463" height="81.75373320391577" width="5" fill="#000"></rect><text x="11" y="435.18049223470416" dy="0.35em" text-anchor="start">Delta Air Lines</text></g><g><rect x="0" y="504.07897882638474" height="5.863358627861089" width="5" fill="#000"></rect><text x="11" y="507.0106581403153" dy="0.35em" text-anchor="start">Emirates</text></g><g><rect x="0" y="519.9423374542458" height="2.977790820663813" width="5" fill="#000"></rect><text x="11" y="521.4312328645777" dy="0.35em" text-anchor="start">Etihad Airways</text></g><g><rect x="0" y="486.05735883666205" height="8.021619989722694" width="5" fill="#000"></rect><text x="11" y="490.0681688315234" dy="0.35em" text-anchor="start">EVA Airways</text></g><g><rect x="0" y="532.9201282749096" height="14.3454473991967" width="5" fill="#000"></rect><text x="11" y="540.092851974508" dy="0.35em" text-anchor="start">Frontier Airlines</text></g><g><rect x="0" y="557.2655756741063" height="7.404397544957874" width="5" fill="#000"></rect><text x="11" y="560.9677744465853" dy="0.35em" text-anchor="start">Hawaiian Airlines</text></g><g><rect x="0" y="574.6699732190642" height="2.903370041056405" width="5" fill="#000"></rect><text x="11" y="576.1216582395924" dy="0.35em" text-anchor="start">Japan Airlines</text></g><g><rect x="0" y="587.5733432601206" height="30.260272364988396" width="5" fill="#000"></rect><text x="11" y="602.7034794426148" dy="0.35em" text-anchor="start">JetBlue Airways</text></g><g><rect x="0" y="627.833615625109" height="5.012866207859588" width="5" fill="#000"></rect><text x="11" y="630.3400487290388" dy="0.35em" text-anchor="start">KLM Royal Dutch Airlines</text></g><g><rect x="0" y="642.8464818329686" height="4.325081113377109" width="5" fill="#000"></rect><text x="11" y="645.0090223896572" dy="0.35em" text-anchor="start">Korean Air Lines</text></g><g><rect x="0" y="657.1715629463457" height="9.994338597373144" width="5" fill="#000"></rect><text x="11" y="662.1687322450323" dy="0.35em" text-anchor="start">Lufthansa German Airlines</text></g><g><rect x="0" y="677.1659015437189" height="5.273143092328155" width="5" fill="#000"></rect><text x="11" y="679.8024730898829" dy="0.35em" text-anchor="start">Philippine Airlines</text></g><g><rect x="0" y="692.439044636047" height="3.3076511340659636" width="5" fill="#000"></rect><text x="11" y="694.09287020308" dy="0.35em" text-anchor="start">Qantas Airways</text></g><g><rect x="0" y="705.746695770113" height="2.9846061973225915" width="5" fill="#000"></rect><text x="11" y="707.2389988687743" dy="0.35em" text-anchor="start">SAS Airlines</text></g><g><rect x="0" y="718.7313019674356" height="6.388103461756373" width="5" fill="#000"></rect><text x="11" y="721.9253536983138" dy="0.35em" text-anchor="start">Singapore Airlines</text></g><g><rect x="0" y="735.1194054291919" height="69.48519350381889" width="5" fill="#000"></rect><text x="11" y="769.8620021811014" dy="0.35em" text-anchor="start">Southwest Airlines</text></g><g><rect x="0" y="814.6045989330108" height="3.3822481734141547" width="5" fill="#000"></rect><text x="11" y="816.2957230197179" dy="0.35em" text-anchor="start">Sun Country Airlines</text></g><g><rect x="0" y="827.986847106425" height="3.3458211602383017" width="5" fill="#000"></rect><text x="11" y="829.6597576865441" dy="0.35em" text-anchor="start">Swiss International</text></g><g><rect x="0" y="841.3326682666633" height="0.019192727372228546" width="5" fill="#000"></rect><text x="11" y="841.3422646303494" dy="0.35em" text-anchor="start">Swissport USA</text></g><g><rect x="0" y="851.3518609940355" height="2.5815589225016993" width="5" fill="#000"></rect><text x="11" y="852.6426404552864" dy="0.35em" text-anchor="start">TACA</text></g><g><rect x="0" y="863.9334199165372" height="3.941304903591117" width="5" fill="#000"></rect><text x="11" y="865.9040723683328" dy="0.35em" text-anchor="start">Turkish Airlines</text></g><g><rect x="0" y="877.8747248201283" height="455.68428927628156" width="5" fill="#000"></rect><text x="11" y="1105.7168694582692" dy="0.35em" text-anchor="start">United Airlines</text></g><g><rect x="0" y="1343.55901409641" height="96.03451286251698" width="5" fill="#000"></rect><text x="11" y="1391.5762705276684" dy="0.35em" text-anchor="start">Virgin America</text></g><g><rect x="0" y="1449.593526958927" height="5.526702522216965" width="5" fill="#000"></rect><text x="11" y="1452.3568782200355" dy="0.35em" text-anchor="start">Virgin Atlantic</text></g><g><rect x="0" y="1465.120229481144" height="1.1399500838438144" width="5" fill="#000"></rect><text x="11" y="1465.6902045230659" dy="0.35em" text-anchor="start">Volaris Airlines</text></g><g><rect x="0" y="1487.8850789500523" height="1.6442292033466401" width="5" fill="#000"></rect><text x="11" y="1488.7071935517256" dy="0.35em" text-anchor="start">WestJet Airlines</text></g><g><rect x="0" y="1476.2601795649878" height="1.6248993850645093" width="5" fill="#000"></rect><text x="11" y="1477.07262925752" dy="0.35em" text-anchor="start">WOW Air</text></g><g><rect x="0" y="1499.529308153399" height="0.4706918466008574" width="5" fill="#000"></rect><text x="11" y="1499.7646540766993" dy="0.35em" text-anchor="start">XL Airways France</text></g></g></g></svg>