<svg width="1920" height="1520" xmlns="http://www.w3.org/2000/svg" version="1.1"><g transform="translate(0, 10)"><g class="links" fill="none" stroke-opacity="0.4"><path d="M5,79.09722222222155C481.25,79.09722222222155,481.25,497.372685185186,957.5,497.372685185186" stroke-width="28.055555555555554" style="stroke: rgb(191, 105, 105);"></path><path d="M5,31.041666666665922C481.25,31.041666666665922,481.25,835.9837962962979,957.5,835.9837962962979" stroke-width="14.027777777777777" style="stroke: rgb(191, 114, 105);"></path><path d="M5,1460.1273148148155C481.25,1460.1273148148155,481.25,807.2800925925949,957.5,807.2800925925949" stroke-width="14.027777777777777" style="stroke: rgb(191, 122, 105);"></path><path d="M5,1436.0995370370376C481.25,1436.0995370370376,481.25,909.6296296296314,957.5,909.6296296296314" stroke-width="14.027777777777777" style="stroke: rgb(191, 131, 105);"></path><path d="M5,1412.0717592592598C481.25,1412.0717592592598,481.25,793.252314814817,957.5,793.252314814817" stroke-width="14.027777777777777" style="stroke: rgb(191, 140, 105);"></path><path d="M5,1374.016203703704C481.25,1374.016203703704,481.25,895.6018518518536,957.5,895.6018518518536" stroke-width="14.027777777777777" style="stroke: rgb(191, 149, 105);"></path><path d="M5,1388.0439814814818C481.25,1388.0439814814818,481.25,1287.9861111111127,957.5,1287.9861111111127" stroke-width="14.027777777777777" style="stroke: rgb(191, 149, 105);"></path><path d="M5,1275.1736111111113C481.25,1275.1736111111113,481.25,959.3750000000014,957.5,959.3750000000014" stroke-width="14.027777777777777" style="stroke: rgb(191, 157, 105);"></path><path d="M5,1253.8396990740741C481.25,1253.8396990740741,481.25,874.2679398148165,957.5,874.2679398148165" stroke-width="28.640046296296294" style="stroke: rgb(191, 157, 105);"></path><path d="M5,1228.4143518518522C481.25,1228.4143518518522,481.25,775.133101851854,957.5,775.133101851854" stroke-width="22.210648148148145" style="stroke: rgb(191, 157, 105);"></path><path d="M5,1184.8697916666672C481.25,1184.8697916666672,481.25,543.2552083333342,957.5,543.2552083333342" stroke-width="63.70949074074073" style="stroke: rgb(191, 157, 105);"></path><path d="M5,1145.7089120370376C481.25,1145.7089120370376,481.25,466.0387731481488,957.5,466.0387731481488" stroke-width="14.612268518518517" style="stroke: rgb(191, 157, 105);"></path><path d="M5,1126.420717592593C481.25,1126.420717592593,481.25,399.34317129629665,957.5,399.34317129629665" stroke-width="23.96412037037037" style="stroke: rgb(191, 157, 105);"></path><path d="M5,1319.8871527777778C481.25,1319.8871527777778,481.25,1243.8570601851866,957.5,1243.8570601851866" stroke-width="74.23032407407406" style="stroke: rgb(191, 157, 105);"></path><path d="M5,1282.4797453703707C481.25,1282.4797453703707,481.25,976.6811342592604,957.5,976.6811342592604" stroke-width="0.5844907407407407" style="stroke: rgb(191, 157, 105);"></path><path d="M5,1217.0167824074078C481.25,1217.0167824074078,481.25,621.6406250000013,957.5,621.6406250000013" stroke-width="0.5844907407407407" style="stroke: rgb(191, 157, 105);"></path><path d="M5,1097.424768518519C481.25,1097.424768518519,481.25,757.0138888888911,957.5,757.0138888888911" stroke-width="14.027777777777777" style="stroke: rgb(191, 166, 105);"></path><path d="M5,1045.214120370371C481.25,1045.214120370371,481.25,614.334490740742,957.5,614.334490740742" stroke-width="14.027777777777777" style="stroke: rgb(191, 175, 105);"></path><path d="M5,1010.0173611111117C481.25,1010.0173611111117,481.25,734.8032407407428,957.5,734.8032407407428" stroke-width="14.027777777777777" style="stroke: rgb(191, 183, 105);"></path><path d="M5,977.5144675925928C481.25,977.5144675925928,481.25,858.4866898148165,957.5,858.4866898148165" stroke-width="2.9224537037037033" style="stroke: rgb(189, 191, 105);"></path><path d="M5,985.9895833333336C481.25,985.9895833333336,481.25,1198.5590277777792,957.5,1198.5590277777792" stroke-width="14.027777777777777" style="stroke: rgb(189, 191, 105);"></path><path d="M5,955.5324074074074C481.25,955.5324074074074,481.25,1181.0243055555568,957.5,1181.0243055555568" stroke-width="21.041666666666664" style="stroke: rgb(181, 191, 105);"></path><path d="M5,558.8136574074076C481.25,558.8136574074076,481.25,1100.9490740740753,957.5,1100.9490740740753" stroke-width="44.42129629629629" style="stroke: rgb(172, 191, 105);"></path><path d="M5,927.9976851851851C481.25,927.9976851851851,481.25,380.3472222222226,957.5,380.3472222222226" stroke-width="14.027777777777777" style="stroke: rgb(163, 191, 105);"></path><path d="M5,903.9699074074073C481.25,903.9699074074073,481.25,720.775462962965,957.5,720.775462962965" stroke-width="14.027777777777777" style="stroke: rgb(154, 191, 105);"></path><path d="M5,879.9421296296294C481.25,879.9421296296294,481.25,451.7187500000007,957.5,451.7187500000007" stroke-width="14.027777777777777" style="stroke: rgb(146, 191, 105);"></path><path d="M5,7.013888888888093C481.25,7.013888888888093,481.25,638.946759259261,957.5,638.946759259261" stroke-width="14.027777777777777" style="stroke: rgb(137, 191, 105);"></path><path d="M5,855.9143518518516C481.25,855.9143518518516,481.25,366.31944444444485,957.5,366.31944444444485" stroke-width="14.027777777777777" style="stroke: rgb(128, 191, 105);"></path><path d="M5,831.8865740740738C481.25,831.8865740740738,481.25,706.7476851851872,957.5,706.7476851851872" stroke-width="14.027777777777777" style="stroke: rgb(120, 191, 105);"></path><path d="M5,807.858796296296C481.25,807.858796296296,481.25,352.2916666666671,957.5,352.2916666666671" stroke-width="14.027777777777777" style="stroke: rgb(111, 191, 105);"></path><path d="M5,783.8310185185181C481.25,783.8310185185181,481.25,692.7199074074093,957.5,692.7199074074093" stroke-width="14.027777777777777" style="stroke: rgb(105, 191, 108);"></path><path d="M5,757.173032407407C481.25,757.173032407407,481.25,1160.8593750000014,957.5,1160.8593750000014" stroke-width="19.288194444444443" style="stroke: rgb(105, 191, 117);"></path><path d="M5,730.5150462962957C481.25,730.5150462962957,481.25,338.2638888888893,957.5,338.2638888888893" stroke-width="14.027777777777777" style="stroke: rgb(105, 191, 125);"></path><path d="M5,706.4872685185184C481.25,706.4872685185184,481.25,1144.2013888888903,957.5,1144.2013888888903" stroke-width="14.027777777777777" style="stroke: rgb(105, 191, 134);"></path><path d="M5,682.459490740741C481.25,682.459490740741,481.25,1130.1736111111125,957.5,1130.1736111111125" stroke-width="14.027777777777777" style="stroke: rgb(105, 191, 143);"></path><path d="M5,644.9247685185186C481.25,644.9247685185186,481.25,946.5162037037051,957.5,946.5162037037051" stroke-width="11.689814814814813" style="stroke: rgb(105, 191, 152);"></path><path d="M5,622.0659722222223C481.25,622.0659722222223,481.25,933.6574074074088,957.5,933.6574074074088" stroke-width="14.027777777777777" style="stroke: rgb(105, 191, 160);"></path><path d="M5,598.0381944444445C481.25,598.0381944444445,481.25,324.23611111111154,957.5,324.23611111111154" stroke-width="14.027777777777777" style="stroke: rgb(105, 191, 169);"></path><path d="M5,337.0746527777771C481.25,337.0746527777771,481.25,1057.40451388889,957.5,1057.40451388889" stroke-width="42.66782407407407" style="stroke: rgb(105, 191, 178);"></path><path d="M5,519.5891203703706C481.25,519.5891203703706,481.25,310.20833333333377,957.5,310.20833333333377" stroke-width="14.027777777777777" style="stroke: rgb(105, 191, 186);"></path><path d="M5,495.5613425925927C481.25,495.5613425925927,481.25,296.180555555556,957.5,296.180555555556" stroke-width="14.027777777777777" style="stroke: rgb(105, 186, 191);"></path><path d="M5,471.5335648148149C481.25,471.5335648148149,481.25,282.1527777777782,957.5,282.1527777777782" stroke-width="14.027777777777777" style="stroke: rgb(105, 178, 191);"></path><path d="M5,447.50578703703707C481.25,447.50578703703707,481.25,268.12500000000045,957.5,268.12500000000045" stroke-width="14.027777777777777" style="stroke: rgb(105, 169, 191);"></path><path d="M5,423.478009259259C481.25,423.478009259259,481.25,600.3067129629642,957.5,600.3067129629642" stroke-width="14.027777777777777" style="stroke: rgb(105, 160, 191);"></path><path d="M5,399.4502314814812C481.25,399.4502314814812,481.25,674.0162037037055,957.5,674.0162037037055" stroke-width="14.027777777777777" style="stroke: rgb(105, 152, 191);"></path><path d="M5,375.4224537037031C481.25,375.4224537037031,481.25,254.09722222222265,957.5,254.09722222222265" stroke-width="14.027777777777777" style="stroke: rgb(105, 143, 191);"></path><path d="M5,298.72685185185117C481.25,298.72685185185117,481.25,240.06944444444488,957.5,240.06944444444488" stroke-width="14.027777777777777" style="stroke: rgb(105, 134, 191);"></path><path d="M5,225.60185185185114C481.25,225.60185185185114,481.25,850.0115740740757,957.5,850.0115740740757" stroke-width="14.027777777777777" style="stroke: rgb(105, 125, 191);"></path><path d="M5,257.1643518518511C481.25,257.1643518518511,481.25,1011.521990740742,957.5,1011.521990740742" stroke-width="49.09722222222222" style="stroke: rgb(105, 125, 191);"></path><path d="M5,203.91203703703644C481.25,203.91203703703644,481.25,440.02893518518584,957.5,440.02893518518584" stroke-width="9.351851851851851" style="stroke: rgb(105, 117, 191);"></path><path d="M5,182.22222222222157C481.25,182.22222222222157,481.25,428.33912037037106,957.5,428.33912037037106" stroke-width="14.027777777777777" style="stroke: rgb(105, 108, 191);"></path><path d="M5,158.19444444444375C481.25,158.19444444444375,481.25,226.0416666666671,957.5,226.0416666666671" stroke-width="14.027777777777777" style="stroke: rgb(111, 105, 191);"></path><path d="M5,134.16666666666592C481.25,134.16666666666592,481.25,659.9884259259277,957.5,659.9884259259277" stroke-width="14.027777777777777" style="stroke: rgb(120, 105, 191);"></path><path d="M5,110.13888888888809C481.25,110.13888888888809,481.25,212.01388888888934,957.5,212.01388888888934" stroke-width="14.027777777777777" style="stroke: rgb(128, 105, 191);"></path><path d="M5,1481.2326388888896C481.25,1481.2326388888896,481.25,579.2013888888897,957.5,579.2013888888897" stroke-width="8.18287037037037" style="stroke: rgb(137, 105, 191);"></path><path d="M5,1079.8263888888894C481.25,1079.8263888888894,481.25,1206.1574074074088,957.5,1206.1574074074088" stroke-width="1.1689814814814814" style="stroke: rgb(146, 105, 191);"></path><path d="M5,1065.7349537037042C481.25,1065.7349537037042,481.25,746.4930555555577,957.5,746.4930555555577" stroke-width="7.013888888888888" style="stroke: rgb(154, 105, 191);"></path><path d="M5,51.562499999999304C481.25,51.562499999999304,481.25,649.4675925925943,957.5,649.4675925925943" stroke-width="7.013888888888888" style="stroke: rgb(163, 105, 191);"></path><path d="M5,1497.6620370370379C481.25,1497.6620370370379,481.25,816.6319444444467,957.5,816.6319444444467" stroke-width="4.675925925925926" style="stroke: rgb(172, 105, 191);"></path><path d="M5,663.1076388888889C481.25,663.1076388888889,481.25,683.3680555555574,957.5,683.3680555555574" stroke-width="4.675925925925926" style="stroke: rgb(181, 105, 191);"></path><path d="M5,1027.615740740741C481.25,1027.615740740741,481.25,742.4016203703725,957.5,742.4016203703725" stroke-width="1.1689814814814814" style="stroke: rgb(189, 105, 191);"></path><path d="M962.5,533.3188657407416C1438.75,533.3188657407416,1438.75,672.8790509259262,1915,672.8790509259262" stroke-width="99.94791666666666" style="stroke: rgb(191, 105, 183);"></path><path d="M962.5,888.2957175925942C1438.75,888.2957175925942,1438.75,966.8778935185187,1915,966.8778935185187" stroke-width="56.69560185185185" style="stroke: rgb(191, 105, 175);"></path><path d="M962.5,844.4589120370387C1438.75,844.4589120370387,1438.75,255.48900462962985,1915,255.48900462962985" stroke-width="30.978009259259256" style="stroke: rgb(191, 105, 175);"></path><path d="M962.5,725.4513888888905C1438.75,725.4513888888905,1438.75,845.0115740740742,1915,845.0115740740742" stroke-width="187.037037037037" style="stroke: rgb(191, 105, 166);"></path><path d="M962.5,1028.764467592594C1438.75,1028.764467592594,1438.75,312.7690972222224,1915,312.7690972222224" stroke-width="83.58217592592592" style="stroke: rgb(191, 105, 157);"></path><path d="M962.5,1182.777777777779C1438.75,1182.777777777779,1438.75,1147.7777777777778,1915,1147.7777777777778" stroke-width="224.44444444444443" style="stroke: rgb(191, 105, 157);"></path><path d="M962.5,946.5162037037051C1438.75,946.5162037037051,1438.75,1015.0983796296299,1915,1015.0983796296299" stroke-width="39.74537037037037" style="stroke: rgb(191, 105, 149);"></path><path d="M962.5,447.33506944444514C1438.75,447.33506944444514,1438.75,596.8952546296299,1915,596.8952546296299" stroke-width="52.019675925925924" style="stroke: rgb(191, 105, 140);"></path><path d="M962.5,308.1626157407412C1438.75,308.1626157407412,1438.75,467.7228009259262,1915,467.7228009259262" stroke-width="206.32523148148147" style="stroke: rgb(191, 105, 131);"></path><path d="M962.5,607.6128472222234C1438.75,607.6128472222234,1438.75,737.1730324074076,1915,737.1730324074076" stroke-width="28.640046296296294" style="stroke: rgb(191, 105, 122);"></path><path d="M962.5,976.6811342592604C1438.75,976.6811342592604,1438.75,1035.2633101851854,1915,1035.2633101851854" stroke-width="0.5844907407407407" style="stroke: rgb(191, 105, 114);"></path></g><g class="nodes" font-family="Arial, Helvetica" font-size="10"><g><rect x="957.5" y="205.00000000000045" height="206.3252314814817" width="5" fill="#000"></rect><text x="951.5" y="308.16261574074133" dy="0.35em" text-anchor="end">Asia</text></g><g><rect x="957.5" y="421.32523148148215" height="52.019675925926094" width="5" fill="#000"></rect><text x="951.5" y="447.3350694444452" dy="0.35em" text-anchor="end">Australia / Oceania</text></g><g><rect x="957.5" y="483.34490740740824" height="99.94791666666697" width="5" fill="#000"></rect><text x="951.5" y="533.3188657407418" dy="0.35em" text-anchor="end">Canada</text></g><g><rect x="957.5" y="593.2928240740753" height="28.64004629629676" width="5" fill="#000"></rect><text x="951.5" y="607.6128472222236" dy="0.35em" text-anchor="end">Central America</text></g><g><rect x="957.5" y="631.932870370372" height="187.03703703703695" width="5" fill="#000"></rect><text x="951.5" y="725.4513888888905" dy="0.35em" text-anchor="end">Europe</text></g><g><rect x="957.5" y="828.969907407409" height="87.67361111111086" width="5" fill="#000"></rect><text x="951.5" y="872.8067129629644" dy="0.35em" text-anchor="end">Mexico</text></g><g><rect x="957.5" y="926.6435185185198" height="39.74537037037021" width="5" fill="#000"></rect><text x="951.5" y="946.516203703705" dy="0.35em" text-anchor="end">Middle East</text></g><g><rect x="957.5" y="976.38888888889" height="0.5844907407408755" width="5" fill="#000"></rect><text x="951.5" y="976.6811342592605" dy="0.35em" text-anchor="end">South America</text></g><g><rect x="957.5" y="986.9733796296309" height="308.02662037036873" width="5" fill="#000"></rect><text x="951.5" y="1140.9866898148152" dy="0.35em" text-anchor="end">US</text></g><g><rect x="1915" y="240.00000000000023" height="114.56018518518522" width="5" fill="#000"></rect><text x="1909" y="297.28009259259284" dy="0.35em" text-anchor="end">Low Fare</text></g><g><rect x="1915" y="364.56018518518545" height="895.4398148148143" width="5" fill="#000"></rect><text x="1909" y="812.2800925925926" dy="0.35em" text-anchor="end">Other</text></g><g><rect x="0" y="-7.958078640513122e-13" height="14.027777777777828" width="5" fill="#000"></rect><text x="11" y="7.013888888888118" dy="0.35em" text-anchor="start">Aer Lingus</text></g><g><rect x="0" y="24.027777777777032" height="14.027777777777828" width="5" fill="#000"></rect><text x="11" y="31.041666666665947" dy="0.35em" text-anchor="start">Aeromexico</text></g><g><rect x="0" y="48.05555555555486" height="7.013888888888914" width="5" fill="#000"></rect><text x="11" y="51.56249999999932" dy="0.35em" text-anchor="start">Air Berlin</text></g><g><rect x="0" y="65.06944444444377" height="28.05555555555543" width="5" fill="#000"></rect><text x="11" y="79.09722222222149" dy="0.35em" text-anchor="start">Air Canada</text></g><g><rect x="0" y="103.1249999999992" height="14.027777777777828" width="5" fill="#000"></rect><text x="11" y="110.13888888888812" dy="0.35em" text-anchor="start">Air China</text></g><g><rect x="0" y="127.15277777777703" height="14.027777777777828" width="5" fill="#000"></rect><text x="11" y="134.16666666666595" dy="0.35em" text-anchor="start">Air France</text></g><g><rect x="0" y="151.18055555555486" height="14.027777777777828" width="5" fill="#000"></rect><text x="11" y="158.19444444444377" dy="0.35em" text-anchor="start">Air India Limited</text></g><g><rect x="0" y="175.2083333333327" height="14.027777777777828" width="5" fill="#000"></rect><text x="11" y="182.2222222222216" dy="0.35em" text-anchor="start">Air New Zealand</text></g><g><rect x="0" y="199.23611111111052" height="9.351851851851734" width="5" fill="#000"></rect><text x="11" y="203.91203703703638" dy="0.35em" text-anchor="start">Air Pacific Limited dba Fiji Airways</text></g><g><rect x="0" y="218.58796296296225" height="63.125" width="5" fill="#000"></rect><text x="11" y="250.15046296296225" dy="0.35em" text-anchor="start">Alaska Airlines</text></g><g><rect x="0" y="291.71296296296225" height="14.027777777777828" width="5" fill="#000"></rect><text x="11" y="298.72685185185117" dy="0.35em" text-anchor="start">All Nippon Airways</text></g><g><rect x="0" y="315.7407407407401" height="42.66782407407413" width="5" fill="#000"></rect><text x="11" y="337.07465277777715" dy="0.35em" text-anchor="start">American Airlines</text></g><g><rect x="0" y="368.4085648148142" height="14.027777777778056" width="5" fill="#000"></rect><text x="11" y="375.42245370370324" dy="0.35em" text-anchor="start">Asiana Airlines</text></g><g><rect x="0" y="392.43634259259227" height="14.027777777777828" width="5" fill="#000"></rect><text x="11" y="399.4502314814812" dy="0.35em" text-anchor="start">British Airways</text></g><g><rect x="0" y="440.49189814814815" height="14.027777777777828" width="5" fill="#000"></rect><text x="11" y="447.50578703703707" dy="0.35em" text-anchor="start">Cathay Pacific</text></g><g><rect x="0" y="464.519675925926" height="14.027777777777828" width="5" fill="#000"></rect><text x="11" y="471.5335648148149" dy="0.35em" text-anchor="start">China Airlines</text></g><g><rect x="0" y="488.5474537037038" height="14.027777777777828" width="5" fill="#000"></rect><text x="11" y="495.5613425925927" dy="0.35em" text-anchor="start">China Eastern</text></g><g><rect x="0" y="512.5752314814816" height="14.027777777777828" width="5" fill="#000"></rect><text x="11" y="519.5891203703706" dy="0.35em" text-anchor="start">China Southern</text></g><g><rect x="0" y="416.4641203703701" height="14.027777777778056" width="5" fill="#000"></rect><text x="11" y="423.4780092592591" dy="0.35em" text-anchor="start">COPA Airlines, Inc.</text></g><g><rect x="0" y="536.6030092592595" height="44.42129629629608" width="5" fill="#000"></rect><text x="11" y="558.8136574074075" dy="0.35em" text-anchor="start">Delta Air Lines</text></g><g><rect x="0" y="615.0520833333334" height="14.027777777777828" width="5" fill="#000"></rect><text x="11" y="622.0659722222223" dy="0.35em" text-anchor="start">Emirates</text></g><g><rect x="0" y="639.0798611111112" height="11.689814814814781" width="5" fill="#000"></rect><text x="11" y="644.9247685185186" dy="0.35em" text-anchor="start">Etihad Airways</text></g><g><rect x="0" y="591.0243055555555" height="14.027777777777828" width="5" fill="#000"></rect><text x="11" y="598.0381944444445" dy="0.35em" text-anchor="start">EVA Airways</text></g><g><rect x="0" y="660.769675925926" height="4.675925925926094" width="5" fill="#000"></rect><text x="11" y="663.107638888889" dy="0.35em" text-anchor="start">Finnair</text></g><g><rect x="0" y="675.4456018518521" height="14.027777777777374" width="5" fill="#000"></rect><text x="11" y="682.4594907407408" dy="0.35em" text-anchor="start">Frontier Airlines</text></g><g><rect x="0" y="699.4733796296294" height="14.027777777777374" width="5" fill="#000"></rect><text x="11" y="706.4872685185181" dy="0.35em" text-anchor="start">Hawaiian Airlines</text></g><g><rect x="0" y="723.5011574074068" height="14.027777777778056" width="5" fill="#000"></rect><text x="11" y="730.5150462962958" dy="0.35em" text-anchor="start">Japan Airlines</text></g><g><rect x="0" y="747.5289351851849" height="19.288194444444343" width="5" fill="#000"></rect><text x="11" y="757.173032407407" dy="0.35em" text-anchor="start">JetBlue Airways</text></g><g><rect x="0" y="776.8171296296292" height="14.027777777777828" width="5" fill="#000"></rect><text x="11" y="783.8310185185181" dy="0.35em" text-anchor="start">KLM Royal Dutch Airlines</text></g><g><rect x="0" y="800.844907407407" height="14.027777777777828" width="5" fill="#000"></rect><text x="11" y="807.858796296296" dy="0.35em" text-anchor="start">Korean Air Lines</text></g><g><rect x="0" y="824.8726851851849" height="14.027777777777828" width="5" fill="#000"></rect><text x="11" y="831.8865740740738" dy="0.35em" text-anchor="start">Lufthansa German Airlines</text></g><g><rect x="0" y="848.9004629629627" height="14.027777777777828" width="5" fill="#000"></rect><text x="11" y="855.9143518518516" dy="0.35em" text-anchor="start">Philippine Airlines</text></g><g><rect x="0" y="872.9282407407405" height="14.027777777777828" width="5" fill="#000"></rect><text x="11" y="879.9421296296294" dy="0.35em" text-anchor="start">Qantas Airways</text></g><g><rect x="0" y="896.9560185185184" height="14.027777777777828" width="5" fill="#000"></rect><text x="11" y="903.9699074074073" dy="0.35em" text-anchor="start">SAS Airlines</text></g><g><rect x="0" y="920.9837962962962" height="14.027777777777828" width="5" fill="#000"></rect><text x="11" y="927.9976851851851" dy="0.35em" text-anchor="start">Singapore Airlines</text></g><g><rect x="0" y="945.011574074074" height="21.04166666666697" width="5" fill="#000"></rect><text x="11" y="955.5324074074075" dy="0.35em" text-anchor="start">Southwest Airlines</text></g><g><rect x="0" y="976.053240740741" height="16.95023148148175" width="5" fill="#000"></rect><text x="11" y="984.5283564814819" dy="0.35em" text-anchor="start">Sun Country Airlines</text></g><g><rect x="0" y="1003.0034722222227" height="14.027777777777828" width="5" fill="#000"></rect><text x="11" y="1010.0173611111117" dy="0.35em" text-anchor="start">Swiss International</text></g><g><rect x="0" y="1027.0312500000005" height="1.1689814814815236" width="5" fill="#000"></rect><text x="11" y="1027.6157407407413" dy="0.35em" text-anchor="start">Swissport USA</text></g><g><rect x="0" y="1038.200231481482" height="14.027777777777828" width="5" fill="#000"></rect><text x="11" y="1045.214120370371" dy="0.35em" text-anchor="start">TACA</text></g><g><rect x="0" y="1062.2280092592598" height="7.013888888888914" width="5" fill="#000"></rect><text x="11" y="1065.7349537037044" dy="0.35em" text-anchor="start">Thomas Cook Airlines</text></g><g><rect x="0" y="1079.2418981481487" height="1.1689814814812962" width="5" fill="#000"></rect><text x="11" y="1079.8263888888894" dy="0.35em" text-anchor="start">Trego Dugan Aviation</text></g><g><rect x="0" y="1090.41087962963" height="14.027777777777828" width="5" fill="#000"></rect><text x="11" y="1097.424768518519" dy="0.35em" text-anchor="start">Turkish Airlines</text></g><g><rect x="0" y="1114.4386574074078" height="242.56365740740716" width="5" fill="#000"></rect><text x="11" y="1235.7204861111113" dy="0.35em" text-anchor="start">United Airlines</text></g><g><rect x="0" y="1367.002314814815" height="28.055555555555884" width="5" fill="#000"></rect><text x="11" y="1381.030092592593" dy="0.35em" text-anchor="start">Virgin America</text></g><g><rect x="0" y="1405.057870370371" height="14.027777777777828" width="5" fill="#000"></rect><text x="11" y="1412.0717592592598" dy="0.35em" text-anchor="start">Virgin Atlantic</text></g><g><rect x="0" y="1429.0856481481487" height="14.027777777777828" width="5" fill="#000"></rect><text x="11" y="1436.0995370370376" dy="0.35em" text-anchor="start">Volaris Airlines</text></g><g><rect x="0" y="1477.1412037037044" height="8.182870370370438" width="5" fill="#000"></rect><text x="11" y="1481.2326388888896" dy="0.35em" text-anchor="start">WestJet Airlines</text></g><g><rect x="0" y="1453.1134259259265" height="14.027777777777828" width="5" fill="#000"></rect><text x="11" y="1460.1273148148155" dy="0.35em" text-anchor="start">WOW Air</text></g><g><rect x="0" y="1495.3240740740748" height="4.675925925925867" width="5" fill="#000"></rect><text x="11" y="1497.6620370370379" dy="0.35em" text-anchor="start">XL Airways France</text></g></g></g></svg>