<svg width="1920" height="1520" xmlns="http://www.w3.org/2000/svg" version="1.1"><g transform="translate(0, 10)"><g class="links" fill="none" stroke-opacity="0.4"><path d="M5,49.554991971869626C481.25,49.554991971869626,481.25,341.2900575296759,957.5,341.2900575296759" stroke-width="18.163303794631215" style="stroke: rgb(191, 105, 105);"></path><path d="M5,15.727515128337725C481.25,15.727515128337725,481.25,467.23015830620545,957.5,467.23015830620545" stroke-width="5.904814248110194" style="stroke: rgb(191, 114, 105);"></path><path d="M5,1476.0216389766422C481.25,1476.0216389766422,481.25,452.48418861862973,957.5,452.48418861862973" stroke-width="2.720052009440003" style="stroke: rgb(191, 122, 105);"></path><path d="M5,1463.717718377453C481.25,1463.717718377453,481.25,488.2154753521232,957.5,488.2154753521232" stroke-width="1.8877891889382061" style="stroke: rgb(191, 131, 105);"></path><path d="M5,1450.1389972956301C481.25,1450.1389972956301,481.25,448.4893361265561,957.5,448.4893361265561" stroke-width="5.269652974707236" style="stroke: rgb(191, 140, 105);"></path><path d="M5,1343.3039245043394C481.25,1343.3039245043394,481.25,486.23834455867114,957.5,486.23834455867114" stroke-width="2.06647239796594" style="stroke: rgb(191, 149, 105);"></path><path d="M5,1390.920665755799C481.25,1390.920665755799,481.25,1248.416494947524,957.5,1248.416494947524" stroke-width="93.16701010495326" style="stroke: rgb(191, 149, 105);"></path><path d="M5,955.9590374427264C481.25,955.9590374427264,481.25,506.67602398063394,957.5,506.67602398063394" stroke-width="2.4692152324087657" style="stroke: rgb(191, 157, 105);"></path><path d="M5,949.1047922431238C481.25,949.1047922431238,481.25,479.58547077628987,957.5,479.58547077628987" stroke-width="11.239275166796505" style="stroke: rgb(191, 157, 105);"></path><path d="M5,936.5451592506063C481.25,936.5451592506063,481.25,438.9145142300831,957.5,438.9145142300831" stroke-width="13.879990818238673" style="stroke: rgb(191, 157, 105);"></path><path d="M5,924.7077223205791C481.25,924.7077223205791,481.25,355.2680292023586,957.5,355.2680292023586" stroke-width="9.792639550734284" style="stroke: rgb(191, 157, 105);"></path><path d="M5,917.7155386048133C481.25,917.7155386048133,481.25,320.11254169196155,957.5,320.11254169196155" stroke-width="4.1917278807973215" style="stroke: rgb(191, 157, 105);"></path><path d="M5,898.1082497702764C481.25,898.1082497702764,481.25,282.96491551833805,957.5,282.96491551833805" stroke-width="35.02284978827635" style="stroke: rgb(191, 157, 105);"></path><path d="M5,1144.7328994352788C481.25,1144.7328994352788,481.25,1014.2952010249701,957.5,1014.2952010249701" stroke-width="375.0755777401546" style="stroke: rgb(191, 157, 105);"></path><path d="M5,957.1943778120663C481.25,957.1943778120663,481.25,517.9113643499742,957.5,517.9113643499742" stroke-width="0.0014655062708835989" style="stroke: rgb(191, 157, 105);"></path><path d="M5,929.6046029687167C481.25,929.6046029687167,481.25,377.8855949242512,957.5,377.8855949242512" stroke-width="0.0011217455406763348" style="stroke: rgb(191, 157, 105);"></path><path d="M5,868.7119666997419C481.25,868.7119666997419,481.25,430.08966064456735,957.5,430.08966064456735" stroke-width="3.769716352792878" style="stroke: rgb(191, 166, 105);"></path><path d="M5,835.1003079121646C481.25,835.1003079121646,481.25,376.64118108090094,957.5,376.64118108090094" stroke-width="2.4877059411599145" style="stroke: rgb(191, 175, 105);"></path><path d="M5,812.1138865684887C481.25,812.1138865684887,481.25,425.98674063451864,957.5,425.98674063451864" stroke-width="3.4798536865481107" style="stroke: rgb(191, 183, 105);"></path><path d="M5,797.2915567671312C481.25,797.2915567671312,481.25,473.93727391327945,957.5,473.93727391327945" stroke-width="0.057118559224438537" style="stroke: rgb(189, 191, 105);"></path><path d="M5,798.8470378859791C481.25,798.8470378859791,481.25,825.2230361356127,957.5,825.2230361356127" stroke-width="3.053843678471256" style="stroke: rgb(189, 191, 105);"></path><path d="M5,753.7482350689967C481.25,753.7482350689967,481.25,790.1813518778549,957.5,790.1813518778549" stroke-width="67.02952483704416" style="stroke: rgb(181, 191, 105);"></path><path d="M5,422.79464889400344C481.25,422.79464889400344,481.25,672.7105486105982,957.5,672.7105486105982" stroke-width="76.83976855569907" style="stroke: rgb(172, 191, 105);"></path><path d="M5,707.3132162010289C481.25,707.3132162010289,481.25,262.53323417475417,957.5,262.53323417475417" stroke-width="5.840512898891425" style="stroke: rgb(163, 191, 105);"></path><path d="M5,693.0670293834986C481.25,693.0670293834986,481.25,422.92088342316015,957.5,422.92088342316015" stroke-width="2.6518607361688886" style="stroke: rgb(154, 191, 105);"></path><path d="M5,680.0800923987277C481.25,680.0800923987277,481.25,316.3556711348764,957.5,316.3556711348764" stroke-width="3.322013233372944" style="stroke: rgb(146, 191, 105);"></path><path d="M5,1.3875540021411443C481.25,1.3875540021411443,481.25,389.2737097991632,957.5,389.2737097991632" stroke-width="2.775108004283198" style="stroke: rgb(137, 191, 105);"></path><path d="M5,665.9445693973194C481.25,665.9445693973194,481.25,257.13846134058645,957.5,257.13846134058645" stroke-width="4.9490327694439245" style="stroke: rgb(128, 191, 105);"></path><path d="M5,648.8795717310949C481.25,648.8795717310949,481.25,417.0044717735729,957.5,417.0044717735729" stroke-width="9.180962563005485" style="stroke: rgb(120, 191, 105);"></path><path d="M5,631.6333940673809C481.25,631.6333940673809,481.25,252.0082485736533,957.5,252.0082485736533" stroke-width="5.311392764422402" style="stroke: rgb(111, 191, 105);"></path><path d="M5,616.4351528612067C481.25,616.4351528612067,481.25,409.87144566810724,957.5,409.87144566810724" stroke-width="5.085089647925957" style="stroke: rgb(105, 191, 108);"></path><path d="M5,589.5753897555212C481.25,589.5753897555212,481.25,742.3493711776105,957.5,742.3493711776105" stroke-width="28.634436563444584" style="stroke: rgb(105, 191, 117);"></path><path d="M5,563.9239908481895C481.25,563.9239908481895,481.25,248.01837156583267,957.5,248.01837156583267" stroke-width="2.6683612512188373" style="stroke: rgb(105, 191, 125);"></path><path d="M5,549.2314488151553C481.25,549.2314488151553,481.25,724.6737914884633,957.5,724.6737914884633" stroke-width="6.716722814849719" style="stroke: rgb(105, 191, 134);"></path><path d="M5,530.7805888114351C481.25,530.7805888114351,481.25,716.2229314847431,957.5,716.2229314847431" stroke-width="10.184997192590847" style="stroke: rgb(105, 191, 143);"></path><path d="M5,504.6881354826421C481.25,504.6881354826421,481.25,504.88055264042646,957.5,504.88055264042646" stroke-width="1.121727448006324" style="stroke: rgb(105, 191, 152);"></path><path d="M5,491.54711227372337C481.25,491.54711227372337,481.25,501.7395294315076,957.5,501.7395294315076" stroke-width="5.160318969831315" style="stroke: rgb(105, 191, 160);"></path><path d="M5,475.0907429803305C481.25,475.0907429803305,481.25,242.80798113174617,957.5,242.80798113174617" stroke-width="7.752419616954172" style="stroke: rgb(105, 191, 169);"></path><path d="M5,230.06683002377204C481.25,230.06683002377204,481.25,595.4072368028845,957.5,595.4072368028845" stroke-width="77.76685505972803" style="stroke: rgb(105, 191, 178);"></path><path d="M5,372.6161389984238C481.25,372.6161389984238,481.25,237.17314570553876,957.5,237.17314570553876" stroke-width="3.517251235460659" style="stroke: rgb(105, 191, 186);"></path><path d="M5,358.8853309324894C481.25,358.8853309324894,481.25,233.44233763960432,957.5,233.44233763960432" stroke-width="3.944364896408179" style="stroke: rgb(105, 186, 191);"></path><path d="M5,344.62368392843496C481.25,344.62368392843496,481.25,229.18069063554987,957.5,229.18069063554987" stroke-width="4.578929111700777" style="stroke: rgb(105, 178, 191);"></path><path d="M5,327.9016599612722C481.25,327.9016599612722,481.25,222.45866666838694,957.5,222.45866666838694" stroke-width="8.865118822625053" style="stroke: rgb(105, 169, 191);"></path><path d="M5,311.9450102135806C481.25,311.9450102135806,481.25,373.8732377739421,957.5,373.8732377739421" stroke-width="3.0481806727578418" style="stroke: rgb(105, 160, 191);"></path><path d="M5,296.39004487913655C481.25,296.39004487913655,481.25,402.8589348375841,957.5,402.8589348375841" stroke-width="8.061749996130677" style="stroke: rgb(105, 152, 191);"></path><path d="M5,280.6547137173537C481.25,280.6547137173537,481.25,216.32165109335676,957.5,216.32165109335676" stroke-width="3.408912327435338" style="stroke: rgb(105, 143, 191);"></path><path d="M5,179.69467428106543C481.25,179.69467428106543,481.25,213.12846671679648,957.5,213.12846671679648" stroke-width="2.9774564256852" style="stroke: rgb(105, 134, 191);"></path><path d="M5,137.73115929660815C481.25,137.73115929660815,481.25,472.0456400319639,957.5,472.0456400319639" stroke-width="3.72614920340661" style="stroke: rgb(105, 125, 191);"></path><path d="M5,153.9000899832669C481.25,153.9000899832669,481.25,542.217953188065,957.5,542.217953188065" stroke-width="28.61171216991088" style="stroke: rgb(105, 125, 191);"></path><path d="M5,125.5708764046357C481.25,125.5708764046357,481.25,314.3974562279207,957.5,314.3974562279207" stroke-width="0.5944165805383921" style="stroke: rgb(105, 117, 191);"></path><path d="M5,113.46171435177885C481.25,113.46171435177885,481.25,312.2882941750641,957.5,312.2882941750641" stroke-width="3.6239075251749653" style="stroke: rgb(105, 108, 191);"></path><path d="M5,100.46426552573149C481.25,100.46426552573149,481.25,210.4542434404941,957.5,210.4542434404941" stroke-width="2.370990126919543" style="stroke: rgb(111, 105, 191);"></path><path d="M5,86.09208135424534C481.25,86.09208135424534,481.25,395.6413707314925,957.5,395.6413707314925" stroke-width="6.373378216052706" style="stroke: rgb(120, 105, 191);"></path><path d="M5,70.77101805770215C481.25,70.77101805770215,481.25,207.13437418851746,957.5,207.13437418851746" stroke-width="4.268748377033759" style="stroke: rgb(128, 105, 191);"></path><path d="M5,1488.4740642112804C481.25,1488.4740642112804,481.25,361.2567482076444,957.5,361.2567482076444" stroke-width="2.1847984598372823" style="stroke: rgb(137, 105, 191);"></path><path d="M5,856.8233814333232C481.25,856.8233814333232,481.25,826.7536850648705,957.5,826.7536850648705" stroke-width="0.007454180044494355" style="stroke: rgb(146, 105, 191);"></path><path d="M5,846.5819076130226C481.25,846.5819076130226,481.25,427.96705573789257,957.5,427.96705573789257" stroke-width="0.4754934605566896" style="stroke: rgb(154, 105, 191);"></path><path d="M5,29.576631163473426C481.25,29.576631163473426,481.25,391.5579727123855,957.5,391.5579727123855" stroke-width="1.7934178221613069" style="stroke: rgb(163, 105, 191);"></path><path d="M5,1499.7832317205998C481.25,1499.7832317205998,481.25,454.0609829027504,957.5,454.0609829027504" stroke-width="0.4335365588013925" style="stroke: rgb(172, 105, 191);"></path><path d="M5,515.4685447108922C481.25,515.4685447108922,481.25,407.10935533989687,957.5,407.10935533989687" stroke-width="0.4390910084947415" style="stroke: rgb(181, 105, 191);"></path><path d="M5,823.8551341766738C481.25,823.8551341766738,481.25,427.7279882427035,957.5,427.7279882427035" stroke-width="0.0026415298215926595" style="stroke: rgb(189, 105, 191);"></path><path d="M962.5,347.27877653496165C1438.75,347.27877653496165,1438.75,578.3674232376374,1915,578.3674232376374" stroke-width="30.14074180520278" style="stroke: rgb(191, 105, 183);"></path><path d="M962.5,478.72425063743566C1438.75,478.72425063743566,1438.75,675.8015171939834,1915,675.8015171939834" stroke-width="20.87023861831331" style="stroke: rgb(191, 105, 175);"></path><path d="M962.5,466.28344125521465C1438.75,466.28344125521465,1438.75,242.00569007306407,1915,242.00569007306407" stroke-width="4.011380146128585" style="stroke: rgb(191, 105, 175);"></path><path d="M962.5,421.0819534895864C1438.75,421.0819534895864,1438.75,632.1706001922619,1915,632.1706001922619" stroke-width="66.39159538512953" style="stroke: rgb(191, 105, 166);"></path><path d="M962.5,628.950730381384C1438.75,628.950730381384,1438.75,345.05001342440266,1915,345.05001342440266" stroke-width="202.0772665565486" style="stroke: rgb(191, 105, 157);"></path><path d="M962.5,1012.4946818298295C1438.75,1012.4946818298295,1438.75,977.4946818298286,1915,977.4946818298286" stroke-width="565.0106363403423" style="stroke: rgb(191, 105, 157);"></path><path d="M962.5,503.53500077171515C1438.75,503.53500077171515,1438.75,690.6122673282632,1915,690.6122673282632" stroke-width="8.751261650246406" style="stroke: rgb(191, 105, 149);"></path><path d="M962.5,316.3423730224184C1438.75,316.3423730224184,1438.75,557.4310197250941,1915,557.4310197250941" stroke-width="11.732065219883623" style="stroke: rgb(191, 105, 140);"></path><path d="M962.5,252.73817020623838C1438.75,252.73817020623838,1438.75,503.82681690891445,1915,503.82681690891445" stroke-width="95.47634041247562" style="stroke: rgb(191, 105, 131);"></path><path d="M962.5,375.1176516172924C1438.75,375.1176516172924,1438.75,596.2062983199679,1915,596.2062983199679" stroke-width="5.537008359458433" style="stroke: rgb(191, 105, 122);"></path><path d="M962.5,517.9113643499742C1438.75,517.9113643499742,1438.75,694.988630906522,1915,694.988630906522" stroke-width="0.0014655062708835989" style="stroke: rgb(191, 105, 114);"></path></g><g class="nodes" font-family="Arial, Helvetica" font-size="10"><g><rect x="957.5" y="205.00000000000057" height="95.47634041247602" width="5" fill="#000"></rect><text x="951.5" y="252.73817020623858" dy="0.35em" text-anchor="end">Asia</text></g><g><rect x="957.5" y="310.4763404124766" height="11.73206521988368" width="5" fill="#000"></rect><text x="951.5" y="316.3423730224184" dy="0.35em" text-anchor="end">Australia / Oceania</text></g><g><rect x="957.5" y="332.20840563236027" height="30.14074180520288" width="5" fill="#000"></rect><text x="951.5" y="347.2787765349617" dy="0.35em" text-anchor="end">Canada</text></g><g><rect x="957.5" y="372.34914743756315" height="5.5370083594584685" width="5" fill="#000"></rect><text x="951.5" y="375.1176516172924" dy="0.35em" text-anchor="end">Central America</text></g><g><rect x="957.5" y="387.8861557970216" height="66.39159538512877" width="5" fill="#000"></rect><text x="951.5" y="421.081953489586" dy="0.35em" text-anchor="end">Europe</text></g><g><rect x="957.5" y="464.2777511821504" height="24.881618764441555" width="5" fill="#000"></rect><text x="951.5" y="476.71856056437116" dy="0.35em" text-anchor="end">Mexico</text></g><g><rect x="957.5" y="499.15936994659194" height="8.75126165024676" width="5" fill="#000"></rect><text x="951.5" y="503.5350007717153" dy="0.35em" text-anchor="end">Middle East</text></g><g><rect x="957.5" y="517.9106315968387" height="0.0014655062709607591" width="5" fill="#000"></rect><text x="951.5" y="517.9113643499742" dy="0.35em" text-anchor="end">South America</text></g><g><rect x="957.5" y="527.9120971031097" height="767.0879028968898" width="5" fill="#000"></rect><text x="951.5" y="911.4560485515545" dy="0.35em" text-anchor="end">US</text></g><g><rect x="1915" y="239.99999999999977" height="206.0886467026769" width="5" fill="#000"></rect><text x="1909" y="343.0443233513382" dy="0.35em" text-anchor="end">Low Fare</text></g><g><rect x="1915" y="456.08864670267667" height="803.9113532973234" width="5" fill="#000"></rect><text x="1909" y="858.0443233513383" dy="0.35em" text-anchor="end">Other</text></g><g><rect x="0" y="-4.547473508864641e-13" height="2.7751080042830836" width="5" fill="#000"></rect><text x="11" y="1.387554002141087" dy="0.35em" text-anchor="start">Aer Lingus</text></g><g><rect x="0" y="12.775108004282629" height="5.904814248110142" width="5" fill="#000"></rect><text x="11" y="15.7275151283377" dy="0.35em" text-anchor="start">Aeromexico</text></g><g><rect x="0" y="28.67992225239277" height="1.7934178221612456" width="5" fill="#000"></rect><text x="11" y="29.576631163473394" dy="0.35em" text-anchor="start">Air Berlin</text></g><g><rect x="0" y="40.47334007455402" height="18.163303794631247" width="5" fill="#000"></rect><text x="11" y="49.55499197186964" dy="0.35em" text-anchor="start">Air Canada</text></g><g><rect x="0" y="68.63664386918526" height="4.268748377033717" width="5" fill="#000"></rect><text x="11" y="70.77101805770212" dy="0.35em" text-anchor="start">Air China</text></g><g><rect x="0" y="82.90539224621898" height="6.373378216052743" width="5" fill="#000"></rect><text x="11" y="86.09208135424535" dy="0.35em" text-anchor="start">Air France</text></g><g><rect x="0" y="99.27877046227172" height="2.3709901269196507" width="5" fill="#000"></rect><text x="11" y="100.46426552573155" dy="0.35em" text-anchor="start">Air India Limited</text></g><g><rect x="0" y="111.64976058919137" height="3.6239075251751274" width="5" fill="#000"></rect><text x="11" y="113.46171435177894" dy="0.35em" text-anchor="start">Air New Zealand</text></g><g><rect x="0" y="125.2736681143665" height="0.5944165805383363" width="5" fill="#000"></rect><text x="11" y="125.57087640463567" dy="0.35em" text-anchor="start">Air Pacific Limited dba Fiji Airways</text></g><g><rect x="0" y="135.86808469490484" height="32.33786137331799" width="5" fill="#000"></rect><text x="11" y="152.03701538156383" dy="0.35em" text-anchor="start">Alaska Airlines</text></g><g><rect x="0" y="178.20594606822283" height="2.9774564256852045" width="5" fill="#000"></rect><text x="11" y="179.69467428106543" dy="0.35em" text-anchor="start">All Nippon Airways</text></g><g><rect x="0" y="191.18340249390803" height="77.76685505972796" width="5" fill="#000"></rect><text x="11" y="230.066830023772" dy="0.35em" text-anchor="start">American Airlines</text></g><g><rect x="0" y="278.950257553636" height="3.408912327435246" width="5" fill="#000"></rect><text x="11" y="280.6547137173536" dy="0.35em" text-anchor="start">Asiana Airlines</text></g><g><rect x="0" y="292.35916988107124" height="8.061749996130402" width="5" fill="#000"></rect><text x="11" y="296.39004487913644" dy="0.35em" text-anchor="start">British Airways</text></g><g><rect x="0" y="323.46910054995965" height="8.865118822624936" width="5" fill="#000"></rect><text x="11" y="327.9016599612721" dy="0.35em" text-anchor="start">Cathay Pacific</text></g><g><rect x="0" y="342.3342193725846" height="4.578929111700745" width="5" fill="#000"></rect><text x="11" y="344.62368392843496" dy="0.35em" text-anchor="start">China Airlines</text></g><g><rect x="0" y="356.91314848428533" height="3.9443648964081603" width="5" fill="#000"></rect><text x="11" y="358.8853309324894" dy="0.35em" text-anchor="start">China Eastern</text></g><g><rect x="0" y="370.8575133806935" height="3.517251235460435" width="5" fill="#000"></rect><text x="11" y="372.6161389984237" dy="0.35em" text-anchor="start">China Southern</text></g><g><rect x="0" y="310.42091987720164" height="3.048180672758008" width="5" fill="#000"></rect><text x="11" y="311.94501021358064" dy="0.35em" text-anchor="start">COPA Airlines, Inc.</text></g><g><rect x="0" y="384.3747646161539" height="76.8397685556995" width="5" fill="#000"></rect><text x="11" y="422.79464889400367" dy="0.35em" text-anchor="start">Delta Air Lines</text></g><g><rect x="0" y="488.9669527888077" height="5.1603189698312235" width="5" fill="#000"></rect><text x="11" y="491.5471122737233" dy="0.35em" text-anchor="start">Emirates</text></g><g><rect x="0" y="504.1272717586389" height="1.1217274480059132" width="5" fill="#000"></rect><text x="11" y="504.6881354826419" dy="0.35em" text-anchor="start">Etihad Airways</text></g><g><rect x="0" y="471.2145331718534" height="7.752419616954285" width="5" fill="#000"></rect><text x="11" y="475.09074298033056" dy="0.35em" text-anchor="start">EVA Airways</text></g><g><rect x="0" y="515.2489992066448" height="0.43909100849487004" width="5" fill="#000"></rect><text x="11" y="515.4685447108923" dy="0.35em" text-anchor="start">Finnair</text></g><g><rect x="0" y="525.6880902151397" height="10.1849971925908" width="5" fill="#000"></rect><text x="11" y="530.7805888114351" dy="0.35em" text-anchor="start">Frontier Airlines</text></g><g><rect x="0" y="545.8730874077305" height="6.716722814849618" width="5" fill="#000"></rect><text x="11" y="549.2314488151553" dy="0.35em" text-anchor="start">Hawaiian Airlines</text></g><g><rect x="0" y="562.5898102225801" height="2.668361251218812" width="5" fill="#000"></rect><text x="11" y="563.9239908481895" dy="0.35em" text-anchor="start">Japan Airlines</text></g><g><rect x="0" y="575.2581714737989" height="28.63443656344475" width="5" fill="#000"></rect><text x="11" y="589.5753897555213" dy="0.35em" text-anchor="start">JetBlue Airways</text></g><g><rect x="0" y="613.8926080372437" height="5.085089647925997" width="5" fill="#000"></rect><text x="11" y="616.4351528612067" dy="0.35em" text-anchor="start">KLM Royal Dutch Airlines</text></g><g><rect x="0" y="628.9776976851697" height="5.311392764422408" width="5" fill="#000"></rect><text x="11" y="631.6333940673809" dy="0.35em" text-anchor="start">Korean Air Lines</text></g><g><rect x="0" y="644.2890904495921" height="9.180962563005323" width="5" fill="#000"></rect><text x="11" y="648.8795717310948" dy="0.35em" text-anchor="start">Lufthansa German Airlines</text></g><g><rect x="0" y="663.4700530125974" height="4.949032769443875" width="5" fill="#000"></rect><text x="11" y="665.9445693973194" dy="0.35em" text-anchor="start">Philippine Airlines</text></g><g><rect x="0" y="678.4190857820413" height="3.3220132333728998" width="5" fill="#000"></rect><text x="11" y="680.0800923987277" dy="0.35em" text-anchor="start">Qantas Airways</text></g><g><rect x="0" y="691.7410990154142" height="2.6518607361690556" width="5" fill="#000"></rect><text x="11" y="693.0670293834987" dy="0.35em" text-anchor="start">SAS Airlines</text></g><g><rect x="0" y="704.3929597515832" height="5.8405128988913475" width="5" fill="#000"></rect><text x="11" y="707.3132162010289" dy="0.35em" text-anchor="start">Singapore Airlines</text></g><g><rect x="0" y="720.2334726504746" height="67.02952483704439" width="5" fill="#000"></rect><text x="11" y="753.7482350689968" dy="0.35em" text-anchor="start">Southwest Airlines</text></g><g><rect x="0" y="797.262997487519" height="3.1109622376957304" width="5" fill="#000"></rect><text x="11" y="798.8184786063669" dy="0.35em" text-anchor="start">Sun Country Airlines</text></g><g><rect x="0" y="810.3739597252147" height="3.4798536865482674" width="5" fill="#000"></rect><text x="11" y="812.1138865684889" dy="0.35em" text-anchor="start">Swiss International</text></g><g><rect x="0" y="823.853813411763" height="0.0026415298216306837" width="5" fill="#000"></rect><text x="11" y="823.8551341766738" dy="0.35em" text-anchor="start">Swissport USA</text></g><g><rect x="0" y="833.8564549415846" height="2.4877059411596747" width="5" fill="#000"></rect><text x="11" y="835.1003079121645" dy="0.35em" text-anchor="start">TACA</text></g><g><rect x="0" y="846.3441608827443" height="0.4754934605566632" width="5" fill="#000"></rect><text x="11" y="846.5819076130226" dy="0.35em" text-anchor="start">Thomas Cook Airlines</text></g><g><rect x="0" y="856.819654343301" height="0.007454180044533132" width="5" fill="#000"></rect><text x="11" y="856.8233814333232" dy="0.35em" text-anchor="start">Trego Dugan Aviation</text></g><g><rect x="0" y="866.8271085233455" height="3.769716352792784" width="5" fill="#000"></rect><text x="11" y="868.7119666997419" dy="0.35em" text-anchor="start">Turkish Airlines</text></g><g><rect x="0" y="880.5968248761383" height="451.67386342921833" width="5" fill="#000"></rect><text x="11" y="1106.4337565907474" dy="0.35em" text-anchor="start">United Airlines</text></g><g><rect x="0" y="1342.2706883053565" height="95.23348250291991" width="5" fill="#000"></rect><text x="11" y="1389.8874295568164" dy="0.35em" text-anchor="start">Virgin America</text></g><g><rect x="0" y="1447.5041708082765" height="5.269652974707242" width="5" fill="#000"></rect><text x="11" y="1450.1389972956301" dy="0.35em" text-anchor="start">Virgin Atlantic</text></g><g><rect x="0" y="1462.7738237829838" height="1.8877891889383136" width="5" fill="#000"></rect><text x="11" y="1463.717718377453" dy="0.35em" text-anchor="start">Volaris Airlines</text></g><g><rect x="0" y="1487.3816649813618" height="2.1847984598373387" width="5" fill="#000"></rect><text x="11" y="1488.4740642112806" dy="0.35em" text-anchor="start">WestJet Airlines</text></g><g><rect x="0" y="1474.661612971922" height="2.720052009439769" width="5" fill="#000"></rect><text x="11" y="1476.021638976642" dy="0.35em" text-anchor="start">WOW Air</text></g><g><rect x="0" y="1499.5664634411992" height="0.43353655880127917" width="5" fill="#000"></rect><text x="11" y="1499.7832317205998" dy="0.35em" text-anchor="start">XL Airways France</text></g></g></g></svg>