<svg width="1920" height="1520" xmlns="http://www.w3.org/2000/svg" version="1.1"><g transform="translate(0, 10)">

    <g class="links" fill="none" stroke-opacity="0.4"><path d="M5,792.734864189098C481.25,792.734864189098,481.25,281.08374465574934,957.5,281.08374465574934" stroke-width="5.520761790859221" style="stroke: rgb(191, 105, 105);"></path><path d="M5,1476.428469468815C481.25,1476.428469468815,481.25,471.9049712007789,957.5,471.9049712007789" stroke-width="2.1686888569706624" style="stroke: rgb(191, 114, 105);"></path><path d="M5,1464.7672538043757C481.25,1464.7672538043757,481.25,505.5385880374858,957.5,505.5385880374858" stroke-width="1.1537424719083924" style="stroke: rgb(191, 122, 105);"></path><path d="M5,1451.515660596896C481.25,1451.515660596896,481.25,468.14590480076794,957.5,468.14590480076794" stroke-width="5.349443943051255" style="stroke: rgb(191, 131, 105);"></path><path d="M5,1408.7535351914214C481.25,1408.7535351914214,481.25,504.38744284907017,957.5,504.38744284907017" stroke-width="1.1485479049229212" style="stroke: rgb(191, 139, 105);"></path><path d="M5,1424.0843738846265C481.25,1424.0843738846265,481.25,1265.2434352592568,957.5,1265.2434352592568" stroke-width="29.51312948148725" style="stroke: rgb(191, 139, 105);"></path><path d="M5,1025.81668742479C481.25,1025.81668742479,481.25,522.9675217219124,957.5,522.9675217219124" stroke-width="2.8985683778929467" style="stroke: rgb(191, 148, 105);"></path><path d="M5,1019.1039096610486C481.25,1019.1039096610486,481.25,498.54967532181377,957.5,498.54967532181377" stroke-width="10.526987149589901" style="stroke: rgb(191, 148, 105);"></path><path d="M5,1005.9154698298564C481.25,1005.9154698298564,481.25,457.546236572845,957.5,457.546236572845" stroke-width="15.84989251279459" style="stroke: rgb(191, 148, 105);"></path><path d="M5,993.4786649832978C481.25,993.4786649832978,481.25,372.36268420975824,957.5,372.36268420975824" stroke-width="9.023717180322475" style="stroke: rgb(191, 148, 105);"></path><path d="M5,986.8493774546034C481.25,986.8493774546034,481.25,336.1775149279514,957.5,336.1775149279514" stroke-width="4.234857877066348" style="stroke: rgb(191, 148, 105);"></path><path d="M5,968.9358960614205C481.25,968.9358960614205,481.25,299.6401780058288,957.5,299.6401780058288" stroke-width="31.592104909299593" style="stroke: rgb(191, 148, 105);"></path><path d="M5,1212.7226164263482C481.25,1212.7226164263482,481.25,1065.0302257059013,957.5,1065.0302257059013" stroke-width="370.91328962522357" style="stroke: rgb(191, 148, 105);"></path><path d="M5,941.1631222871594C481.25,941.1631222871594,481.25,447.6445689968362,957.5,447.6445689968362" stroke-width="3.95344263922308" style="stroke: rgb(191, 156, 105);"></path><path d="M5,917.1957503222742C481.25,917.1957503222742,481.25,394.11165466916333,957.5,394.11165466916333" stroke-width="2.7241475049220414" style="stroke: rgb(191, 165, 105);"></path><path d="M5,905.8328365243273C481.25,905.8328365243273,481.25,879.5727408478035,957.5,879.5727408478035" stroke-width="0.001680090972198616" style="stroke: rgb(191, 174, 105);"></path><path d="M5,893.9713300147021C481.25,893.9713300147021,481.25,443.17860432027265,957.5,443.17860432027265" stroke-width="3.721332928278212" style="stroke: rgb(191, 182, 105);"></path><path d="M5,879.4758008801632C481.25,879.4758008801632,481.25,493.2600031866663,957.5,493.2600031866663" stroke-width="0.05235712070504667" style="stroke: rgb(191, 191, 105);"></path><path d="M5,880.8063214955392C481.25,880.8063214955392,481.25,878.2675587472938,957.5,878.2675587472938" stroke-width="2.6086841100469633" style="stroke: rgb(191, 191, 105);"></path><path d="M5,837.4724337021693C481.25,837.4724337021693,481.25,844.9860280746287,957.5,844.9860280746287" stroke-width="63.954377235283374" style="stroke: rgb(182, 191, 105);"></path><path d="M5,183.457983343963C481.25,183.457983343963,481.25,578.6021441368787,957.5,578.6021441368787" stroke-width="88.37067645203923" style="stroke: rgb(174, 191, 105);"></path><path d="M5,137.3886802494041C481.25,137.3886802494041,481.25,491.3498597577745,957.5,491.3498597577745" stroke-width="3.767929737078578" style="stroke: rgb(174, 191, 105);"></path><path d="M5,479.5990124002049C481.25,479.5990124002049,481.25,736.2072522957221,957.5,736.2072522957221" stroke-width="75.36150918509476" style="stroke: rgb(165, 191, 105);"></path><path d="M5,778.6758672629784C481.25,778.6758672629784,481.25,440.0193218254439,957.5,440.0193218254439" stroke-width="2.597232061379324" style="stroke: rgb(156, 191, 105);"></path><path d="M5,765.5780966702746C481.25,765.5780966702746,481.25,332.2609314274041,957.5,332.2609314274041" stroke-width="3.5983091240282397" style="stroke: rgb(148, 191, 105);"></path><path d="M5,751.3416187054848C481.25,751.3416187054848,481.25,275.8860403575443,957.5,275.8860403575443" stroke-width="4.87464680555084" style="stroke: rgb(139, 191, 105);"></path><path d="M5,734.5822269891579C481.25,734.5822269891579,481.25,434.39863748120246,957.5,434.39863748120246" stroke-width="8.644136627103602" style="stroke: rgb(131, 191, 105);"></path><path d="M5,717.3805427525067C481.25,717.3805427525067,481.25,270.5691010316695,957.5,270.5691010316695" stroke-width="5.759231846198841" style="stroke: rgb(122, 191, 105);"></path><path d="M5,701.8815021377878C481.25,701.8815021377878,481.25,427.45714447603143,957.5,427.45714447603143" stroke-width="5.238849383238466" style="stroke: rgb(114, 191, 105);"></path><path d="M5,675.802937243027C481.25,675.802937243027,481.25,799.5496992538457,957.5,799.5496992538457" stroke-width="26.91828040628278" style="stroke: rgb(105, 191, 105);"></path><path d="M5,48.73229430102588C481.25,48.73229430102588,481.25,358.0728847430408,957.5,358.0728847430408" stroke-width="19.555881753112416" style="stroke: rgb(105, 191, 114);"></path><path d="M5,651.0443152480314C481.25,651.0443152480314,481.25,266.39000331671616,957.5,266.39000331671616" stroke-width="2.598963583707814" style="stroke: rgb(105, 191, 122);"></path><path d="M5,603.3597334352635C481.25,603.3597334352635,481.25,782.8070441147528,957.5,782.8070441147528" stroke-width="6.567029871903194" style="stroke: rgb(105, 191, 131);"></path><path d="M5,587.258457354046C481.25,587.258457354046,481.25,776.7057680335354,957.5,776.7057680335354" stroke-width="5.635522290531645" style="stroke: rgb(105, 191, 139);"></path><path d="M5,549.5733097963594C481.25,549.5733097963594,481.25,518.816848403203,957.5,518.816848403203" stroke-width="5.402778259525845" style="stroke: rgb(105, 191, 148);"></path><path d="M5,532.0758438296742C481.25,532.0758438296742,481.25,258.75162400568405,957.5,258.75162400568405" stroke-width="9.592153673844816" style="stroke: rgb(105, 191, 156);"></path><path d="M5,288.25780644434144C481.25,288.25780644434144,481.25,660.6569900330364,957.5,660.6569900330364" stroke-width="75.73901534027652" style="stroke: rgb(105, 191, 165);"></path><path d="M5,430.08941878117025C481.25,430.08941878117025,481.25,252.12670814227442,957.5,252.12670814227442" stroke-width="3.657678052974401" style="stroke: rgb(105, 191, 174);"></path><path d="M5,416.208545785675C481.25,416.208545785675,481.25,248.24583514677906,957.5,248.24583514677906" stroke-width="4.104067938016315" style="stroke: rgb(105, 191, 182);"></path><path d="M5,402.1147726908097C481.25,402.1147726908097,481.25,244.15206205191382,957.5,244.15206205191382" stroke-width="4.083478251714166" style="stroke: rgb(105, 191, 191);"></path><path d="M5,385.4758674984886C481.25,385.4758674984886,481.25,237.51315685959284,957.5,237.51315685959284" stroke-width="9.194332132927787" style="stroke: rgb(105, 182, 191);"></path><path d="M5,369.0029484367059C481.25,369.0029484367059,481.25,390.87382792138425,957.5,390.87382792138425" stroke-width="3.7515059906360646" style="stroke: rgb(105, 174, 191);"></path><path d="M5,353.3268039465963C481.25,353.3268039465963,481.25,417.9980780084843,957.5,417.9980780084843" stroke-width="7.6007829895828305" style="stroke: rgb(105, 165, 191);"></path><path d="M5,337.82686328314264C481.25,337.82686328314264,481.25,231.2164416244666,957.5,231.2164416244666" stroke-width="3.3990983373246895" style="stroke: rgb(105, 156, 191);"></path><path d="M5,239.015810172093C481.25,239.015810172093,481.25,228.14440385369414,957.5,228.14440385369414" stroke-width="2.7449772042202185" style="stroke: rgb(105, 148, 191);"></path><path d="M5,125.08706705209701C481.25,125.08706705209701,481.25,329.3586171323946,957.5,329.3586171323946" stroke-width="0.8352966575350323" style="stroke: rgb(105, 139, 191);"></path><path d="M5,112.91704955175562C481.25,112.91704955175562,481.25,327.188599632053,957.5,327.188599632053" stroke-width="3.5047383431480355" style="stroke: rgb(105, 131, 191);"></path><path d="M5,99.69433505083381C481.25,99.69433505083381,481.25,225.30156992223607,957.5,225.30156992223607" stroke-width="2.9406906586959263" style="stroke: rgb(105, 122, 191);"></path><path d="M5,85.28272474597786C481.25,85.28272474597786,481.25,411.256421538185,957.5,411.256421538185" stroke-width="5.882529951015703" style="stroke: rgb(105, 114, 191);"></path><path d="M5,70.42584747402593C481.25,70.42584747402593,481.25,221.91561229644395,957.5,221.91561229644395" stroke-width="3.8312245928883457" style="stroke: rgb(105, 105, 191);"></path><path d="M5,26.366721882931348C481.25,26.366721882931348,481.25,486.878263347697,957.5,486.878263347697" stroke-width="5.175263083076378" style="stroke: rgb(114, 105, 191);"></path><path d="M5,12.358376270866737C481.25,12.358376270866737,481.25,406.8944424921508,957.5,406.8944424921508" stroke-width="2.8414281410527633" style="stroke: rgb(122, 105, 191);"></path><path d="M5,617.414658712343C481.25,617.414658712343,481.25,264.3191111837344,957.5,264.3191111837344" stroke-width="1.5428206822558168" style="stroke: rgb(131, 105, 191);"></path><path d="M5,0.4688311001698847C481.25,0.4688311001698847,481.25,483.8218007059882,957.5,483.8218007059882" stroke-width="0.9376622003411337" style="stroke: rgb(139, 105, 191);"></path><path d="M5,1488.5745799603735C481.25,1488.5745799603735,481.25,377.9363088629927,957.5,377.9363088629927" stroke-width="2.123532126146467" style="stroke: rgb(148, 105, 191);"></path><path d="M5,628.5550290316157C481.25,628.5550290316157,481.25,423.6479153598505,957.5,423.6479153598505" stroke-width="0.737919956289235" style="stroke: rgb(156, 105, 191);"></path><path d="M5,928.8721125211414C481.25,928.8721125211414,481.25,445.35355923081823,957.5,445.35355923081823" stroke-width="0.6285768928128801" style="stroke: rgb(165, 105, 191);"></path><path d="M5,574.0267937971292C481.25,574.0267937971292,481.25,422.865052970055,957.5,422.865052970055" stroke-width="0.8278048233018609" style="stroke: rgb(174, 105, 191);"></path><path d="M5,573.2701356833644C481.25,573.2701356833644,481.25,330.11902116327605,957.5,330.11902116327605" stroke-width="0.6855114042278965" style="stroke: rgb(174, 105, 191);"></path><path d="M5,562.6010394536864C481.25,562.6010394536864,481.25,422.12481003083985,957.5,422.12481003083985" stroke-width="0.6526810551283011" style="stroke: rgb(182, 105, 191);"></path><path d="M5,1499.8181730117237C481.25,1499.8181730117237,481.25,473.17114261754114,957.5,473.17114261754114" stroke-width="0.36365397655384735" style="stroke: rgb(191, 105, 191);"></path><path d="M5,639.3344112329689C481.25,639.3344112329689,481.25,424.42729756120366,957.5,424.42729756120366" stroke-width="0.8208444464170381" style="stroke: rgb(191, 105, 182);"></path><path d="M962.5,267.71811523023916C1438.75,267.71811523023916,1438.75,438.70275625140806,1915,438.70275625140806" stroke-width="95.4362304604788" style="stroke: rgb(191, 105, 174);"></path><path d="M962.5,439.41334901372124C1438.75,439.41334901372124,1438.75,570.3979900348893,1915,570.3979900348893" stroke-width="67.87924118419365" style="stroke: rgb(191, 105, 165);"></path><path d="M962.5,484.5302933545858C1438.75,484.5302933545858,1438.75,251.17732374876766,1915,251.17732374876766" stroke-width="2.3546474975363605" style="stroke: rgb(191, 105, 156);"></path><path d="M962.5,495.911538188397C1438.75,495.911538188397,1438.75,614.5415317120292,1915,614.5415317120292" stroke-width="20.407842170085992" style="stroke: rgb(191, 105, 156);"></path><path d="M962.5,598.731802672675C1438.75,598.731802672675,1438.75,316.66964425935186,1915,316.66964425935186" stroke-width="128.629993523632" style="stroke: rgb(191, 105, 148);"></path><path d="M962.5,971.5233997172458C1438.75,971.5233997172458,1438.75,941.5233997172456,1915,941.5233997172456" stroke-width="616.9532005655094" style="stroke: rgb(191, 105, 148);"></path><path d="M962.5,520.2661325921496C1438.75,520.2661325921496,1438.75,628.8961261157816,1915,628.8961261157816" stroke-width="8.301346637418792" style="stroke: rgb(191, 105, 139);"></path><path d="M962.5,363.64650939627523C1438.75,363.64650939627523,1438.75,514.6311504174437,1915,514.6311504174437" stroke-width="30.70313105958136" style="stroke: rgb(191, 105, 131);"></path><path d="M962.5,331.8655871634818C1438.75,331.8655871634818,1438.75,492.85022818465023,1915,492.85022818465023" stroke-width="12.858713406005553" style="stroke: rgb(191, 105, 122);"></path><path d="M962.5,392.2359016738453C1438.75,392.2359016738453,1438.75,533.2205426950135,1915,533.2205426950135" stroke-width="6.475653495558106" style="stroke: rgb(191, 105, 114);"></path></g><g class="nodes" font-family="Arial, Helvetica" font-size="10"><g><rect x="957.5" y="219.99999999999977" height="95.43623046047924" width="5" fill="#000"></rect><text x="951.5" y="267.7181152302394" dy="0.35em" text-anchor="end">Asia</text></g><g><rect x="957.5" y="325.436230460479" height="12.858713406005563" width="5" fill="#000"></rect><text x="951.5" y="331.8655871634818" dy="0.35em" text-anchor="end">Australia / Oceania</text></g><g><rect x="957.5" y="348.2949438664846" height="30.703131059581665" width="5" fill="#000"></rect><text x="951.5" y="363.6465093962754" dy="0.35em" text-anchor="end">Canada</text></g><g><rect x="957.5" y="388.99807492606624" height="6.475653495558163" width="5" fill="#000"></rect><text x="951.5" y="392.2359016738453" dy="0.35em" text-anchor="end">Central America</text></g><g><rect x="957.5" y="405.4737284216244" height="67.87924118419323" width="5" fill="#000"></rect><text x="951.5" y="439.413349013721" dy="0.35em" text-anchor="end">Europe</text></g><g><rect x="957.5" y="483.35296960581763" height="22.762489667622503" width="5" fill="#000"></rect><text x="951.5" y="494.7342144396289" dy="0.35em" text-anchor="end">Mexico</text></g><g><rect x="957.5" y="516.1154592734401" height="8.301346637418874" width="5" fill="#000"></rect><text x="951.5" y="520.2661325921496" dy="0.35em" text-anchor="end">Middle East</text></g><g><rect x="957.5" y="534.416805910859" height="745.5831940891412" width="5" fill="#000"></rect><text x="951.5" y="907.2084029554296" dy="0.35em" text-anchor="end">US</text></g><g><rect x="1915" y="249.9999999999995" height="130.98464102116918" width="5" fill="#000"></rect><text x="1909" y="315.4923205105841" dy="0.35em" text-anchor="end">Low Fare</text></g><g><rect x="1915" y="390.98464102116867" height="859.0153589788318" width="5" fill="#000"></rect><text x="1909" y="820.4923205105846" dy="0.35em" text-anchor="end">Other</text></g><g><rect x="0" y="-6.821210263296962e-13" height="0.9376622003410375" width="5" fill="#000"></rect><text x="11" y="0.46883110016983665" dy="0.35em" text-anchor="start">ABC Aerolineas S.A. de C.V. dba Interjet</text></g><g><rect x="0" y="10.937662200340355" height="2.841428141052802" width="5" fill="#000"></rect><text x="11" y="12.358376270866756" dy="0.35em" text-anchor="start">Aer Lingus</text></g><g><rect x="0" y="23.779090341393157" height="5.175263083076516" width="5" fill="#000"></rect><text x="11" y="26.366721882931415" dy="0.35em" text-anchor="start">Aeromexico</text></g><g><rect x="0" y="38.95435342446967" height="19.55588175311209" width="5" fill="#000"></rect><text x="11" y="48.73229430102572" dy="0.35em" text-anchor="start">Air Canada</text></g><g><rect x="0" y="68.51023517758176" height="3.8312245928882476" width="5" fill="#000"></rect><text x="11" y="70.42584747402589" dy="0.35em" text-anchor="start">Air China</text></g><g><rect x="0" y="82.34145977047001" height="5.88252995101584" width="5" fill="#000"></rect><text x="11" y="85.28272474597793" dy="0.35em" text-anchor="start">Air France</text></g><g><rect x="0" y="98.22398972148585" height="2.9406906586957575" width="5" fill="#000"></rect><text x="11" y="99.69433505083373" dy="0.35em" text-anchor="start">Air India Limited</text></g><g><rect x="0" y="111.16468038018161" height="3.504738343147892" width="5" fill="#000"></rect><text x="11" y="112.91704955175555" dy="0.35em" text-anchor="start">Air New Zealand</text></g><g><rect x="0" y="124.6694187233295" height="0.8352966575353094" width="5" fill="#000"></rect><text x="11" y="125.08706705209715" dy="0.35em" text-anchor="start">Air Pacific Limited dba Fiji Airways</text></g><g><rect x="0" y="135.5047153808648" height="92.1386061891181" width="5" fill="#000"></rect><text x="11" y="181.57401847542386" dy="0.35em" text-anchor="start">Alaska Airlines</text></g><g><rect x="0" y="237.6433215699829" height="2.7449772042202767" width="5" fill="#000"></rect><text x="11" y="239.01581017209304" dy="0.35em" text-anchor="start">All Nippon Airways</text></g><g><rect x="0" y="250.38829877420318" height="75.73901534027709" width="5" fill="#000"></rect><text x="11" y="288.2578064443417" dy="0.35em" text-anchor="start">American Airlines</text></g><g><rect x="0" y="336.12731411448027" height="3.399098337324631" width="5" fill="#000"></rect><text x="11" y="337.8268632831426" dy="0.35em" text-anchor="start">Asiana Airlines</text></g><g><rect x="0" y="349.5264124518049" height="7.600782989582967" width="5" fill="#000"></rect><text x="11" y="353.3268039465964" dy="0.35em" text-anchor="start">British Airways</text></g><g><rect x="0" y="380.8787014320247" height="9.194332132927912" width="5" fill="#000"></rect><text x="11" y="385.47586749848864" dy="0.35em" text-anchor="start">Cathay Pacific</text></g><g><rect x="0" y="400.0730335649526" height="4.0834782517142685" width="5" fill="#000"></rect><text x="11" y="402.11477269080973" dy="0.35em" text-anchor="start">China Airlines</text></g><g><rect x="0" y="414.15651181666686" height="4.104067938016215" width="5" fill="#000"></rect><text x="11" y="416.20854578567497" dy="0.35em" text-anchor="start">China Eastern</text></g><g><rect x="0" y="428.2605797546831" height="3.657678052974461" width="5" fill="#000"></rect><text x="11" y="430.0894187811703" dy="0.35em" text-anchor="start">China Southern</text></g><g><rect x="0" y="367.12719544138787" height="3.751505990636815" width="5" fill="#000"></rect><text x="11" y="369.0029484367063" dy="0.35em" text-anchor="start">COPA Airlines, Inc.</text></g><g><rect x="0" y="441.91825780765754" height="75.36150918509429" width="5" fill="#000"></rect><text x="11" y="479.5990124002047" dy="0.35em" text-anchor="start">Delta Air Lines</text></g><g><rect x="0" y="546.8719206665965" height="5.402778259525803" width="5" fill="#000"></rect><text x="11" y="549.5733097963594" dy="0.35em" text-anchor="start">Emirates</text></g><g><rect x="0" y="527.2797669927518" height="9.592153673844678" width="5" fill="#000"></rect><text x="11" y="532.0758438296741" dy="0.35em" text-anchor="start">EVA Airways</text></g><g><rect x="0" y="562.2746989261223" height="0.6526810551281415" width="5" fill="#000"></rect><text x="11" y="562.6010394536863" dy="0.35em" text-anchor="start">Finnair</text></g><g><rect x="0" y="572.9273799812504" height="1.5133162275296854" width="5" fill="#000"></rect><text x="11" y="573.6840380950152" dy="0.35em" text-anchor="start">French Bee</text></g><g><rect x="0" y="584.4406962087801" height="5.635522290531753" width="5" fill="#000"></rect><text x="11" y="587.258457354046" dy="0.35em" text-anchor="start">Frontier Airlines</text></g><g><rect x="0" y="600.0762184993118" height="6.567029871903287" width="5" fill="#000"></rect><text x="11" y="603.3597334352635" dy="0.35em" text-anchor="start">Hawaiian Airlines</text></g><g><rect x="0" y="616.6432483712151" height="1.5428206822559787" width="5" fill="#000"></rect><text x="11" y="617.4146587123431" dy="0.35em" text-anchor="start">Hong Kong Airlines Limited</text></g><g><rect x="0" y="628.1860690534711" height="0.7379199562892609" width="5" fill="#000"></rect><text x="11" y="628.5550290316157" dy="0.35em" text-anchor="start">Iberia</text></g><g><rect x="0" y="638.9239890097604" height="0.8208444464171407" width="5" fill="#000"></rect><text x="11" y="639.3344112329689" dy="0.35em" text-anchor="start">Icelandair EHF</text></g><g><rect x="0" y="649.7448334561775" height="2.598963583708155" width="5" fill="#000"></rect><text x="11" y="651.0443152480316" dy="0.35em" text-anchor="start">Japan Airlines</text></g><g><rect x="0" y="662.3437970398857" height="26.918280406282975" width="5" fill="#000"></rect><text x="11" y="675.8029372430271" dy="0.35em" text-anchor="start">JetBlue Airways</text></g><g><rect x="0" y="699.2620774461686" height="5.23884938323863" width="5" fill="#000"></rect><text x="11" y="701.881502137788" dy="0.35em" text-anchor="start">KLM Royal Dutch Airlines</text></g><g><rect x="0" y="714.5009268294073" height="5.7592318461988725" width="5" fill="#000"></rect><text x="11" y="717.3805427525067" dy="0.35em" text-anchor="start">Korean Air Lines</text></g><g><rect x="0" y="730.2601586756061" height="8.644136627103308" width="5" fill="#000"></rect><text x="11" y="734.5822269891578" dy="0.35em" text-anchor="start">Lufthansa German Airlines</text></g><g><rect x="0" y="748.9042953027094" height="4.874646805551038" width="5" fill="#000"></rect><text x="11" y="751.341618705485" dy="0.35em" text-anchor="start">Philippine Airlines</text></g><g><rect x="0" y="763.7789421082605" height="3.5983091240282192" width="5" fill="#000"></rect><text x="11" y="765.5780966702746" dy="0.35em" text-anchor="start">Qantas Airways</text></g><g><rect x="0" y="777.3772512322887" height="2.5972320613796" width="5" fill="#000"></rect><text x="11" y="778.6758672629785" dy="0.35em" text-anchor="start">SAS Airlines</text></g><g><rect x="0" y="789.9744832936683" height="5.5207617908592965" width="5" fill="#000"></rect><text x="11" y="792.734864189098" dy="0.35em" text-anchor="start">Singapore Airlines</text></g><g><rect x="0" y="805.4952450845276" height="63.95437723528312" width="5" fill="#000"></rect><text x="11" y="837.4724337021692" dy="0.35em" text-anchor="start">Southwest Airlines</text></g><g><rect x="0" y="879.4496223198107" height="2.6610412307522893" width="5" fill="#000"></rect><text x="11" y="880.7801429351869" dy="0.35em" text-anchor="start">Sun Country Airlines</text></g><g><rect x="0" y="892.110663550563" height="3.721332928278116" width="5" fill="#000"></rect><text x="11" y="893.9713300147021" dy="0.35em" text-anchor="start">Swiss International</text></g><g><rect x="0" y="905.8319964788411" height="0.0016800909720586787" width="5" fill="#000"></rect><text x="11" y="905.8328365243271" dy="0.35em" text-anchor="start">Swissport USA</text></g><g><rect x="0" y="915.8336765698132" height="2.7241475049218025" width="5" fill="#000"></rect><text x="11" y="917.1957503222741" dy="0.35em" text-anchor="start">TACA</text></g><g><rect x="0" y="928.557824074735" height="0.6285768928128164" width="5" fill="#000"></rect><text x="11" y="928.8721125211414" dy="0.35em" text-anchor="start">Thomas Cook Airlines</text></g><g><rect x="0" y="939.1864009675478" height="3.953442639222885" width="5" fill="#000"></rect><text x="11" y="941.1631222871592" dy="0.35em" text-anchor="start">Turkish Airlines</text></g><g><rect x="0" y="953.1398436067707" height="445.0394176321892" width="5" fill="#000"></rect><text x="11" y="1175.6595524228653" dy="0.35em" text-anchor="start">United Airlines</text></g><g><rect x="0" y="1408.17926123896" height="30.661677386410474" width="5" fill="#000"></rect><text x="11" y="1423.5100999321653" dy="0.35em" text-anchor="start">Virgin America</text></g><g><rect x="0" y="1448.8409386253704" height="5.349443943051028" width="5" fill="#000"></rect><text x="11" y="1451.515660596896" dy="0.35em" text-anchor="start">Virgin Atlantic</text></g><g><rect x="0" y="1464.1903825684215" height="1.1537424719081173" width="5" fill="#000"></rect><text x="11" y="1464.7672538043755" dy="0.35em" text-anchor="start">Volaris Airlines</text></g><g><rect x="0" y="1487.5128138973002" height="2.1235321261465288" width="5" fill="#000"></rect><text x="11" y="1488.5745799603735" dy="0.35em" text-anchor="start">WestJet Airlines</text></g><g><rect x="0" y="1475.3441250403296" height="2.1686888569706753" width="5" fill="#000"></rect><text x="11" y="1476.428469468815" dy="0.35em" text-anchor="start">WOW Air</text></g><g><rect x="0" y="1499.6363460234468" height="0.3636539765539055" width="5" fill="#000"></rect><text x="11" y="1499.8181730117237" dy="0.35em" text-anchor="start">XL Airways France</text></g></g></g></svg>