<svg width="1920" height="1520" xmlns="http://www.w3.org/2000/svg" version="1.1"><g transform="translate(0, 10)"><g class="links" fill="none" stroke-opacity="0.4"><path d="M5,1005.8189655172431C481.25,1005.8189655172431,481.25,395.49030172413796,957.5,395.49030172413796" stroke-width="12.801724137931036" style="stroke: rgb(191, 105, 105);"></path><path d="M5,1459.4639008620693C481.25,1459.4639008620693,481.25,835.2774784482765,957.5,835.2774784482765" stroke-width="17.602370689655174" style="stroke: rgb(191, 114, 105);"></path><path d="M5,1434.2618534482763C481.25,1434.2618534482763,481.25,935.1562500000006,957.5,935.1562500000006" stroke-width="12.801724137931036" style="stroke: rgb(191, 122, 105);"></path><path d="M5,1411.4601293103456C481.25,1411.4601293103456,481.25,820.0754310344834,957.5,820.0754310344834" stroke-width="12.801724137931036" style="stroke: rgb(191, 131, 105);"></path><path d="M5,1388.6584051724142C481.25,1388.6584051724142,481.25,926.6217672413799,957.5,926.6217672413799" stroke-width="4.267241379310345" style="stroke: rgb(191, 139, 105);"></path><path d="M5,1392.9256465517244C481.25,1392.9256465517244,481.25,1277.8663793103447,957.5,1277.8663793103447" stroke-width="4.267241379310345" style="stroke: rgb(191, 139, 105);"></path><path d="M5,1306.382004310345C481.25,1306.382004310345,481.25,970.4929956896557,957.5,970.4929956896557" stroke-width="12.268318965517242" style="stroke: rgb(191, 148, 105);"></path><path d="M5,1287.4461206896553C481.25,1287.4461206896553,481.25,911.6864224137937,957.5,911.6864224137937" stroke-width="25.60344827586207" style="stroke: rgb(191, 148, 105);"></path><path d="M5,1266.1099137931037C481.25,1266.1099137931037,481.25,805.1400862068972,957.5,805.1400862068972" stroke-width="17.06896551724138" style="stroke: rgb(191, 148, 105);"></path><path d="M5,1230.1050646551726C481.25,1230.1050646551726,481.25,561.9100215517249,957.5,561.9100215517249" stroke-width="54.9407327586207" style="stroke: rgb(191, 148, 105);"></path><path d="M5,1196.233836206897C481.25,1196.233836206897,481.25,492.4353448275868,957.5,492.4353448275868" stroke-width="12.801724137931036" style="stroke: rgb(191, 148, 105);"></path><path d="M5,1181.2984913793107C481.25,1181.2984913793107,481.25,410.4256465517242,957.5,410.4256465517242" stroke-width="17.06896551724138" style="stroke: rgb(191, 148, 105);"></path><path d="M5,1344.5204741379314C481.25,1344.5204741379314,481.25,1243.728448275862,957.5,1243.728448275862" stroke-width="64.00862068965517" style="stroke: rgb(191, 148, 105);"></path><path d="M5,1156.3631465517246C481.25,1156.3631465517246,481.25,790.2047413793109,957.5,790.2047413793109" stroke-width="12.801724137931036" style="stroke: rgb(191, 156, 105);"></path><path d="M5,1117.1605603448284C481.25,1117.1605603448284,481.25,626.0506465517244,957.5,626.0506465517244" stroke-width="12.801724137931036" style="stroke: rgb(191, 165, 105);"></path><path d="M5,1100.4929956896563C481.25,1100.4929956896563,481.25,1211.4574353448277,957.5,1211.4574353448277" stroke-width="0.5334051724137931" style="stroke: rgb(191, 174, 105);"></path><path d="M5,1083.8254310344842C481.25,1083.8254310344842,481.25,771.0021551724144,957.5,771.0021551724144" stroke-width="12.801724137931036" style="stroke: rgb(191, 182, 105);"></path><path d="M5,1053.022629310347C481.25,1053.022629310347,481.25,897.2844827586213,957.5,897.2844827586213" stroke-width="3.200431034482759" style="stroke: rgb(191, 191, 105);"></path><path d="M5,1061.023706896554C481.25,1061.023706896554,481.25,1204.7898706896553,957.5,1204.7898706896553" stroke-width="12.801724137931036" style="stroke: rgb(191, 191, 105);"></path><path d="M5,1031.8211206896572C481.25,1031.8211206896572,481.25,1188.7877155172416,957.5,1188.7877155172416" stroke-width="19.202586206896555" style="stroke: rgb(182, 191, 105);"></path><path d="M5,260.9563577586213C481.25,260.9563577586213,481.25,1017.831357758621,957.5,1017.831357758621" stroke-width="62.4084051724138" style="stroke: rgb(174, 191, 105);"></path><path d="M5,222.8178879310351C481.25,222.8178879310351,481.25,888.7500000000006,957.5,888.7500000000006" stroke-width="13.868534482758623" style="stroke: rgb(174, 191, 105);"></path><path d="M5,560.183189655174C481.25,560.183189655174,481.25,1114.6443965517246,957.5,1114.6443965517246" stroke-width="33.071120689655174" style="stroke: rgb(165, 191, 105);"></path><path d="M5,983.0172413793122C481.25,983.0172413793122,481.25,758.2004310344834,957.5,758.2004310344834" stroke-width="12.801724137931036" style="stroke: rgb(156, 191, 105);"></path><path d="M5,960.215517241381C481.25,960.215517241381,481.25,479.63362068965574,957.5,479.63362068965574" stroke-width="12.801724137931036" style="stroke: rgb(148, 191, 105);"></path><path d="M5,937.4137931034498C481.25,937.4137931034498,481.25,382.6885775862069,957.5,382.6885775862069" stroke-width="12.801724137931036" style="stroke: rgb(139, 191, 105);"></path><path d="M5,914.6120689655189C481.25,914.6120689655189,481.25,745.3987068965523,957.5,745.3987068965523" stroke-width="12.801724137931036" style="stroke: rgb(131, 191, 105);"></path><path d="M5,891.810344827588C481.25,891.810344827588,481.25,369.8868534482759,957.5,369.8868534482759" stroke-width="12.801724137931036" style="stroke: rgb(122, 191, 105);"></path><path d="M5,869.008620689657C481.25,869.008620689657,481.25,732.5969827586213,957.5,732.5969827586213" stroke-width="12.801724137931036" style="stroke: rgb(114, 191, 105);"></path><path d="M5,841.4062500000022C481.25,841.4062500000022,481.25,1167.9849137931037,957.5,1167.9849137931037" stroke-width="22.403017241379313" style="stroke: rgb(105, 191, 105);"></path><path d="M5,79.07327586206883C481.25,79.07327586206883,481.25,521.6379310344835,957.5,521.6379310344835" stroke-width="25.60344827586207" style="stroke: rgb(105, 191, 114);"></path><path d="M5,813.8038793103468C481.25,813.8038793103468,481.25,357.0851293103448,957.5,357.0851293103448" stroke-width="12.801724137931036" style="stroke: rgb(105, 191, 122);"></path><path d="M5,728.4644396551745C481.25,728.4644396551745,481.25,1150.3825431034486,957.5,1150.3825431034486" stroke-width="12.801724137931036" style="stroke: rgb(105, 191, 131);"></path><path d="M5,705.6627155172433C481.25,705.6627155172433,481.25,1137.5808189655177,957.5,1137.5808189655177" stroke-width="12.801724137931036" style="stroke: rgb(105, 191, 139);"></path><path d="M5,615.9213362068984C481.25,615.9213362068984,481.25,957.9579741379315,957.5,957.9579741379315" stroke-width="12.801724137931036" style="stroke: rgb(105, 191, 148);"></path><path d="M5,593.1196120689673C481.25,593.1196120689673,481.25,328.8146551724138,957.5,328.8146551724138" stroke-width="12.801724137931036" style="stroke: rgb(105, 191, 156);"></path><path d="M5,349.498922413794C481.25,349.498922413794,481.25,1073.5721982758623,957.5,1073.5721982758623" stroke-width="49.07327586206897" style="stroke: rgb(105, 191, 165);"></path><path d="M5,527.2467672413808C481.25,527.2467672413808,481.25,316.01293103448273,957.5,316.01293103448273" stroke-width="12.801724137931036" style="stroke: rgb(105, 191, 174);"></path><path d="M5,504.4450431034497C481.25,504.4450431034497,481.25,303.2112068965517,957.5,303.2112068965517" stroke-width="12.801724137931036" style="stroke: rgb(105, 191, 182);"></path><path d="M5,481.6433189655185C481.25,481.6433189655185,481.25,290.40948275862064,957.5,290.40948275862064" stroke-width="12.801724137931036" style="stroke: rgb(105, 191, 191);"></path><path d="M5,458.84159482758736C481.25,458.84159482758736,481.25,277.6077586206896,957.5,277.6077586206896" stroke-width="12.801724137931036" style="stroke: rgb(105, 182, 191);"></path><path d="M5,436.03987068965597C481.25,436.03987068965597,481.25,613.2489224137934,957.5,613.2489224137934" stroke-width="12.801724137931036" style="stroke: rgb(105, 174, 191);"></path><path d="M5,413.23814655172504C481.25,413.23814655172504,481.25,674.4558189655178,957.5,674.4558189655178" stroke-width="12.801724137931036" style="stroke: rgb(105, 165, 191);"></path><path d="M5,390.4364224137939C481.25,390.4364224137939,481.25,264.80603448275855,957.5,264.80603448275855" stroke-width="12.801724137931036" style="stroke: rgb(105, 156, 191);"></path><path d="M5,308.5614224137939C481.25,308.5614224137939,481.25,252.0043103448275,957.5,252.0043103448275" stroke-width="12.801724137931036" style="stroke: rgb(105, 148, 191);"></path><path d="M5,199.48275862069016C481.25,199.48275862069016,481.25,448.16271551724196,957.5,448.16271551724196" stroke-width="12.801724137931036" style="stroke: rgb(105, 139, 191);"></path><path d="M5,176.681034482759C481.25,176.681034482759,481.25,435.3609913793109,957.5,435.3609913793109" stroke-width="12.801724137931036" style="stroke: rgb(105, 131, 191);"></path><path d="M5,153.87931034482773C481.25,153.87931034482773,481.25,239.20258620689646,957.5,239.20258620689646" stroke-width="12.801724137931036" style="stroke: rgb(105, 122, 191);"></path><path d="M5,131.07758620689657C481.25,131.07758620689657,481.25,661.6540948275867,957.5,661.6540948275867" stroke-width="12.801724137931036" style="stroke: rgb(105, 114, 191);"></path><path d="M5,108.27586206896518C481.25,108.27586206896518,481.25,226.4008620689654,957.5,226.4008620689654" stroke-width="12.801724137931036" style="stroke: rgb(105, 105, 191);"></path><path d="M5,49.87068965517215C481.25,49.87068965517215,481.25,875.4148706896557,957.5,875.4148706896557" stroke-width="12.801724137931036" style="stroke: rgb(114, 105, 191);"></path><path d="M5,27.06896551724099C481.25,27.06896551724099,481.25,648.8523706896557,957.5,648.8523706896557" stroke-width="12.801724137931036" style="stroke: rgb(122, 105, 191);"></path><path d="M5,752.5996767241402C481.25,752.5996767241402,481.25,342.9498922413793,957.5,342.9498922413793" stroke-width="15.468750000000002" style="stroke: rgb(131, 105, 191);"></path><path d="M5,5.33405172413759C481.25,5.33405172413759,481.25,863.6799568965523,957.5,863.6799568965523" stroke-width="10.668103448275863" style="stroke: rgb(139, 105, 191);"></path><path d="M5,1481.9989224137933C481.25,1481.9989224137933,481.25,593.1142241379317,957.5,593.1142241379317" stroke-width="7.467672413793104" style="stroke: rgb(148, 105, 191);"></path><path d="M5,775.1346982758644C481.25,775.1346982758644,481.25,713.9278017241386,957.5,713.9278017241386" stroke-width="9.601293103448278" style="stroke: rgb(156, 105, 191);"></path><path d="M5,1136.7618534482763C481.25,1136.7618534482763,481.25,780.6034482758628,957.5,780.6034482758628" stroke-width="6.400862068965518" style="stroke: rgb(165, 105, 191);"></path><path d="M5,679.3938577586227C481.25,679.3938577586227,481.25,699.2591594827592,957.5,699.2591594827592" stroke-width="19.735991379310345" style="stroke: rgb(174, 105, 191);"></path><path d="M5,660.1912715517262C481.25,660.1912715517262,481.25,463.8981681034489,957.5,463.8981681034489" stroke-width="18.66918103448276" style="stroke: rgb(174, 105, 191);"></path><path d="M5,636.5894396551745C481.25,636.5894396551745,481.25,685.1239224137937,957.5,685.1239224137937" stroke-width="8.53448275862069" style="stroke: rgb(182, 105, 191);"></path><path d="M5,1497.8663793103449C481.25,1497.8663793103449,481.25,846.2122844827593,957.5,846.2122844827593" stroke-width="4.267241379310345" style="stroke: rgb(191, 105, 191);"></path><path d="M5,793.6691810344848C481.25,793.6691810344848,481.25,722.4622844827592,957.5,722.4622844827592" stroke-width="7.467672413793104" style="stroke: rgb(191, 105, 182);"></path><path d="M962.5,319.4800646551723C1438.75,319.4800646551723,1438.75,451.2257543103444,1915,451.2257543103444" stroke-width="198.96012931034485" style="stroke: rgb(191, 105, 174);"></path><path d="M962.5,745.3987068965523C1438.75,745.3987068965523,1438.75,837.1443965517237,1915,837.1443965517237" stroke-width="205.89439655172416" style="stroke: rgb(191, 105, 165);"></path><path d="M962.5,868.4806034482765C1438.75,868.4806034482765,1438.75,260.134698275862,1915,260.134698275862" stroke-width="20.26939655172414" style="stroke: rgb(191, 105, 156);"></path><path d="M962.5,910.0862068965524C1438.75,910.0862068965524,1438.75,971.5624999999997,1915,971.5624999999997" stroke-width="62.941810344827594" style="stroke: rgb(191, 105, 156);"></path><path d="M962.5,1022.3653017241384C1438.75,1022.3653017241384,1438.75,306.00754310344814,1915,306.00754310344814" stroke-width="71.47629310344828" style="stroke: rgb(191, 105, 148);"></path><path d="M962.5,1169.0517241379316C1438.75,1169.0517241379316,1438.75,1139.0517241379307,1915,1139.0517241379307" stroke-width="221.89655172413796" style="stroke: rgb(191, 105, 148);"></path><path d="M962.5,964.0921336206902C1438.75,964.0921336206902,1438.75,1015.5684267241376,1915,1015.5684267241376" stroke-width="25.070043103448278" style="stroke: rgb(191, 105, 139);"></path><path d="M962.5,552.8421336206904C1438.75,552.8421336206904,1438.75,664.5878232758616,1915,664.5878232758616" stroke-width="88.01185344827587" style="stroke: rgb(191, 105, 131);"></path><path d="M962.5,463.8981681034488C1438.75,463.8981681034488,1438.75,585.6438577586204,1915,585.6438577586204" stroke-width="69.8760775862069" style="stroke: rgb(191, 105, 122);"></path><path d="M962.5,619.649784482759C1438.75,619.649784482759,1438.75,721.3954741379306,1915,721.3954741379306" stroke-width="25.60344827586207" style="stroke: rgb(191, 105, 114);"></path></g><g class="nodes" font-family="Arial, Helvetica" font-size="10"><g><rect x="957.5" y="219.9999999999999" height="198.9601293103455" width="5" fill="#000"></rect><text x="951.5" y="319.48006465517267" dy="0.35em" text-anchor="end">Asia</text></g><g><rect x="957.5" y="428.9601293103454" height="69.87607758620709" width="5" fill="#000"></rect><text x="951.5" y="463.89816810344894" dy="0.35em" text-anchor="end">Australia / Oceania</text></g><g><rect x="957.5" y="508.8362068965525" height="88.01185344827536" width="5" fill="#000"></rect><text x="951.5" y="552.8421336206902" dy="0.35em" text-anchor="end">Canada</text></g><g><rect x="957.5" y="606.8480603448279" height="25.60344827586232" width="5" fill="#000"></rect><text x="951.5" y="619.6497844827591" dy="0.35em" text-anchor="end">Central America</text></g><g><rect x="957.5" y="642.4515086206902" height="205.89439655172418" width="5" fill="#000"></rect><text x="951.5" y="745.3987068965523" dy="0.35em" text-anchor="end">Europe</text></g><g><rect x="957.5" y="858.3459051724144" height="83.21120689655163" width="5" fill="#000"></rect><text x="951.5" y="899.9515086206902" dy="0.35em" text-anchor="end">Mexico</text></g><g><rect x="957.5" y="951.557112068966" height="25.070043103448143" width="5" fill="#000"></rect><text x="951.5" y="964.0921336206901" dy="0.35em" text-anchor="end">Middle East</text></g><g><rect x="957.5" y="986.6271551724142" height="293.37284482758605" width="5" fill="#000"></rect><text x="951.5" y="1133.3135775862072" dy="0.35em" text-anchor="end">US</text></g><g><rect x="1915" y="249.9999999999999" height="91.7456896551721" width="5" fill="#000"></rect><text x="1909" y="295.87284482758594" dy="0.35em" text-anchor="end">Low Fare</text></g><g><rect x="1915" y="351.745689655172" height="898.2543103448281" width="5" fill="#000"></rect><text x="1909" y="800.872844827586" dy="0.35em" text-anchor="end">Other</text></g><g><rect x="0" y="-3.410605131648481e-13" height="10.668103448275815" width="5" fill="#000"></rect><text x="11" y="5.3340517241375665" dy="0.35em" text-anchor="start">ABC Aerolineas S.A. de C.V. dba Interjet</text></g><g><rect x="0" y="20.668103448275474" height="12.80172413793116" width="5" fill="#000"></rect><text x="11" y="27.068965517241054" dy="0.35em" text-anchor="start">Aer Lingus</text></g><g><rect x="0" y="43.469827586206634" height="12.80172413793116" width="5" fill="#000"></rect><text x="11" y="49.870689655172214" dy="0.35em" text-anchor="start">Aeromexico</text></g><g><rect x="0" y="66.2715517241378" height="25.603448275861865" width="5" fill="#000"></rect><text x="11" y="79.07327586206873" dy="0.35em" text-anchor="start">Air Canada</text></g><g><rect x="0" y="101.87499999999966" height="12.801724137931387" width="5" fill="#000"></rect><text x="11" y="108.27586206896535" dy="0.35em" text-anchor="start">Air China</text></g><g><rect x="0" y="124.67672413793105" height="12.80172413793116" width="5" fill="#000"></rect><text x="11" y="131.07758620689663" dy="0.35em" text-anchor="start">Air France</text></g><g><rect x="0" y="147.4784482758622" height="12.801724137931274" width="5" fill="#000"></rect><text x="11" y="153.87931034482784" dy="0.35em" text-anchor="start">Air India Limited</text></g><g><rect x="0" y="170.28017241379348" height="12.80172413793116" width="5" fill="#000"></rect><text x="11" y="176.68103448275906" dy="0.35em" text-anchor="start">Air New Zealand</text></g><g><rect x="0" y="193.08189655172464" height="12.80172413793116" width="5" fill="#000"></rect><text x="11" y="199.48275862069022" dy="0.35em" text-anchor="start">Air Pacific Limited dba Fiji Airways</text></g><g><rect x="0" y="215.8836206896558" height="76.27693965517255" width="5" fill="#000"></rect><text x="11" y="254.02209051724208" dy="0.35em" text-anchor="start">Alaska Airlines</text></g><g><rect x="0" y="302.16056034482835" height="12.80172413793116" width="5" fill="#000"></rect><text x="11" y="308.56142241379393" dy="0.35em" text-anchor="start">All Nippon Airways</text></g><g><rect x="0" y="324.9622844827595" height="49.07327586206884" width="5" fill="#000"></rect><text x="11" y="349.49892241379393" dy="0.35em" text-anchor="start">American Airlines</text></g><g><rect x="0" y="384.03556034482835" height="12.80172413793116" width="5" fill="#000"></rect><text x="11" y="390.43642241379393" dy="0.35em" text-anchor="start">Asiana Airlines</text></g><g><rect x="0" y="406.8372844827595" height="12.801724137930933" width="5" fill="#000"></rect><text x="11" y="413.238146551725" dy="0.35em" text-anchor="start">British Airways</text></g><g><rect x="0" y="452.44073275862183" height="12.80172413793116" width="5" fill="#000"></rect><text x="11" y="458.8415948275874" dy="0.35em" text-anchor="start">Cathay Pacific</text></g><g><rect x="0" y="475.242456896553" height="12.80172413793116" width="5" fill="#000"></rect><text x="11" y="481.6433189655186" dy="0.35em" text-anchor="start">China Airlines</text></g><g><rect x="0" y="498.04418103448415" height="12.80172413793116" width="5" fill="#000"></rect><text x="11" y="504.44504310344973" dy="0.35em" text-anchor="start">China Eastern</text></g><g><rect x="0" y="520.8459051724153" height="12.80172413793116" width="5" fill="#000"></rect><text x="11" y="527.2467672413809" dy="0.35em" text-anchor="start">China Southern</text></g><g><rect x="0" y="429.63900862069045" height="12.801724137931387" width="5" fill="#000"></rect><text x="11" y="436.03987068965614" dy="0.35em" text-anchor="start">COPA Airlines, Inc.</text></g><g><rect x="0" y="543.6476293103465" height="33.071120689655345" width="5" fill="#000"></rect><text x="11" y="560.1831896551741" dy="0.35em" text-anchor="start">Delta Air Lines</text></g><g><rect x="0" y="609.520474137933" height="12.80172413793116" width="5" fill="#000"></rect><text x="11" y="615.9213362068986" dy="0.35em" text-anchor="start">Emirates</text></g><g><rect x="0" y="586.7187500000018" height="12.80172413793116" width="5" fill="#000"></rect><text x="11" y="593.1196120689674" dy="0.35em" text-anchor="start">EVA Airways</text></g><g><rect x="0" y="632.3221982758641" height="8.534482758620697" width="5" fill="#000"></rect><text x="11" y="636.5894396551745" dy="0.35em" text-anchor="start">Finnair</text></g><g><rect x="0" y="650.8566810344848" height="38.405172413793025" width="5" fill="#000"></rect><text x="11" y="670.0592672413813" dy="0.35em" text-anchor="start">French Bee</text></g><g><rect x="0" y="699.2618534482779" height="12.80172413793116" width="5" fill="#000"></rect><text x="11" y="705.6627155172434" dy="0.35em" text-anchor="start">Frontier Airlines</text></g><g><rect x="0" y="722.063577586209" height="12.80172413793116" width="5" fill="#000"></rect><text x="11" y="728.4644396551746" dy="0.35em" text-anchor="start">Hawaiian Airlines</text></g><g><rect x="0" y="744.8653017241402" height="15.46875" width="5" fill="#000"></rect><text x="11" y="752.5996767241402" dy="0.35em" text-anchor="start">Hong Kong Airlines Limited</text></g><g><rect x="0" y="770.3340517241402" height="9.601293103448143" width="5" fill="#000"></rect><text x="11" y="775.1346982758643" dy="0.35em" text-anchor="start">Iberia</text></g><g><rect x="0" y="789.9353448275883" height="7.467672413793025" width="5" fill="#000"></rect><text x="11" y="793.6691810344848" dy="0.35em" text-anchor="start">Icelandair EHF</text></g><g><rect x="0" y="807.4030172413813" height="12.80172413793116" width="5" fill="#000"></rect><text x="11" y="813.8038793103469" dy="0.35em" text-anchor="start">Japan Airlines</text></g><g><rect x="0" y="830.2047413793125" height="22.403017241379075" width="5" fill="#000"></rect><text x="11" y="841.406250000002" dy="0.35em" text-anchor="start">JetBlue Airways</text></g><g><rect x="0" y="862.6077586206916" height="12.801724137930933" width="5" fill="#000"></rect><text x="11" y="869.008620689657" dy="0.35em" text-anchor="start">KLM Royal Dutch Airlines</text></g><g><rect x="0" y="885.4094827586225" height="12.801724137930933" width="5" fill="#000"></rect><text x="11" y="891.810344827588" dy="0.35em" text-anchor="start">Korean Air Lines</text></g><g><rect x="0" y="908.2112068965534" height="12.801724137930933" width="5" fill="#000"></rect><text x="11" y="914.6120689655189" dy="0.35em" text-anchor="start">Lufthansa German Airlines</text></g><g><rect x="0" y="931.0129310344844" height="12.80172413793116" width="5" fill="#000"></rect><text x="11" y="937.41379310345" dy="0.35em" text-anchor="start">Philippine Airlines</text></g><g><rect x="0" y="953.8146551724155" height="12.80172413793116" width="5" fill="#000"></rect><text x="11" y="960.2155172413811" dy="0.35em" text-anchor="start">Qantas Airways</text></g><g><rect x="0" y="976.6163793103467" height="12.801724137930933" width="5" fill="#000"></rect><text x="11" y="983.0172413793122" dy="0.35em" text-anchor="start">SAS Airlines</text></g><g><rect x="0" y="999.4181034482776" height="12.80172413793116" width="5" fill="#000"></rect><text x="11" y="1005.8189655172432" dy="0.35em" text-anchor="start">Singapore Airlines</text></g><g><rect x="0" y="1022.2198275862088" height="19.20258620689674" width="5" fill="#000"></rect><text x="11" y="1031.8211206896572" dy="0.35em" text-anchor="start">Southwest Airlines</text></g><g><rect x="0" y="1051.4224137931055" height="16.00215517241304" width="5" fill="#000"></rect><text x="11" y="1059.423491379312" dy="0.35em" text-anchor="start">Sun Country Airlines</text></g><g><rect x="0" y="1077.4245689655186" height="12.801724137930705" width="5" fill="#000"></rect><text x="11" y="1083.825431034484" dy="0.35em" text-anchor="start">Swiss International</text></g><g><rect x="0" y="1100.2262931034493" height="0.5334051724134952" width="5" fill="#000"></rect><text x="11" y="1100.492995689656" dy="0.35em" text-anchor="start">Swissport USA</text></g><g><rect x="0" y="1110.7596982758628" height="12.801724137930705" width="5" fill="#000"></rect><text x="11" y="1117.1605603448281" dy="0.35em" text-anchor="start">TACA</text></g><g><rect x="0" y="1133.5614224137935" height="6.40086206896558" width="5" fill="#000"></rect><text x="11" y="1136.7618534482763" dy="0.35em" text-anchor="start">Thomas Cook Airlines</text></g><g><rect x="0" y="1149.962284482759" height="12.801724137930933" width="5" fill="#000"></rect><text x="11" y="1156.3631465517246" dy="0.35em" text-anchor="start">Turkish Airlines</text></g><g><rect x="0" y="1172.76400862069" height="203.76077586206907" width="5" fill="#000"></rect><text x="11" y="1274.6443965517246" dy="0.35em" text-anchor="start">United Airlines</text></g><g><rect x="0" y="1386.524784482759" height="8.534482758620925" width="5" fill="#000"></rect><text x="11" y="1390.7920258620695" dy="0.35em" text-anchor="start">Virgin America</text></g><g><rect x="0" y="1405.05926724138" height="12.801724137930705" width="5" fill="#000"></rect><text x="11" y="1411.4601293103453" dy="0.35em" text-anchor="start">Virgin Atlantic</text></g><g><rect x="0" y="1427.8609913793107" height="12.801724137930933" width="5" fill="#000"></rect><text x="11" y="1434.2618534482763" dy="0.35em" text-anchor="start">Volaris Airlines</text></g><g><rect x="0" y="1478.2650862068967" height="7.467672413793025" width="5" fill="#000"></rect><text x="11" y="1481.9989224137933" dy="0.35em" text-anchor="start">WestJet Airlines</text></g><g><rect x="0" y="1450.6627155172416" height="17.602370689655118" width="5" fill="#000"></rect><text x="11" y="1459.4639008620693" dy="0.35em" text-anchor="start">WOW Air</text></g><g><rect x="0" y="1495.7327586206898" height="4.267241379310462" width="5" fill="#000"></rect><text x="11" y="1497.866379310345" dy="0.35em" text-anchor="start">XL Airways France</text></g></g></g></svg>